<svg width="340" height="92" viewBox="0 0 340 92" fill="none" xmlns="http://www.w3.org/2000/svg">
<path d="M313.718 91H26.2823C12.3203 91 1 82.0237 1 70.9526V40.2607C1 29.1896 12.3203 20.2133 26.2823 20.2133H313.718C327.68 20.2133 339 29.1896 339 40.2607V70.9526C339 82.0237 327.68 91 313.718 91Z" fill="url(#paint0_linear_10_34)"/>
<mask id="mask0_10_34" style="mask-type:luminance" maskUnits="userSpaceOnUse" x="1" y="20" width="338" height="71">
<path d="M313.718 91H26.2823C12.3203 91 1 82.0237 1 70.9526V40.2607C1 29.1896 12.3203 20.2133 26.2823 20.2133H313.718C327.68 20.2133 339 29.1896 339 40.2607V70.9526C339 82.0237 327.68 91 313.718 91Z" fill="white"/>
</mask>
<g mask="url(#mask0_10_34)">
<path d="M21.5008 -12.1516V141.564" stroke="black" stroke-width="1.0669" stroke-miterlimit="10"/>
<path d="M80.6781 -12.1516V141.564" stroke="black" stroke-width="1.0669" stroke-miterlimit="10"/>
<path d="M139.855 -12.1516V141.564" stroke="black" stroke-width="1.0669" stroke-miterlimit="10"/>
<path d="M199.027 -12.1516V141.564" stroke="black" stroke-width="1.0669" stroke-miterlimit="10"/>
<path d="M258.204 -12.1516V141.564" stroke="black" stroke-width="1.0669" stroke-miterlimit="10"/>
<path d="M317.382 -12.1516V141.564" stroke="black" stroke-width="1.0669" stroke-miterlimit="10"/>
</g>
<path d="M313.718 91H26.2823C12.3203 91 1 82.0237 1 70.9526V40.2607C1 29.1896 12.3203 20.2133 26.2823 20.2133H313.718C327.68 20.2133 339 29.1896 339 40.2607V70.9526C339 82.0237 327.68 91 313.718 91Z" stroke="black" stroke-width="1.0669" stroke-miterlimit="10"/>
<path d="M313.718 80.8863H26.2823C12.3203 80.8863 1 71.91 1 60.8389V30.1469C1 19.0759 12.3203 10.0995 26.2823 10.0995H313.718C327.68 10.0995 339 19.0759 339 30.1469V60.8389C339 71.91 327.68 80.8863 313.718 80.8863Z" fill="url(#paint1_linear_10_34)"/>
<mask id="mask1_10_34" style="mask-type:luminance" maskUnits="userSpaceOnUse" x="1" y="10" width="338" height="71">
<path d="M313.718 80.8863H26.2823C12.3203 80.8863 1 71.91 1 60.8389V30.1469C1 19.0759 12.3203 10.0995 26.2823 10.0995H313.718C327.68 10.0995 339 19.0759 339 30.1469V60.8389C339 71.91 327.68 80.8863 313.718 80.8863Z" fill="white"/>
</mask>
<g mask="url(#mask1_10_34)">
<path d="M21.5008 -22.2606V131.45" stroke="black" stroke-width="1.0669" stroke-miterlimit="10"/>
<path d="M80.6781 -22.2606V131.45" stroke="black" stroke-width="1.0669" stroke-miterlimit="10"/>
<path d="M139.855 -22.2606V131.45" stroke="black" stroke-width="1.0669" stroke-miterlimit="10"/>
<path d="M199.027 -22.2606V131.45" stroke="black" stroke-width="1.0669" stroke-miterlimit="10"/>
<path d="M258.204 -22.2606V131.45" stroke="black" stroke-width="1.0669" stroke-miterlimit="10"/>
<path d="M317.382 -22.2606V131.45" stroke="black" stroke-width="1.0669" stroke-miterlimit="10"/>
</g>
<path d="M313.718 80.8863H26.2823C12.3203 80.8863 1 71.91 1 60.8389V30.1469C1 19.0759 12.3203 10.0995 26.2823 10.0995H313.718C327.68 10.0995 339 19.0759 339 30.1469V60.8389C339 71.91 327.68 80.8863 313.718 80.8863Z" stroke="black" stroke-width="1.0669" stroke-miterlimit="10"/>
<path d="M313.718 71.7867H26.2823C12.3203 71.7867 1 62.8104 1 51.7393V21.0474C1 9.97631 12.3203 1 26.2823 1H313.718C327.68 1 339 9.97631 339 21.0474V51.7393C339 62.8104 327.68 71.7867 313.718 71.7867Z" fill="white" stroke="black" stroke-width="1.0669" stroke-miterlimit="10"/>
<path d="M49.0781 21.5078H41.0703V17.3672H61.5V21.5078H53.4922V46H49.0781V21.5078ZM64.5078 45.7656C63.2839 45.1406 62.3854 44.3333 61.8125 43.3438C61.1875 42.3021 60.875 41.1172 60.875 39.7891C60.875 38.3568 61.2396 37.1458 61.9688 36.1562C62.75 35.1146 63.7656 34.3203 65.0156 33.7734C66.2917 33.2266 67.724 32.9531 69.3125 32.9531C70.4844 32.9531 71.5651 33.0703 72.5547 33.3047C73.6224 33.5651 74.4036 33.8255 74.8984 34.0859V32.9922C74.8984 31.6901 74.4167 30.6354 73.4531 29.8281C72.4896 29.0208 71.2526 28.6172 69.7422 28.6172C68.6484 28.6172 67.6589 28.8385 66.7734 29.2812C65.862 29.724 65.1198 30.362 64.5469 31.1953L61.5781 28.9297C62.4896 27.6797 63.6615 26.7031 65.0938 26C66.526 25.2969 68.1146 24.9453 69.8594 24.9453C72.8021 24.9453 75.0807 25.6745 76.6953 27.1328C78.3099 28.5911 79.1172 30.6224 79.1172 33.2266V46H74.8984V43.4609H74.6641C74.0391 44.3984 73.2057 45.1536 72.1641 45.7266C71.0443 46.3255 69.7943 46.625 68.4141 46.625C66.9297 46.625 65.6276 46.3385 64.5078 45.7656ZM72.125 42.3281C72.9583 41.8594 73.6354 41.1693 74.1562 40.2578C74.651 39.3724 74.8984 38.4219 74.8984 37.4062C74.2474 36.9896 73.5182 36.6901 72.7109 36.5078C71.8255 36.2995 70.9531 36.1953 70.0938 36.1953C68.4531 36.1953 67.2292 36.5339 66.4219 37.2109C65.6146 37.888 65.2109 38.7604 65.2109 39.8281C65.2109 40.7656 65.5755 41.5599 66.3047 42.2109C66.9818 42.8099 67.9453 43.1094 69.1953 43.1094C70.237 43.1094 71.2135 42.849 72.125 42.3281ZM83.8828 17.3672H88.1797V34.1641H88.3359L96.8125 25.6094H102.203V25.8438L94.3125 33.6953L102.477 45.7656V46H97.3594L91.2656 36.625L88.1797 39.7109V46H83.8828V17.3672ZM113.844 46.625C111.839 46.625 110.055 46.1693 108.492 45.2578C106.93 44.3464 105.693 43.0573 104.781 41.3906C103.896 39.776 103.453 37.9271 103.453 35.8438C103.453 33.9167 103.883 32.1068 104.742 30.4141C105.602 28.7214 106.812 27.3932 108.375 26.4297C109.964 25.4401 111.708 24.9453 113.609 24.9453C115.641 24.9453 117.411 25.401 118.922 26.3125C120.458 27.25 121.604 28.474 122.359 29.9844C123.141 31.5469 123.531 33.3438 123.531 35.375C123.531 35.7396 123.505 36.1823 123.453 36.7031H107.672C107.88 38.6823 108.583 40.1927 109.781 41.2344C110.979 42.276 112.372 42.7969 113.961 42.7969C115.237 42.7969 116.357 42.4974 117.32 41.8984C118.284 41.2995 119.039 40.5052 119.586 39.5156L123.141 41.2344C122.203 42.901 120.953 44.2292 119.391 45.2188C117.88 46.1562 116.031 46.625 113.844 46.625ZM119.234 33.4609C119.208 32.7057 118.974 31.9635 118.531 31.2344C118.115 30.5312 117.49 29.9193 116.656 29.3984C115.849 28.9036 114.846 28.6562 113.648 28.6562C112.164 28.6562 110.94 29.0859 109.977 29.9453C109.013 30.8047 108.336 31.9766 107.945 33.4609H119.234ZM136.812 25.6094H140.875V28.3828H141.109C141.734 27.3672 142.607 26.5469 143.727 25.9219C144.898 25.2708 146.122 24.9453 147.398 24.9453C148.857 24.9453 150.133 25.2969 151.227 26C152.32 26.7031 153.102 27.6276 153.57 28.7734C154.273 27.6276 155.211 26.7031 156.383 26C157.555 25.2969 158.922 24.9453 160.484 24.9453C162.828 24.9453 164.599 25.6615 165.797 27.0938C166.995 28.526 167.594 30.4661 167.594 32.9141V46H163.297V33.6562C163.297 30.5052 161.969 28.9297 159.312 28.9297C157.854 28.9297 156.656 29.5156 155.719 30.6875C154.807 31.8333 154.352 33.2917 154.352 35.0625V46H150.055V33.6562C150.055 30.5052 148.688 28.9297 145.953 28.9297C144.521 28.9297 143.362 29.5156 142.477 30.6875C141.565 31.8854 141.109 33.3568 141.109 35.1016V46H136.812V25.6094ZM181.812 46.625C179.807 46.625 178.023 46.1693 176.461 45.2578C174.898 44.3464 173.661 43.0573 172.75 41.3906C171.865 39.776 171.422 37.9271 171.422 35.8438C171.422 33.9167 171.852 32.1068 172.711 30.4141C173.57 28.7214 174.781 27.3932 176.344 26.4297C177.932 25.4401 179.677 24.9453 181.578 24.9453C183.609 24.9453 185.38 25.401 186.891 26.3125C188.427 27.25 189.573 28.474 190.328 29.9844C191.109 31.5469 191.5 33.3438 191.5 35.375C191.5 35.7396 191.474 36.1823 191.422 36.7031H175.641C175.849 38.6823 176.552 40.1927 177.75 41.2344C178.948 42.276 180.341 42.7969 181.93 42.7969C183.206 42.7969 184.326 42.4974 185.289 41.8984C186.253 41.2995 187.008 40.5052 187.555 39.5156L191.109 41.2344C190.172 42.901 188.922 44.2292 187.359 45.2188C185.849 46.1562 184 46.625 181.812 46.625ZM187.203 33.4609C187.177 32.7057 186.943 31.9635 186.5 31.2344C186.083 30.5312 185.458 29.9193 184.625 29.3984C183.818 28.9036 182.815 28.6562 181.617 28.6562C180.133 28.6562 178.909 29.0859 177.945 29.9453C176.982 30.8047 176.305 31.9766 175.914 33.4609H187.203ZM204.781 17.3672H209.078V25.2188L208.844 28.3828H209.078C209.677 27.3672 210.549 26.5469 211.695 25.9219C212.919 25.2708 214.195 24.9453 215.523 24.9453C218.023 24.9453 219.911 25.6875 221.188 27.1719C222.516 28.7083 223.18 30.6875 223.18 33.1094V46H218.883V33.6953C218.883 32.0547 218.466 30.8568 217.633 30.1016C216.773 29.3203 215.693 28.9297 214.391 28.9297C213.401 28.9297 212.503 29.2161 211.695 29.7891C210.888 30.362 210.25 31.1302 209.781 32.0938C209.312 33.0833 209.078 34.0859 209.078 35.1016V46H204.781V17.3672ZM232.125 45.2188C230.536 44.3073 229.273 43.0052 228.336 41.3125C227.424 39.6458 226.969 37.8099 226.969 35.8047C226.969 33.7995 227.424 31.9635 228.336 30.2969C229.273 28.6042 230.536 27.3021 232.125 26.3906C233.818 25.4271 235.654 24.9453 237.633 24.9453C239.69 24.9453 241.526 25.4271 243.141 26.3906C244.755 27.3542 246.018 28.6693 246.93 30.3359C247.841 32.0026 248.297 33.8255 248.297 35.8047C248.297 37.8099 247.841 39.6458 246.93 41.3125C246.018 42.9792 244.755 44.2812 243.141 45.2188C241.552 46.1562 239.716 46.625 237.633 46.625C235.602 46.625 233.766 46.1562 232.125 45.2188ZM240.797 41.8594C241.76 41.3125 242.542 40.5052 243.141 39.4375C243.714 38.3958 244 37.1849 244 35.8047C244 34.4245 243.714 33.2135 243.141 32.1719C242.542 31.1042 241.76 30.2969 240.797 29.75C239.833 29.2031 238.779 28.9297 237.633 28.9297C236.487 28.9297 235.432 29.2031 234.469 29.75C233.505 30.2969 232.724 31.1042 232.125 32.1719C231.526 33.2396 231.227 34.4505 231.227 35.8047C231.227 37.1589 231.526 38.3698 232.125 39.4375C232.724 40.5052 233.505 41.3125 234.469 41.8594C235.432 42.4062 236.487 42.6797 237.633 42.6797C238.779 42.6797 239.833 42.4062 240.797 41.8594ZM251.852 25.6094H255.914V28.3828H256.148C256.773 27.3672 257.646 26.5469 258.766 25.9219C259.938 25.2708 261.161 24.9453 262.438 24.9453C263.896 24.9453 265.172 25.2969 266.266 26C267.359 26.7031 268.141 27.6276 268.609 28.7734C269.312 27.6276 270.25 26.7031 271.422 26C272.594 25.2969 273.961 24.9453 275.523 24.9453C277.867 24.9453 279.638 25.6615 280.836 27.0938C282.034 28.526 282.633 30.4661 282.633 32.9141V46H278.336V33.6562C278.336 30.5052 277.008 28.9297 274.352 28.9297C272.893 28.9297 271.695 29.5156 270.758 30.6875C269.846 31.8333 269.391 33.2917 269.391 35.0625V46H265.094V33.6562C265.094 30.5052 263.727 28.9297 260.992 28.9297C259.56 28.9297 258.401 29.5156 257.516 30.6875C256.604 31.8854 256.148 33.3568 256.148 35.1016V46H251.852V25.6094ZM296.852 46.625C294.846 46.625 293.062 46.1693 291.5 45.2578C289.938 44.3464 288.701 43.0573 287.789 41.3906C286.904 39.776 286.461 37.9271 286.461 35.8438C286.461 33.9167 286.891 32.1068 287.75 30.4141C288.609 28.7214 289.82 27.3932 291.383 26.4297C292.971 25.4401 294.716 24.9453 296.617 24.9453C298.648 24.9453 300.419 25.401 301.93 26.3125C303.466 27.25 304.612 28.474 305.367 29.9844C306.148 31.5469 306.539 33.3438 306.539 35.375C306.539 35.7396 306.513 36.1823 306.461 36.7031H290.68C290.888 38.6823 291.591 40.1927 292.789 41.2344C293.987 42.276 295.38 42.7969 296.969 42.7969C298.245 42.7969 299.365 42.4974 300.328 41.8984C301.292 41.2995 302.047 40.5052 302.594 39.5156L306.148 41.2344C305.211 42.901 303.961 44.2292 302.398 45.2188C300.888 46.1562 299.039 46.625 296.852 46.625ZM302.242 33.4609C302.216 32.7057 301.982 31.9635 301.539 31.2344C301.122 30.5312 300.497 29.9193 299.664 29.3984C298.857 28.9036 297.854 28.6562 296.656 28.6562C295.172 28.6562 293.948 29.0859 292.984 29.9453C292.021 30.8047 291.344 31.9766 290.953 33.4609H302.242Z" fill="black"/>
<defs>
<linearGradient id="paint0_linear_10_34" x1="1.0003" y1="55.606" x2="339.002" y2="55.606" gradientUnits="userSpaceOnUse">
<stop stop-color="#34A853"/>
<stop offset="0.0744" stop-color="#34A853"/>
<stop offset="0.2722" stop-color="#428EFF"/>
<stop offset="0.3443" stop-color="#428EFF"/>
<stop offset="0.4839" stop-color="#9F6CD4"/>
<stop offset="0.6148" stop-color="#EA4335"/>
<stop offset="0.7061" stop-color="#EA4335"/>
<stop offset="0.7989" stop-color="#F46831"/>
<stop offset="0.901" stop-color="#FFCB32"/>
<stop offset="1" stop-color="#FFCB32"/>
</linearGradient>
<linearGradient id="paint1_linear_10_34" x1="1.0003" y1="45.4932" x2="339.002" y2="45.4932" gradientUnits="userSpaceOnUse">
<stop stop-color="#34A853"/>
<stop offset="0.0744" stop-color="#34A853"/>
<stop offset="0.2722" stop-color="#428EFF"/>
<stop offset="0.3443" stop-color="#428EFF"/>
<stop offset="0.4839" stop-color="#9F6CD4"/>
<stop offset="0.6148" stop-color="#EA4335"/>
<stop offset="0.7061" stop-color="#EA4335"/>
<stop offset="0.7989" stop-color="#F46831"/>
<stop offset="0.901" stop-color="#FFCB32"/>
<stop offset="1" stop-color="#FFCB32"/>
</linearGradient>
</defs>
</svg>
