<svg width="45" height="54" viewBox="0 0 45 54" fill="none" xmlns="http://www.w3.org/2000/svg">
<circle cx="22.5" cy="22.5" r="22.5" fill="#4285F4"/>
<path d="M29.2882 22.4133C29.2011 22.5007 29.0977 22.5701 28.9837 22.6174C28.8697 22.6647 28.7476 22.6891 28.6242 22.6891C28.5008 22.6891 28.3786 22.6647 28.2647 22.6174C28.1507 22.5701 28.0472 22.5007 27.9601 22.4133L23.9375 18.3907V29.875C23.9375 30.1237 23.8387 30.3621 23.6629 30.5379C23.4871 30.7138 23.2486 30.8125 23 30.8125C22.7513 30.8125 22.5129 30.7138 22.3371 30.5379C22.1612 30.3621 22.0625 30.1237 22.0625 29.875V18.3907L18.0382 22.4133C17.8621 22.5894 17.6233 22.6884 17.3742 22.6884C17.1251 22.6884 16.8862 22.5894 16.7101 22.4133C16.534 22.2372 16.4351 21.9983 16.4351 21.7493C16.4351 21.5002 16.534 21.2613 16.7101 21.0852L22.3351 15.4602C22.4222 15.3728 22.5257 15.3034 22.6397 15.2561C22.7536 15.2088 22.8758 15.1844 22.9992 15.1844C23.1226 15.1844 23.2447 15.2088 23.3587 15.2561C23.4727 15.3034 23.5762 15.3728 23.6632 15.4602L29.2882 21.0852C29.3756 21.1723 29.445 21.2758 29.4923 21.3897C29.5396 21.5037 29.564 21.6259 29.564 21.7493C29.564 21.8726 29.5396 21.9948 29.4923 22.1088C29.445 22.2227 29.3756 22.3262 29.2882 22.4133Z" fill="white"/>
<ellipse opacity="0.8" cx="22.5" cy="49.5" rx="22.5" ry="4.5" fill="url(#paint0_radial_732_265)"/>
<defs>
<radialGradient id="paint0_radial_732_265" cx="0" cy="0" r="1" gradientUnits="userSpaceOnUse" gradientTransform="translate(22.5 49.5) scale(22.5 4.5)">
<stop offset="0.201" stop-color="#737373" stop-opacity="0.4"/>
<stop offset="1" stop-color="#D9D9D9" stop-opacity="0"/>
</radialGradient>
</defs>
</svg>
