<svg width="76" height="31" viewBox="0 0 76 31" fill="none" xmlns="http://www.w3.org/2000/svg">
<g clip-path="url(#clip0_307_530)">
<path d="M26.634 10.476H30.386C30.918 10.476 31.408 10.602 31.87 10.826C32.318 11.064 32.682 11.386 32.948 11.792C33.214 12.198 33.354 12.646 33.354 13.136C33.354 13.64 33.228 14.074 32.976 14.438C32.724 14.802 32.402 15.082 31.996 15.278V15.348C32.514 15.53 32.934 15.824 33.242 16.23C33.55 16.65 33.704 17.126 33.704 17.686C33.704 18.246 33.55 18.736 33.27 19.156C32.99 19.576 32.598 19.912 32.122 20.15C31.646 20.388 31.114 20.5 30.554 20.5H26.634V10.476ZM30.316 14.69C30.778 14.69 31.156 14.55 31.436 14.27C31.716 13.99 31.856 13.654 31.856 13.276C31.856 12.912 31.716 12.59 31.436 12.31C31.156 12.03 30.806 11.89 30.372 11.89H28.174V14.69H30.316ZM30.554 19.072C31.03 19.072 31.422 18.932 31.716 18.638C32.01 18.344 32.164 17.994 32.164 17.574C32.164 17.168 32.01 16.818 31.702 16.51C31.394 16.216 31.002 16.062 30.498 16.062H28.174V19.072H30.554ZM35.3977 10.476H36.9377V20.5H35.3977V10.476ZM41.1057 20.024C40.3077 19.562 39.6777 18.932 39.2297 18.134C38.7817 17.336 38.5577 16.454 38.5577 15.488C38.5577 14.536 38.7817 13.654 39.2297 12.856C39.6777 12.058 40.3077 11.428 41.1057 10.952C41.8897 10.49 42.7717 10.252 43.7517 10.252C44.7177 10.252 45.5997 10.49 46.3837 10.952C47.1677 11.428 47.7977 12.058 48.2457 12.856C48.6937 13.654 48.9317 14.536 48.9317 15.488C48.9317 16.454 48.6937 17.336 48.2457 18.134C47.7977 18.932 47.1677 19.562 46.3837 20.024C45.5997 20.5 44.7177 20.724 43.7517 20.724C42.7717 20.724 41.8897 20.5 41.1057 20.024ZM45.5857 18.792C46.1457 18.47 46.5797 18.022 46.9017 17.448C47.2237 16.874 47.3917 16.216 47.3917 15.488C47.3917 14.76 47.2237 14.116 46.9017 13.542C46.5797 12.968 46.1457 12.52 45.5857 12.198C45.0257 11.876 44.4237 11.708 43.7517 11.708C43.0797 11.708 42.4637 11.876 41.9037 12.198C41.3437 12.52 40.9097 12.968 40.5877 13.542C40.2657 14.116 40.1117 14.76 40.1117 15.488C40.1117 16.216 40.2657 16.874 40.5877 17.448C40.9097 18.022 41.3437 18.47 41.9037 18.792C42.4637 19.114 43.0797 19.268 43.7517 19.268C44.4237 19.268 45.0257 19.114 45.5857 18.792Z" fill="#202124"/>
</g>
<rect x="1" y="1" width="74" height="29" rx="14.5" stroke="url(#paint0_linear_307_530)" stroke-width="2"/>
<defs>
<linearGradient id="paint0_linear_307_530" x1="0" y1="15.5" x2="76" y2="15.5" gradientUnits="userSpaceOnUse">
<stop stop-color="#4285F4"/>
<stop offset="0.246732" stop-color="#4285F4"/>
<stop offset="0.502383" stop-color="#9F6CD4"/>
<stop offset="0.758034" stop-color="#EA4335"/>
<stop offset="1" stop-color="#EA4335"/>
</linearGradient>
<clipPath id="clip0_307_530">
<rect width="76" height="31" rx="15.5" fill="white"/>
</clipPath>
</defs>
</svg>
