<svg width="428" height="287" viewBox="0 0 428 287" fill="none" xmlns="http://www.w3.org/2000/svg">
<path d="M0.429993 280.32H27.13V286.99H0.429993V280.32ZM93.86 280.32H107.21V286.99H93.86V280.32ZM320.79 280.32H347.49V286.99H320.79V280.32ZM267.39 140.16H254.04V186.88H240.7V206.9H227.35V220.25H214V273.64H227.35V286.99H200.65V246.95H187.3V233.6H173.95V246.95H160.6V260.3H147.25V273.65H160.6V287H133.9V233.61H120.55V220.26H107.2V206.91H93.85V193.56H80.5V180.21H67.15V100.12H80.5V126.82H93.85V140.17H107.2V153.52H133.9V140.17H147.25V126.82H167.27V113.47H187.29V100.12H200.64V13.35H214V0H320.79V13.35H334.14V73.42H267.4V86.77H307.45V100.12H254.06V126.82H280.76V153.52H267.41V140.16H267.39ZM274.07 273.65H280.74V280.32H274.07V273.65ZM40.47 260.3H67.17V266.97H40.47V260.3ZM367.51 253.63H387.53V260.3H367.51V253.63ZM0.429993 233.6H107.22V240.27H0.429993V233.6ZM240.7 233.6H427.58V240.27H240.7V233.6ZM227.35 20.03V33.38H240.7V20.03H227.35Z" fill="#535353"/>
</svg>
