<svg width="154" height="54" viewBox="0 0 154 54" fill="none" xmlns="http://www.w3.org/2000/svg">
<rect x="1.5" y="1.5" width="151" height="51" rx="25.5" stroke="url(#paint0_linear_670_885)" stroke-width="3"/>
<path d="M30.592 15.088H44.48V18.416H34.112V25.136H43.456V28.464H34.112V38H30.592V15.088ZM47.6723 15.088H51.1283V38H47.6723V15.088ZM56.6115 36.752C55.5875 35.568 55.0755 33.904 55.0755 31.792V21.68H58.5315V31.312C58.5315 32.656 58.8195 33.648 59.4595 34.32C60.0675 35.024 60.8995 35.344 61.9555 35.344C62.7875 35.344 63.5555 35.12 64.2275 34.672C64.8675 34.224 65.3795 33.648 65.7315 32.88C66.0835 32.144 66.2755 31.344 66.2755 30.448V21.68H69.6995V38H66.4675V35.792H66.2755C65.7955 36.592 65.0915 37.232 64.1635 37.744C63.2035 38.256 62.2115 38.512 61.1235 38.512C59.1395 38.512 57.6355 37.936 56.6115 36.752ZM78.5623 37.936C77.9223 37.712 77.4103 37.392 77.0263 36.976C76.0983 36.112 75.6503 34.864 75.6503 33.264V24.688H72.8023V21.68H75.6503V17.072H79.1063V21.68H85.8583V17.072H89.3143V21.68H93.3143V24.688H89.3143V32.528C89.3143 33.424 89.4743 34.032 89.8583 34.416C90.2103 34.832 90.7543 35.024 91.5223 35.024C91.8743 35.024 92.1943 34.992 92.4823 34.896C92.7383 34.8 93.0583 34.64 93.4103 34.416V37.776C92.6743 38.096 91.8103 38.256 90.8503 38.256C90.0823 38.256 89.4103 38.16 88.8022 37.936C88.1623 37.712 87.6503 37.392 87.2343 36.976C86.3063 36.112 85.8583 34.864 85.8583 33.264V24.688H79.1063V32.528C79.1063 33.424 79.2663 34.064 79.6183 34.416C79.9703 34.832 80.5143 35.024 81.2503 35.024C81.5703 35.024 81.8583 34.992 82.1143 34.896C82.3703 34.832 82.6263 34.704 82.9463 34.512V37.84C82.2423 38.128 81.4743 38.256 80.6103 38.256C79.8743 38.256 79.2023 38.16 78.5623 37.936ZM99.2153 37.392C97.9353 36.656 96.9433 35.632 96.2393 34.32C95.5353 33.008 95.1833 31.536 95.1833 29.872C95.1833 28.336 95.5033 26.896 96.2073 25.552C96.9113 24.208 97.8713 23.152 99.1193 22.352C100.335 21.584 101.743 21.168 103.311 21.168C104.943 21.168 106.351 21.552 107.567 22.256C108.751 22.96 109.647 23.952 110.287 25.2C110.927 26.48 111.247 27.888 111.247 29.488C111.247 29.936 111.215 30.288 111.183 30.576H98.5753C98.7033 32.144 99.2793 33.36 100.239 34.192C101.199 35.024 102.319 35.44 103.599 35.44C104.623 35.44 105.519 35.216 106.287 34.736C107.023 34.256 107.631 33.616 108.079 32.816L110.927 34.192C110.159 35.536 109.167 36.592 107.951 37.36C106.703 38.128 105.231 38.512 103.503 38.512C101.903 38.512 100.495 38.16 99.2153 37.392ZM107.823 27.984C107.759 27.408 107.567 26.8 107.247 26.192C106.895 25.616 106.383 25.104 105.743 24.72C105.103 24.336 104.303 24.112 103.343 24.112C102.191 24.112 101.199 24.464 100.399 25.168C99.5993 25.872 99.0553 26.832 98.7673 27.984H107.823ZM114.454 21.68H117.718V24.08H117.91C118.262 23.248 118.87 22.576 119.766 22.032C120.661 21.488 121.622 21.2 122.646 21.2C123.382 21.2 124.054 21.328 124.63 21.52V25.104C123.734 24.72 122.902 24.528 122.102 24.528C120.885 24.528 119.862 25.008 119.094 25.936C118.294 26.896 117.91 28.016 117.91 29.36V38H114.454V21.68Z" fill="#202124"/>
<defs>
<linearGradient id="paint0_linear_670_885" x1="197.571" y1="-17.4587" x2="-17.2555" y2="90.3186" gradientUnits="userSpaceOnUse">
<stop offset="0.306666" stop-color="#4285F4"/>
<stop offset="0.813373" stop-color="#9F6CD4"/>
</linearGradient>
</defs>
</svg>
