<svg width="307" height="70" viewBox="0 0 307 70" fill="none" xmlns="http://www.w3.org/2000/svg">
<rect x="1" y="1" width="305" height="68" rx="34" fill="#202124"/>
<rect x="1" y="1" width="305" height="68" rx="34" stroke="url(#paint0_linear_502_4918)" stroke-width="2"/>
<path d="M73.7724 32.4904L73.7742 32.4923C75.5578 34.2968 75.5408 37.2072 73.7293 38.9922L63.7678 48.7788C63.7676 48.7789 63.7675 48.779 63.7674 48.7791C61.9518 50.5559 59.0208 50.539 57.2248 48.7353C55.4423 46.9307 55.4596 44.0212 57.2705 42.2366C57.2705 42.2366 57.2706 42.2365 57.2707 42.2364L63.3877 36.2254L64.0114 35.6126L63.4168 34.9715L57.5244 28.6179C57.5239 28.6174 57.5235 28.617 57.5231 28.6165C55.8001 26.7406 55.9141 23.8376 57.7903 22.118C59.6715 20.3937 62.5876 20.515 64.3207 22.3877L64.3211 22.3881L73.2609 32.0356L73.3067 32.085L73.3593 32.127C73.5176 32.2535 73.6586 32.3747 73.7724 32.4904Z" fill="url(#paint1_linear_502_4918)" stroke="white" stroke-width="1.8" stroke-miterlimit="10"/>
<path d="M26.592 20.656H33.76V23.504H29.856V47.12H33.76V49.968H26.592V20.656Z" fill="white"/>
<path d="M92.184 47.12H96.12V23.504H92.184V20.656H99.384V49.968H92.184V47.12Z" fill="white"/>
<path d="M116.594 23.0938H124.625C126.021 23.0938 127.271 23.3854 128.375 23.9688C129.479 24.5521 130.365 25.3854 131.031 26.4688C131.698 27.5521 132.031 28.7604 132.031 30.0938C132.031 31.6354 131.531 33 130.531 34.1875C129.531 35.375 128.292 36.1667 126.812 36.5625L126.781 36.7188L133.062 45.8125V46H129L122.906 37H120.125V46H116.594V23.0938ZM124.531 33.7812C125.656 33.7812 126.583 33.4271 127.312 32.7188C128.083 31.9896 128.469 31.1042 128.469 30.0625C128.469 29.1042 128.125 28.25 127.438 27.5C126.75 26.75 125.823 26.375 124.656 26.375H120.125V33.7812H124.531ZM136.094 23.0938H149.969V26.4062H139.625V32.875H148.969V36.2188H139.625V42.6875H149.969V46H136.094V23.0938ZM154.375 23.0938H161.688C164.104 23.0938 166.177 23.5729 167.906 24.5312C169.719 25.5312 171.073 26.875 171.969 28.5625C172.906 30.3125 173.375 32.3021 173.375 34.5312C173.375 36.7604 172.906 38.75 171.969 40.5C171.052 42.2292 169.698 43.5833 167.906 44.5625C166.177 45.5208 164.104 46 161.688 46H154.375V23.0938ZM161.594 42.6875C164.177 42.6875 166.198 41.9583 167.656 40.5C169.115 39.0417 169.844 37.0521 169.844 34.5312C169.844 32.0104 169.115 30.0208 167.656 28.5625C166.219 27.125 164.198 26.4062 161.594 26.4062H157.906V42.6875H161.594ZM184.844 23.0938H192.875C194.271 23.0938 195.521 23.3854 196.625 23.9688C197.729 24.5521 198.615 25.3854 199.281 26.4688C199.948 27.5521 200.281 28.7604 200.281 30.0938C200.281 31.6354 199.781 33 198.781 34.1875C197.781 35.375 196.542 36.1667 195.062 36.5625L195.031 36.7188L201.312 45.8125V46H197.25L191.156 37H188.375V46H184.844V23.0938ZM192.781 33.7812C193.906 33.7812 194.833 33.4271 195.562 32.7188C196.333 31.9896 196.719 31.1042 196.719 30.0625C196.719 29.1042 196.375 28.25 195.688 27.5C195 26.75 194.073 26.375 192.906 26.375H188.375V33.7812H192.781ZM209 44.9062C207.229 43.8646 205.812 42.4167 204.75 40.5625C203.708 38.7292 203.188 36.7188 203.188 34.5312C203.188 32.3438 203.708 30.3333 204.75 28.5C205.792 26.6875 207.208 25.25 209 24.1875C210.854 23.1042 212.875 22.5625 215.062 22.5625C217.229 22.5625 219.24 23.1042 221.094 24.1875C222.885 25.25 224.302 26.6875 225.344 28.5C226.385 30.3333 226.906 32.3438 226.906 34.5312C226.906 36.7188 226.385 38.7292 225.344 40.5625C224.281 42.4167 222.865 43.8646 221.094 44.9062C219.281 45.9688 217.271 46.5 215.062 46.5C212.833 46.5 210.812 45.9688 209 44.9062ZM219.281 42.0938C220.51 41.3646 221.51 40.3333 222.281 39C223.01 37.7292 223.375 36.2396 223.375 34.5312C223.375 32.8438 223.01 31.3646 222.281 30.0938C221.51 28.7604 220.51 27.7292 219.281 27C218.031 26.2708 216.625 25.9062 215.062 25.9062C213.5 25.9062 212.094 26.2708 210.844 27C209.615 27.7292 208.615 28.7604 207.844 30.0938C207.115 31.3646 206.75 32.8438 206.75 34.5312C206.75 36.2396 207.115 37.7292 207.844 39C208.615 40.3333 209.615 41.3646 210.844 42.0938C212.094 42.8229 213.5 43.1875 215.062 43.1875C216.625 43.1875 218.031 42.8229 219.281 42.0938ZM235.281 44.9062C233.51 43.8646 232.094 42.4167 231.031 40.5625C229.99 38.7292 229.469 36.7188 229.469 34.5312C229.469 32.3438 229.99 30.3333 231.031 28.5C232.073 26.6875 233.49 25.25 235.281 24.1875C237.135 23.1042 239.156 22.5625 241.344 22.5625C243.51 22.5625 245.521 23.1042 247.375 24.1875C249.167 25.25 250.583 26.6875 251.625 28.5C252.667 30.3333 253.188 32.3438 253.188 34.5312C253.188 36.7188 252.667 38.7292 251.625 40.5625C250.562 42.4167 249.146 43.8646 247.375 44.9062C245.562 45.9688 243.552 46.5 241.344 46.5C239.115 46.5 237.094 45.9688 235.281 44.9062ZM245.562 42.0938C246.792 41.3646 247.792 40.3333 248.562 39C249.292 37.7292 249.656 36.2396 249.656 34.5312C249.656 32.8438 249.292 31.3646 248.562 30.0938C247.792 28.7604 246.792 27.7292 245.562 27C244.312 26.2708 242.906 25.9062 241.344 25.9062C239.781 25.9062 238.375 26.2708 237.125 27C235.896 27.7292 234.896 28.7604 234.125 30.0938C233.396 31.3646 233.031 32.8438 233.031 34.5312C233.031 36.2396 233.396 37.7292 234.125 39C234.896 40.3333 235.896 41.3646 237.125 42.0938C238.375 42.8229 239.781 43.1875 241.344 43.1875C242.906 43.1875 244.312 42.8229 245.562 42.0938ZM257.219 23.0938H261.938L268.656 40.5312H268.844L275.562 23.0938H280.281V46H276.844V33.0312L277.031 28.9688H276.844L270.156 46H267.375L260.688 28.9688H260.469L260.688 33.0312V46H257.219V23.0938Z" fill="white"/>
<defs>
<linearGradient id="paint0_linear_502_4918" x1="0" y1="35" x2="307" y2="35" gradientUnits="userSpaceOnUse">
<stop stop-color="#FFCB32"/>
<stop offset="0.285166" stop-color="#FFCB32"/>
<stop offset="0.542901" stop-color="#F46831"/>
<stop offset="0.772447" stop-color="#EA4335"/>
<stop offset="1" stop-color="#EA4335"/>
</linearGradient>
<linearGradient id="paint1_linear_502_4918" x1="55" y1="35.5" x2="76" y2="35.5" gradientUnits="userSpaceOnUse">
<stop stop-color="#FFCB32"/>
<stop offset="0.285166" stop-color="#FFCB32"/>
<stop offset="0.542901" stop-color="#F46831"/>
<stop offset="0.772447" stop-color="#EA4335"/>
<stop offset="1" stop-color="#EA4335"/>
</linearGradient>
</defs>
</svg>
