<svg width="184" height="70" viewBox="0 0 184 70" fill="none" xmlns="http://www.w3.org/2000/svg">
<rect x="1" y="1" width="182" height="68" rx="34" fill="#38A852"/>
<rect x="1" y="1" width="182" height="68" rx="34" stroke="white" stroke-width="2"/>
<path d="M66.592 23.088H75.168C76.384 23.088 77.504 23.376 78.56 23.888C79.584 24.432 80.416 25.168 81.024 26.096C81.632 27.024 81.952 28.048 81.952 29.168C81.952 30.32 81.664 31.312 81.088 32.144C80.512 32.976 79.776 33.616 78.848 34.064V34.224C80.032 34.64 80.992 35.312 81.696 36.24C82.4 37.2 82.752 38.288 82.752 39.568C82.752 40.848 82.4 41.968 81.76 42.928C81.12 43.888 80.224 44.656 79.136 45.2C78.048 45.744 76.832 46 75.552 46H66.592V23.088ZM75.008 32.72C76.064 32.72 76.928 32.4 77.568 31.76C78.208 31.12 78.528 30.352 78.528 29.488C78.528 28.656 78.208 27.92 77.568 27.28C76.928 26.64 76.128 26.32 75.136 26.32H70.112V32.72H75.008ZM75.552 42.736C76.64 42.736 77.536 42.416 78.208 41.744C78.88 41.072 79.232 40.272 79.232 39.312C79.232 38.384 78.88 37.584 78.176 36.88C77.472 36.208 76.576 35.856 75.424 35.856H70.112V42.736H75.552ZM86.6233 23.088H90.1433V46H86.6233V23.088ZM99.6703 44.912C97.8463 43.856 96.4062 42.416 95.3823 40.592C94.3583 38.768 93.8463 36.752 93.8463 34.544C93.8463 32.368 94.3583 30.352 95.3823 28.528C96.4062 26.704 97.8463 25.264 99.6703 24.176C101.462 23.12 103.478 22.576 105.718 22.576C107.926 22.576 109.942 23.12 111.734 24.176C113.526 25.264 114.966 26.704 115.99 28.528C117.014 30.352 117.558 32.368 117.558 34.544C117.558 36.752 117.014 38.768 115.99 40.592C114.966 42.416 113.526 43.856 111.734 44.912C109.942 46 107.926 46.512 105.718 46.512C103.478 46.512 101.462 46 99.6703 44.912ZM109.91 42.096C111.19 41.36 112.182 40.336 112.918 39.024C113.654 37.712 114.038 36.208 114.038 34.544C114.038 32.88 113.654 31.408 112.918 30.096C112.182 28.784 111.19 27.76 109.91 27.024C108.63 26.288 107.254 25.904 105.718 25.904C104.182 25.904 102.774 26.288 101.494 27.024C100.214 27.76 99.2223 28.784 98.4863 30.096C97.7503 31.408 97.3983 32.88 97.3983 34.544C97.3983 36.208 97.7503 37.712 98.4863 39.024C99.2223 40.336 100.214 41.36 101.494 42.096C102.774 42.832 104.182 43.184 105.718 43.184C107.254 43.184 108.63 42.832 109.91 42.096Z" fill="white"/>
</svg>
