<svg width="323" height="70" viewBox="0 0 323 70" fill="none" xmlns="http://www.w3.org/2000/svg">
<rect x="1" y="1" width="321" height="68" rx="34" fill="#202124"/>
<rect x="1" y="1" width="321" height="68" rx="34" stroke="url(#paint0_linear_502_4906)" stroke-width="2"/>
<path d="M26.592 20.656H33.76V23.504H29.856V47.12H33.76V49.968H26.592V20.656Z" fill="white"/>
<path d="M92.184 47.12H96.12V23.504H92.184V20.656H99.384V49.968H92.184V47.12Z" fill="white"/>
<path d="M73.4875 27.952C74.9893 23.6622 72.7292 18.9664 68.4394 17.4645C64.1496 15.9626 59.4539 18.2227 57.952 22.5125C53.6622 21.0107 48.9664 23.2708 47.4645 27.5606C45.9626 31.8504 48.2227 36.5461 52.5125 38.048C51.0107 42.3378 53.2708 47.0336 57.5606 48.5355C61.8504 50.0374 66.5461 47.7773 68.048 43.4875C72.3378 44.9893 77.0336 42.7292 78.5355 38.4394C80.0374 34.1496 77.7773 29.4539 73.4875 27.952Z" fill="url(#paint1_linear_502_4906)" stroke="white" stroke-width="2" stroke-miterlimit="10"/>
<path d="M116.594 23.0938H125.156C126.406 23.0938 127.542 23.3542 128.562 23.875C129.625 24.4167 130.448 25.1562 131.031 26.0938C131.635 27.0521 131.938 28.0729 131.938 29.1562C131.938 30.3021 131.656 31.2917 131.094 32.125C130.531 32.9792 129.781 33.625 128.844 34.0625V34.2188C130.01 34.6146 130.958 35.2917 131.688 36.25C132.396 37.1667 132.75 38.2708 132.75 39.5625C132.75 40.8333 132.427 41.9479 131.781 42.9062C131.094 43.9062 130.219 44.6667 129.156 45.1875C128.031 45.7292 126.833 46 125.562 46H116.594V23.0938ZM125 32.7188C126.083 32.7188 126.938 32.3958 127.562 31.75C128.208 31.0625 128.531 30.3125 128.531 29.5C128.531 28.625 128.219 27.875 127.594 27.25C126.969 26.625 126.146 26.3125 125.125 26.3125H120.125V32.7188H125ZM125.562 42.75C126.646 42.75 127.531 42.4062 128.219 41.7188C128.885 41.0521 129.219 40.25 129.219 39.3125C129.219 38.375 128.875 37.5625 128.188 36.875C127.5 36.1875 126.583 35.8438 125.438 35.8438H120.125V42.75H125.562ZM136.625 23.0938H140.156V42.6875H150V46H136.625V23.0938ZM156.875 45.375C155.583 44.6042 154.573 43.5104 153.844 42.0938C153.135 40.6979 152.781 39.0625 152.781 37.1875V23.0938H156.25V37.4062C156.25 39.1562 156.698 40.5521 157.594 41.5938C158.51 42.6562 159.781 43.1875 161.406 43.1875C163.073 43.1875 164.354 42.6562 165.25 41.5938C166.146 40.5521 166.594 39.1562 166.594 37.4062V23.0938H170.094V37.1875C170.094 39.0417 169.74 40.6667 169.031 42.0625C168.302 43.5 167.302 44.5938 166.031 45.3438C164.74 46.1146 163.198 46.5 161.406 46.5C159.635 46.5 158.125 46.125 156.875 45.375ZM174.781 23.0938H188.656V26.4062H178.312V32.875H187.656V36.2188H178.312V42.6875H188.656V46H174.781V23.0938ZM200.5 23.0938H208.531C209.927 23.0938 211.177 23.3854 212.281 23.9688C213.385 24.5521 214.271 25.3854 214.938 26.4688C215.604 27.5521 215.938 28.7604 215.938 30.0938C215.938 31.6354 215.438 33 214.438 34.1875C213.438 35.375 212.198 36.1667 210.719 36.5625L210.688 36.7188L216.969 45.8125V46H212.906L206.812 37H204.031V46H200.5V23.0938ZM208.438 33.7812C209.562 33.7812 210.49 33.4271 211.219 32.7188C211.99 31.9896 212.375 31.1042 212.375 30.0625C212.375 29.1042 212.031 28.25 211.344 27.5C210.656 26.75 209.729 26.375 208.562 26.375H204.031V33.7812H208.438ZM224.656 44.9062C222.885 43.8646 221.469 42.4167 220.406 40.5625C219.365 38.7292 218.844 36.7188 218.844 34.5312C218.844 32.3438 219.365 30.3333 220.406 28.5C221.448 26.6875 222.865 25.25 224.656 24.1875C226.51 23.1042 228.531 22.5625 230.719 22.5625C232.885 22.5625 234.896 23.1042 236.75 24.1875C238.542 25.25 239.958 26.6875 241 28.5C242.042 30.3333 242.562 32.3438 242.562 34.5312C242.562 36.7188 242.042 38.7292 241 40.5625C239.938 42.4167 238.521 43.8646 236.75 44.9062C234.938 45.9688 232.927 46.5 230.719 46.5C228.49 46.5 226.469 45.9688 224.656 44.9062ZM234.938 42.0938C236.167 41.3646 237.167 40.3333 237.938 39C238.667 37.7292 239.031 36.2396 239.031 34.5312C239.031 32.8438 238.667 31.3646 237.938 30.0938C237.167 28.7604 236.167 27.7292 234.938 27C233.688 26.2708 232.281 25.9062 230.719 25.9062C229.156 25.9062 227.75 26.2708 226.5 27C225.271 27.7292 224.271 28.7604 223.5 30.0938C222.771 31.3646 222.406 32.8438 222.406 34.5312C222.406 36.2396 222.771 37.7292 223.5 39C224.271 40.3333 225.271 41.3646 226.5 42.0938C227.75 42.8229 229.156 43.1875 230.719 43.1875C232.281 43.1875 233.688 42.8229 234.938 42.0938ZM250.938 44.9062C249.167 43.8646 247.75 42.4167 246.688 40.5625C245.646 38.7292 245.125 36.7188 245.125 34.5312C245.125 32.3438 245.646 30.3333 246.688 28.5C247.729 26.6875 249.146 25.25 250.938 24.1875C252.792 23.1042 254.812 22.5625 257 22.5625C259.167 22.5625 261.177 23.1042 263.031 24.1875C264.823 25.25 266.24 26.6875 267.281 28.5C268.323 30.3333 268.844 32.3438 268.844 34.5312C268.844 36.7188 268.323 38.7292 267.281 40.5625C266.219 42.4167 264.802 43.8646 263.031 44.9062C261.219 45.9688 259.208 46.5 257 46.5C254.771 46.5 252.75 45.9688 250.938 44.9062ZM261.219 42.0938C262.448 41.3646 263.448 40.3333 264.219 39C264.948 37.7292 265.312 36.2396 265.312 34.5312C265.312 32.8438 264.948 31.3646 264.219 30.0938C263.448 28.7604 262.448 27.7292 261.219 27C259.969 26.2708 258.562 25.9062 257 25.9062C255.438 25.9062 254.031 26.2708 252.781 27C251.552 27.7292 250.552 28.7604 249.781 30.0938C249.052 31.3646 248.688 32.8438 248.688 34.5312C248.688 36.2396 249.052 37.7292 249.781 39C250.552 40.3333 251.552 41.3646 252.781 42.0938C254.031 42.8229 255.438 43.1875 257 43.1875C258.562 43.1875 259.969 42.8229 261.219 42.0938ZM272.875 23.0938H277.594L284.312 40.5312H284.5L291.219 23.0938H295.938V46H292.5V33.0312L292.688 28.9688H292.5L285.812 46H283.031L276.344 28.9688H276.125L276.344 33.0312V46H272.875V23.0938Z" fill="white"/>
<defs>
<linearGradient id="paint0_linear_502_4906" x1="0" y1="35" x2="323" y2="35" gradientUnits="userSpaceOnUse">
<stop stop-color="#4285F4"/>
<stop offset="0.328906" stop-color="#4285F4"/>
<stop offset="0.680426" stop-color="#34A853"/>
<stop offset="1" stop-color="#34A853"/>
</linearGradient>
<linearGradient id="paint1_linear_502_4906" x1="47" y1="33" x2="79" y2="33" gradientUnits="userSpaceOnUse">
<stop stop-color="#4285F4"/>
<stop offset="0.328906" stop-color="#4285F4"/>
<stop offset="0.680426" stop-color="#34A853"/>
<stop offset="1" stop-color="#34A853"/>
</linearGradient>
</defs>
</svg>
