<svg width="230" height="70" viewBox="0 0 230 70" fill="none" xmlns="http://www.w3.org/2000/svg">
<rect x="1" y="1" width="228" height="68" rx="34" fill="#202124"/>
<rect x="1" y="1" width="228" height="68" rx="34" stroke="url(#paint0_linear_502_4900)" stroke-width="2"/>
<path d="M26.592 20.656H33.76V23.504H29.856V47.12H33.76V49.968H26.592V20.656Z" fill="#EEEEEE" fill-opacity="0.933333"/>
<path d="M92.184 47.12H96.12V23.504H92.184V20.656H99.384V49.968H92.184V47.12Z" fill="#EEEEEE" fill-opacity="0.933333"/>
<path d="M60.0611 19.1353C61.8135 17.862 64.1865 17.862 65.9389 19.1353L77.1801 27.3024C78.9325 28.5757 79.6658 30.8325 78.9964 32.8926L74.7027 46.1074C74.0333 48.1675 72.1136 49.5623 69.9474 49.5623H56.0526C53.8864 49.5623 51.9667 48.1675 51.2973 46.1074L47.0036 32.8926C46.3342 30.8325 47.0675 28.5757 48.8199 27.3024L60.0611 19.1353Z" fill="url(#paint1_linear_502_4900)"/>
<path d="M60.6489 19.9443C62.0508 18.9257 63.9492 18.9257 65.3511 19.9443L76.5923 28.1115C77.9943 29.13 78.5809 30.9355 78.0454 32.5836L73.7516 45.7984C73.2162 47.4465 71.6803 48.5623 69.9474 48.5623H56.0526C54.3197 48.5623 52.7838 47.4465 52.2484 45.7984L47.9546 32.5836C47.4191 30.9355 48.0057 29.13 49.4077 28.1115L60.6489 19.9443Z" stroke="#EEEEEE" stroke-opacity="0.933333" stroke-width="2"/>
<path d="M116.594 23.0938H120.125V42.6875H129.969V46H116.594V23.0938ZM135.875 45.375C134.604 44.6458 133.594 43.6042 132.844 42.25C132.115 40.9167 131.75 39.4479 131.75 37.8438C131.75 36.2396 132.115 34.7708 132.844 33.4375C133.594 32.0833 134.604 31.0417 135.875 30.3125C137.229 29.5417 138.698 29.1562 140.281 29.1562C141.927 29.1562 143.396 29.5417 144.688 30.3125C145.979 31.0833 146.99 32.1354 147.719 33.4688C148.448 34.8021 148.812 36.2604 148.812 37.8438C148.812 39.4479 148.448 40.9167 147.719 42.25C146.99 43.5833 145.979 44.625 144.688 45.375C143.417 46.125 141.948 46.5 140.281 46.5C138.656 46.5 137.188 46.125 135.875 45.375ZM142.812 42.6875C143.583 42.25 144.208 41.6042 144.688 40.75C145.146 39.9167 145.375 38.9479 145.375 37.8438C145.375 36.7396 145.146 35.7708 144.688 34.9375C144.208 34.0833 143.583 33.4375 142.812 33C142.042 32.5625 141.198 32.3438 140.281 32.3438C139.365 32.3438 138.521 32.5625 137.75 33C136.979 33.4375 136.354 34.0833 135.875 34.9375C135.396 35.7917 135.156 36.7604 135.156 37.8438C135.156 38.9271 135.396 39.8958 135.875 40.75C136.354 41.6042 136.979 42.25 137.75 42.6875C138.521 43.125 139.365 43.3438 140.281 43.3438C141.198 43.3438 142.042 43.125 142.812 42.6875ZM157.344 45.7188C156.406 45.1979 155.708 44.5625 155.25 43.8125H155.062V46H151.812V23.0938H155.25V29.625L155.062 31.875H155.25C155.708 31.125 156.406 30.4792 157.344 29.9375C158.26 29.4167 159.312 29.1562 160.5 29.1562C161.979 29.1562 163.312 29.5312 164.5 30.2812C165.688 31.0312 166.625 32.0625 167.312 33.375C168 34.6875 168.344 36.1771 168.344 37.8438C168.344 39.5104 168 41 167.312 42.3125C166.625 43.625 165.688 44.6562 164.5 45.4062C163.354 46.1354 162.021 46.5 160.5 46.5C159.312 46.5 158.26 46.2396 157.344 45.7188ZM162.438 42.6562C163.229 42.1562 163.833 41.5104 164.25 40.7188C164.688 39.8646 164.906 38.9062 164.906 37.8438C164.906 36.7812 164.688 35.8229 164.25 34.9688C163.833 34.1771 163.229 33.5312 162.438 33.0312C161.708 32.5729 160.896 32.3438 160 32.3438C159.104 32.3438 158.292 32.5729 157.562 33.0312C156.812 33.5104 156.208 34.1562 155.75 34.9688C155.292 35.8021 155.062 36.7604 155.062 37.8438C155.062 38.9271 155.292 39.8854 155.75 40.7188C156.208 41.5312 156.812 42.1771 157.562 42.6562C158.292 43.1146 159.104 43.3438 160 43.3438C160.896 43.3438 161.708 43.1146 162.438 42.6562ZM176.875 45.7188C175.938 45.1979 175.24 44.5625 174.781 43.8125H174.594V46H171.344V23.0938H174.781V29.625L174.594 31.875H174.781C175.24 31.125 175.938 30.4792 176.875 29.9375C177.792 29.4167 178.844 29.1562 180.031 29.1562C181.51 29.1562 182.844 29.5312 184.031 30.2812C185.219 31.0312 186.156 32.0625 186.844 33.375C187.531 34.6875 187.875 36.1771 187.875 37.8438C187.875 39.5104 187.531 41 186.844 42.3125C186.156 43.625 185.219 44.6562 184.031 45.4062C182.885 46.1354 181.552 46.5 180.031 46.5C178.844 46.5 177.792 46.2396 176.875 45.7188ZM181.969 42.6562C182.76 42.1562 183.365 41.5104 183.781 40.7188C184.219 39.8646 184.438 38.9062 184.438 37.8438C184.438 36.7812 184.219 35.8229 183.781 34.9688C183.365 34.1771 182.76 33.5312 181.969 33.0312C181.24 32.5729 180.427 32.3438 179.531 32.3438C178.635 32.3438 177.823 32.5729 177.094 33.0312C176.344 33.5104 175.74 34.1562 175.281 34.9688C174.823 35.8021 174.594 36.7604 174.594 37.8438C174.594 38.9271 174.823 39.8854 175.281 40.7188C175.74 41.5312 176.344 42.1771 177.094 42.6562C177.823 43.1146 178.635 43.3438 179.531 43.3438C180.427 43.3438 181.24 43.1146 181.969 42.6562ZM195.438 45.0938L188.625 29.6875H192.469L197.156 40.8125H197.312L201.812 29.6875H205.625L195.531 52.9062H191.875L195.438 45.0938Z" fill="white"/>
<defs>
<linearGradient id="paint0_linear_502_4900" x1="0" y1="35" x2="230" y2="35" gradientUnits="userSpaceOnUse">
<stop stop-color="#428EFF"/>
<stop offset="0.108915" stop-color="#428EFF"/>
<stop offset="0.238413" stop-color="#9F6CD4"/>
<stop offset="0.365599" stop-color="#EA4335"/>
<stop offset="0.446535" stop-color="#EA4335"/>
<stop offset="0.55522" stop-color="#F46831"/>
<stop offset="0.656969" stop-color="#FFCB32"/>
<stop offset="0.754092" stop-color="#FFCB32"/>
<stop offset="0.890527" stop-color="#34A853"/>
<stop offset="1" stop-color="#34A853"/>
</linearGradient>
<linearGradient id="paint1_linear_502_4900" x1="45" y1="35" x2="81" y2="35" gradientUnits="userSpaceOnUse">
<stop stop-color="#4285F4"/>
<stop offset="0.246732" stop-color="#4285F4"/>
<stop offset="0.502383" stop-color="#9F6CD4"/>
<stop offset="0.758034" stop-color="#EA4335"/>
<stop offset="1" stop-color="#EA4335"/>
</linearGradient>
</defs>
</svg>
