<svg width="176" height="54" viewBox="0 0 176 54" fill="none" xmlns="http://www.w3.org/2000/svg">
<rect x="1.5" y="1.5" width="173" height="51" rx="25.5" stroke="url(#paint0_linear_670_889)" stroke-width="3"/>
<path d="M37.12 15.088H41.12L49.792 38H45.92L43.808 32.112H34.464L32.352 38H28.48L37.12 15.088ZM42.656 28.848L40.096 21.84L39.232 19.216H39.04L38.176 21.84L35.616 28.848H42.656ZM52.2973 21.68H55.5613V23.92H55.7533C56.2013 23.12 56.9053 22.448 57.8653 21.936C58.7933 21.424 59.8173 21.168 60.9053 21.168C62.8573 21.168 64.3613 21.776 65.3853 22.928C66.4093 24.08 66.9213 25.68 66.9213 27.696V38H63.4973V28.144C63.4973 26.864 63.1773 25.936 62.5373 25.296C61.8973 24.656 61.0013 24.336 59.9133 24.336C59.0813 24.336 58.3773 24.56 57.7373 25.008C57.0973 25.456 56.6173 26.064 56.2653 26.8C55.9133 27.568 55.7533 28.368 55.7533 29.232V38H52.2973V21.68ZM73.8358 37.424C72.6198 36.688 71.6918 35.664 71.0198 34.32C70.3158 33.008 69.9958 31.504 69.9958 29.84C69.9958 28.176 70.3158 26.704 71.0198 25.392C71.6918 24.08 72.6198 23.056 73.8358 22.288C75.0198 21.552 76.3638 21.168 77.8358 21.168C79.0198 21.168 80.0758 21.456 81.0038 21.968C81.8998 22.48 82.6038 23.12 83.0838 23.888H83.2758L83.0838 21.616V15.088H86.5078V38H83.2758V35.824H83.0838C82.6038 36.592 81.8998 37.232 81.0038 37.744C80.0758 38.256 79.0198 38.512 77.8358 38.512C76.3638 38.512 75.0198 38.16 73.8358 37.424ZM80.7478 34.672C81.5158 34.224 82.1238 33.552 82.5718 32.72C83.0198 31.888 83.2758 30.928 83.2758 29.84C83.2758 28.752 83.0198 27.792 82.5718 26.96C82.1238 26.128 81.5158 25.488 80.7478 25.04C79.9798 24.592 79.1798 24.336 78.3478 24.336C77.4838 24.336 76.6838 24.592 75.9158 25.04C75.1478 25.488 74.5398 26.128 74.0918 26.96C73.6438 27.792 73.4198 28.752 73.4198 29.84C73.4198 30.928 73.6438 31.888 74.0918 32.72C74.5398 33.552 75.1478 34.224 75.9158 34.672C76.6838 35.12 77.4838 35.344 78.3478 35.344C79.1798 35.344 79.9798 35.12 80.7478 34.672ZM90.5785 21.68H93.8425V24.08H94.0345C94.3865 23.248 94.9945 22.576 95.8905 22.032C96.7865 21.488 97.7465 21.2 98.7705 21.2C99.5065 21.2 100.179 21.328 100.755 21.52V25.104C99.8585 24.72 99.0265 24.528 98.2265 24.528C97.0105 24.528 95.9865 25.008 95.2185 25.936C94.4185 26.896 94.0345 28.016 94.0345 29.36V38H90.5785V21.68ZM105.718 37.392C104.406 36.624 103.382 35.6 102.678 34.256C101.942 32.944 101.59 31.472 101.59 29.84C101.59 28.24 101.942 26.768 102.678 25.424C103.382 24.112 104.406 23.088 105.718 22.32C106.998 21.552 108.47 21.168 110.134 21.168C111.734 21.168 113.206 21.552 114.518 22.32C115.798 23.088 116.822 24.144 117.558 25.456C118.262 26.8 118.646 28.24 118.646 29.84C118.646 31.472 118.262 32.944 117.558 34.256C116.822 35.6 115.798 36.624 114.518 37.392C113.238 38.16 111.766 38.512 110.134 38.512C108.47 38.512 106.998 38.16 105.718 37.392ZM112.662 34.672C113.43 34.224 114.038 33.584 114.518 32.752C114.966 31.92 115.222 30.96 115.222 29.84C115.222 28.752 114.966 27.76 114.518 26.928C114.038 26.096 113.43 25.456 112.662 25.008C111.894 24.56 111.03 24.336 110.134 24.336C109.206 24.336 108.342 24.56 107.574 25.008C106.806 25.456 106.166 26.096 105.718 26.928C105.238 27.76 105.014 28.752 105.014 29.84C105.014 30.96 105.238 31.92 105.718 32.752C106.166 33.584 106.806 34.224 107.574 34.672C108.342 35.12 109.206 35.344 110.134 35.344C111.03 35.344 111.894 35.12 112.662 34.672ZM121.836 18.608C121.388 18.16 121.164 17.584 121.164 16.944C121.164 16.304 121.388 15.76 121.836 15.312C122.284 14.864 122.86 14.64 123.5 14.64C124.14 14.64 124.684 14.864 125.132 15.312C125.58 15.76 125.836 16.304 125.836 16.944C125.836 17.584 125.58 18.16 125.132 18.608C124.684 19.056 124.14 19.28 123.5 19.28C122.86 19.28 122.284 19.056 121.836 18.608ZM121.772 21.68H125.228V38H121.772V21.68ZM132.336 37.424C131.12 36.688 130.192 35.664 129.52 34.32C128.816 33.008 128.496 31.504 128.496 29.84C128.496 28.176 128.816 26.704 129.52 25.392C130.192 24.08 131.12 23.056 132.336 22.288C133.52 21.552 134.864 21.168 136.336 21.168C137.52 21.168 138.576 21.456 139.504 21.968C140.4 22.48 141.104 23.12 141.584 23.888H141.776L141.584 21.616V15.088H145.008V38H141.776V35.824H141.584C141.104 36.592 140.4 37.232 139.504 37.744C138.576 38.256 137.52 38.512 136.336 38.512C134.864 38.512 133.52 38.16 132.336 37.424ZM139.248 34.672C140.016 34.224 140.624 33.552 141.072 32.72C141.52 31.888 141.776 30.928 141.776 29.84C141.776 28.752 141.52 27.792 141.072 26.96C140.624 26.128 140.016 25.488 139.248 25.04C138.48 24.592 137.68 24.336 136.848 24.336C135.984 24.336 135.184 24.592 134.416 25.04C133.648 25.488 133.04 26.128 132.592 26.96C132.144 27.792 131.92 28.752 131.92 29.84C131.92 30.928 132.144 31.888 132.592 32.72C133.04 33.552 133.648 34.224 134.416 34.672C135.184 35.12 135.984 35.344 136.848 35.344C137.68 35.344 138.48 35.12 139.248 34.672Z" fill="#202124"/>
<defs>
<linearGradient id="paint0_linear_670_889" x1="225.796" y1="-17.4587" x2="-5.48376" y2="115.149" gradientUnits="userSpaceOnUse">
<stop offset="0.199555" stop-color="#EA4335"/>
<stop offset="0.813373" stop-color="#F46831"/>
</linearGradient>
</defs>
</svg>
