<svg width="616" height="70" viewBox="0 0 616 70" fill="none" xmlns="http://www.w3.org/2000/svg">
<rect x="1.5" y="1.5" width="613" height="67" rx="33.5" fill="#202124"/>
<rect x="1.5" y="1.5" width="613" height="67" rx="33.5" stroke="url(#paint0_linear_670_952)" stroke-width="3"/>
<path d="M36.128 44.848C34.592 43.76 33.536 42.192 32.96 40.176L36.288 38.832C36.608 40.112 37.216 41.168 38.112 41.968C38.976 42.8 40.032 43.184 41.28 43.184C42.432 43.184 43.392 42.896 44.192 42.288C44.992 41.712 45.408 40.88 45.408 39.824C45.408 38.864 45.056 38.096 44.352 37.456C43.648 36.816 42.432 36.208 40.704 35.6L39.264 35.088C37.696 34.544 36.384 33.776 35.36 32.784C34.336 31.792 33.824 30.48 33.824 28.816C33.824 27.696 34.112 26.64 34.72 25.68C35.328 24.72 36.192 23.984 37.28 23.408C38.368 22.864 39.616 22.576 41.024 22.576C43.008 22.576 44.576 23.088 45.792 24.048C46.976 25.008 47.776 26.096 48.224 27.312L45.056 28.656C44.832 27.888 44.384 27.248 43.712 26.672C43.008 26.128 42.144 25.84 41.056 25.84C40 25.84 39.104 26.128 38.4 26.672C37.664 27.248 37.312 27.952 37.312 28.784C37.312 29.584 37.632 30.256 38.272 30.768C38.912 31.28 39.936 31.792 41.312 32.24L42.784 32.752C44.736 33.456 46.24 34.32 47.328 35.408C48.384 36.496 48.928 37.968 48.928 39.76C48.928 41.264 48.544 42.512 47.776 43.536C47.008 44.56 46.048 45.296 44.864 45.776C43.68 46.288 42.464 46.512 41.248 46.512C39.328 46.512 37.632 45.968 36.128 44.848ZM55.6223 45.392C54.3423 44.656 53.3183 43.632 52.6143 42.32C51.9103 41.008 51.5583 39.504 51.5583 37.84C51.5583 36.176 51.9103 34.704 52.6143 33.392C53.3183 32.08 54.3423 31.056 55.6223 30.288C56.9023 29.552 58.3423 29.168 59.9743 29.168C61.7663 29.168 63.2703 29.584 64.5183 30.384C65.7663 31.184 66.6623 32.272 67.2383 33.68L64.1023 34.96C63.3343 33.232 61.9263 32.336 59.9103 32.336C59.0143 32.336 58.1823 32.592 57.4143 33.04C56.6463 33.488 56.0703 34.128 55.6223 34.96C55.1743 35.792 54.9823 36.752 54.9823 37.84C54.9823 38.928 55.1743 39.888 55.6223 40.72C56.0703 41.552 56.6463 42.224 57.4143 42.672C58.1823 43.12 59.0143 43.344 59.9103 43.344C60.9343 43.344 61.7983 43.12 62.5343 42.672C63.2703 42.224 63.8463 41.552 64.2623 40.656L67.3663 42C66.7263 43.408 65.7663 44.496 64.5183 45.296C63.2383 46.128 61.7343 46.512 59.9743 46.512C58.3423 46.512 56.9023 46.16 55.6223 45.392ZM70.2973 23.088H73.7533V29.36L73.5613 31.92H73.7533C74.2013 31.12 74.9053 30.448 75.8333 29.936C76.7613 29.424 77.7853 29.168 78.9053 29.168C80.8893 29.168 82.3933 29.776 83.4493 30.96C84.4733 32.144 85.0173 33.712 85.0173 35.696V46H81.5933V36.144C81.5933 34.896 81.2413 33.936 80.5693 33.296C79.8973 32.656 79.0333 32.336 78.0093 32.336C77.2093 32.336 76.4733 32.592 75.8333 33.04C75.1933 33.488 74.6813 34.096 74.2973 34.864C73.9133 35.632 73.7533 36.464 73.7533 37.296V46H70.2973V23.088ZM92.1215 45.392C90.8415 44.656 89.8495 43.632 89.1455 42.32C88.4415 41.008 88.0895 39.536 88.0895 37.872C88.0895 36.336 88.4095 34.896 89.1135 33.552C89.8175 32.208 90.7775 31.152 92.0255 30.352C93.2415 29.584 94.6495 29.168 96.2175 29.168C97.8495 29.168 99.2575 29.552 100.474 30.256C101.658 30.96 102.554 31.952 103.194 33.2C103.833 34.48 104.154 35.888 104.154 37.488C104.154 37.936 104.122 38.288 104.09 38.576H91.4815C91.6095 40.144 92.1855 41.36 93.1455 42.192C94.1055 43.024 95.2255 43.44 96.5055 43.44C97.5295 43.44 98.4255 43.216 99.1935 42.736C99.9295 42.256 100.538 41.616 100.986 40.816L103.833 42.192C103.066 43.536 102.074 44.592 100.858 45.36C99.6095 46.128 98.1375 46.512 96.4095 46.512C94.8095 46.512 93.4015 46.16 92.1215 45.392ZM100.73 35.984C100.666 35.408 100.474 34.8 100.154 34.192C99.8015 33.616 99.2895 33.104 98.6495 32.72C98.0095 32.336 97.2095 32.112 96.2495 32.112C95.0975 32.112 94.1055 32.464 93.3055 33.168C92.5055 33.872 91.9615 34.832 91.6735 35.984H100.73ZM110.492 45.424C109.276 44.688 108.348 43.664 107.676 42.32C106.972 41.008 106.652 39.504 106.652 37.84C106.652 36.176 106.972 34.704 107.676 33.392C108.348 32.08 109.276 31.056 110.492 30.288C111.676 29.552 113.02 29.168 114.492 29.168C115.676 29.168 116.732 29.456 117.66 29.968C118.556 30.48 119.26 31.12 119.74 31.888H119.932L119.74 29.616V23.088H123.164V46H119.932V43.824H119.74C119.26 44.592 118.556 45.232 117.66 45.744C116.732 46.256 115.676 46.512 114.492 46.512C113.02 46.512 111.676 46.16 110.492 45.424ZM117.404 42.672C118.172 42.224 118.78 41.552 119.228 40.72C119.676 39.888 119.932 38.928 119.932 37.84C119.932 36.752 119.676 35.792 119.228 34.96C118.78 34.128 118.172 33.488 117.404 33.04C116.636 32.592 115.836 32.336 115.004 32.336C114.14 32.336 113.34 32.592 112.572 33.04C111.804 33.488 111.196 34.128 110.748 34.96C110.3 35.792 110.076 36.752 110.076 37.84C110.076 38.928 110.3 39.888 110.748 40.72C111.196 41.552 111.804 42.224 112.572 42.672C113.34 43.12 114.14 43.344 115.004 43.344C115.836 43.344 116.636 43.12 117.404 42.672ZM128.643 44.752C127.619 43.568 127.107 41.904 127.107 39.792V29.68H130.563V39.312C130.563 40.656 130.851 41.648 131.491 42.32C132.099 43.024 132.931 43.344 133.987 43.344C134.819 43.344 135.587 43.12 136.259 42.672C136.899 42.224 137.411 41.648 137.763 40.88C138.115 40.144 138.307 39.344 138.307 38.448V29.68H141.731V46H138.499V43.792H138.307C137.827 44.592 137.123 45.232 136.195 45.744C135.235 46.256 134.243 46.512 133.155 46.512C131.171 46.512 129.667 45.936 128.643 44.752ZM145.797 23.088H149.253V46H145.797V23.088ZM156.34 45.392C155.06 44.656 154.068 43.632 153.364 42.32C152.66 41.008 152.308 39.536 152.308 37.872C152.308 36.336 152.628 34.896 153.332 33.552C154.036 32.208 154.996 31.152 156.244 30.352C157.46 29.584 158.868 29.168 160.436 29.168C162.068 29.168 163.476 29.552 164.692 30.256C165.876 30.96 166.772 31.952 167.412 33.2C168.052 34.48 168.372 35.888 168.372 37.488C168.372 37.936 168.34 38.288 168.308 38.576H155.7C155.828 40.144 156.404 41.36 157.364 42.192C158.324 43.024 159.444 43.44 160.724 43.44C161.748 43.44 162.644 43.216 163.412 42.736C164.148 42.256 164.756 41.616 165.204 40.816L168.052 42.192C167.284 43.536 166.292 44.592 165.076 45.36C163.828 46.128 162.356 46.512 160.628 46.512C159.028 46.512 157.62 46.16 156.34 45.392ZM164.948 35.984C164.884 35.408 164.692 34.8 164.372 34.192C164.02 33.616 163.508 33.104 162.868 32.72C162.228 32.336 161.428 32.112 160.468 32.112C159.316 32.112 158.324 32.464 157.524 33.168C156.724 33.872 156.18 34.832 155.892 35.984H164.948ZM181.031 45.84C180.103 45.392 179.399 44.72 178.887 43.888C178.375 43.056 178.119 42.128 178.119 41.04C178.119 39.92 178.407 38.96 179.015 38.128C179.591 37.296 180.423 36.688 181.447 36.24C182.471 35.792 183.591 35.568 184.871 35.568C185.831 35.568 186.695 35.664 187.463 35.856C188.231 36.048 188.871 36.24 189.351 36.464V35.6C189.351 34.576 188.967 33.712 188.199 33.072C187.431 32.432 186.439 32.08 185.223 32.08C184.391 32.08 183.591 32.272 182.855 32.656C182.087 33.04 181.511 33.52 181.063 34.16L178.695 32.336C179.399 31.344 180.327 30.576 181.479 30C182.631 29.456 183.911 29.168 185.319 29.168C187.655 29.168 189.479 29.776 190.759 30.928C192.039 32.08 192.711 33.712 192.711 35.792V46H189.351V43.984H189.159C188.679 44.72 188.007 45.328 187.143 45.808C186.247 46.288 185.255 46.512 184.167 46.512C182.983 46.512 181.927 46.288 181.031 45.84ZM187.111 43.088C187.815 42.672 188.359 42.096 188.743 41.392C189.127 40.688 189.351 39.952 189.351 39.12C188.839 38.832 188.231 38.608 187.591 38.416C186.919 38.256 186.215 38.16 185.511 38.16C184.167 38.16 183.175 38.448 182.535 38.96C181.895 39.504 181.607 40.208 181.607 41.072C181.607 41.84 181.895 42.48 182.471 42.96C183.047 43.472 183.815 43.696 184.775 43.696C185.607 43.696 186.407 43.504 187.111 43.088ZM208.753 28.752L205.169 31.312L203.409 28.656L209.745 24.112H212.209V46H208.753V28.752ZM217.464 33.488C216.984 33.04 216.76 32.464 216.76 31.792C216.76 31.152 216.984 30.576 217.464 30.096C217.912 29.648 218.488 29.392 219.192 29.392C219.864 29.392 220.44 29.648 220.888 30.096C221.336 30.544 221.592 31.12 221.592 31.792C221.592 32.464 221.336 33.04 220.888 33.488C220.44 33.968 219.864 34.192 219.192 34.192C218.488 34.192 217.912 33.968 217.464 33.488ZM217.464 45.488C216.984 45.04 216.76 44.464 216.76 43.792C216.76 43.152 216.984 42.576 217.464 42.096C217.912 41.648 218.488 41.392 219.192 41.392C219.864 41.392 220.44 41.648 220.888 42.096C221.336 42.544 221.592 43.12 221.592 43.792C221.592 44.464 221.336 45.04 220.888 45.488C220.44 45.968 219.864 46.192 219.192 46.192C218.488 46.192 217.912 45.968 217.464 45.488ZM230.159 28.752L226.575 31.312L224.815 28.656L231.151 24.112H233.615V46H230.159V28.752ZM245.891 29.68H249.155V31.92H249.347C249.827 31.12 250.531 30.448 251.427 29.936C252.323 29.424 253.283 29.168 254.371 29.168C255.523 29.168 256.547 29.456 257.411 30C258.275 30.576 258.915 31.312 259.299 32.208C259.875 31.312 260.611 30.576 261.539 30C262.467 29.456 263.555 29.168 264.835 29.168C266.691 29.168 268.131 29.744 269.091 30.896C270.051 32.048 270.531 33.584 270.531 35.536V46H267.107V36.112C267.107 33.616 266.019 32.336 263.907 32.336C262.723 32.336 261.763 32.816 261.027 33.744C260.291 34.704 259.939 35.856 259.939 37.264V46H256.515V36.112C256.515 33.616 255.395 32.336 253.219 32.336C252.067 32.336 251.139 32.816 250.435 33.776C249.699 34.736 249.347 35.888 249.347 37.296V46H245.891V29.68ZM277.622 45.392C276.342 44.656 275.35 43.632 274.646 42.32C273.942 41.008 273.59 39.536 273.59 37.872C273.59 36.336 273.91 34.896 274.614 33.552C275.318 32.208 276.278 31.152 277.526 30.352C278.742 29.584 280.15 29.168 281.718 29.168C283.35 29.168 284.758 29.552 285.974 30.256C287.158 30.96 288.054 31.952 288.694 33.2C289.333 34.48 289.654 35.888 289.654 37.488C289.654 37.936 289.622 38.288 289.59 38.576H276.982C277.11 40.144 277.686 41.36 278.646 42.192C279.606 43.024 280.726 43.44 282.006 43.44C283.03 43.44 283.926 43.216 284.694 42.736C285.43 42.256 286.038 41.616 286.486 40.816L289.333 42.192C288.566 43.536 287.574 44.592 286.358 45.36C285.11 46.128 283.638 46.512 281.91 46.512C280.31 46.512 278.902 46.16 277.622 45.392ZM286.23 35.984C286.166 35.408 285.974 34.8 285.654 34.192C285.302 33.616 284.79 33.104 284.15 32.72C283.51 32.336 282.71 32.112 281.75 32.112C280.598 32.112 279.606 32.464 278.806 33.168C278.006 33.872 277.462 34.832 277.174 35.984H286.23ZM296.184 45.392C294.904 44.656 293.912 43.632 293.208 42.32C292.504 41.008 292.152 39.536 292.152 37.872C292.152 36.336 292.472 34.896 293.176 33.552C293.88 32.208 294.84 31.152 296.088 30.352C297.304 29.584 298.712 29.168 300.28 29.168C301.912 29.168 303.32 29.552 304.536 30.256C305.72 30.96 306.616 31.952 307.256 33.2C307.896 34.48 308.216 35.888 308.216 37.488C308.216 37.936 308.184 38.288 308.152 38.576H295.544C295.672 40.144 296.248 41.36 297.208 42.192C298.168 43.024 299.288 43.44 300.568 43.44C301.592 43.44 302.488 43.216 303.256 42.736C303.992 42.256 304.6 41.616 305.048 40.816L307.896 42.192C307.128 43.536 306.136 44.592 304.92 45.36C303.672 46.128 302.2 46.512 300.472 46.512C298.872 46.512 297.464 46.16 296.184 45.392ZM304.792 35.984C304.728 35.408 304.536 34.8 304.216 34.192C303.864 33.616 303.352 33.104 302.712 32.72C302.072 32.336 301.272 32.112 300.312 32.112C299.16 32.112 298.168 32.464 297.368 33.168C296.568 33.872 296.024 34.832 295.736 35.984H304.792ZM315.594 45.936C314.954 45.712 314.442 45.392 314.058 44.976C313.13 44.112 312.682 42.864 312.682 41.264V32.688H309.834V29.68H312.682V25.072H316.138V29.68H320.138V32.688H316.138V40.528C316.138 41.424 316.298 42.064 316.65 42.416C317.002 42.832 317.546 43.024 318.314 43.024C318.698 43.024 319.018 42.992 319.306 42.896C319.562 42.8 319.882 42.64 320.234 42.416V45.776C319.498 46.096 318.634 46.256 317.642 46.256C316.906 46.256 316.234 46.16 315.594 45.936ZM323.961 26.608C323.513 26.16 323.289 25.584 323.289 24.944C323.289 24.304 323.513 23.76 323.961 23.312C324.409 22.864 324.985 22.64 325.625 22.64C326.265 22.64 326.809 22.864 327.257 23.312C327.705 23.76 327.961 24.304 327.961 24.944C327.961 25.584 327.705 26.16 327.257 26.608C326.809 27.056 326.265 27.28 325.625 27.28C324.985 27.28 324.409 27.056 323.961 26.608ZM323.897 29.68H327.353V46H323.897V29.68ZM331.641 29.68H334.905V31.92H335.097C335.545 31.12 336.249 30.448 337.209 29.936C338.137 29.424 339.161 29.168 340.249 29.168C342.201 29.168 343.705 29.776 344.729 30.928C345.753 32.08 346.265 33.68 346.265 35.696V46H342.841V36.144C342.841 34.864 342.521 33.936 341.881 33.296C341.241 32.656 340.345 32.336 339.257 32.336C338.425 32.336 337.721 32.56 337.081 33.008C336.441 33.456 335.961 34.064 335.609 34.8C335.257 35.568 335.097 36.368 335.097 37.232V46H331.641V29.68ZM352.447 52.08C351.135 51.184 350.271 50.064 349.823 48.784L353.023 47.44C353.343 48.336 353.919 49.04 354.687 49.552C355.455 50.096 356.383 50.352 357.407 50.352C358.911 50.352 360.095 49.904 360.959 49.008C361.791 48.112 362.239 46.864 362.239 45.2V43.632H362.047C361.503 44.432 360.799 45.04 359.903 45.488C359.007 45.936 357.983 46.16 356.831 46.16C355.423 46.16 354.143 45.808 352.991 45.104C351.839 44.4 350.911 43.408 350.207 42.128C349.503 40.848 349.183 39.344 349.183 37.68C349.183 36.016 349.503 34.544 350.207 33.264C350.911 31.984 351.839 30.96 352.991 30.256C354.143 29.552 355.423 29.168 356.831 29.168C357.951 29.168 358.975 29.424 359.871 29.872C360.767 30.32 361.503 30.96 362.047 31.728H362.239V29.68H365.535V45.136C365.535 46.896 365.183 48.4 364.511 49.648C363.807 50.896 362.847 51.824 361.631 52.464C360.415 53.104 359.007 53.424 357.407 53.424C355.423 53.424 353.759 52.976 352.447 52.08ZM359.839 42.384C360.543 41.968 361.119 41.36 361.567 40.56C362.015 39.76 362.239 38.8 362.239 37.68C362.239 36.56 362.015 35.6 361.567 34.768C361.119 33.968 360.543 33.36 359.839 32.944C359.103 32.528 358.303 32.304 357.439 32.304C356.543 32.304 355.743 32.528 355.007 32.944C354.271 33.36 353.695 33.968 353.247 34.768C352.799 35.6 352.607 36.56 352.607 37.68C352.607 38.8 352.799 39.76 353.247 40.56C353.695 41.392 354.271 42 355.007 42.416C355.743 42.832 356.543 43.024 357.439 43.024C358.303 43.024 359.103 42.832 359.839 42.384ZM375.255 29.68H378.999L382.359 41.424H382.487L386.167 29.68H389.719L393.399 41.424H393.527L396.887 29.68H400.567L395.319 46H391.703L387.927 34.192H387.799L384.055 46H380.471L375.255 29.68ZM403.117 26.608C402.669 26.16 402.445 25.584 402.445 24.944C402.445 24.304 402.669 23.76 403.117 23.312C403.565 22.864 404.141 22.64 404.781 22.64C405.421 22.64 405.965 22.864 406.413 23.312C406.861 23.76 407.117 24.304 407.117 24.944C407.117 25.584 406.861 26.16 406.413 26.608C405.965 27.056 405.421 27.28 404.781 27.28C404.141 27.28 403.565 27.056 403.117 26.608ZM403.053 29.68H406.509V46H403.053V29.68ZM415.281 45.936C414.641 45.712 414.129 45.392 413.745 44.976C412.817 44.112 412.369 42.864 412.369 41.264V32.688H409.521V29.68H412.369V25.072H415.825V29.68H419.825V32.688H415.825V40.528C415.825 41.424 415.985 42.064 416.337 42.416C416.689 42.832 417.233 43.024 418.001 43.024C418.385 43.024 418.705 42.992 418.993 42.896C419.249 42.8 419.569 42.64 419.921 42.416V45.776C419.185 46.096 418.321 46.256 417.329 46.256C416.593 46.256 415.921 46.16 415.281 45.936ZM423.329 23.088H426.785V29.36L426.593 31.92H426.785C427.233 31.12 427.937 30.448 428.865 29.936C429.793 29.424 430.817 29.168 431.937 29.168C433.921 29.168 435.425 29.776 436.481 30.96C437.505 32.144 438.049 33.712 438.049 35.696V46H434.625V36.144C434.625 34.896 434.273 33.936 433.601 33.296C432.929 32.656 432.065 32.336 431.041 32.336C430.241 32.336 429.505 32.592 428.865 33.04C428.225 33.488 427.713 34.096 427.329 34.864C426.945 35.632 426.785 36.464 426.785 37.296V46H423.329V23.088ZM450.597 44.848C449.061 43.76 448.005 42.192 447.429 40.176L450.757 38.832C451.077 40.112 451.685 41.168 452.581 41.968C453.445 42.8 454.501 43.184 455.749 43.184C456.901 43.184 457.861 42.896 458.661 42.288C459.461 41.712 459.877 40.88 459.877 39.824C459.877 38.864 459.525 38.096 458.821 37.456C458.117 36.816 456.901 36.208 455.173 35.6L453.733 35.088C452.165 34.544 450.853 33.776 449.829 32.784C448.805 31.792 448.293 30.48 448.293 28.816C448.293 27.696 448.581 26.64 449.189 25.68C449.797 24.72 450.661 23.984 451.749 23.408C452.837 22.864 454.085 22.576 455.493 22.576C457.477 22.576 459.045 23.088 460.261 24.048C461.445 25.008 462.245 26.096 462.693 27.312L459.525 28.656C459.301 27.888 458.853 27.248 458.181 26.672C457.477 26.128 456.613 25.84 455.525 25.84C454.469 25.84 453.573 26.128 452.869 26.672C452.133 27.248 451.781 27.952 451.781 28.784C451.781 29.584 452.101 30.256 452.741 30.768C453.381 31.28 454.405 31.792 455.781 32.24L457.253 32.752C459.205 33.456 460.709 34.32 461.797 35.408C462.853 36.496 463.397 37.968 463.397 39.76C463.397 41.264 463.013 42.512 462.245 43.536C461.477 44.56 460.517 45.296 459.333 45.776C458.149 46.288 456.933 46.512 455.717 46.512C453.797 46.512 452.101 45.968 450.597 44.848ZM466.763 29.68H470.027V31.888H470.219C470.667 31.12 471.371 30.48 472.299 29.968C473.227 29.456 474.283 29.168 475.467 29.168C476.939 29.168 478.251 29.552 479.467 30.288C480.651 31.056 481.579 32.08 482.283 33.392C482.955 34.704 483.307 36.176 483.307 37.84C483.307 39.504 482.955 41.008 482.283 42.32C481.579 43.664 480.651 44.688 479.467 45.424C478.251 46.16 476.939 46.512 475.467 46.512C474.283 46.512 473.227 46.256 472.299 45.744C471.371 45.232 470.667 44.592 470.219 43.824H470.027L470.219 46.096V52.912H466.763V29.68ZM477.387 42.672C478.155 42.224 478.763 41.552 479.211 40.72C479.659 39.888 479.883 38.928 479.883 37.84C479.883 36.752 479.659 35.792 479.211 34.96C478.763 34.128 478.155 33.488 477.387 33.04C476.619 32.592 475.819 32.336 474.955 32.336C474.091 32.336 473.291 32.592 472.523 33.04C471.755 33.488 471.147 34.128 470.699 34.96C470.251 35.792 470.027 36.752 470.027 37.84C470.027 38.928 470.251 39.888 470.699 40.72C471.147 41.552 471.755 42.224 472.523 42.672C473.291 43.12 474.091 43.344 474.955 43.344C475.819 43.344 476.619 43.12 477.387 42.672ZM489.653 45.392C488.373 44.656 487.381 43.632 486.677 42.32C485.973 41.008 485.621 39.536 485.621 37.872C485.621 36.336 485.941 34.896 486.645 33.552C487.349 32.208 488.309 31.152 489.557 30.352C490.773 29.584 492.181 29.168 493.749 29.168C495.381 29.168 496.789 29.552 498.005 30.256C499.189 30.96 500.085 31.952 500.725 33.2C501.365 34.48 501.685 35.888 501.685 37.488C501.685 37.936 501.653 38.288 501.621 38.576H489.013C489.141 40.144 489.717 41.36 490.677 42.192C491.637 43.024 492.757 43.44 494.037 43.44C495.061 43.44 495.957 43.216 496.725 42.736C497.461 42.256 498.069 41.616 498.517 40.816L501.365 42.192C500.597 43.536 499.605 44.592 498.389 45.36C497.141 46.128 495.669 46.512 493.941 46.512C492.341 46.512 490.933 46.16 489.653 45.392ZM498.261 35.984C498.197 35.408 498.005 34.8 497.685 34.192C497.333 33.616 496.821 33.104 496.181 32.72C495.541 32.336 494.741 32.112 493.781 32.112C492.629 32.112 491.637 32.464 490.837 33.168C490.037 33.872 489.493 34.832 489.205 35.984H498.261ZM507.031 45.84C506.103 45.392 505.399 44.72 504.887 43.888C504.375 43.056 504.119 42.128 504.119 41.04C504.119 39.92 504.407 38.96 505.015 38.128C505.591 37.296 506.423 36.688 507.447 36.24C508.471 35.792 509.591 35.568 510.871 35.568C511.831 35.568 512.695 35.664 513.463 35.856C514.231 36.048 514.871 36.24 515.351 36.464V35.6C515.351 34.576 514.967 33.712 514.199 33.072C513.431 32.432 512.439 32.08 511.223 32.08C510.391 32.08 509.591 32.272 508.855 32.656C508.087 33.04 507.511 33.52 507.063 34.16L504.695 32.336C505.399 31.344 506.327 30.576 507.479 30C508.631 29.456 509.911 29.168 511.319 29.168C513.655 29.168 515.479 29.776 516.759 30.928C518.039 32.08 518.711 33.712 518.711 35.792V46H515.351V43.984H515.159C514.679 44.72 514.007 45.328 513.143 45.808C512.247 46.288 511.255 46.512 510.167 46.512C508.983 46.512 507.927 46.288 507.031 45.84ZM513.111 43.088C513.815 42.672 514.359 42.096 514.743 41.392C515.127 40.688 515.351 39.952 515.351 39.12C514.839 38.832 514.231 38.608 513.591 38.416C512.919 38.256 512.215 38.16 511.511 38.16C510.167 38.16 509.175 38.448 508.535 38.96C507.895 39.504 507.607 40.208 507.607 41.072C507.607 41.84 507.895 42.48 508.471 42.96C509.047 43.472 509.815 43.696 510.775 43.696C511.607 43.696 512.407 43.504 513.111 43.088ZM522.516 23.088H525.972V36.528H526.1L532.884 29.68H537.172V29.872L530.868 36.144L537.396 45.808V46H533.3L528.436 38.512L525.972 40.976V46H522.516V23.088ZM542.247 45.392C540.967 44.656 539.975 43.632 539.271 42.32C538.567 41.008 538.215 39.536 538.215 37.872C538.215 36.336 538.535 34.896 539.239 33.552C539.943 32.208 540.903 31.152 542.151 30.352C543.367 29.584 544.775 29.168 546.343 29.168C547.975 29.168 549.383 29.552 550.599 30.256C551.783 30.96 552.679 31.952 553.319 33.2C553.958 34.48 554.279 35.888 554.279 37.488C554.279 37.936 554.247 38.288 554.215 38.576H541.607C541.735 40.144 542.311 41.36 543.271 42.192C544.231 43.024 545.351 43.44 546.631 43.44C547.655 43.44 548.551 43.216 549.319 42.736C550.055 42.256 550.663 41.616 551.111 40.816L553.958 42.192C553.191 43.536 552.199 44.592 550.983 45.36C549.735 46.128 548.263 46.512 546.535 46.512C544.935 46.512 543.527 46.16 542.247 45.392ZM550.855 35.984C550.791 35.408 550.599 34.8 550.279 34.192C549.927 33.616 549.415 33.104 548.775 32.72C548.135 32.336 547.335 32.112 546.375 32.112C545.223 32.112 544.231 32.464 543.431 33.168C542.631 33.872 542.087 34.832 541.799 35.984H550.855ZM557.485 29.68H560.749V32.08H560.941C561.293 31.248 561.901 30.576 562.797 30.032C563.693 29.488 564.653 29.2 565.677 29.2C566.413 29.2 567.085 29.328 567.661 29.52V33.104C566.765 32.72 565.933 32.528 565.133 32.528C563.917 32.528 562.893 33.008 562.125 33.936C561.325 34.896 560.941 36.016 560.941 37.36V46H557.485V29.68ZM571.048 45.296C569.832 44.496 569 43.44 568.52 42.128L571.624 40.784C572.008 41.68 572.552 42.352 573.256 42.8C573.96 43.248 574.76 43.472 575.656 43.472C576.552 43.472 577.32 43.312 577.96 42.992C578.568 42.672 578.888 42.16 578.888 41.488C578.888 40.912 578.6 40.432 578.088 40.08C577.576 39.728 576.744 39.408 575.656 39.152L573.704 38.704C572.391 38.384 571.304 37.84 570.472 37.008C569.608 36.208 569.192 35.184 569.192 33.936C569.192 33.008 569.448 32.176 570.024 31.44C570.6 30.736 571.336 30.16 572.296 29.776C573.256 29.392 574.28 29.168 575.432 29.168C576.968 29.168 578.28 29.488 579.432 30.064C580.584 30.672 581.416 31.536 581.928 32.688L578.952 34.032C578.28 32.752 577.128 32.08 575.464 32.08C574.632 32.08 573.96 32.272 573.416 32.592C572.872 32.944 572.616 33.36 572.616 33.872C572.616 34.832 573.448 35.536 575.112 35.952L577.48 36.528C579.08 36.944 580.264 37.552 581.096 38.352C581.928 39.184 582.344 40.176 582.344 41.36C582.344 42.384 582.024 43.312 581.448 44.08C580.872 44.848 580.072 45.456 579.048 45.872C578.024 46.32 576.872 46.512 575.656 46.512C573.8 46.512 572.264 46.128 571.048 45.296Z" fill="white"/>
<defs>
<linearGradient id="paint0_linear_670_952" x1="0" y1="35" x2="616" y2="35" gradientUnits="userSpaceOnUse">
<stop stop-color="#428EFF"/>
<stop offset="0.108915" stop-color="#428EFF"/>
<stop offset="0.238413" stop-color="#9F6CD4"/>
<stop offset="0.365599" stop-color="#EA4335"/>
<stop offset="0.446535" stop-color="#EA4335"/>
<stop offset="0.55522" stop-color="#F46831"/>
<stop offset="0.656969" stop-color="#FFCB32"/>
<stop offset="0.754092" stop-color="#FFCB32"/>
<stop offset="0.890527" stop-color="#34A853"/>
<stop offset="1" stop-color="#34A853"/>
</linearGradient>
</defs>
</svg>
