<svg width="48" height="48" viewBox="0 0 48 48" fill="none" xmlns="http://www.w3.org/2000/svg">
<g clip-path="url(#clip0_242_116)">
<path d="M37 23.582C37 30.3197 32.0567 35.9053 25.6038 36.9189V27.5105H28.7414L29.3388 23.618H25.6038V21.0924C25.6038 20.027 26.1257 18.9898 27.7975 18.9898H29.4951V15.6755C29.4951 15.6755 27.9539 15.4123 26.4812 15.4123C23.4055 15.4123 21.3962 17.2764 21.3962 20.6503V23.6169H17.9774V27.5094H21.3962V36.9178C14.9444 35.903 10 30.3185 10 23.582C10 16.1267 16.0446 10.082 23.5 10.082C30.9554 10.082 37 16.1255 37 23.582Z" fill="#80868B"/>
</g>
<defs>
<clipPath id="clip0_242_116">
<rect width="27" height="27" fill="white" transform="translate(10 10)"/>
</clipPath>
</defs>
</svg>
