<svg width="145" height="54" viewBox="0 0 145 54" fill="none" xmlns="http://www.w3.org/2000/svg">
<rect x="1.5" y="1.5" width="142" height="51" rx="25.5" stroke="url(#paint0_linear_670_891)" stroke-width="3"/>
<path d="M35.296 36.944C33.472 35.92 32.032 34.48 31.008 32.624C29.952 30.8 29.44 28.784 29.44 26.544C29.44 24.336 29.952 22.32 31.008 20.464C32.032 18.64 33.472 17.2 35.296 16.144C37.12 15.12 39.136 14.576 41.376 14.576C44.8 14.576 47.616 15.824 49.856 18.32L47.392 20.72C46.592 19.792 45.696 19.088 44.736 18.608C43.776 18.16 42.656 17.904 41.408 17.904C39.84 17.904 38.432 18.288 37.152 18.992C35.872 19.696 34.848 20.72 34.112 22.032C33.344 23.344 32.992 24.848 32.992 26.544C32.992 28.272 33.344 29.776 34.112 31.088C34.848 32.4 35.872 33.424 37.152 34.128C38.432 34.832 39.84 35.184 41.408 35.184C44 35.184 46.176 34.128 47.968 31.952L50.496 34.384C49.376 35.696 48.032 36.72 46.496 37.424C44.928 38.16 43.232 38.512 41.376 38.512C39.136 38.512 37.12 38 35.296 36.944ZM53.5473 15.088H57.0033V38H53.5473V15.088ZM64.1863 37.392C62.8743 36.624 61.8503 35.6 61.1463 34.256C60.4103 32.944 60.0583 31.472 60.0583 29.84C60.0583 28.24 60.4103 26.768 61.1463 25.424C61.8503 24.112 62.8743 23.088 64.1863 22.32C65.4663 21.552 66.9383 21.168 68.6023 21.168C70.2023 21.168 71.6743 21.552 72.9863 22.32C74.2663 23.088 75.2903 24.144 76.0263 25.456C76.7303 26.8 77.1143 28.24 77.1143 29.84C77.1143 31.472 76.7303 32.944 76.0263 34.256C75.2903 35.6 74.2663 36.624 72.9863 37.392C71.7063 38.16 70.2343 38.512 68.6023 38.512C66.9383 38.512 65.4663 38.16 64.1863 37.392ZM71.1303 34.672C71.8983 34.224 72.5063 33.584 72.9863 32.752C73.4343 31.92 73.6903 30.96 73.6903 29.84C73.6903 28.752 73.4343 27.76 72.9863 26.928C72.5063 26.096 71.8983 25.456 71.1303 25.008C70.3623 24.56 69.4983 24.336 68.6023 24.336C67.6743 24.336 66.8103 24.56 66.0423 25.008C65.2743 25.456 64.6343 26.096 64.1863 26.928C63.7063 27.76 63.4823 28.752 63.4823 29.84C63.4823 30.96 63.7063 31.92 64.1863 32.752C64.6343 33.584 65.2743 34.224 66.0423 34.672C66.8103 35.12 67.6743 35.344 68.6023 35.344C69.4983 35.344 70.3623 35.12 71.1303 34.672ZM81.549 36.752C80.525 35.568 80.013 33.904 80.013 31.792V21.68H83.469V31.312C83.469 32.656 83.757 33.648 84.397 34.32C85.005 35.024 85.837 35.344 86.893 35.344C87.725 35.344 88.493 35.12 89.165 34.672C89.805 34.224 90.317 33.648 90.669 32.88C91.021 32.144 91.213 31.344 91.213 30.448V21.68H94.637V38H91.405V35.792H91.213C90.733 36.592 90.029 37.232 89.101 37.744C88.141 38.256 87.149 38.512 86.061 38.512C84.077 38.512 82.573 37.936 81.549 36.752ZM101.523 37.424C100.307 36.688 99.3793 35.664 98.7073 34.32C98.0033 33.008 97.6833 31.504 97.6833 29.84C97.6833 28.176 98.0033 26.704 98.7073 25.392C99.3793 24.08 100.307 23.056 101.523 22.288C102.707 21.552 104.051 21.168 105.523 21.168C106.707 21.168 107.763 21.456 108.691 21.968C109.587 22.48 110.291 23.12 110.771 23.888H110.963L110.771 21.616V15.088H114.195V38H110.963V35.824H110.771C110.291 36.592 109.587 37.232 108.691 37.744C107.763 38.256 106.707 38.512 105.523 38.512C104.051 38.512 102.707 38.16 101.523 37.424ZM108.435 34.672C109.203 34.224 109.811 33.552 110.259 32.72C110.707 31.888 110.963 30.928 110.963 29.84C110.963 28.752 110.707 27.792 110.259 26.96C109.811 26.128 109.203 25.488 108.435 25.04C107.667 24.592 106.867 24.336 106.035 24.336C105.171 24.336 104.371 24.592 103.603 25.04C102.835 25.488 102.227 26.128 101.779 26.96C101.331 27.792 101.107 28.752 101.107 29.84C101.107 30.928 101.331 31.888 101.779 32.72C102.227 33.552 102.835 34.224 103.603 34.672C104.371 35.12 105.171 35.344 106.035 35.344C106.867 35.344 107.667 35.12 108.435 34.672Z" fill="#202124"/>
<defs>
<linearGradient id="paint0_linear_670_891" x1="186.025" y1="-17.4587" x2="-20.9699" y2="80.3203" gradientUnits="userSpaceOnUse">
<stop offset="0.199555" stop-color="#FFCB32"/>
<stop offset="0.813373" stop-color="#F46831"/>
</linearGradient>
</defs>
</svg>
