<svg width="48" height="48" viewBox="0 0 48 48" fill="none" xmlns="http://www.w3.org/2000/svg">
<path fill-rule="evenodd" clip-rule="evenodd" d="M20.0418 28.3412V17.8544L30.3975 23.1156L20.0418 28.3412ZM42.783 16.0375C42.783 16.0375 42.4093 13.4669 41.2593 12.3325C39.8026 10.8475 38.1677 10.84 37.4183 10.7519C32.0554 10.375 24.0073 10.375 24.0073 10.375H23.992C23.992 10.375 15.9458 10.375 10.5811 10.7519C9.83167 10.84 8.19867 10.8456 6.74009 12.3325C5.59009 13.4669 5.21634 16.0375 5.21634 16.0375C5.21634 16.0375 4.83301 19.0581 4.83301 22.0787V24.91C4.83301 27.9287 5.21634 30.9494 5.21634 30.9494C5.21634 30.9494 5.59009 33.5219 6.74009 34.6544C8.19676 36.1412 10.1134 36.0944 10.9663 36.25C14.033 36.5369 23.9997 36.625 23.9997 36.625C23.9997 36.625 32.0554 36.6138 37.4183 36.235C38.1677 36.1488 39.8026 36.1412 41.2593 34.6544C42.4093 33.5219 42.783 30.9494 42.783 30.9494C42.783 30.9494 43.1663 27.9306 43.1663 24.91V22.0787C43.1663 19.0581 42.783 16.0375 42.783 16.0375Z" fill="#80868B"/>
</svg>
