<svg width="48" height="48" viewBox="0 0 48 48" fill="none" xmlns="http://www.w3.org/2000/svg">
<g clip-path="url(#clip0_242_87)">
<path d="M18.4948 10.0944C16.952 10.1622 15.8984 10.3914 14.9773 10.7284C14.0241 11.0742 13.2162 11.5384 12.4123 12.2895C11.6084 13.0407 11.1133 13.7934 10.7445 14.6823C10.3875 15.5417 10.1456 16.5234 10.0775 17.9606C10.0093 19.3978 9.99422 19.8598 10.0018 23.5259C10.0093 27.1919 10.0267 27.6514 10.1015 29.0917C10.1752 30.5278 10.4205 31.5085 10.7825 32.3663C11.1545 33.2537 11.6525 34.0057 12.4595 34.7544C13.2666 35.5032 14.0746 35.9629 15.0316 36.3069C15.9538 36.6387 17.0085 36.865 18.5519 36.9279C20.0953 36.9909 20.5921 37.0054 24.5286 36.9983C28.4652 36.9914 28.9607 36.9752 30.5073 36.9068C32.0538 36.8385 33.1017 36.6085 34.0233 36.2732C34.9765 35.9259 35.7848 35.4632 36.5884 34.7114C37.392 33.9598 37.8867 33.2065 38.2554 32.3172C38.6126 31.4586 38.8553 30.4765 38.9224 29.0406C38.9899 27.5996 39.0058 27.1396 38.9983 23.474C38.9908 19.8085 38.973 19.349 38.8997 17.9093C38.8263 16.4697 38.5807 15.492 38.219 14.6337C37.8463 13.7462 37.349 12.9948 36.5423 12.2455C35.7355 11.4963 34.9258 11.0359 33.9707 10.6935C33.048 10.3612 31.9938 10.1346 30.4505 10.0725C28.907 10.0104 28.4102 9.99452 24.4723 10.0015C20.5344 10.0086 20.0414 10.0242 18.4948 10.0944ZM18.6642 34.4993C17.2504 34.4421 16.4827 34.2234 15.9712 34.0403C15.2937 33.7973 14.8112 33.5035 14.3013 33.0334C13.7915 32.5634 13.4783 32.1125 13.2138 31.4831C13.0152 31.0068 12.7759 30.2929 12.7098 28.9766C12.6379 27.5541 12.6228 27.1269 12.6144 23.5226C12.606 19.9184 12.6208 19.4918 12.6878 18.0686C12.7481 16.7534 12.9844 16.0379 13.1808 15.5619C13.4418 14.9304 13.7561 14.4819 14.2622 14.0075C14.7682 13.5332 15.2511 13.241 15.9277 12.9948C16.4387 12.809 17.2054 12.5882 18.6186 12.5255C20.1478 12.458 20.606 12.4445 24.4767 12.4367C28.3473 12.4288 28.8067 12.4423 30.3365 12.505C31.7491 12.5622 32.5178 12.7801 33.0286 12.964C33.7063 13.207 34.1886 13.4989 34.6981 13.9708C35.2077 14.4428 35.5217 14.8907 35.7863 15.522C35.986 15.9964 36.2232 16.71 36.2899 18.0265C36.3627 19.4502 36.3793 19.8771 36.3862 23.4805C36.3932 27.0839 36.3796 27.5119 36.3126 28.9346C36.2508 30.2508 36.0164 30.9658 35.8196 31.4426C35.5586 32.073 35.244 32.5226 34.7375 32.9967C34.2312 33.4708 33.749 33.763 33.0721 34.0092C32.5617 34.1947 31.794 34.4161 30.3821 34.4787C28.8529 34.5457 28.3947 34.5597 24.5225 34.5676C20.6504 34.5754 20.1933 34.5609 18.6642 34.4993ZM30.4849 16.2847C30.4856 16.6052 30.5881 16.9182 30.7799 17.1843C30.9716 17.4505 31.2437 17.6577 31.5618 17.7798C31.8802 17.9019 32.23 17.9334 32.5675 17.8703C32.9049 17.8073 33.2147 17.6524 33.4576 17.4254C33.7005 17.1985 33.8656 16.9095 33.9322 16.5951C33.9987 16.2807 33.9636 15.955 33.8313 15.6592C33.699 15.3634 33.4753 15.1108 33.1889 14.9333C32.9023 14.7558 32.5656 14.6614 32.2215 14.662C31.7601 14.6629 31.3181 14.8343 30.9924 15.1386C30.6668 15.4429 30.4842 15.8552 30.4849 16.2847ZM17.0549 23.5135C17.0631 27.3421 20.4027 30.4387 24.5141 30.4314C28.6255 30.4241 31.9539 27.3151 31.946 23.4865C31.9382 19.6578 28.5977 16.5604 24.4857 16.568C20.3737 16.5755 17.0471 19.6854 17.0549 23.5135ZM19.6667 23.5086C19.6648 22.6186 19.9464 21.748 20.476 21.007C21.0055 20.266 21.7592 19.6878 22.6416 19.3456C23.5241 19.0033 24.4958 18.9124 25.4337 19.0843C26.3717 19.2562 27.2338 19.6832 27.9113 20.3113C28.5885 20.9395 29.0506 21.7404 29.2389 22.613C29.4273 23.4856 29.3334 24.3906 28.9694 25.2136C28.6052 26.0365 27.9873 26.7405 27.1934 27.2365C26.3997 27.7324 25.4657 27.998 24.5097 27.9997C23.875 28.0011 23.2462 27.8858 22.6592 27.6609C22.0723 27.4358 21.5387 27.1053 21.089 26.6882C20.6392 26.2711 20.2822 25.7757 20.0381 25.2301C19.7941 24.6846 19.6679 24.0996 19.6667 23.5086Z" fill="#80868B"/>
</g>
<defs>
<clipPath id="clip0_242_87">
<rect width="29" height="27" fill="white" transform="translate(10 10)"/>
</clipPath>
</defs>
</svg>
