<svg width="224" height="54" viewBox="0 0 224 54" fill="none" xmlns="http://www.w3.org/2000/svg">
<rect x="1.5" y="1.5" width="221" height="51" rx="25.5" stroke="url(#paint0_linear_670_883)" stroke-width="3"/>
<path d="M37.12 15.088H41.12L49.792 38H45.92L43.808 32.112H34.464L32.352 38H28.48L37.12 15.088ZM42.656 28.848L40.096 21.84L39.232 19.216H39.04L38.176 21.84L35.616 28.848H42.656ZM52.8733 15.088H56.3933V38H52.8733V15.088ZM70.1495 35.888C68.9975 33.328 68.4535 30.608 68.4535 27.696C68.4535 24.816 68.9975 22.064 70.1495 19.504C71.2695 16.944 72.6135 14.8 74.1495 13.04L76.7095 14.832C75.2375 16.592 74.0855 18.576 73.2215 20.784C72.3255 23.024 71.9095 25.328 71.9095 27.696C71.9095 30.096 72.3255 32.4 73.2215 34.608C74.0855 36.848 75.2375 38.832 76.7095 40.56L74.1495 42.352C72.6135 40.624 71.2695 38.448 70.1495 35.888ZM84.7678 36.944C82.9118 35.92 81.4718 34.48 80.3838 32.656C79.2958 30.832 78.7838 28.784 78.7838 26.544C78.7838 24.304 79.2958 22.288 80.3838 20.464C81.4718 18.64 82.9118 17.2 84.7678 16.144C86.5918 15.12 88.6078 14.576 90.7838 14.576C92.5118 14.576 94.1438 14.896 95.6158 15.504C97.0878 16.144 98.3358 17.008 99.3598 18.096L96.9278 20.528C95.3598 18.8 93.3118 17.904 90.7838 17.904C89.2798 17.904 87.8718 18.288 86.5918 18.992C85.2798 19.696 84.2558 20.72 83.4878 22.032C82.7198 23.376 82.3358 24.88 82.3358 26.544C82.3358 28.272 82.7198 29.776 83.4878 31.088C84.2558 32.4 85.3118 33.424 86.5918 34.128C87.8718 34.832 89.2798 35.184 90.8158 35.184C93.2158 35.184 95.1678 34.448 96.7038 32.912C97.1838 32.464 97.5998 31.856 97.9198 31.12C98.2398 30.416 98.4958 29.616 98.6238 28.72H90.7518V25.616H101.888C102.016 26.352 102.08 26.96 102.08 27.472C102.08 28.944 101.824 30.32 101.376 31.632C100.928 32.944 100.224 34.096 99.2638 35.088C98.2398 36.208 96.9918 37.072 95.5838 37.648C94.1438 38.224 92.5438 38.512 90.7838 38.512C88.6078 38.512 86.5918 38 84.7678 36.944ZM108.59 37.392C107.31 36.656 106.318 35.632 105.614 34.32C104.91 33.008 104.558 31.536 104.558 29.872C104.558 28.336 104.878 26.896 105.582 25.552C106.286 24.208 107.246 23.152 108.494 22.352C109.71 21.584 111.118 21.168 112.686 21.168C114.318 21.168 115.726 21.552 116.942 22.256C118.126 22.96 119.022 23.952 119.662 25.2C120.302 26.48 120.622 27.888 120.622 29.488C120.622 29.936 120.59 30.288 120.558 30.576H107.95C108.078 32.144 108.654 33.36 109.614 34.192C110.574 35.024 111.694 35.44 112.974 35.44C113.998 35.44 114.894 35.216 115.662 34.736C116.398 34.256 117.006 33.616 117.454 32.816L120.302 34.192C119.534 35.536 118.542 36.592 117.326 37.36C116.078 38.128 114.606 38.512 112.878 38.512C111.278 38.512 109.87 38.16 108.59 37.392ZM117.198 27.984C117.134 27.408 116.942 26.8 116.622 26.192C116.27 25.616 115.758 25.104 115.118 24.72C114.478 24.336 113.678 24.112 112.718 24.112C111.566 24.112 110.574 24.464 109.774 25.168C108.974 25.872 108.43 26.832 108.142 27.984H117.198ZM123.829 21.68H127.093V23.92H127.285C127.765 23.12 128.469 22.448 129.365 21.936C130.26 21.424 131.22 21.168 132.309 21.168C133.461 21.168 134.485 21.456 135.349 22C136.213 22.576 136.853 23.312 137.237 24.208C137.812 23.312 138.549 22.576 139.477 22C140.405 21.456 141.493 21.168 142.773 21.168C144.629 21.168 146.069 21.744 147.029 22.896C147.989 24.048 148.469 25.584 148.469 27.536V38H145.045V28.112C145.045 25.616 143.957 24.336 141.845 24.336C140.661 24.336 139.701 24.816 138.965 25.744C138.229 26.704 137.877 27.856 137.877 29.264V38H134.453V28.112C134.453 25.616 133.333 24.336 131.157 24.336C130.005 24.336 129.077 24.816 128.373 25.776C127.637 26.736 127.285 27.888 127.285 29.296V38H123.829V21.68ZM152.711 18.608C152.263 18.16 152.039 17.584 152.039 16.944C152.039 16.304 152.263 15.76 152.711 15.312C153.159 14.864 153.735 14.64 154.375 14.64C155.015 14.64 155.559 14.864 156.007 15.312C156.455 15.76 156.711 16.304 156.711 16.944C156.711 17.584 156.455 18.16 156.007 18.608C155.559 19.056 155.015 19.28 154.375 19.28C153.735 19.28 153.159 19.056 152.711 18.608ZM152.647 21.68H156.103V38H152.647V21.68ZM160.391 21.68H163.655V23.92H163.847C164.295 23.12 164.999 22.448 165.959 21.936C166.887 21.424 167.911 21.168 168.999 21.168C170.951 21.168 172.455 21.776 173.479 22.928C174.503 24.08 175.015 25.68 175.015 27.696V38H171.591V28.144C171.591 26.864 171.271 25.936 170.631 25.296C169.991 24.656 169.095 24.336 168.007 24.336C167.175 24.336 166.471 24.56 165.831 25.008C165.191 25.456 164.711 26.064 164.359 26.8C164.007 27.568 163.847 28.368 163.847 29.232V38H160.391V21.68ZM179.274 18.608C178.826 18.16 178.602 17.584 178.602 16.944C178.602 16.304 178.826 15.76 179.274 15.312C179.722 14.864 180.298 14.64 180.938 14.64C181.578 14.64 182.122 14.864 182.57 15.312C183.018 15.76 183.274 16.304 183.274 16.944C183.274 17.584 183.018 18.16 182.57 18.608C182.122 19.056 181.578 19.28 180.938 19.28C180.298 19.28 179.722 19.056 179.274 18.608ZM179.21 21.68H182.666V38H179.21V21.68ZM185.578 40.56C187.018 38.832 188.17 36.848 189.066 34.608C189.93 32.4 190.378 30.096 190.378 27.696C190.378 25.328 189.93 23.024 189.066 20.784C188.17 18.576 187.018 16.592 185.578 14.832L188.138 13.04C189.674 14.8 190.986 16.944 192.106 19.504C193.226 22.064 193.802 24.816 193.802 27.696C193.802 30.608 193.226 33.328 192.106 35.888C190.986 38.448 189.674 40.624 188.138 42.352L185.578 40.56Z" fill="#202124"/>
<defs>
<linearGradient id="paint0_linear_670_883" x1="285.55" y1="54" x2="-47.4641" y2="-39.0585" gradientUnits="userSpaceOnUse">
<stop stop-color="#4285F4"/>
<stop offset="0.328906" stop-color="#4285F4"/>
<stop offset="0.680426" stop-color="#34A853"/>
<stop offset="1" stop-color="#34A853"/>
</linearGradient>
</defs>
</svg>
