<svg width="183" height="54" viewBox="0 0 183 54" fill="none" xmlns="http://www.w3.org/2000/svg">
<rect x="1.5" y="1.5" width="180" height="51" rx="25.5" stroke="url(#paint0_linear_670_887)" stroke-width="3"/>
<path d="M30.592 15.088H44.48V18.416H34.112V25.136H43.456V28.464H34.112V38H30.592V15.088ZM47.6798 18.608C47.2318 18.16 47.0078 17.584 47.0078 16.944C47.0078 16.304 47.2318 15.76 47.6798 15.312C48.1278 14.864 48.7038 14.64 49.3438 14.64C49.9838 14.64 50.5278 14.864 50.9758 15.312C51.4238 15.76 51.6798 16.304 51.6798 16.944C51.6798 17.584 51.4238 18.16 50.9758 18.608C50.5278 19.056 49.9838 19.28 49.3438 19.28C48.7038 19.28 48.1278 19.056 47.6798 18.608ZM47.6158 21.68H51.0718V38H47.6158V21.68ZM55.3598 21.68H58.6238V24.08H58.8158C59.1678 23.248 59.7758 22.576 60.6718 22.032C61.5677 21.488 62.5278 21.2 63.5518 21.2C64.2878 21.2 64.9598 21.328 65.5358 21.52V25.104C64.6398 24.72 63.8078 24.528 63.0078 24.528C61.7917 24.528 60.7678 25.008 59.9998 25.936C59.1998 26.896 58.8158 28.016 58.8158 29.36V38H55.3598V21.68ZM70.4028 37.392C69.1228 36.656 68.1308 35.632 67.4268 34.32C66.7228 33.008 66.3708 31.536 66.3708 29.872C66.3708 28.336 66.6908 26.896 67.3948 25.552C68.0988 24.208 69.0588 23.152 70.3068 22.352C71.5228 21.584 72.9308 21.168 74.4988 21.168C76.1308 21.168 77.5388 21.552 78.7548 22.256C79.9388 22.96 80.8348 23.952 81.4748 25.2C82.1147 26.48 82.4348 27.888 82.4348 29.488C82.4348 29.936 82.4028 30.288 82.3708 30.576H69.7628C69.8908 32.144 70.4668 33.36 71.4268 34.192C72.3868 35.024 73.5068 35.44 74.7868 35.44C75.8108 35.44 76.7068 35.216 77.4748 34.736C78.2108 34.256 78.8188 33.616 79.2668 32.816L82.1147 34.192C81.3468 35.536 80.3548 36.592 79.1388 37.36C77.8908 38.128 76.4188 38.512 74.6908 38.512C73.0908 38.512 71.6828 38.16 70.4028 37.392ZM79.0108 27.984C78.9468 27.408 78.7548 26.8 78.4348 26.192C78.0828 25.616 77.5708 25.104 76.9308 24.72C76.2908 24.336 75.4908 24.112 74.5308 24.112C73.3788 24.112 72.3868 24.464 71.5868 25.168C70.7868 25.872 70.2428 26.832 69.9548 27.984H79.0108ZM91.177 37.744C90.249 37.232 89.545 36.592 89.097 35.824H88.905V38H85.641V15.088H89.097V21.616L88.905 23.888H89.097C89.545 23.12 90.249 22.48 91.177 21.968C92.105 21.456 93.161 21.168 94.345 21.168C95.817 21.168 97.129 21.552 98.345 22.288C99.529 23.056 100.457 24.08 101.161 25.392C101.833 26.704 102.185 28.176 102.185 29.84C102.185 31.504 101.833 33.008 101.161 34.32C100.457 35.664 99.529 36.688 98.345 37.424C97.129 38.16 95.817 38.512 94.345 38.512C93.161 38.512 92.105 38.256 91.177 37.744ZM96.265 34.672C97.033 34.224 97.641 33.552 98.089 32.72C98.537 31.888 98.761 30.928 98.761 29.84C98.761 28.752 98.537 27.792 98.089 26.96C97.641 26.128 97.033 25.488 96.265 25.04C95.497 24.592 94.697 24.336 93.833 24.336C92.969 24.336 92.169 24.592 91.401 25.04C90.633 25.488 90.025 26.128 89.577 26.96C89.129 27.792 88.905 28.752 88.905 29.84C88.905 30.928 89.129 31.888 89.577 32.72C90.025 33.552 90.633 34.224 91.401 34.672C92.169 35.12 92.969 35.344 93.833 35.344C94.697 35.344 95.497 35.12 96.265 34.672ZM107.344 37.84C106.416 37.392 105.712 36.72 105.2 35.888C104.688 35.056 104.432 34.128 104.432 33.04C104.432 31.92 104.72 30.96 105.328 30.128C105.904 29.296 106.736 28.688 107.76 28.24C108.784 27.792 109.904 27.568 111.184 27.568C112.144 27.568 113.008 27.664 113.776 27.856C114.544 28.048 115.184 28.24 115.664 28.464V27.6C115.664 26.576 115.28 25.712 114.512 25.072C113.744 24.432 112.752 24.08 111.536 24.08C110.704 24.08 109.904 24.272 109.168 24.656C108.4 25.04 107.824 25.52 107.376 26.16L105.008 24.336C105.712 23.344 106.64 22.576 107.792 22C108.944 21.456 110.224 21.168 111.632 21.168C113.968 21.168 115.792 21.776 117.072 22.928C118.352 24.08 119.024 25.712 119.024 27.792V38H115.664V35.984H115.472C114.992 36.72 114.32 37.328 113.456 37.808C112.56 38.288 111.568 38.512 110.48 38.512C109.296 38.512 108.24 38.288 107.344 37.84ZM113.424 35.088C114.128 34.672 114.672 34.096 115.056 33.392C115.44 32.688 115.664 31.952 115.664 31.12C115.152 30.832 114.544 30.608 113.904 30.416C113.232 30.256 112.528 30.16 111.824 30.16C110.48 30.16 109.488 30.448 108.848 30.96C108.208 31.504 107.92 32.208 107.92 33.072C107.92 33.84 108.208 34.48 108.784 34.96C109.36 35.472 110.128 35.696 111.088 35.696C111.92 35.696 112.72 35.504 113.424 35.088ZM124.016 37.296C122.8 36.496 121.968 35.44 121.488 34.128L124.592 32.784C124.976 33.68 125.52 34.352 126.224 34.8C126.928 35.248 127.728 35.472 128.624 35.472C129.52 35.472 130.288 35.312 130.928 34.992C131.536 34.672 131.856 34.16 131.856 33.488C131.856 32.912 131.568 32.432 131.056 32.08C130.544 31.728 129.712 31.408 128.624 31.152L126.672 30.704C125.36 30.384 124.272 29.84 123.44 29.008C122.576 28.208 122.16 27.184 122.16 25.936C122.16 25.008 122.416 24.176 122.992 23.44C123.568 22.736 124.304 22.16 125.264 21.776C126.224 21.392 127.248 21.168 128.4 21.168C129.936 21.168 131.248 21.488 132.4 22.064C133.552 22.672 134.384 23.536 134.896 24.688L131.92 26.032C131.248 24.752 130.096 24.08 128.432 24.08C127.6 24.08 126.928 24.272 126.384 24.592C125.84 24.944 125.584 25.36 125.584 25.872C125.584 26.832 126.416 27.536 128.08 27.952L130.448 28.528C132.048 28.944 133.232 29.552 134.064 30.352C134.896 31.184 135.312 32.176 135.312 33.36C135.312 34.384 134.992 35.312 134.416 36.08C133.84 36.848 133.04 37.456 132.016 37.872C130.992 38.32 129.84 38.512 128.624 38.512C126.768 38.512 125.232 38.128 124.016 37.296ZM141.653 37.392C140.373 36.656 139.381 35.632 138.677 34.32C137.973 33.008 137.621 31.536 137.621 29.872C137.621 28.336 137.941 26.896 138.645 25.552C139.349 24.208 140.309 23.152 141.557 22.352C142.773 21.584 144.181 21.168 145.749 21.168C147.381 21.168 148.789 21.552 150.005 22.256C151.189 22.96 152.085 23.952 152.725 25.2C153.365 26.48 153.685 27.888 153.685 29.488C153.685 29.936 153.653 30.288 153.621 30.576H141.013C141.141 32.144 141.717 33.36 142.677 34.192C143.637 35.024 144.757 35.44 146.037 35.44C147.061 35.44 147.957 35.216 148.725 34.736C149.461 34.256 150.069 33.616 150.517 32.816L153.365 34.192C152.597 35.536 151.605 36.592 150.389 37.36C149.141 38.128 147.669 38.512 145.941 38.512C144.341 38.512 142.933 38.16 141.653 37.392ZM150.261 27.984C150.197 27.408 150.005 26.8 149.685 26.192C149.333 25.616 148.821 25.104 148.181 24.72C147.541 24.336 146.741 24.112 145.781 24.112C144.629 24.112 143.637 24.464 142.837 25.168C142.037 25.872 141.493 26.832 141.205 27.984H150.261Z" fill="#202124"/>
<defs>
<linearGradient id="paint0_linear_670_887" x1="234.776" y1="-17.4587" x2="-0.970011" y2="123.086" gradientUnits="userSpaceOnUse">
<stop offset="0.1926" stop-color="#EA4335"/>
<stop offset="0.813373" stop-color="#9F6CD4"/>
</linearGradient>
</defs>
</svg>
