<svg width="31" height="31" viewBox="0 0 31 31" fill="none" xmlns="http://www.w3.org/2000/svg">
<path d="M26.4407 2.58319H4.55988C4.31392 2.57977 4.0697 2.62484 3.84116 2.71582C3.61261 2.8068 3.40423 2.94191 3.22791 3.11343C3.05159 3.28496 2.91079 3.48953 2.81354 3.71548C2.71629 3.94142 2.6645 4.18431 2.66113 4.43027V26.5694C2.6645 26.8154 2.71629 27.0583 2.81354 27.2842C2.91079 27.5102 3.05159 27.7148 3.22791 27.8863C3.40423 28.0578 3.61261 28.1929 3.84116 28.2839C4.0697 28.3749 4.31392 28.4199 4.55988 28.4165H26.4407C26.6867 28.4199 26.9309 28.3749 27.1594 28.2839C27.388 28.1929 27.5964 28.0578 27.7727 27.8863C27.949 27.7148 28.0898 27.5102 28.1871 27.2842C28.2843 27.0583 28.3361 26.8154 28.3395 26.5694V4.43027C28.3361 4.18431 28.2843 3.94142 28.1871 3.71548C28.0898 3.48953 27.949 3.28496 27.7727 3.11343C27.5964 2.94191 27.388 2.8068 27.1594 2.71582C26.9309 2.62484 26.6867 2.57977 26.4407 2.58319ZM10.4499 24.2057H6.57488V12.5807H10.4499V24.2057ZM8.51238 10.9532C7.97797 10.9532 7.46545 10.7409 7.08756 10.363C6.70968 9.98512 6.49738 9.4726 6.49738 8.93819C6.49738 8.40378 6.70968 7.89125 7.08756 7.51337C7.46545 7.13548 7.97797 6.92319 8.51238 6.92319C8.79616 6.89101 9.08353 6.91913 9.35568 7.0057C9.62783 7.09228 9.87863 7.23537 10.0916 7.4256C10.3047 7.61582 10.4751 7.8489 10.5918 8.10956C10.7085 8.37022 10.7688 8.6526 10.7688 8.93819C10.7688 9.22378 10.7085 9.50615 10.5918 9.76682C10.4751 10.0275 10.3047 10.2606 10.0916 10.4508C9.87863 10.641 9.62783 10.7841 9.35568 10.8707C9.08353 10.9573 8.79616 10.9854 8.51238 10.9532ZM24.4257 24.2057H20.5507V17.9669C20.5507 16.404 19.9953 15.3836 18.5874 15.3836C18.1517 15.3868 17.7274 15.5235 17.3717 15.7752C17.016 16.0269 16.7461 16.3816 16.5982 16.7915C16.4971 17.0951 16.4533 17.4148 16.469 17.7344V24.1928H12.594V12.5678H16.469V14.2082C16.8211 13.5974 17.3331 13.0942 17.9499 12.7527C18.5667 12.4113 19.2649 12.2447 19.9695 12.2707C22.5528 12.2707 24.4257 13.9369 24.4257 17.5149V24.2057Z" fill="#80868B"/>
</svg>
