<svg width="468" height="617" viewBox="0 0 468 617" fill="none" xmlns="http://www.w3.org/2000/svg">
<g clip-path="url(#clip0_655_92)">
<path d="M278.707 449.796C288.249 446.541 295.537 439.019 298.483 429.375C305.441 406.579 326.459 389.831 351.566 389.435C376.673 389.028 398.219 405.095 405.903 427.649C409.156 437.194 416.675 444.484 426.316 447.432C449.104 454.392 465.845 475.418 466.241 500.534C466.648 525.651 450.588 547.204 428.042 554.891C418.5 558.146 411.212 565.668 408.266 575.312C401.308 598.108 380.29 614.856 355.183 615.251C330.075 615.658 308.53 599.592 300.846 577.038C297.592 567.493 290.073 560.202 280.433 557.255C257.645 550.294 240.903 529.269 240.508 504.152C240.101 479.036 256.161 457.483 278.707 449.796Z" fill="url(#paint0_linear_655_92)"/>
<mask id="mask0_655_92" style="mask-type:luminance" maskUnits="userSpaceOnUse" x="240" y="389" width="227" height="227">
<path d="M278.707 449.796C288.249 446.541 295.537 439.019 298.483 429.375C305.441 406.579 326.459 389.831 351.566 389.435C376.673 389.028 398.219 405.095 405.903 427.649C409.156 437.194 416.675 444.484 426.316 447.432C449.104 454.392 465.845 475.418 466.241 500.534C466.648 525.651 450.588 547.204 428.042 554.891C418.5 558.146 411.212 565.668 408.266 575.312C401.308 598.108 380.29 614.856 355.183 615.251C330.075 615.658 308.53 599.592 300.846 577.038C297.592 567.493 290.073 560.202 280.433 557.255C257.645 550.294 240.903 529.269 240.508 504.152C240.101 479.036 256.161 457.483 278.707 449.796Z" fill="white"/>
</mask>
<g mask="url(#mask0_655_92)">
<path d="M252.501 532.645C299.6 532.645 337.781 494.449 337.781 447.333C337.781 400.216 299.6 362.021 252.501 362.021C205.401 362.021 167.22 400.216 167.22 447.333C167.22 494.449 205.401 532.645 252.501 532.645Z" fill="#202124"/>
</g>
<path d="M278.707 449.796C288.249 446.541 295.537 439.019 298.483 429.375C305.441 406.579 326.459 389.831 351.566 389.435C376.673 389.028 398.219 405.095 405.903 427.649C409.156 437.194 416.675 444.484 426.316 447.432C449.104 454.392 465.845 475.418 466.241 500.534C466.648 525.651 450.588 547.204 428.042 554.891C418.5 558.146 411.212 565.668 408.266 575.312C401.308 598.108 380.29 614.856 355.183 615.251C330.075 615.658 308.53 599.592 300.846 577.038C297.592 567.493 290.073 560.202 280.433 557.255C257.645 550.294 240.903 529.269 240.508 504.152C240.101 479.036 256.161 457.483 278.707 449.796Z" stroke="#202124" stroke-width="3.17" stroke-miterlimit="10"/>
<path d="M170.705 523.935C250.478 523.935 315.148 459.242 315.148 379.439C315.148 299.636 250.478 234.943 170.705 234.943C90.9308 234.943 26.2615 299.636 26.2615 379.439C26.2615 459.242 90.9308 523.935 170.705 523.935Z" fill="white"/>
<mask id="mask1_655_92" style="mask-type:luminance" maskUnits="userSpaceOnUse" x="26" y="234" width="290" height="290">
<path d="M170.705 523.935C250.478 523.935 315.148 459.242 315.148 379.439C315.148 299.636 250.478 234.943 170.705 234.943C90.9308 234.943 26.2615 299.636 26.2615 379.439C26.2615 459.242 90.9308 523.935 170.705 523.935Z" fill="white"/>
</mask>
<g mask="url(#mask1_655_92)">
<path d="M263.944 208.661V550.206" stroke="#202124" stroke-width="3.17" stroke-miterlimit="10"/>
<path d="M201.792 208.661V550.206" stroke="#202124" stroke-width="3.17" stroke-miterlimit="10"/>
<path d="M139.628 208.661V550.206" stroke="#202124" stroke-width="3.17" stroke-miterlimit="10"/>
<path d="M77.4761 208.661V550.206" stroke="#202124" stroke-width="3.17" stroke-miterlimit="10"/>
<path d="M0 286.166H341.42" stroke="#202124" stroke-width="3.17" stroke-miterlimit="10"/>
<path d="M0 348.352H341.42" stroke="#202124" stroke-width="3.17" stroke-miterlimit="10"/>
<path d="M0 410.527H341.42" stroke="#202124" stroke-width="3.17" stroke-miterlimit="10"/>
<path d="M0 472.702H341.42" stroke="#202124" stroke-width="3.17" stroke-miterlimit="10"/>
<path d="M294.558 380.821C313.481 372.742 320.908 347.641 311.145 324.755C301.383 301.87 278.128 289.866 259.204 297.945C240.28 306.023 232.854 331.125 242.616 354.01C252.379 376.896 275.634 388.899 294.558 380.821Z" fill="#202124"/>
</g>
<path d="M170.705 523.935C250.478 523.935 315.148 459.242 315.148 379.439C315.148 299.636 250.478 234.943 170.705 234.943C90.9308 234.943 26.2615 299.636 26.2615 379.439C26.2615 459.242 90.9308 523.935 170.705 523.935Z" stroke="#202124" stroke-width="3.17" stroke-miterlimit="10"/>
<path d="M298.343 145.577L215.058 252.715C195.392 278.015 199.95 314.473 225.241 334.146C250.531 353.82 286.975 349.26 306.642 323.96L389.927 216.822C409.593 191.522 405.034 155.064 379.744 135.39C354.454 115.717 318.009 120.277 298.343 145.577Z" fill="url(#paint1_linear_655_92)" stroke="#202124" stroke-width="3" stroke-miterlimit="10"/>
<path d="M392.083 145.286L306.234 25.815C287.535 -0.207926 251.288 -6.13927 225.274 12.567C199.261 31.2733 193.332 67.5335 212.031 93.5565L297.88 213.028C316.579 239.051 352.826 244.982 378.84 226.276C404.853 207.569 410.782 171.309 392.083 145.286Z" fill="url(#paint2_linear_655_92)" stroke="#202124" stroke-width="3" stroke-miterlimit="10"/>
</g>
<defs>
<linearGradient id="paint0_linear_655_92" x1="476.365" y1="628.403" x2="269.792" y2="416.826" gradientUnits="userSpaceOnUse">
<stop stop-color="#4B84C4"/>
<stop offset="0.35" stop-color="#4B84C4"/>
<stop offset="0.67" stop-color="#00A94D"/>
<stop offset="1" stop-color="#00A94D"/>
</linearGradient>
<linearGradient id="paint1_linear_655_92" x1="442.818" y1="57.2363" x2="-96.1695" y2="606.299" gradientUnits="userSpaceOnUse">
<stop stop-color="#FFC609"/>
<stop offset="0.23" stop-color="#FFC609"/>
<stop offset="0.47" stop-color="#ED342F"/>
<stop offset="0.73" stop-color="#ED342F"/>
<stop offset="1" stop-color="#ED342F"/>
</linearGradient>
<linearGradient id="paint2_linear_655_92" x1="493.558" y1="172.714" x2="-296.848" y2="-19.2389" gradientUnits="userSpaceOnUse">
<stop stop-color="#FFC609"/>
<stop offset="0.23" stop-color="#FFC609"/>
<stop offset="0.47" stop-color="#FD2B25"/>
<stop offset="0.73" stop-color="#ED342F"/>
<stop offset="1" stop-color="#ED342F"/>
</linearGradient>
<clipPath id="clip0_655_92">
<rect width="468" height="617" fill="white"/>
</clipPath>
</defs>
</svg>
