<svg width="224" height="212" viewBox="0 0 224 212" fill="none" xmlns="http://www.w3.org/2000/svg">
<path d="M112 36C112 26.0588 103.941 18 94 18C103.941 18 112 9.94117 112 0C112 9.94117 120.059 18 130 18C120.059 18 112 26.0588 112 36Z" fill="url(#paint0_linear_651_6)" stroke="#202124" stroke-miterlimit="10"/>
<rect x="1" y="53" width="222" height="46" rx="23" fill="#202124"/>
<rect x="1" y="53" width="222" height="46" rx="23" stroke="url(#paint1_linear_651_6)" stroke-width="2"/>
<path d="M58.04 81.84C56.9 81.2 56 80.3 55.36 79.16C54.72 78.02 54.4 76.74 54.4 75.34C54.4 73.94 54.72 72.68 55.36 71.54C56 70.4 56.9 69.5 58.04 68.84C59.16 68.2 60.42 67.86 61.82 67.86C62.88 67.86 63.86 68.06 64.74 68.46C65.62 68.86 66.4 69.44 67.06 70.2L65.84 71.38C65.28 70.74 64.68 70.26 64.04 69.94C63.4 69.64 62.66 69.48 61.82 69.48C60.78 69.48 59.82 69.74 58.96 70.22C58.08 70.7 57.4 71.4 56.88 72.28C56.36 73.16 56.12 74.18 56.12 75.34C56.12 76.5 56.36 77.54 56.88 78.42C57.4 79.3 58.08 80 58.96 80.48C59.82 80.96 60.78 81.2 61.82 81.2C63.54 81.2 65.02 80.5 66.24 79.06L67.48 80.26C66.82 81.06 66 81.68 65.02 82.14C64.04 82.6 62.98 82.82 61.82 82.82C60.42 82.82 59.16 82.5 58.04 81.84ZM71.1936 82.1C70.3936 81.62 69.7536 80.98 69.3136 80.14C68.8736 79.32 68.6536 78.4 68.6536 77.4C68.6536 76.4 68.8736 75.5 69.3136 74.66C69.7536 73.84 70.3936 73.18 71.1936 72.7C71.9936 72.22 72.8936 71.98 73.8936 71.98C74.8936 71.98 75.7936 72.22 76.5936 72.7C77.3936 73.18 78.0136 73.84 78.4536 74.66C78.8936 75.5 79.1336 76.4 79.1336 77.4C79.1336 78.4 78.8936 79.32 78.4536 80.14C78.0136 80.98 77.3936 81.62 76.5936 82.1C75.7936 82.58 74.8936 82.82 73.8936 82.82C72.8936 82.82 71.9936 82.58 71.1936 82.1ZM75.6336 80.82C76.1736 80.5 76.6136 80.06 76.9336 79.46C77.2536 78.88 77.4336 78.2 77.4336 77.4C77.4336 76.62 77.2536 75.94 76.9336 75.34C76.6136 74.76 76.1736 74.32 75.6336 74C75.0936 73.68 74.5136 73.52 73.8936 73.52C73.2536 73.52 72.6736 73.68 72.1336 74C71.5736 74.32 71.1336 74.76 70.8136 75.34C70.4936 75.94 70.3336 76.62 70.3336 77.4C70.3336 78.2 70.4936 78.88 70.8136 79.46C71.1336 80.06 71.5736 80.5 72.1336 80.82C72.6736 81.14 73.2536 81.28 73.8936 81.28C74.5136 81.28 75.0936 81.14 75.6336 80.82ZM80.9123 72.3H82.5323V73.94H82.6123C82.8123 73.38 83.1923 72.92 83.7723 72.56C84.3323 72.2 84.9323 72 85.5723 72C86.0323 72 86.4323 72.08 86.7723 72.2V74.04C86.3323 73.84 85.8523 73.72 85.3323 73.72C84.8323 73.72 84.3723 73.86 83.9723 74.14C83.5523 74.42 83.2123 74.8 82.9723 75.28C82.7323 75.76 82.6123 76.26 82.6123 76.8V82.5H80.9123V72.3ZM89.7269 82.12C88.9469 81.66 88.3469 81.02 87.9069 80.2C87.4669 79.38 87.2669 78.46 87.2669 77.42C87.2669 76.46 87.4669 75.56 87.8669 74.72C88.2669 73.88 88.8469 73.22 89.6069 72.72C90.3669 72.24 91.2269 71.98 92.2069 71.98C93.2069 71.98 94.0669 72.22 94.8069 72.66C95.5269 73.1 96.0869 73.72 96.4869 74.5C96.8869 75.3 97.0869 76.2 97.0869 77.2C97.0869 77.36 97.0669 77.54 97.0469 77.72H88.9669C89.0069 78.5 89.1869 79.16 89.5269 79.68C89.8469 80.22 90.2669 80.62 90.7869 80.88C91.3069 81.16 91.8469 81.28 92.4069 81.28C93.7269 81.28 94.7469 80.68 95.4269 79.44L96.8669 80.14C96.4269 80.96 95.8469 81.62 95.0869 82.1C94.3269 82.58 93.4069 82.82 92.3469 82.82C91.3669 82.82 90.4869 82.6 89.7269 82.12ZM95.2869 76.32C95.2469 75.9 95.1269 75.48 94.9269 75.04C94.7069 74.62 94.3669 74.26 93.9269 73.96C93.4669 73.68 92.8869 73.52 92.2069 73.52C91.4069 73.52 90.7269 73.78 90.1669 74.3C89.6069 74.82 89.2269 75.48 89.0669 76.32H95.2869ZM103.645 72.3H105.265V73.82H105.345C105.645 73.3 106.105 72.88 106.725 72.52C107.345 72.16 108.045 71.98 108.825 71.98C109.745 71.98 110.565 72.22 111.305 72.68C112.045 73.16 112.625 73.8 113.065 74.62C113.485 75.46 113.705 76.38 113.705 77.4C113.705 78.44 113.485 79.38 113.065 80.2C112.625 81.02 112.045 81.66 111.305 82.12C110.565 82.6 109.745 82.82 108.825 82.82C108.045 82.82 107.345 82.66 106.725 82.3C106.105 81.94 105.645 81.52 105.345 81H105.265L105.345 82.4V86.82H103.645V72.3ZM110.305 80.8C110.825 80.48 111.225 80.04 111.545 79.44C111.845 78.86 112.005 78.18 112.005 77.4C112.005 76.64 111.845 75.96 111.545 75.36C111.225 74.78 110.825 74.32 110.305 74C109.785 73.68 109.225 73.52 108.645 73.52C108.045 73.52 107.485 73.68 106.965 74C106.445 74.32 106.045 74.78 105.725 75.36C105.405 75.96 105.265 76.64 105.265 77.4C105.265 78.18 105.405 78.86 105.725 79.44C106.045 80.04 106.445 80.48 106.965 80.8C107.485 81.12 108.045 81.28 108.645 81.28C109.225 81.28 109.785 81.12 110.305 80.8ZM116.938 82.38C116.338 82.1 115.898 81.7 115.578 81.18C115.258 80.66 115.098 80.08 115.098 79.42C115.098 78.34 115.498 77.5 116.318 76.9C117.118 76.3 118.158 75.98 119.398 75.98C119.998 75.98 120.578 76.06 121.098 76.18C121.618 76.32 122.038 76.48 122.318 76.64V76.02C122.318 75.26 122.038 74.66 121.518 74.2C120.978 73.74 120.298 73.5 119.498 73.5C118.938 73.5 118.398 73.64 117.918 73.88C117.438 74.12 117.058 74.46 116.778 74.9L115.498 73.94C115.898 73.34 116.438 72.86 117.158 72.5C117.858 72.16 118.638 71.98 119.498 71.98C120.878 71.98 121.958 72.36 122.758 73.08C123.538 73.8 123.938 74.8 123.938 76.04V82.5H122.318V81.04H122.238C121.938 81.54 121.498 81.96 120.918 82.3C120.318 82.66 119.658 82.82 118.938 82.82C118.178 82.82 117.518 82.68 116.938 82.38ZM120.698 80.88C121.178 80.6 121.578 80.2 121.878 79.7C122.158 79.22 122.318 78.68 122.318 78.08C121.998 77.88 121.598 77.7 121.138 77.56C120.658 77.44 120.178 77.36 119.658 77.36C118.718 77.36 118.018 77.56 117.538 77.94C117.058 78.34 116.838 78.84 116.838 79.44C116.838 80 117.038 80.46 117.478 80.8C117.898 81.16 118.438 81.32 119.098 81.32C119.658 81.32 120.198 81.18 120.698 80.88ZM136.643 82.46C136.283 82.34 136.003 82.16 135.763 81.92C135.223 81.42 134.963 80.72 134.963 79.82V73.84H133.183V72.3H134.963V69.42H136.663V72.3H139.163V73.84H136.663V79.4C136.663 79.96 136.763 80.38 136.983 80.64C137.223 80.94 137.603 81.08 138.083 81.08C138.483 81.08 138.863 80.98 139.203 80.74V82.4C139.003 82.5 138.783 82.56 138.583 82.6C138.383 82.64 138.123 82.66 137.803 82.66C137.383 82.66 137.003 82.6 136.643 82.46ZM126.303 72.3H127.923V73.92H128.003C128.243 73.32 128.643 72.86 129.223 72.52C129.783 72.2 130.423 72.02 131.123 72.02C131.403 72.02 131.643 72.04 131.843 72.08V73.82C131.603 73.78 131.303 73.74 130.923 73.74C130.043 73.74 129.343 74.04 128.803 74.6C128.263 75.18 128.003 75.92 128.003 76.84V82.5H126.303V72.3ZM141.303 72.3H142.923V73.8H143.003C143.283 73.3 143.723 72.88 144.343 72.52C144.943 72.16 145.603 71.98 146.303 71.98C147.523 71.98 148.463 72.34 149.103 73.06C149.743 73.78 150.083 74.74 150.083 75.96V82.5H148.383V76.22C148.383 75.28 148.143 74.6 147.703 74.16C147.243 73.74 146.623 73.52 145.843 73.52C145.283 73.52 144.803 73.68 144.363 73.98C143.923 74.3 143.603 74.7 143.363 75.2C143.123 75.7 143.003 76.22 143.003 76.76V82.5H141.303V72.3ZM154.434 82.12C153.654 81.66 153.054 81.02 152.614 80.2C152.174 79.38 151.974 78.46 151.974 77.42C151.974 76.46 152.174 75.56 152.574 74.72C152.974 73.88 153.554 73.22 154.314 72.72C155.074 72.24 155.934 71.98 156.914 71.98C157.914 71.98 158.774 72.22 159.514 72.66C160.234 73.1 160.794 73.72 161.194 74.5C161.594 75.3 161.794 76.2 161.794 77.2C161.794 77.36 161.774 77.54 161.754 77.72H153.674C153.714 78.5 153.894 79.16 154.234 79.68C154.554 80.22 154.974 80.62 155.494 80.88C156.014 81.16 156.554 81.28 157.114 81.28C158.434 81.28 159.454 80.68 160.134 79.44L161.574 80.14C161.134 80.96 160.554 81.62 159.794 82.1C159.034 82.58 158.114 82.82 157.054 82.82C156.074 82.82 155.194 82.6 154.434 82.12ZM159.994 76.32C159.954 75.9 159.834 75.48 159.634 75.04C159.414 74.62 159.074 74.26 158.634 73.96C158.174 73.68 157.594 73.52 156.914 73.52C156.114 73.52 155.434 73.78 154.874 74.3C154.314 74.82 153.934 75.48 153.774 76.32H159.994ZM163.783 72.3H165.403V73.94H165.483C165.683 73.38 166.063 72.92 166.643 72.56C167.203 72.2 167.803 72 168.443 72C168.903 72 169.303 72.08 169.643 72.2V74.04C169.203 73.84 168.723 73.72 168.203 73.72C167.703 73.72 167.243 73.86 166.843 74.14C166.423 74.42 166.083 74.8 165.843 75.28C165.603 75.76 165.483 76.26 165.483 76.8V82.5H163.783V72.3Z" fill="white"/>
<g clip-path="url(#clip0_651_6)">
<path d="M74 205.762C74.5286 205.778 75.049 205.803 75.5777 205.803C86.0926 205.803 96.6075 205.803 107.122 205.803C107.775 205.803 108.428 205.754 109.08 205.877C110.005 206.049 110.757 206.541 111.409 207.182C111.575 207.346 111.599 207.551 111.599 207.764C111.599 209.078 111.599 210.391 111.599 211.696C111.599 211.762 111.641 211.852 111.558 211.893C111.467 211.934 111.393 211.868 111.352 211.795C110.542 210.596 109.295 210.309 107.982 210.301C104.463 210.268 100.952 210.301 97.4335 210.301C89.76 210.317 82.0865 210.334 74.413 210.358C74.2974 210.358 74.1817 210.358 74.0661 210.35C74.0661 208.946 74.0661 207.551 74.0661 206.147C74.0661 206.057 74.0991 205.959 74 205.885C74 205.844 74 205.803 74 205.762Z" fill="#DD231A"/>
<path d="M74 203.25C85.597 203.25 97.2023 203.25 108.799 203.25C109.84 203.25 110.873 203.349 111.798 203.882C112.202 204.12 112.483 204.104 112.88 203.866C113.813 203.308 114.87 203.193 115.928 203.193C124.782 203.185 133.637 203.193 142.492 203.193C144.879 203.193 147.266 203.193 149.645 203.185C149.942 203.185 150.008 203.275 149.992 203.538C149.975 203.833 149.975 204.128 149.992 204.416C150 204.662 149.934 204.802 149.661 204.752C149.587 204.736 149.513 204.752 149.438 204.752C138.279 204.752 127.128 204.752 115.969 204.752C115.424 204.752 114.87 204.769 114.333 204.9C113.83 205.023 113.375 205.237 113.086 205.688C113.02 205.795 112.938 205.828 112.83 205.828C112.574 205.828 112.326 205.828 112.07 205.844C111.781 205.869 111.525 205.885 111.459 205.507C111.442 205.425 111.319 205.36 111.228 205.302C110.658 204.941 110.022 204.818 109.361 204.769C109.138 204.752 108.915 204.752 108.7 204.752C97.1775 204.752 85.6466 204.752 74.1239 204.752C74.0826 204.752 74.0413 204.752 74 204.76C74 204.26 74 203.751 74 203.25Z" fill="#DD251C"/>
<path d="M112.384 212C112.384 210.588 112.392 209.184 112.384 207.772C112.384 207.452 112.483 207.231 112.756 207.083C112.756 207.19 112.772 207.296 112.756 207.395C112.516 208.544 112.698 209.71 112.64 210.867C112.64 211.023 112.715 211.072 112.855 211.031C113.078 210.974 113.301 210.916 113.524 210.859C113.169 211.171 112.805 211.466 112.516 211.835C112.483 211.876 112.409 211.909 112.442 211.991H112.376L112.384 212Z" fill="#CB2A26"/>
<path d="M102.447 129.215C102.423 129.387 102.29 129.477 102.191 129.6C96.6571 136.454 92.2132 143.948 89.0497 152.172C87.9181 155.119 86.9929 158.123 86.2743 161.201C85.6796 163.762 85.217 166.347 84.8866 168.949C84.5563 171.551 84.3745 174.169 84.4158 176.788C84.4736 180.416 84.9197 183.978 86.233 187.384C87.1499 189.773 88.4467 191.931 90.3713 193.663C91.3542 194.55 92.4528 195.264 93.7166 195.707C93.7909 195.732 93.9231 195.723 93.9148 195.822C93.9148 195.937 93.7826 195.97 93.6835 195.994C92.2298 196.413 90.7512 196.667 89.2314 196.7C87.6372 196.733 86.0678 196.626 84.5563 196.085C81.8057 195.1 79.9472 193.179 78.799 190.536C78.0309 188.755 77.6509 186.892 77.4527 184.971C77.271 183.239 77.3123 181.516 77.3701 179.792C77.4279 177.888 77.684 176 77.9896 174.112C78.799 169.179 80.0793 164.353 81.5744 159.584C82.0617 158.033 82.8382 156.596 83.5485 155.135C86.8195 148.446 90.6356 142.076 95.129 136.126C96.9627 133.696 98.8956 131.357 101.01 129.165C101.159 129.018 101.316 128.878 101.473 128.738C101.58 128.73 101.679 128.714 101.787 128.714C102.076 128.73 102.398 128.665 102.505 129.059C102.505 129.075 102.489 129.1 102.48 129.116C102.464 129.141 102.447 129.165 102.431 129.19L102.447 129.215Z" fill="#DD231A"/>
<path d="M134.438 161.267C134.422 161.111 134.496 161.004 134.546 160.889C135.529 158.197 136.305 155.455 136.949 152.665C137.412 150.646 137.775 148.602 138.023 146.542C138.304 144.252 138.453 141.945 138.345 139.639C138.213 136.799 137.784 134 136.71 131.332C134.917 126.884 131.82 123.756 127.219 122.189C125.369 121.557 123.461 121.45 121.536 121.63C117.77 121.983 114.441 123.51 111.277 125.472C107.692 127.696 104.554 130.462 101.63 133.475C101.018 134.098 100.473 134.78 99.8537 135.395C99.7959 135.453 99.7629 135.543 99.639 135.51C99.6472 135.354 99.7381 135.239 99.8124 135.116C100.936 133.179 102.241 131.357 103.612 129.592C106.123 126.366 108.956 123.453 112.268 121.031C115.003 119.037 117.951 117.477 121.255 116.632C123.452 116.066 125.683 115.877 127.938 116.057C130.482 116.271 132.927 116.911 135.215 118.027C136.801 118.799 137.998 120.055 138.973 121.507C140.146 123.247 140.823 125.193 141.253 127.22C141.823 129.904 141.938 132.621 141.773 135.354C141.311 143.143 139.411 150.596 136.379 157.786C135.958 158.78 135.479 159.748 134.909 160.667C134.777 160.881 134.645 161.086 134.43 161.25L134.438 161.267Z" fill="#DD231A"/>
<path d="M82.6977 196.815C82.9868 196.873 83.2512 197.012 83.5237 197.119C85.4483 197.891 87.4472 198.12 89.504 197.989C93.7413 197.71 97.5326 196.126 101.167 194.09C104.711 192.104 107.924 189.658 111.054 187.089C114.061 184.618 116.894 181.959 119.372 178.955C120.991 176.993 122.42 174.917 123.444 172.577C123.626 172.167 123.667 171.716 123.965 171.256C123.965 172.077 123.965 172.815 123.965 173.554C123.965 176 123.965 178.446 123.965 180.892C123.965 181.04 123.965 181.179 123.882 181.319C123.106 182.681 122.288 184.011 121.33 185.25C119 188.263 116.225 190.807 113.169 193.056C109.667 195.633 105.958 197.866 101.968 199.622C99.8289 200.566 97.5905 201.182 95.2529 201.404C90.7595 201.83 86.7121 200.673 83.1273 197.948C83.0447 197.882 82.9538 197.825 82.9208 197.718C82.9786 197.447 82.7721 197.324 82.6069 197.185C82.3673 196.988 82.4334 196.889 82.6895 196.815H82.6977Z" fill="#DD231A"/>
<path d="M113.532 210.867C113.309 210.924 113.086 210.982 112.863 211.039C112.714 211.08 112.64 211.031 112.648 210.875C112.706 209.718 112.525 208.552 112.764 207.403C112.789 207.305 112.764 207.198 112.764 207.091C112.789 207.067 112.805 207.042 112.83 207.018C112.83 206.878 112.954 206.829 113.045 206.763C114.02 205.967 115.159 205.729 116.39 205.795C116.555 205.803 116.729 205.811 116.894 205.811C127.797 205.811 138.7 205.811 149.604 205.811C149.917 205.811 150.017 205.868 150.008 206.205C149.983 207.502 149.992 208.807 150.008 210.104C150.008 210.325 149.95 210.383 149.727 210.383C143.755 210.366 137.784 210.383 131.803 210.35C126.583 210.317 121.354 210.325 116.134 210.309C115.366 210.309 114.623 210.432 113.92 210.752C113.797 210.81 113.664 210.842 113.532 210.883V210.867Z" fill="#DD2219"/>
<path d="M90.1482 172.011C90.1482 168.941 90.1482 165.863 90.1482 162.793C90.1482 162.366 90.1482 162.366 90.5695 162.366C93.2209 162.366 95.8641 162.366 98.5156 162.391C99.3581 162.391 100.217 162.391 101.027 162.621C103.24 163.261 104.537 164.738 104.942 167.004C105.223 168.571 105.099 170.09 104.314 171.485C103.381 173.151 101.902 174.063 99.9941 174.292C98.2182 174.506 96.4341 174.456 94.6499 174.448C94.5673 174.448 94.4765 174.456 94.3939 174.448C94.1048 174.415 94.0387 174.539 94.0387 174.818C94.0222 177.034 94.0139 179.242 94.0552 181.458C94.0552 181.696 93.9891 181.762 93.7578 181.77C92.7501 181.811 91.7341 181.77 90.7264 181.753C90.33 181.748 90.1317 181.545 90.1317 181.146C90.1317 178.101 90.1317 175.064 90.1317 172.019L90.1482 172.011ZM96.9957 165.649C97.1279 165.518 97.3014 165.649 97.4666 165.551C97.384 165.518 97.3179 165.477 97.2435 165.477C96.2606 165.477 95.2859 165.469 94.303 165.477C94.2204 165.477 94.0635 165.493 94.1461 165.666C94.0304 165.707 94.0387 165.805 94.0387 165.896C94.0387 167.562 94.0387 169.228 94.0387 170.902C94.0387 171.075 94.0882 171.14 94.27 171.14C95.7155 171.124 97.1609 171.19 98.5982 171.026C99.895 170.878 100.894 169.876 100.969 168.588C101.051 167.11 100.192 166.043 98.7303 165.781C98.1521 165.682 97.5739 165.707 96.9957 165.658V165.649Z" fill="#DD231A"/>
<path d="M140.005 173.587C140.005 170.977 140.005 168.367 140.005 165.748C140.005 165.486 139.939 165.42 139.675 165.42C138.163 165.436 136.66 165.428 135.149 165.445C134.942 165.445 134.876 165.387 134.876 165.182C134.884 164.246 134.892 163.319 134.876 162.383C134.876 162.129 134.967 162.096 135.19 162.096C138.271 162.096 141.352 162.096 144.433 162.096C145.738 162.096 147.051 162.096 148.356 162.096C148.588 162.096 148.687 162.137 148.678 162.399C148.662 163.31 148.662 164.222 148.678 165.141C148.678 165.379 148.621 165.436 148.381 165.436C146.894 165.428 145.407 165.436 143.921 165.428C143.665 165.428 143.582 165.486 143.582 165.756C143.582 170.739 143.582 175.721 143.582 180.703C143.582 180.958 143.574 181.212 143.599 181.458C143.632 181.745 143.433 181.819 143.235 181.803C142.326 181.762 141.426 181.754 140.518 181.787C139.997 181.803 139.997 181.787 139.997 181.269C139.997 178.709 139.997 176.148 139.997 173.595L140.005 173.587Z" fill="#DD241B"/>
<path d="M114.292 173.874C114.292 176.476 114.292 179.078 114.292 181.679C114.292 181.95 114.234 182.032 113.945 182.024C113.004 182.008 112.062 182.008 111.129 182.024C110.856 182.024 110.773 181.967 110.782 181.679C110.79 176.484 110.79 171.288 110.79 166.101C110.79 165.699 110.889 165.707 110.377 165.707C108.89 165.707 107.403 165.707 105.908 165.707C105.66 165.707 105.586 165.649 105.586 165.395C105.603 164.476 105.603 163.548 105.586 162.629C105.586 162.415 105.644 162.366 105.85 162.366C110.294 162.366 114.738 162.374 119.182 162.366C119.38 162.366 119.446 162.399 119.446 162.621C119.43 163.54 119.43 164.467 119.446 165.387C119.446 165.633 119.372 165.682 119.141 165.682C117.654 165.682 116.167 165.69 114.68 165.682C114.366 165.682 114.259 165.74 114.259 166.076C114.276 168.67 114.267 171.255 114.267 173.849L114.292 173.874Z" fill="#DD231A"/>
<path d="M121.074 162.235C121.28 162.129 121.495 162.129 121.718 162.129C122.94 162.112 124.163 162.096 125.385 162.088C125.584 162.088 125.707 162.03 125.807 161.841C127.236 159.231 128.664 156.621 130.102 154.019C130.267 153.724 130.341 153.363 130.672 153.174C130.696 153.519 130.581 153.83 130.465 154.151C129.4 157.146 128.268 160.126 127.244 163.138C127.211 163.245 127.12 163.352 127.169 163.483C127.326 163.467 127.442 163.401 127.566 163.335C128.185 163.007 128.813 162.67 129.433 162.35C129.714 162.203 130.011 162.071 130.341 162.145C130.564 162.194 130.779 162.186 131.002 162.194C131.927 162.194 132.861 162.194 133.786 162.194C133.654 162.317 133.48 162.383 133.315 162.441C131.481 163.073 129.639 163.705 127.805 164.337C127.475 164.452 127.136 164.55 126.806 164.788C127.574 165.133 128.293 165.469 129.044 165.724C129.044 167.546 129.044 169.376 129.044 171.198C129.044 171.404 129.053 171.617 128.929 171.806C128.714 171.322 128.483 170.837 128.285 170.337C127.632 168.761 126.996 167.177 126.352 165.601C126.269 165.387 126.195 165.281 125.972 165.502C125.509 165.962 125.014 166.38 124.543 166.832C123.378 167.956 122.255 169.122 121.074 170.222C120.438 170.821 119.835 171.445 119.207 172.06C119.009 172.249 118.81 172.438 118.546 172.528C118.563 172.274 118.711 172.085 118.835 171.88C120.066 169.861 121.305 167.833 122.536 165.814C122.593 165.724 122.635 165.633 122.684 165.535C123.163 165.453 123.601 165.248 124.055 165.084C124.592 164.895 125.129 164.681 125.757 164.443C124.163 163.614 122.577 162.991 121.065 162.227L121.074 162.235Z" fill="#EEED06"/>
<path d="M125.055 169.844C125.294 169.934 125.418 170.074 125.551 170.205C126.657 171.313 127.772 172.421 128.879 173.521C129.003 173.644 129.053 173.759 129.053 173.931C129.053 176.435 129.053 178.946 129.053 181.45C129.053 181.704 128.962 181.827 128.706 181.819C127.616 181.819 126.542 181.95 125.451 182.008C125.154 182.024 125.038 181.983 125.038 181.639C125.055 177.822 125.047 174.005 125.047 170.188C125.047 170.09 125.047 169.983 125.047 169.844H125.055Z" fill="#DD231A"/>
<path d="M118.546 172.537C118.81 172.438 119.017 172.258 119.207 172.069C119.835 171.461 120.438 170.829 121.074 170.23C122.255 169.122 123.378 167.957 124.543 166.84C125.014 166.389 125.509 165.962 125.972 165.511C126.195 165.297 126.269 165.396 126.352 165.609C126.996 167.193 127.632 168.769 128.285 170.345C128.491 170.838 128.714 171.322 128.929 171.814C128.921 171.896 128.995 171.97 128.929 172.069C128.59 171.765 128.309 171.412 128.012 171.076C127.335 170.312 126.666 169.549 126.005 168.777C125.864 168.621 125.765 168.621 125.584 168.728C123.329 170.082 121.074 171.429 118.819 172.775C118.637 172.881 118.455 172.972 118.224 173.037C118.257 172.808 118.422 172.684 118.538 172.545L118.546 172.537Z" fill="#B89C0F"/>
<path d="M133.786 162.203C132.861 162.203 131.927 162.203 131.002 162.203C130.779 162.203 130.564 162.203 130.341 162.154C130.011 162.08 129.714 162.211 129.433 162.359C128.805 162.679 128.185 163.015 127.566 163.344C127.442 163.409 127.326 163.475 127.169 163.492C127.112 163.36 127.203 163.254 127.244 163.147C128.268 160.134 129.4 157.163 130.465 154.159C130.581 153.847 130.696 153.527 130.672 153.182C130.696 152.821 130.953 152.591 131.159 152.255C131.242 152.641 131.159 152.953 131.109 153.256C130.829 155.226 130.54 157.188 130.25 159.158C130.135 159.938 130.019 160.709 129.904 161.489C129.904 161.538 129.879 161.596 129.879 161.645C129.879 162.031 129.937 162.088 130.325 162.088C131.366 162.088 132.415 162.088 133.455 162.104C133.587 162.104 133.728 162.129 133.86 162.145C133.835 162.17 133.81 162.186 133.786 162.211V162.203Z" fill="#B89C11"/>
<path d="M133.786 162.202C133.786 162.202 133.835 162.161 133.86 162.137C133.959 162.137 134.1 162.079 134.141 162.178C134.182 162.276 134.075 162.358 133.984 162.416C132.34 163.516 130.696 164.624 129.053 165.732C128.301 165.477 127.582 165.141 126.814 164.796C127.145 164.55 127.483 164.46 127.814 164.345C129.647 163.713 131.489 163.081 133.323 162.449C133.488 162.391 133.662 162.326 133.794 162.202H133.786Z" fill="#B89C0F"/>
<path d="M121.074 162.235C122.585 162.999 124.171 163.622 125.765 164.451C125.129 164.689 124.601 164.903 124.064 165.092C123.609 165.256 123.172 165.453 122.693 165.543C122.057 164.451 121.445 163.351 120.875 162.227C120.958 162.178 121.016 162.227 121.074 162.227V162.235Z" fill="#B89C0F"/>
<path d="M102.513 129.084C102.414 128.69 102.084 128.755 101.795 128.739C101.687 128.739 101.588 128.755 101.481 128.764C102.629 127.458 103.901 126.293 105.198 125.136C106.098 124.331 107.04 123.576 108.006 122.837C108.097 122.772 108.163 122.673 108.304 122.665C108.353 122.755 108.271 122.796 108.221 122.837C106.28 124.791 104.446 126.835 102.679 128.952C102.629 129.01 102.596 129.075 102.513 129.084Z" fill="#D7281F"/>
<path d="M82.6978 196.815C82.4417 196.889 82.3756 196.987 82.6152 197.184C82.7721 197.316 82.9786 197.447 82.929 197.718C82.037 197.078 81.277 196.29 80.575 195.453C80.5915 195.436 80.5997 195.42 80.6163 195.403C81.2688 195.929 81.9874 196.364 82.6978 196.815Z" fill="#CB2A26"/>
<path d="M102.447 129.214C102.447 129.214 102.48 129.165 102.497 129.141C102.505 129.182 102.48 129.198 102.447 129.214Z" fill="#D7281F"/>
<path d="M99.639 135.584C99.639 135.584 99.639 135.601 99.6307 135.609L99.5977 135.584C99.5977 135.584 99.6142 135.568 99.6224 135.56C99.6224 135.56 99.639 135.576 99.6472 135.584H99.639Z" fill="#DD231A"/>
<path d="M112.822 207.018C112.822 207.018 112.781 207.067 112.756 207.091C112.781 207.067 112.797 207.042 112.822 207.018Z" fill="#CB2A26"/>
<path d="M96.9957 165.658C96.0459 165.658 95.096 165.658 94.1461 165.658C94.0717 165.485 94.2204 165.477 94.303 165.469C95.2859 165.469 96.2606 165.469 97.2435 165.469C97.3096 165.469 97.3757 165.51 97.4666 165.543C97.3096 165.633 97.1279 165.51 96.9957 165.641V165.658Z" fill="#CB3F37"/>
</g>
<defs>
<linearGradient id="paint0_linear_651_6" x1="94" y1="18" x2="130" y2="18" gradientUnits="userSpaceOnUse">
<stop stop-color="#FFCB32"/>
<stop offset="0.326666" stop-color="#FFCB32"/>
<stop offset="0.651666" stop-color="#34A853"/>
<stop offset="1" stop-color="#34A853"/>
</linearGradient>
<linearGradient id="paint1_linear_651_6" x1="0" y1="76" x2="224" y2="76" gradientUnits="userSpaceOnUse">
<stop stop-color="#428EFF"/>
<stop offset="0.108915" stop-color="#428EFF"/>
<stop offset="0.238413" stop-color="#9F6CD4"/>
<stop offset="0.365599" stop-color="#EA4335"/>
<stop offset="0.446535" stop-color="#EA4335"/>
<stop offset="0.55522" stop-color="#F46831"/>
<stop offset="0.656969" stop-color="#FFCB32"/>
<stop offset="0.754092" stop-color="#FFCB32"/>
<stop offset="0.890527" stop-color="#34A853"/>
<stop offset="1" stop-color="#34A853"/>
</linearGradient>
<clipPath id="clip0_651_6">
<rect width="76" height="96" fill="white" transform="translate(74 116)"/>
</clipPath>
</defs>
</svg>
