<svg width="135" height="54" viewBox="0 0 135 54" fill="none" xmlns="http://www.w3.org/2000/svg">
<rect x="1" y="1" width="133" height="52" rx="26" fill="#4285F4"/>
<rect x="1" y="1" width="133" height="52" rx="26" stroke="#202124" stroke-width="2"/>
<path d="M36.948 20.312H32.124V17.816H44.388V20.312H39.588V35H36.948V20.312ZM49.7449 34.184C48.3769 33.392 47.2969 32.312 46.5289 30.944C45.7609 29.576 45.3769 28.064 45.3769 26.408C45.3769 24.776 45.7609 23.264 46.5289 21.896C47.2969 20.528 48.3769 19.448 49.7449 18.632C51.0889 17.84 52.6009 17.432 54.2809 17.432C55.9369 17.432 57.4489 17.84 58.7929 18.632C60.1369 19.448 61.2169 20.528 61.9849 21.896C62.7529 23.264 63.1609 24.776 63.1609 26.408C63.1609 28.064 62.7529 29.576 61.9849 30.944C61.2169 32.312 60.1369 33.392 58.7929 34.184C57.4489 35 55.9369 35.384 54.2809 35.384C52.6009 35.384 51.0889 35 49.7449 34.184ZM57.4249 32.072C58.3849 31.52 59.1289 30.752 59.6809 29.768C60.2329 28.784 60.5209 27.656 60.5209 26.408C60.5209 25.16 60.2329 24.056 59.6809 23.072C59.1289 22.088 58.3849 21.32 57.4249 20.768C56.4649 20.216 55.4329 19.928 54.2809 19.928C53.1289 19.928 52.0729 20.216 51.1129 20.768C50.1529 21.32 49.4089 22.088 48.8569 23.072C48.3049 24.056 48.0409 25.16 48.0409 26.408C48.0409 27.656 48.3049 28.784 48.8569 29.768C49.4089 30.752 50.1529 31.52 51.1129 32.072C52.0729 32.624 53.1289 32.888 54.2809 32.888C55.4329 32.888 56.4649 32.624 57.4249 32.072ZM66.2096 17.816H72.1136C73.1216 17.816 74.0576 18.056 74.9216 18.488C75.7856 18.944 76.4576 19.568 76.9616 20.36C77.4656 21.176 77.7296 22.064 77.7296 23.072C77.7296 24.08 77.4656 24.992 76.9616 25.784C76.4576 26.6 75.7856 27.224 74.9216 27.656C74.0576 28.112 73.1216 28.328 72.1136 28.328H68.8496V35H66.2096V17.816ZM72.1856 25.832C73.0496 25.832 73.7696 25.568 74.2976 25.016C74.8256 24.464 75.1136 23.816 75.1136 23.072C75.1136 22.352 74.8256 21.704 74.2976 21.152C73.7696 20.6 73.0496 20.312 72.1856 20.312H68.8496V25.832H72.1856ZM80.4362 17.816H83.0762V35H80.4362V17.816ZM90.2454 34.208C88.8774 33.44 87.7974 32.36 87.0294 30.968C86.2374 29.6 85.8534 28.088 85.8534 26.408C85.8534 24.752 86.2374 23.24 87.0294 21.848C87.7974 20.48 88.8774 19.4 90.2454 18.608C91.6134 17.84 93.1254 17.432 94.8054 17.432C97.3734 17.432 99.4854 18.368 101.165 20.24L99.3174 22.04C98.7174 21.344 98.0454 20.816 97.3254 20.456C96.6054 20.12 95.7654 19.928 94.8294 19.928C93.6534 19.928 92.5974 20.216 91.6374 20.744C90.6774 21.272 89.9094 22.04 89.3574 23.024C88.7814 24.008 88.5174 25.136 88.5174 26.408C88.5174 27.704 88.7814 28.832 89.3574 29.816C89.9094 30.8 90.6774 31.568 91.6374 32.096C92.5974 32.624 93.6534 32.888 94.8294 32.888C96.7734 32.888 98.4054 32.096 99.7494 30.464L101.645 32.288C100.805 33.272 99.7974 34.04 98.6454 34.568C97.4694 35.12 96.1974 35.384 94.8054 35.384C93.1254 35.384 91.6134 35 90.2454 34.208Z" fill="white"/>
</svg>
