<svg width="288" height="156" viewBox="0 0 288 156" fill="none" xmlns="http://www.w3.org/2000/svg">
<path d="M144 36C144 26.0588 135.941 18 126 18C135.941 18 144 9.94117 144 0C144 9.94117 152.059 18 162 18C152.059 18 144 26.0588 144 36Z" fill="url(#paint0_linear_653_4)" stroke="#202124" stroke-miterlimit="10"/>
<rect x="1" y="53" width="286" height="46" rx="23" fill="#202124"/>
<rect x="1" y="53" width="286" height="46" rx="23" stroke="url(#paint1_linear_653_4)" stroke-width="2"/>
<path d="M59.54 81.84C58.4 81.2 57.5 80.3 56.86 79.16C56.22 78.02 55.9 76.74 55.9 75.34C55.9 73.94 56.22 72.68 56.86 71.54C57.5 70.4 58.4 69.5 59.54 68.84C60.66 68.2 61.92 67.86 63.32 67.86C64.38 67.86 65.36 68.06 66.24 68.46C67.12 68.86 67.9 69.44 68.56 70.2L67.34 71.38C66.78 70.74 66.18 70.26 65.54 69.94C64.9 69.64 64.16 69.48 63.32 69.48C62.28 69.48 61.32 69.74 60.46 70.22C59.58 70.7 58.9 71.4 58.38 72.28C57.86 73.16 57.62 74.18 57.62 75.34C57.62 76.5 57.86 77.54 58.38 78.42C58.9 79.3 59.58 80 60.46 80.48C61.32 80.96 62.28 81.2 63.32 81.2C65.04 81.2 66.52 80.5 67.74 79.06L68.98 80.26C68.32 81.06 67.5 81.68 66.52 82.14C65.54 82.6 64.48 82.82 63.32 82.82C61.92 82.82 60.66 82.5 59.54 81.84ZM72.6936 82.1C71.8936 81.62 71.2536 80.98 70.8136 80.14C70.3736 79.32 70.1536 78.4 70.1536 77.4C70.1536 76.4 70.3736 75.5 70.8136 74.66C71.2536 73.84 71.8936 73.18 72.6936 72.7C73.4936 72.22 74.3936 71.98 75.3936 71.98C76.3936 71.98 77.2936 72.22 78.0936 72.7C78.8936 73.18 79.5136 73.84 79.9536 74.66C80.3936 75.5 80.6336 76.4 80.6336 77.4C80.6336 78.4 80.3936 79.32 79.9536 80.14C79.5136 80.98 78.8936 81.62 78.0936 82.1C77.2936 82.58 76.3936 82.82 75.3936 82.82C74.3936 82.82 73.4936 82.58 72.6936 82.1ZM77.1336 80.82C77.6736 80.5 78.1136 80.06 78.4336 79.46C78.7536 78.88 78.9336 78.2 78.9336 77.4C78.9336 76.62 78.7536 75.94 78.4336 75.34C78.1136 74.76 77.6736 74.32 77.1336 74C76.5936 73.68 76.0136 73.52 75.3936 73.52C74.7536 73.52 74.1736 73.68 73.6336 74C73.0736 74.32 72.6336 74.76 72.3136 75.34C71.9936 75.94 71.8336 76.62 71.8336 77.4C71.8336 78.2 71.9936 78.88 72.3136 79.46C72.6336 80.06 73.0736 80.5 73.6336 80.82C74.1736 81.14 74.7536 81.28 75.3936 81.28C76.0136 81.28 76.5936 81.14 77.1336 80.82ZM82.4123 72.3H84.0323V73.8H84.1123C84.3923 73.28 84.8323 72.86 85.4323 72.5C86.0123 72.16 86.6323 71.98 87.2923 71.98C88.0323 71.98 88.6723 72.16 89.2323 72.52C89.7923 72.88 90.1923 73.36 90.4323 73.96C90.7923 73.36 91.2523 72.88 91.8523 72.52C92.4523 72.16 93.1323 71.98 93.9323 71.98C95.0923 71.98 95.9723 72.34 96.5723 73.06C97.1723 73.78 97.4723 74.74 97.4723 75.96V82.5H95.7923V76.22C95.7923 75.28 95.5923 74.6 95.2123 74.16C94.8123 73.74 94.2523 73.52 93.4923 73.52C92.9723 73.52 92.5123 73.68 92.1123 73.96C91.6923 74.26 91.3723 74.66 91.1323 75.14C90.8923 75.64 90.7923 76.18 90.7923 76.74V82.5H89.0923V76.24C89.0923 75.28 88.8923 74.6 88.5123 74.16C88.1123 73.74 87.5523 73.52 86.8123 73.52C86.2923 73.52 85.8323 73.68 85.4323 73.98C85.0123 74.28 84.6923 74.68 84.4523 75.18C84.2123 75.68 84.1123 76.22 84.1123 76.78V82.5H82.4123V72.3ZM99.9319 72.3H101.552V73.8H101.632C101.912 73.28 102.352 72.86 102.952 72.5C103.532 72.16 104.152 71.98 104.812 71.98C105.552 71.98 106.192 72.16 106.752 72.52C107.312 72.88 107.712 73.36 107.952 73.96C108.312 73.36 108.772 72.88 109.372 72.52C109.972 72.16 110.652 71.98 111.452 71.98C112.612 71.98 113.492 72.34 114.092 73.06C114.692 73.78 114.992 74.74 114.992 75.96V82.5H113.312V76.22C113.312 75.28 113.112 74.6 112.732 74.16C112.332 73.74 111.772 73.52 111.012 73.52C110.492 73.52 110.032 73.68 109.632 73.96C109.212 74.26 108.892 74.66 108.652 75.14C108.412 75.64 108.312 76.18 108.312 76.74V82.5H106.612V76.24C106.612 75.28 106.412 74.6 106.032 74.16C105.632 73.74 105.072 73.52 104.332 73.52C103.812 73.52 103.352 73.68 102.952 73.98C102.532 74.28 102.212 74.68 101.972 75.18C101.732 75.68 101.632 76.22 101.632 76.78V82.5H99.9319V72.3ZM118.331 81.74C117.691 81.02 117.371 80.02 117.371 78.72V72.3H119.071V78.46C119.071 79.44 119.291 80.16 119.731 80.6C120.171 81.06 120.751 81.28 121.511 81.28C122.071 81.28 122.591 81.14 123.031 80.82C123.471 80.52 123.831 80.12 124.071 79.62C124.311 79.14 124.451 78.62 124.451 78.06V72.3H126.151V82.5H124.531V81.02H124.451C124.171 81.54 123.711 81.96 123.111 82.3C122.491 82.66 121.831 82.82 121.151 82.82C119.911 82.82 118.971 82.46 118.331 81.74ZM128.662 72.3H130.282V73.8H130.362C130.642 73.3 131.082 72.88 131.702 72.52C132.302 72.16 132.962 71.98 133.662 71.98C134.882 71.98 135.822 72.34 136.462 73.06C137.102 73.78 137.442 74.74 137.442 75.96V82.5H135.742V76.22C135.742 75.28 135.502 74.6 135.062 74.16C134.602 73.74 133.982 73.52 133.202 73.52C132.642 73.52 132.162 73.68 131.722 73.98C131.282 74.3 130.962 74.7 130.722 75.2C130.482 75.7 130.362 76.22 130.362 76.76V82.5H128.662V72.3ZM140.013 70.06C139.773 69.82 139.653 69.54 139.653 69.2C139.653 68.86 139.773 68.58 140.013 68.34C140.253 68.1 140.533 67.98 140.873 67.98C141.213 67.98 141.493 68.1 141.733 68.34C141.973 68.58 142.093 68.86 142.093 69.2C142.093 69.54 141.973 69.82 141.733 70.06C141.493 70.3 141.213 70.42 140.873 70.42C140.533 70.42 140.253 70.3 140.013 70.06ZM140.033 72.3H141.733V82.5H140.033V72.3ZM147.047 82.46C146.687 82.34 146.407 82.16 146.167 81.92C145.627 81.42 145.367 80.72 145.367 79.82V73.84H143.587V72.3H145.367V69.42H147.067V72.3H149.567V73.84H147.067V79.4C147.067 79.96 147.167 80.38 147.387 80.64C147.627 80.94 148.007 81.08 148.487 81.08C148.887 81.08 149.267 80.98 149.607 80.74V82.4C149.407 82.5 149.187 82.56 148.987 82.6C148.787 82.64 148.527 82.66 148.207 82.66C147.787 82.66 147.407 82.6 147.047 82.46ZM154.829 81.86L150.609 72.3H152.449L155.649 79.88H155.689L158.769 72.3H160.609L154.309 86.82H152.549L154.829 81.86ZM167.01 68.18H171.83C172.63 68.18 173.37 68.36 174.05 68.72C174.73 69.08 175.27 69.6 175.67 70.24C176.07 70.88 176.29 71.62 176.29 72.42C176.29 73.24 176.07 73.98 175.67 74.62C175.27 75.26 174.73 75.76 174.05 76.12C173.37 76.48 172.63 76.66 171.83 76.66H168.71V82.5H167.01V68.18ZM171.87 75.04C172.39 75.04 172.87 74.92 173.27 74.66C173.67 74.42 173.99 74.08 174.23 73.68C174.45 73.28 174.57 72.86 174.57 72.42C174.57 71.98 174.45 71.56 174.23 71.16C173.99 70.76 173.67 70.44 173.27 70.18C172.87 69.94 172.39 69.8 171.87 69.8H168.71V75.04H171.87ZM179.063 82.38C178.463 82.1 178.023 81.7 177.703 81.18C177.383 80.66 177.223 80.08 177.223 79.42C177.223 78.34 177.623 77.5 178.443 76.9C179.243 76.3 180.283 75.98 181.523 75.98C182.123 75.98 182.703 76.06 183.223 76.18C183.743 76.32 184.163 76.48 184.443 76.64V76.02C184.443 75.26 184.163 74.66 183.643 74.2C183.103 73.74 182.423 73.5 181.623 73.5C181.063 73.5 180.523 73.64 180.043 73.88C179.563 74.12 179.183 74.46 178.903 74.9L177.623 73.94C178.023 73.34 178.563 72.86 179.283 72.5C179.983 72.16 180.763 71.98 181.623 71.98C183.003 71.98 184.083 72.36 184.883 73.08C185.663 73.8 186.063 74.8 186.063 76.04V82.5H184.443V81.04H184.363C184.063 81.54 183.623 81.96 183.043 82.3C182.443 82.66 181.783 82.82 181.063 82.82C180.303 82.82 179.643 82.68 179.063 82.38ZM182.823 80.88C183.303 80.6 183.703 80.2 184.003 79.7C184.283 79.22 184.443 78.68 184.443 78.08C184.123 77.88 183.723 77.7 183.263 77.56C182.783 77.44 182.303 77.36 181.783 77.36C180.843 77.36 180.143 77.56 179.663 77.94C179.183 78.34 178.963 78.84 178.963 79.44C178.963 80 179.163 80.46 179.603 80.8C180.023 81.16 180.563 81.32 181.223 81.32C181.783 81.32 182.323 81.18 182.823 80.88ZM198.768 82.46C198.408 82.34 198.128 82.16 197.888 81.92C197.348 81.42 197.088 80.72 197.088 79.82V73.84H195.308V72.3H197.088V69.42H198.788V72.3H201.288V73.84H198.788V79.4C198.788 79.96 198.888 80.38 199.108 80.64C199.348 80.94 199.728 81.08 200.208 81.08C200.608 81.08 200.988 80.98 201.328 80.74V82.4C201.128 82.5 200.908 82.56 200.708 82.6C200.508 82.64 200.248 82.66 199.928 82.66C199.508 82.66 199.128 82.6 198.768 82.46ZM188.428 72.3H190.048V73.92H190.128C190.368 73.32 190.768 72.86 191.348 72.52C191.908 72.2 192.548 72.02 193.248 72.02C193.528 72.02 193.768 72.04 193.968 72.08V73.82C193.728 73.78 193.428 73.74 193.048 73.74C192.168 73.74 191.468 74.04 190.928 74.6C190.388 75.18 190.128 75.92 190.128 76.84V82.5H188.428V72.3ZM203.428 72.3H205.048V73.8H205.128C205.408 73.3 205.848 72.88 206.468 72.52C207.068 72.16 207.728 71.98 208.428 71.98C209.648 71.98 210.588 72.34 211.228 73.06C211.868 73.78 212.208 74.74 212.208 75.96V82.5H210.508V76.22C210.508 75.28 210.268 74.6 209.828 74.16C209.368 73.74 208.748 73.52 207.968 73.52C207.408 73.52 206.928 73.68 206.488 73.98C206.048 74.3 205.728 74.7 205.488 75.2C205.248 75.7 205.128 76.22 205.128 76.76V82.5H203.428V72.3ZM216.559 82.12C215.779 81.66 215.179 81.02 214.739 80.2C214.299 79.38 214.099 78.46 214.099 77.42C214.099 76.46 214.299 75.56 214.699 74.72C215.099 73.88 215.679 73.22 216.439 72.72C217.199 72.24 218.059 71.98 219.039 71.98C220.039 71.98 220.899 72.22 221.639 72.66C222.359 73.1 222.919 73.72 223.319 74.5C223.719 75.3 223.919 76.2 223.919 77.2C223.919 77.36 223.899 77.54 223.879 77.72H215.799C215.839 78.5 216.019 79.16 216.359 79.68C216.679 80.22 217.099 80.62 217.619 80.88C218.139 81.16 218.679 81.28 219.239 81.28C220.559 81.28 221.579 80.68 222.259 79.44L223.699 80.14C223.259 80.96 222.679 81.62 221.919 82.1C221.159 82.58 220.239 82.82 219.179 82.82C218.199 82.82 217.319 82.6 216.559 82.12ZM222.119 76.32C222.079 75.9 221.959 75.48 221.759 75.04C221.539 74.62 221.199 74.26 220.759 73.96C220.299 73.68 219.719 73.52 219.039 73.52C218.239 73.52 217.559 73.78 216.999 74.3C216.439 74.82 216.059 75.48 215.899 76.32H222.119ZM225.908 72.3H227.528V73.94H227.608C227.808 73.38 228.188 72.92 228.768 72.56C229.328 72.2 229.928 72 230.568 72C231.028 72 231.428 72.08 231.768 72.2V74.04C231.328 73.84 230.848 73.72 230.328 73.72C229.828 73.72 229.368 73.86 228.968 74.14C228.548 74.42 228.208 74.8 227.968 75.28C227.728 75.76 227.608 76.26 227.608 76.8V82.5H225.908V72.3Z" fill="white"/>
<g clip-path="url(#clip0_653_4)">
<mask id="mask0_653_4" style="mask-type:luminance" maskUnits="userSpaceOnUse" x="213" y="129" width="19" height="19">
<path d="M215.296 138.488C214.118 139.285 213.406 140.614 213.406 142.042V145.367C213.406 146.702 214.901 147.492 216.001 146.745L230.649 136.866C232.438 135.659 232.446 133.024 230.663 131.804L227.953 129.951L215.296 138.488Z" fill="white"/>
</mask>
<g mask="url(#mask0_653_4)">
<path d="M222.854 120.435L204.628 138.782L222.999 156.994L241.225 138.647L222.854 120.435Z" fill="url(#paint2_linear_653_4)"/>
</g>
<mask id="mask1_653_4" style="mask-type:luminance" maskUnits="userSpaceOnUse" x="213" y="121" width="19" height="21">
<path d="M213.406 123.266V126.59C213.406 128.012 214.118 129.348 215.296 130.144L224.187 136.14H224.194C225.977 137.36 225.977 139.996 224.194 141.216L227.946 138.689L230.656 136.836C232.446 135.616 232.431 132.981 230.642 131.774L215.993 121.895C215.699 121.694 215.375 121.607 215.066 121.607C214.204 121.607 213.399 122.297 213.399 123.273" fill="white"/>
</mask>
<g mask="url(#mask1_653_4)">
<path d="M221.444 112.206L203.719 132.945L224.43 150.61L242.155 129.871L221.444 112.206Z" fill="url(#paint3_linear_653_4)"/>
</g>
<mask id="mask2_653_4" style="mask-type:luminance" maskUnits="userSpaceOnUse" x="213" y="121" width="15" height="14">
<path d="M213.406 123.266V126.591C213.406 128.012 214.118 129.348 215.296 130.145L221.485 134.316L227.953 129.951L216.008 121.888C215.713 121.687 215.39 121.601 215.081 121.601C214.218 121.601 213.413 122.29 213.413 123.266" fill="white"/>
</mask>
<g mask="url(#mask2_653_4)">
<path d="M219.55 114.434L207.131 128.965L221.83 141.501L234.249 126.971L219.55 114.434Z" fill="url(#paint4_linear_653_4)"/>
</g>
<mask id="mask3_653_4" style="mask-type:luminance" maskUnits="userSpaceOnUse" x="195" y="130" width="20" height="18">
<path d="M211.911 130.856L197.263 140.735C195.473 141.942 195.466 144.577 197.249 145.797L199.958 147.65L212.615 139.113C213.794 138.316 214.506 136.98 214.506 135.558V132.234C214.506 131.258 213.701 130.568 212.838 130.568C212.522 130.568 212.206 130.655 211.911 130.856Z" fill="white"/>
</mask>
<g mask="url(#mask3_653_4)">
<path d="M204.911 121.049L186.913 139.167L205.055 157.152L223.053 139.033L204.911 121.049Z" fill="url(#paint5_linear_653_4)"/>
</g>
<mask id="mask4_653_4" style="mask-type:luminance" maskUnits="userSpaceOnUse" x="195" y="136" width="20" height="21">
<path d="M199.965 138.918L197.256 140.771C195.466 141.991 195.48 144.626 197.27 145.833L211.918 155.712C213.025 156.459 214.513 155.669 214.513 154.334V151.01C214.513 149.588 213.801 148.252 212.623 147.455L203.732 141.46H203.724C201.942 140.239 201.942 137.604 203.724 136.384L199.973 138.911L199.965 138.918Z" fill="white"/>
</mask>
<g mask="url(#mask4_653_4)">
<path d="M203.503 127.003L185.554 148.004L206.49 165.86L224.439 144.858L203.503 127.003Z" fill="url(#paint6_linear_653_4)"/>
</g>
<mask id="mask5_653_4" style="mask-type:luminance" maskUnits="userSpaceOnUse" x="199" y="143" width="16" height="14">
<path d="M199.965 147.65L211.911 155.713C213.018 156.46 214.506 155.67 214.506 154.334V151.01C214.506 149.588 213.794 148.253 212.615 147.456L206.427 143.284L199.958 147.65H199.965Z" fill="white"/>
</mask>
<g mask="url(#mask5_653_4)">
<path d="M206.099 136.118L193.456 150.911L208.379 163.639L221.021 148.846L206.099 136.118Z" fill="url(#paint7_linear_653_4)"/>
</g>
<path d="M171.625 121.449C169.052 121.543 166.946 123.804 166.946 126.375V133.146H168.7V127.466C168.7 125.147 169.627 123.086 171.977 123.086C172.171 123.086 172.365 123.101 172.552 123.13C172.89 123.18 173.206 122.95 173.264 122.613L173.422 121.636C173.422 121.636 172.61 121.399 171.625 121.449Z" fill="#001744"/>
<path d="M124.497 133.139V126.426C124.497 124.466 123.749 123.037 121.845 123.037C119.782 123.037 118.596 124.695 118.596 126.713V133.132H116.842V122.915C116.842 122.225 117.403 121.665 118.093 121.665H118.517V123.202C118.517 123.274 118.61 123.302 118.653 123.245C119.465 122.075 120.716 121.436 122.175 121.436C123.821 121.436 125.215 122.261 125.819 123.783C126.682 122.276 128.134 121.436 129.909 121.436C132.655 121.436 133.912 123.432 133.912 126.189V133.132H132.151V126.418C132.151 124.458 131.425 123.037 129.499 123.03C127.415 123.015 126.243 124.652 126.243 126.706V133.125H124.49L124.497 133.139Z" fill="#001744"/>
<path d="M61.4481 131.193L64.8406 122.469C65.0275 121.988 65.4875 121.672 66.005 121.672H66.9537L62.3034 133.138H60.4706L56 121.672H57.0422C57.5669 121.672 58.0341 121.995 58.2137 122.483L61.4553 131.185L61.4481 131.193Z" fill="#001744"/>
<path d="M68.729 133.138V122.296C68.729 121.952 69.0093 121.672 69.3543 121.672H70.4827V133.138H68.729ZM70.8493 119.044C70.8493 119.726 70.2959 120.286 69.6059 120.286C68.9159 120.286 68.3624 119.733 68.3624 119.044C68.3624 118.355 68.9159 117.802 69.6059 117.802C70.2959 117.802 70.8493 118.355 70.8493 119.044Z" fill="#001744"/>
<path d="M82.529 131.889C81.4221 132.823 79.8624 133.376 78.2093 133.376C75.0037 133.376 72.3802 131.293 72.3802 127.495C72.3802 123.697 74.8887 121.442 78.0512 121.442C81.2137 121.442 83.4202 123.948 83.4202 127.143C83.4202 127.603 83.0537 127.969 82.608 127.969H74.1627C74.3496 130.353 75.9093 131.839 78.2956 131.839C79.539 131.839 80.7105 131.43 81.6952 130.748L82.529 131.897V131.889ZM81.6665 126.598C81.573 124.695 80.3009 122.979 78.0584 122.979C75.9381 122.979 74.4143 124.515 74.1915 126.598H81.6593H81.6665Z" fill="#001744"/>
<path d="M89.1127 123.201H86.8774V128.766C86.8774 131.114 87.8405 131.552 89.4936 131.918L89.278 133.375C87.1865 133.303 85.1237 132.205 85.1237 129.577V119.18C85.1237 118.584 85.5405 118.075 86.1227 117.96L86.8774 117.802V121.672H89.9033V122.404C89.9033 122.842 89.5511 123.194 89.1127 123.194" fill="#001744"/>
<path d="M93.454 121.672V123.23C93.454 123.302 93.5474 123.33 93.5834 123.273C94.3884 122.117 95.9049 121.442 97.5221 121.449C97.6012 121.449 97.6731 121.449 97.7521 121.449C100.598 121.449 102.187 123.33 102.187 126.202V133.146H100.426V126.432C100.426 124.372 99.398 123.043 97.3784 123.043C95.2077 123.043 93.7271 124.573 93.7271 126.684V133.146H91.9662V122.928C91.9662 122.239 92.5268 121.679 93.2168 121.679H93.4612L93.454 121.672Z" fill="#001744"/>
<path d="M105.011 122.548C106.197 121.758 107.822 121.442 109.295 121.442C112.271 121.442 113.96 122.742 113.96 125.327V130.202C113.96 131.243 114.125 131.782 114.693 132.069L114.485 133.368C112.99 133.203 112.328 132.801 112.328 131.394H112.314C111.617 132.528 109.956 133.376 108.066 133.376C105.845 133.376 104.041 132.234 104.041 129.994C104.041 127.754 105.709 126.31 109.087 126.31C110.172 126.31 111.265 126.476 112.228 126.662V125.715C112.228 123.675 110.934 122.972 109.072 122.972C108.037 122.972 107.024 123.194 106.126 123.568C105.816 123.697 105.464 123.546 105.328 123.245L105.019 122.555L105.011 122.548ZM109.266 127.718C106.83 127.718 105.759 128.565 105.759 129.908C105.759 131.38 107.031 131.897 108.246 131.897C110.1 131.897 112.228 130.683 112.228 128.967V128.048C111.495 127.897 110.381 127.718 109.274 127.718" fill="#001744"/>
<path d="M137.046 121.672L140.144 130.992L142.911 122.533C143.076 122.024 143.558 121.672 144.097 121.672H145.017L148.021 130.999L151.27 121.672H153.06L148.891 133.138H147.094L144.076 123.797L140.999 133.138H139.195L135.134 121.672H137.046Z" fill="#001744"/>
<path d="M181.731 132.722L177.274 127.689H176.757V133.139H175.003V117.379C175.003 116.783 175.42 116.273 176.002 116.158L176.757 116V126.131H177.274L181.307 122.053C181.544 121.816 181.86 121.679 182.198 121.679H183.93L178.798 126.878L184.347 133.146H182.672C182.313 133.146 181.975 132.995 181.738 132.722" fill="#001744"/>
<path d="M192.993 123.231C192.828 123.503 192.483 123.604 192.196 123.475C191.498 123.144 190.672 122.943 189.888 122.943C188.71 122.943 187.438 123.389 187.438 124.638C187.438 127.409 193.755 125.887 193.755 129.994C193.755 132.292 191.8 133.369 189.428 133.369C187.718 133.369 186.467 132.809 185.245 131.926L185.756 131.229C185.95 130.971 186.302 130.899 186.582 131.064C187.409 131.545 188.271 131.839 189.313 131.839C190.514 131.839 192.009 131.445 192.009 130.095C192.009 127.33 185.72 128.888 185.72 124.738C185.72 122.477 187.596 121.436 189.788 121.436C191.139 121.436 192.404 121.83 193.425 122.527L193.001 123.223L192.993 123.231Z" fill="#001744"/>
<path d="M153.469 127.423C153.469 123.891 156.028 121.442 159.363 121.442C162.698 121.442 165.228 123.848 165.228 127.373C165.228 130.898 162.641 133.376 159.313 133.376C155.985 133.376 153.469 130.942 153.469 127.423ZM163.439 127.38C163.439 124.817 161.699 123.029 159.356 123.029C157.013 123.029 155.245 124.817 155.245 127.409C155.245 130.001 156.984 131.803 159.313 131.803C161.642 131.803 163.439 129.965 163.439 127.38Z" fill="#001744"/>
<path d="M176.577 153.717C174.996 155.146 172.444 155.993 170.073 155.993C165.013 155.993 161.311 152.152 161.311 147.097C161.311 142.042 165.135 138.064 170.159 138.064C172.48 138.064 174.903 138.897 176.556 140.376L175.65 141.769C175.212 142.444 174.328 142.703 173.609 142.344C172.639 141.863 171.625 141.604 170.597 141.604C167.428 141.604 165.408 144.067 165.408 147.011C165.408 149.955 167.349 152.396 170.576 152.396C171.661 152.396 172.689 152.116 173.602 151.663C174.328 151.312 175.204 151.57 175.643 152.252L176.577 153.717Z" fill="#005AFF"/>
<path d="M144.787 141.69H139.763V156H135.565V141.69H130.556V140.778C130.556 139.285 131.77 138.071 133.265 138.071H144.787V141.69Z" fill="#005AFF"/>
<path d="M146.95 138.064H158.752V141.669H151.076V145.166H155.964C156.941 145.166 157.732 145.955 157.732 146.932V148.748H151.069V152.396H158.925V156H148.711C147.734 156 146.943 155.21 146.943 154.234V138.072L146.95 138.064Z" fill="#005AFF"/>
<path d="M180.372 138.064H183.132V145.144H189.565V138.064H193.755V154.571C193.755 155.354 193.116 155.993 192.332 155.993H189.565V148.756H183.132V155.993H178.949V139.486C178.949 138.703 179.589 138.064 180.372 138.064Z" fill="#005AFF"/>
<path d="M112.688 143.392H114.434V156H110.481V145.596C110.481 144.375 111.466 143.392 112.688 143.392Z" fill="#001744"/>
<path d="M124.439 156V148.562C124.439 147.355 123.821 146.637 122.621 146.637C121.291 146.637 120.537 147.542 120.537 148.863V156H116.591V146.601C116.591 144.828 118.028 143.392 119.803 143.392L120.069 144.878C120.953 143.665 122.333 143.141 123.879 143.141C126.969 143.141 128.4 145.223 128.4 148.317V156.007H124.439V156Z" fill="#001744"/>
<path d="M110.481 140.046C110.481 138.955 111.365 138.064 112.458 138.064C113.55 138.064 114.434 138.948 114.434 140.046C114.434 141.145 113.55 142.021 112.458 142.021C111.365 142.021 110.481 141.138 110.481 140.046Z" fill="#005AFF"/>
</g>
<defs>
<linearGradient id="paint0_linear_653_4" x1="126" y1="18" x2="162" y2="18" gradientUnits="userSpaceOnUse">
<stop stop-color="#4285F4"/>
<stop offset="0.246732" stop-color="#4285F4"/>
<stop offset="0.502383" stop-color="#9F6CD4"/>
<stop offset="0.758034" stop-color="#EA4335"/>
<stop offset="1" stop-color="#EA4335"/>
</linearGradient>
<linearGradient id="paint1_linear_653_4" x1="0" y1="76" x2="288" y2="76" gradientUnits="userSpaceOnUse">
<stop stop-color="#428EFF"/>
<stop offset="0.108915" stop-color="#428EFF"/>
<stop offset="0.238413" stop-color="#9F6CD4"/>
<stop offset="0.365599" stop-color="#EA4335"/>
<stop offset="0.446535" stop-color="#EA4335"/>
<stop offset="0.55522" stop-color="#F46831"/>
<stop offset="0.656969" stop-color="#FFCB32"/>
<stop offset="0.754092" stop-color="#FFCB32"/>
<stop offset="0.890527" stop-color="#34A853"/>
<stop offset="1" stop-color="#34A853"/>
</linearGradient>
<linearGradient id="paint2_linear_653_4" x1="206.949" y1="151.212" x2="217.722" y2="140.344" gradientUnits="userSpaceOnUse">
<stop stop-color="#001744"/>
<stop offset="0.53" stop-color="#005AFF"/>
<stop offset="0.99" stop-color="#82DCFF"/>
<stop offset="1" stop-color="#82DCFF"/>
</linearGradient>
<linearGradient id="paint3_linear_653_4" x1="206.639" y1="112.356" x2="223.531" y2="126.793" gradientUnits="userSpaceOnUse">
<stop stop-color="#82DCFF"/>
<stop offset="0.16" stop-color="#57B1FF"/>
<stop offset="0.33" stop-color="#318BFF"/>
<stop offset="0.49" stop-color="#1670FF"/>
<stop offset="0.63" stop-color="#055FFF"/>
<stop offset="0.73" stop-color="#005AFF"/>
<stop offset="0.78" stop-color="#045EFF"/>
<stop offset="0.82" stop-color="#116BFF"/>
<stop offset="0.87" stop-color="#2680FF"/>
<stop offset="0.92" stop-color="#459FFF"/>
<stop offset="0.97" stop-color="#6BC5FF"/>
<stop offset="1" stop-color="#82DCFF"/>
</linearGradient>
<linearGradient id="paint4_linear_653_4" x1="213.326" y1="120.426" x2="225.22" y2="130.591" gradientUnits="userSpaceOnUse">
<stop stop-color="#82DCFF"/>
<stop offset="0.22" stop-color="#57B1FF"/>
<stop offset="0.45" stop-color="#318BFF"/>
<stop offset="0.67" stop-color="#1670FF"/>
<stop offset="0.86" stop-color="#055FFF"/>
<stop offset="1" stop-color="#005AFF"/>
</linearGradient>
<linearGradient id="paint5_linear_653_4" x1="221.526" y1="126.663" x2="210.339" y2="137.949" gradientUnits="userSpaceOnUse">
<stop stop-color="#001744"/>
<stop offset="0.49" stop-color="#005AFF"/>
<stop offset="0.99" stop-color="#82DCFF"/>
<stop offset="1" stop-color="#82DCFF"/>
</linearGradient>
<linearGradient id="paint6_linear_653_4" x1="220.635" y1="165.091" x2="203.743" y2="150.654" gradientUnits="userSpaceOnUse">
<stop stop-color="#82DCFF"/>
<stop offset="0.14" stop-color="#57B1FF"/>
<stop offset="0.28" stop-color="#318BFF"/>
<stop offset="0.41" stop-color="#1670FF"/>
<stop offset="0.52" stop-color="#055FFF"/>
<stop offset="0.61" stop-color="#005AFF"/>
<stop offset="0.73" stop-color="#045EFF"/>
<stop offset="0.79" stop-color="#1973FF"/>
<stop offset="0.9" stop-color="#51ABFF"/>
<stop offset="1" stop-color="#82DCFF"/>
</linearGradient>
<linearGradient id="paint7_linear_653_4" x1="215.228" y1="157.266" x2="202.877" y2="146.71" gradientUnits="userSpaceOnUse">
<stop stop-color="#82DCFF"/>
<stop offset="0.22" stop-color="#57B1FF"/>
<stop offset="0.45" stop-color="#318BFF"/>
<stop offset="0.67" stop-color="#1670FF"/>
<stop offset="0.86" stop-color="#055FFF"/>
<stop offset="1" stop-color="#005AFF"/>
</linearGradient>
<clipPath id="clip0_653_4">
<rect width="176" height="40" fill="white" transform="translate(56 116)"/>
</clipPath>
</defs>
</svg>
