<svg width="78" height="54" viewBox="0 0 78 54" fill="none" xmlns="http://www.w3.org/2000/svg">
<path d="M49.7724 24.4904L49.7742 24.4923C51.5578 26.2968 51.5408 29.2072 49.7293 30.9922L39.7678 40.7788C39.7676 40.7789 39.7675 40.779 39.7674 40.7791C37.9518 42.5559 35.0208 42.539 33.2248 40.7353C31.4423 38.9307 31.4596 36.0212 33.2705 34.2366C33.2705 34.2366 33.2706 34.2365 33.2707 34.2364L39.3877 28.2254L40.0114 27.6126L39.4168 26.9715L33.5244 20.6179C33.5239 20.6174 33.5235 20.617 33.5231 20.6165C31.8001 18.7406 31.9141 15.8376 33.7903 14.118C35.6715 12.3937 38.5876 12.515 40.3207 14.3877L40.3211 14.3881L49.2609 24.0356L49.3067 24.085L49.3593 24.127C49.5176 24.2535 49.6586 24.3747 49.7724 24.4904Z" fill="url(#paint0_linear_502_5031)" stroke="white" stroke-width="1.8" stroke-miterlimit="10"/>
<path d="M49.4875 19.952C50.9893 15.6622 48.7292 10.9664 44.4394 9.46452C40.1496 7.96264 35.4539 10.2227 33.952 14.5125C29.6622 13.0107 24.9664 15.2708 23.4645 19.5606C21.9626 23.8504 24.2227 28.5461 28.5125 30.048C27.0107 34.3378 29.2708 39.0336 33.5606 40.5355C37.8504 42.0374 42.5461 39.7773 44.048 35.4875C48.3378 36.9893 53.0336 34.7292 54.5355 30.4394C56.0374 26.1496 53.7773 21.4539 49.4875 19.952Z" fill="url(#paint1_linear_502_5031)" stroke="white" stroke-width="2" stroke-miterlimit="10"/>
<path d="M2.592 12.656H9.76V15.504H5.856V39.12H9.76V41.968H2.592V12.656Z" fill="white"/>
<path d="M68.184 39.12H72.12V15.504H68.184V12.656H75.384V41.968H68.184V39.12Z" fill="white"/>
<defs>
<linearGradient id="paint0_linear_502_5031" x1="31" y1="27.5" x2="52" y2="27.5" gradientUnits="userSpaceOnUse">
<stop stop-color="#FFCB32"/>
<stop offset="0.285166" stop-color="#FFCB32"/>
<stop offset="0.542901" stop-color="#F46831"/>
<stop offset="0.772447" stop-color="#EA4335"/>
<stop offset="1" stop-color="#EA4335"/>
</linearGradient>
<linearGradient id="paint1_linear_502_5031" x1="23" y1="25" x2="55" y2="25" gradientUnits="userSpaceOnUse">
<stop stop-color="#4285F4"/>
<stop offset="0.328906" stop-color="#4285F4"/>
<stop offset="0.680426" stop-color="#34A853"/>
<stop offset="1" stop-color="#34A853"/>
</linearGradient>
</defs>
</svg>
