<svg width="340" height="92" viewBox="0 0 340 92" fill="none" xmlns="http://www.w3.org/2000/svg">
<path d="M313.718 91.0001H26.2823C12.3203 91.0001 1 82.0238 1 70.9527V40.2608C1 29.1897 12.3203 20.2134 26.2823 20.2134H313.718C327.68 20.2134 339 29.1897 339 40.2608V70.9527C339 82.0238 327.68 91.0001 313.718 91.0001Z" fill="url(#paint0_linear_249_627)"/>
<mask id="mask0_249_627" style="mask-type:luminance" maskUnits="userSpaceOnUse" x="1" y="20" width="338" height="71">
<path d="M313.718 91.0001H26.2823C12.3203 91.0001 1 82.0238 1 70.9527V40.2608C1 29.1897 12.3203 20.2134 26.2823 20.2134H313.718C327.68 20.2134 339 29.1897 339 40.2608V70.9527C339 82.0238 327.68 91.0001 313.718 91.0001Z" fill="white"/>
</mask>
<g mask="url(#mask0_249_627)">
<path d="M21.501 -12.1514V141.564" stroke="black" stroke-width="1.0669" stroke-miterlimit="10"/>
<path d="M80.6787 -12.1514V141.564" stroke="black" stroke-width="1.0669" stroke-miterlimit="10"/>
<path d="M139.855 -12.1514V141.564" stroke="black" stroke-width="1.0669" stroke-miterlimit="10"/>
<path d="M199.027 -12.1514V141.564" stroke="black" stroke-width="1.0669" stroke-miterlimit="10"/>
<path d="M258.204 -12.1514V141.564" stroke="black" stroke-width="1.0669" stroke-miterlimit="10"/>
<path d="M317.382 -12.1514V141.564" stroke="black" stroke-width="1.0669" stroke-miterlimit="10"/>
</g>
<path d="M313.718 91.0001H26.2823C12.3203 91.0001 1 82.0238 1 70.9527V40.2608C1 29.1897 12.3203 20.2134 26.2823 20.2134H313.718C327.68 20.2134 339 29.1897 339 40.2608V70.9527C339 82.0238 327.68 91.0001 313.718 91.0001Z" stroke="black" stroke-width="1.0669" stroke-miterlimit="10"/>
<path d="M313.718 80.8863H26.2823C12.3203 80.8863 1 71.91 1 60.8389V30.147C1 19.0759 12.3203 10.0996 26.2823 10.0996H313.718C327.68 10.0996 339 19.0759 339 30.147V60.8389C339 71.91 327.68 80.8863 313.718 80.8863Z" fill="url(#paint1_linear_249_627)"/>
<mask id="mask1_249_627" style="mask-type:luminance" maskUnits="userSpaceOnUse" x="1" y="10" width="338" height="71">
<path d="M313.718 80.8863H26.2823C12.3203 80.8863 1 71.91 1 60.8389V30.147C1 19.0759 12.3203 10.0996 26.2823 10.0996H313.718C327.68 10.0996 339 19.0759 339 30.147V60.8389C339 71.91 327.68 80.8863 313.718 80.8863Z" fill="white"/>
</mask>
<g mask="url(#mask1_249_627)">
<path d="M21.501 -22.2607V131.45" stroke="black" stroke-width="1.0669" stroke-miterlimit="10"/>
<path d="M80.6787 -22.2607V131.45" stroke="black" stroke-width="1.0669" stroke-miterlimit="10"/>
<path d="M139.855 -22.2607V131.45" stroke="black" stroke-width="1.0669" stroke-miterlimit="10"/>
<path d="M199.027 -22.2607V131.45" stroke="black" stroke-width="1.0669" stroke-miterlimit="10"/>
<path d="M258.204 -22.2607V131.45" stroke="black" stroke-width="1.0669" stroke-miterlimit="10"/>
<path d="M317.382 -22.2607V131.45" stroke="black" stroke-width="1.0669" stroke-miterlimit="10"/>
</g>
<path d="M313.718 80.8863H26.2823C12.3203 80.8863 1 71.91 1 60.8389V30.147C1 19.0759 12.3203 10.0996 26.2823 10.0996H313.718C327.68 10.0996 339 19.0759 339 30.147V60.8389C339 71.91 327.68 80.8863 313.718 80.8863Z" stroke="black" stroke-width="1.0669" stroke-miterlimit="10"/>
<path d="M313.718 71.7867H26.2823C12.3203 71.7867 1 62.8104 1 51.7393V21.0474C1 9.97631 12.3203 1 26.2823 1H313.718C327.68 1 339 9.97631 339 21.0474V51.7393C339 62.8104 327.68 71.7867 313.718 71.7867Z" fill="#202124" stroke="black" stroke-width="1.0669" stroke-miterlimit="10"/>
<path d="M39.3203 22.224H48.9683C50.3363 22.224 51.5963 22.548 52.7843 23.124C53.9363 23.736 54.8723 24.564 55.5563 25.608C56.2403 26.652 56.6003 27.804 56.6003 29.064C56.6003 30.36 56.2763 31.476 55.6283 32.412C54.9803 33.348 54.1523 34.068 53.1083 34.572V34.752C54.4403 35.22 55.5203 35.976 56.3123 37.02C57.1043 38.1 57.5003 39.324 57.5003 40.764C57.5003 42.204 57.1043 43.464 56.3843 44.544C55.6643 45.624 54.6563 46.488 53.4323 47.1C52.2083 47.712 50.8403 48 49.4003 48H39.3203V22.224ZM48.7883 33.06C49.9763 33.06 50.9483 32.7 51.6683 31.98C52.3883 31.26 52.7483 30.396 52.7483 29.424C52.7483 28.488 52.3883 27.66 51.6683 26.94C50.9483 26.22 50.0483 25.86 48.9323 25.86H43.2803V33.06H48.7883ZM49.4003 44.328C50.6243 44.328 51.6323 43.968 52.3883 43.212C53.1443 42.456 53.5403 41.556 53.5403 40.476C53.5403 39.432 53.1443 38.532 52.3523 37.74C51.5603 36.984 50.5523 36.588 49.2563 36.588H43.2803V44.328H49.4003ZM68.8479 22.224H73.3479L83.1039 48H78.7479L76.3719 41.376H65.8599L63.4839 48H59.1279L68.8479 22.224ZM75.0759 37.704L72.1959 29.82L71.2239 26.868H71.0079L70.0359 29.82L67.1559 37.704H75.0759ZM91.1592 46.812C89.1072 45.66 87.4872 44.04 86.3352 41.952C85.1472 39.9 84.5712 37.632 84.5712 35.112C84.5712 32.628 85.1472 30.36 86.3352 28.272C87.4872 26.22 89.1072 24.6 91.1592 23.412C93.2112 22.26 95.4792 21.648 97.9992 21.648C101.851 21.648 105.019 23.052 107.539 25.86L104.767 28.56C103.867 27.516 102.859 26.724 101.779 26.184C100.699 25.68 99.4392 25.392 98.0352 25.392C96.2712 25.392 94.6872 25.824 93.2472 26.616C91.8072 27.408 90.6552 28.56 89.8272 30.036C88.9632 31.512 88.5672 33.204 88.5672 35.112C88.5672 37.056 88.9632 38.748 89.8272 40.224C90.6552 41.7 91.8072 42.852 93.2472 43.644C94.6872 44.436 96.2712 44.832 98.0352 44.832C100.951 44.832 103.399 43.644 105.415 41.196L108.259 43.932C106.999 45.408 105.487 46.56 103.759 47.352C101.995 48.18 100.087 48.576 97.9992 48.576C95.4792 48.576 93.2112 48 91.1592 46.812ZM112.691 22.224H116.651V34.536H116.867L127.379 22.224H132.275V22.44L122.843 33.276L133.103 47.784V48H128.279L120.143 36.372L116.651 40.44V48H112.691V22.224ZM148.463 25.968H141.227V22.224H159.623V25.968H152.423V48H148.463V25.968ZM167.658 46.776C165.606 45.588 163.986 43.968 162.834 41.916C161.682 39.864 161.106 37.596 161.106 35.112C161.106 32.664 161.682 30.396 162.834 28.344C163.986 26.292 165.606 24.672 167.658 23.448C169.674 22.26 171.942 21.648 174.462 21.648C176.946 21.648 179.214 22.26 181.23 23.448C183.246 24.672 184.866 26.292 186.018 28.344C187.17 30.396 187.782 32.664 187.782 35.112C187.782 37.596 187.17 39.864 186.018 41.916C184.866 43.968 183.246 45.588 181.23 46.776C179.214 48 176.946 48.576 174.462 48.576C171.942 48.576 169.674 48 167.658 46.776ZM179.178 43.608C180.618 42.78 181.734 41.628 182.562 40.152C183.39 38.676 183.822 36.984 183.822 35.112C183.822 33.24 183.39 31.584 182.562 30.108C181.734 28.632 180.618 27.48 179.178 26.652C177.738 25.824 176.19 25.392 174.462 25.392C172.734 25.392 171.15 25.824 169.71 26.652C168.27 27.48 167.154 28.632 166.326 30.108C165.498 31.584 165.102 33.24 165.102 35.112C165.102 36.984 165.498 38.676 166.326 40.152C167.154 41.628 168.27 42.78 169.71 43.608C171.15 44.436 172.734 44.832 174.462 44.832C176.19 44.832 177.738 44.436 179.178 43.608ZM200.758 22.224H204.718V32.952H216.778V22.224H220.702V48H216.778V36.696H204.718V48H200.758V22.224ZM231.432 46.776C229.38 45.588 227.76 43.968 226.608 41.916C225.456 39.864 224.88 37.596 224.88 35.112C224.88 32.664 225.456 30.396 226.608 28.344C227.76 26.292 229.38 24.672 231.432 23.448C233.448 22.26 235.716 21.648 238.236 21.648C240.72 21.648 242.988 22.26 245.004 23.448C247.02 24.672 248.64 26.292 249.792 28.344C250.944 30.396 251.556 32.664 251.556 35.112C251.556 37.596 250.944 39.864 249.792 41.916C248.64 43.968 247.02 45.588 245.004 46.776C242.988 48 240.72 48.576 238.236 48.576C235.716 48.576 233.448 48 231.432 46.776ZM242.952 43.608C244.392 42.78 245.508 41.628 246.336 40.152C247.164 38.676 247.596 36.984 247.596 35.112C247.596 33.24 247.164 31.584 246.336 30.108C245.508 28.632 244.392 27.48 242.952 26.652C241.512 25.824 239.964 25.392 238.236 25.392C236.508 25.392 234.924 25.824 233.484 26.652C232.044 27.48 230.928 28.632 230.1 30.108C229.272 31.584 228.876 33.24 228.876 35.112C228.876 36.984 229.272 38.676 230.1 40.152C230.928 41.628 232.044 42.78 233.484 43.608C234.924 44.436 236.508 44.832 238.236 44.832C239.964 44.832 241.512 44.436 242.952 43.608ZM256.129 22.224H261.457L268.981 41.844H269.197L276.757 22.224H282.085V48H278.197V33.42L278.413 28.848H278.197L270.673 48H267.541L260.017 28.848H259.801L260.017 33.42V48H256.129V22.224ZM287.91 22.224H303.534V25.968H291.87V33.24H302.382V36.984H291.87V44.256H303.534V48H287.91V22.224Z" fill="white"/>
<defs>
<linearGradient id="paint0_linear_249_627" x1="1.0003" y1="55.6061" x2="339.002" y2="55.6061" gradientUnits="userSpaceOnUse">
<stop stop-color="#34A853"/>
<stop offset="0.0744" stop-color="#34A853"/>
<stop offset="0.2722" stop-color="#428EFF"/>
<stop offset="0.3443" stop-color="#428EFF"/>
<stop offset="0.4839" stop-color="#9F6CD4"/>
<stop offset="0.6148" stop-color="#EA4335"/>
<stop offset="0.7061" stop-color="#EA4335"/>
<stop offset="0.7989" stop-color="#F46831"/>
<stop offset="0.901" stop-color="#FFCB32"/>
<stop offset="1" stop-color="#FFCB32"/>
</linearGradient>
<linearGradient id="paint1_linear_249_627" x1="1.0003" y1="45.4933" x2="339.002" y2="45.4933" gradientUnits="userSpaceOnUse">
<stop stop-color="#34A853"/>
<stop offset="0.0744" stop-color="#34A853"/>
<stop offset="0.2722" stop-color="#428EFF"/>
<stop offset="0.3443" stop-color="#428EFF"/>
<stop offset="0.4839" stop-color="#9F6CD4"/>
<stop offset="0.6148" stop-color="#EA4335"/>
<stop offset="0.7061" stop-color="#EA4335"/>
<stop offset="0.7989" stop-color="#F46831"/>
<stop offset="0.901" stop-color="#FFCB32"/>
<stop offset="1" stop-color="#FFCB32"/>
</linearGradient>
</defs>
</svg>
