<svg width="2028" height="2330" viewBox="0 0 2028 2330" fill="none" xmlns="http://www.w3.org/2000/svg">
<g clip-path="url(#clip0_245_81)">
<path d="M2022.4 2328.71C1898.83 2261.79 1168.7 1852.91 1155.16 1183.91C1141.18 492.89 1902.76 66.0905 2022.4 1.28955H5.59814C125.241 66.0997 886.816 492.89 872.844 1183.92C859.304 1852.91 129.189 2261.79 5.59814 2328.71H2022.4Z" fill="url(#paint0_linear_245_81)" stroke="#202124" stroke-width="2.82" stroke-miterlimit="10"/>
<path d="M1013.07 1.28955V2328.71" stroke="#202124" stroke-width="2.82" stroke-miterlimit="10"/>
<path d="M1667.7 1.28955C1489.64 169.461 1108.32 513.021 1109.8 1092.04C1112.16 2010.33 1618.91 2260.43 1703.69 2328.71" stroke="#202124" stroke-width="2.82" stroke-miterlimit="10"/>
<path d="M346.96 1.28955C525.02 169.461 906.34 513.021 904.86 1092.04C902.5 2010.33 395.754 2260.43 310.965 2328.71" stroke="#202124" stroke-width="2.82" stroke-miterlimit="10"/>
<path d="M1356.86 1.28955C1356.86 1.28955 667.287 1048.41 1356.86 2328.71" stroke="#202124" stroke-width="2.82" stroke-miterlimit="10"/>
<path d="M671.559 1.28955C671.559 1.28955 1361.13 1048.41 671.559 2328.71" stroke="#202124" stroke-width="2.82" stroke-miterlimit="10"/>
<path d="M357.169 238.762H1672.08" stroke="#202124" stroke-width="2.82" stroke-miterlimit="10"/>
<path d="M607.913 487.585H1418.55" stroke="#202124" stroke-width="2.82" stroke-miterlimit="10"/>
<path d="M766.264 728.926H1261.49" stroke="#202124" stroke-width="2.82" stroke-miterlimit="10"/>
<path d="M853.999 970.277H1175.81" stroke="#202124" stroke-width="2.82" stroke-miterlimit="10"/>
<path d="M237.958 2184.46H1794.41" stroke="#202124" stroke-width="2.82" stroke-miterlimit="10"/>
<path d="M526.532 1935.64H1505.65" stroke="#202124" stroke-width="2.82" stroke-miterlimit="10"/>
<path d="M715.033 1694.3H1315.14" stroke="#202124" stroke-width="2.82" stroke-miterlimit="10"/>
<path d="M871.826 1212.25H1156.17" stroke="#202124" stroke-width="2.82" stroke-miterlimit="10"/>
</g>
<defs>
<linearGradient id="paint0_linear_245_81" x1="1014" y1="-426.991" x2="1014" y2="4081" gradientUnits="userSpaceOnUse">
<stop stop-color="#4280FF"/>
<stop offset="0.13" stop-color="#4285F4"/>
<stop offset="0.25" stop-color="#9F6CD4"/>
<stop offset="0.37" stop-color="#EA4335"/>
<stop offset="0.49" stop-color="#F46831"/>
<stop offset="0.65" stop-color="#FBBC04"/>
<stop offset="0.8" stop-color="#70AD3B"/>
<stop offset="0.87" stop-color="#38A852"/>
</linearGradient>
<clipPath id="clip0_245_81">
<rect width="2028" height="2330" fill="white"/>
</clipPath>
</defs>
</svg>
