<svg width="321" height="574" viewBox="0 0 321 574" fill="none" xmlns="http://www.w3.org/2000/svg">
<g clip-path="url(#clip0_689_2)">
<mask id="mask0_689_2" style="mask-type:luminance" maskUnits="userSpaceOnUse" x="46" y="162" width="275" height="278">
<path d="M321 162H46V440H321V162Z" fill="white"/>
</mask>
<g mask="url(#mask0_689_2)">
<path d="M318.237 267.149C315.746 252.903 310.991 240.059 303.971 228.707C291.833 209.034 272.042 199.627 251.888 190.402C232.73 181.628 212.304 171.723 191.381 168.06C178.744 168.693 96.2265 401.739 96.2265 401.739C96.2265 401.739 119.687 411.373 136.535 417.387C148.536 421.639 158.364 425.98 169.732 430.865C181.915 436.111 192.83 439.729 205.466 439.095C218.101 438.462 230.511 435.025 242.558 428.739C254.65 422.452 266.063 413.498 276.843 401.92C287.622 390.343 296.68 376.64 304.062 360.856C311.444 345.072 316.29 329.062 318.554 312.872C320.819 296.681 320.728 281.44 318.237 267.194V267.149Z" fill="url(#paint0_linear_689_2)" stroke="black" stroke-width="2" stroke-miterlimit="10"/>
<path d="M280.874 250.054C278.383 235.808 273.581 222.964 266.516 211.612C259.451 200.215 250.257 191.487 238.98 185.381C227.703 179.276 191.516 165.799 178.79 166.432C166.063 167.065 72.5399 365.514 79.6051 376.865C86.7156 388.263 95.7736 399.524 107.051 405.674C117.966 411.011 122.087 411.689 133.545 416.573C145.774 421.819 154.605 422.678 167.331 422.09C180.058 421.458 192.513 418.02 204.696 411.688C216.878 405.403 228.382 396.448 239.206 384.87C250.031 373.293 259.18 359.589 266.607 343.806C274.035 328.022 278.926 312.012 281.191 295.777C283.455 279.586 283.365 264.345 280.874 250.054Z" stroke="#202124" stroke-width="2" stroke-miterlimit="10"/>
<path d="M240.158 236.169C237.667 221.878 232.866 209.034 225.8 197.638C218.735 186.241 209.542 177.467 198.31 171.316C187.078 165.211 175.076 162.452 162.349 163.085C149.623 163.719 137.169 167.156 125.031 173.487C112.848 179.819 101.389 188.773 90.5652 200.396C79.7409 212.019 70.6376 225.722 63.2101 241.551C55.7826 257.38 50.9366 273.435 48.6721 289.671C46.4076 305.907 46.4982 321.193 48.9891 335.485C51.4801 349.775 56.2808 362.619 63.346 374.017C70.4113 385.413 79.6051 394.187 90.8369 400.338C102.069 406.488 114.071 409.202 126.797 408.614C139.524 407.98 151.978 404.544 164.116 398.212C176.299 391.88 187.757 382.926 198.581 371.303C209.406 359.68 218.509 345.976 225.982 330.148C233.41 314.319 238.255 298.264 240.52 282.028C242.785 265.792 242.694 250.506 240.203 236.215L240.158 236.169Z" fill="white" stroke="black" stroke-width="2" stroke-miterlimit="10"/>
<path d="M204.469 259.415C201.072 274.656 196.09 290.35 189.433 306.494C182.82 322.595 175.484 337.022 167.241 350.092C158.998 363.162 150.665 374.017 142.195 382.609C133.727 391.247 125.439 397.307 117.377 400.835C109.315 404.362 102.069 404.453 95.7737 401.513C89.5237 398.574 84.9041 392.921 81.8243 384.192C78.7899 375.464 77.3407 364.836 77.5218 352.308C77.703 339.826 79.5146 325.897 82.9566 310.565C86.3534 295.233 91.3806 279.586 97.9476 263.621C104.515 247.611 111.987 232.959 120.185 219.934C128.382 206.954 136.716 196.145 145.23 187.507C153.699 178.869 161.988 172.809 170.094 169.281C178.156 165.754 185.357 165.437 191.652 168.422C197.993 171.362 202.657 177.241 205.692 185.969C208.727 194.698 210.13 205.326 209.95 217.808C209.768 230.29 207.957 244.174 204.56 259.415H204.469Z" stroke="#202124" stroke-width="2" stroke-miterlimit="10"/>
<path d="M82.5943 210.436L240.384 278.229" stroke="#202124" stroke-width="2" stroke-miterlimit="10"/>
<path d="M48.6722 286.686L208.183 357.825" stroke="#202124" stroke-width="2" stroke-miterlimit="10"/>
<path d="M191.199 168.06L96.1811 401.875" stroke="#202124" stroke-width="2" stroke-miterlimit="10"/>
<path d="M240.429 279.902L318.464 312.103" stroke="#202124" stroke-width="2" stroke-miterlimit="10"/>
<path d="M229.242 203.653L308.273 237.526" stroke="#202124" stroke-width="2" stroke-miterlimit="10"/>
<path d="M155.556 401.875L232.051 433.442" stroke="#202124" stroke-width="2" stroke-miterlimit="10"/>
<path d="M208.183 357.825L286.217 391.699" stroke="#202124" stroke-width="2" stroke-miterlimit="10"/>
</g>
</g>
<g clip-path="url(#clip1_689_2)">
<path d="M257.104 464.565C252.797 481.616 261.234 505.703 274.633 515.558C278.013 518.042 284.069 521.552 289.259 523.044L282.925 545.17L192.25 519.663L198.584 497.537C203.789 498.97 210.807 499.139 214.996 498.783C231.612 497.37 251.527 481.256 256.883 464.496" fill="url(#paint1_linear_689_2)"/>
<path d="M257.104 464.565C252.797 481.616 261.234 505.703 274.633 515.558C278.013 518.042 284.069 521.552 289.259 523.044L282.925 545.17L192.25 519.663L198.584 497.537C203.789 498.97 210.807 499.139 214.996 498.783C231.612 497.37 251.527 481.256 256.883 464.496" stroke="black" stroke-miterlimit="10"/>
<path d="M257.104 464.565C252.797 481.616 261.234 505.703 274.633 515.558C278.013 518.042 284.069 521.552 289.259 523.044L282.925 545.17L192.25 519.663L198.584 497.537C203.789 498.97 210.807 499.139 214.996 498.783C231.612 497.37 251.527 481.256 256.883 464.496" stroke="#202124" stroke-width="1.21" stroke-miterlimit="10"/>
<path d="M211.939 509.074C207.751 509.43 200.74 509.266 195.527 507.828L192.4 519.466L282.928 544.929L286.209 533.335C281.018 531.842 274.963 528.332 271.582 525.849C257.921 515.799 248.726 493.595 253.629 476.503C248.766 493.607 228.894 507.634 211.945 509.073L211.939 509.074Z" stroke="#202124" stroke-width="1.21" stroke-miterlimit="10"/>
<path d="M227.783 567.763C229.109 563.556 231.234 559.628 234.135 556.291C246.034 542.634 266.271 540.306 282.846 544.899C277.636 543.436 272.823 541.448 268.202 538.624C253.699 529.764 243.295 512.915 248.106 495.764C246.882 500.047 244.914 504.113 242.08 507.577C230.372 521.896 209.359 524.365 192.497 519.696C197.715 521.164 202.768 523.218 207.395 526.041C221.834 534.861 232.296 551.605 227.502 568.703L227.783 567.763Z" fill="white" stroke="#202124" stroke-width="1.48" stroke-miterlimit="10"/>
<path d="M212.532 499.047L206.124 521.477" stroke="#202124" stroke-width="1.21" stroke-miterlimit="10"/>
<path d="M226.797 495.661L219.775 520.258" stroke="#202124" stroke-width="1.21" stroke-miterlimit="10"/>
<path d="M241.285 486.584L233.157 515.046" stroke="#202124" stroke-width="1.21" stroke-miterlimit="10"/>
<path d="M276.625 517.076L270.217 539.506" stroke="#202124" stroke-width="1.21" stroke-miterlimit="10"/>
<path d="M266.266 506.762L259.244 531.359" stroke="#202124" stroke-width="1.21" stroke-miterlimit="10"/>
<path d="M258.741 491.492L250.613 519.954" stroke="#202124" stroke-width="1.21" stroke-miterlimit="10"/>
<path d="M256.86 465.132L247.654 497.366" stroke="#202124" stroke-width="1.21" stroke-miterlimit="10"/>
</g>
<g clip-path="url(#clip2_689_2)">
<path d="M156.93 117.97C131.14 106.52 90.71 113.2 71.43 131.59C66.57 136.23 59.35 144.8 55.56 152.56L22.3 136.53L87.62 0.800003L120.88 16.83C117.18 24.63 114.98 35.63 114.39 42.32C112.05 68.86 132.06 104.62 157.1 117.64" fill="url(#paint2_linear_689_2)"/>
<path d="M156.93 117.97C131.14 106.52 90.71 113.2 71.43 131.59C66.57 136.23 59.35 144.8 55.56 152.56L22.3 136.53L87.62 0.800003L120.88 16.83C117.18 24.63 114.98 35.63 114.39 42.32C112.05 68.86 132.06 104.62 157.1 117.64" stroke="black" stroke-miterlimit="10"/>
<path d="M156.93 117.97C131.14 106.52 90.71 113.2 71.43 131.59C66.57 136.23 59.35 144.8 55.56 152.56L22.3 136.53L87.62 0.800003L120.88 16.83C117.18 24.63 114.98 35.63 114.39 42.32C112.05 68.86 132.06 104.62 157.1 117.64" stroke="#202124" stroke-width="1.21" stroke-miterlimit="10"/>
<path d="M98.95 34.69C99.54 28 101.73 17.01 105.44 9.2L87.89 1.09L22.68 136.6L40.12 144.94C43.91 137.18 51.13 128.61 55.99 123.97C75.65 105.22 113.31 96.83 139 109.23C113.28 96.89 96.56 61.77 98.95 34.7V34.69Z" stroke="#202124" stroke-width="1.21" stroke-miterlimit="10"/>
<path d="M1.74 43.55C8.03 46.79 13.66 51.21 18.14 56.69C36.47 79.16 34.58 111.65 22.75 136.48C26.5 128.68 30.97 121.65 36.71 115.15C54.72 94.75 84.24 82.99 110.05 95.26C103.61 92.16 97.72 87.95 93.02 82.54C73.59 60.19 75.47 26.44 87.5 1.17999C83.74 8.98999 79.1 16.38 73.36 22.89C55.43 43.2 26.06 55.08 0.330002 42.85L1.74 43.55Z" fill="white" stroke="#202124" stroke-width="1.48" stroke-miterlimit="10"/>
<path d="M114.65 38.37L80.93 22.14" stroke="#202124" stroke-width="1.21" stroke-miterlimit="10"/>
<path d="M116.08 61.75L79.1 43.96" stroke="#202124" stroke-width="1.21" stroke-miterlimit="10"/>
<path d="M126.45 87.04L83.66 66.45" stroke="#202124" stroke-width="1.21" stroke-miterlimit="10"/>
<path d="M68.48 134.31L34.76 118.08" stroke="#202124" stroke-width="1.21" stroke-miterlimit="10"/>
<path d="M87.65 120.83L50.67 103.04" stroke="#202124" stroke-width="1.21" stroke-miterlimit="10"/>
<path d="M113.88 113.17L71.09 92.58" stroke="#202124" stroke-width="1.21" stroke-miterlimit="10"/>
<path d="M156.1 117.43L107.64 94.11" stroke="#202124" stroke-width="1.21" stroke-miterlimit="10"/>
</g>
<defs>
<linearGradient id="paint0_linear_689_2" x1="127.629" y1="439.168" x2="288.469" y2="167.875" gradientUnits="userSpaceOnUse">
<stop stop-color="#4285F4"/>
<stop offset="0.328906" stop-color="#4285F4"/>
<stop offset="0.680426" stop-color="#34A853"/>
<stop offset="1" stop-color="#34A853"/>
</linearGradient>
<linearGradient id="paint1_linear_689_2" x1="246.018" y1="551.593" x2="231.624" y2="468.892" gradientUnits="userSpaceOnUse">
<stop stop-color="#FFCB32"/>
<stop offset="0.285166" stop-color="#FFCB32"/>
<stop offset="0.542901" stop-color="#F46831"/>
<stop offset="0.772447" stop-color="#EA4335"/>
<stop offset="1" stop-color="#EA4335"/>
</linearGradient>
<linearGradient id="paint2_linear_689_2" x1="137.326" y1="35.7728" x2="78.8656" y2="128.841" gradientUnits="userSpaceOnUse">
<stop stop-color="#1290FF"/>
<stop offset="0.08" stop-color="#248BF9"/>
<stop offset="0.23" stop-color="#537EEA"/>
<stop offset="0.44" stop-color="#9E6AD3"/>
<stop offset="0.48" stop-color="#AC67CF"/>
<stop offset="0.71" stop-color="#C5588E"/>
<stop offset="1" stop-color="#E94435"/>
</linearGradient>
<clipPath id="clip0_689_2">
<rect width="275" height="278" fill="white" transform="translate(46 162)"/>
</clipPath>
<clipPath id="clip1_689_2">
<rect width="98" height="96" fill="white" transform="translate(201.113 573.505) rotate(-99.873)"/>
</clipPath>
<clipPath id="clip2_689_2">
<rect width="157.37" height="153.37" fill="white"/>
</clipPath>
</defs>
</svg>
