<svg width="310" height="180" viewBox="0 0 310 180" fill="none" xmlns="http://www.w3.org/2000/svg">
<path d="M155 36C155 26.0588 146.941 18 137 18C146.941 18 155 9.94117 155 0C155 9.94117 163.059 18 173 18C163.059 18 155 26.0588 155 36Z" fill="url(#paint0_linear_651_7)" stroke="#202124" stroke-miterlimit="10"/>
<rect x="1" y="53" width="308" height="46" rx="23" fill="#202124"/>
<rect x="1" y="53" width="308" height="46" rx="23" stroke="url(#paint1_linear_651_7)" stroke-width="2"/>
<path d="M47.6 81.84C46.46 81.2 45.56 80.3 44.9 79.14C44.22 78 43.9 76.74 43.9 75.34C43.9 73.96 44.22 72.7 44.9 71.54C45.56 70.4 46.46 69.5 47.6 68.84C48.72 68.2 49.96 67.86 51.32 67.86C52.36 67.86 53.36 68.06 54.28 68.42C55.2 68.8 55.98 69.32 56.58 70L55.38 71.22C54.9 70.66 54.32 70.24 53.62 69.94C52.9 69.64 52.14 69.48 51.34 69.48C50.34 69.48 49.4 69.74 48.52 70.22C47.64 70.7 46.92 71.4 46.4 72.28C45.88 73.16 45.62 74.18 45.62 75.34C45.62 76.5 45.88 77.54 46.4 78.42C46.92 79.3 47.64 80 48.52 80.48C49.4 80.96 50.34 81.2 51.34 81.2C52.3 81.2 53.1 81.06 53.74 80.76C54.38 80.46 54.94 80.06 55.42 79.56C55.76 79.2 56.04 78.74 56.26 78.22C56.46 77.7 56.6 77.1 56.66 76.46H51.36V74.88H58.24C58.3 75.26 58.34 75.6 58.34 75.92C58.34 76.8 58.2 77.66 57.92 78.5C57.64 79.34 57.18 80.06 56.58 80.68C55.26 82.12 53.5 82.82 51.32 82.82C49.96 82.82 48.72 82.5 47.6 81.84ZM62.4319 82.1C61.6319 81.62 60.9919 80.98 60.5519 80.14C60.1119 79.32 59.8919 78.4 59.8919 77.4C59.8919 76.4 60.1119 75.5 60.5519 74.66C60.9919 73.84 61.6319 73.18 62.4319 72.7C63.2319 72.22 64.1319 71.98 65.1319 71.98C66.1319 71.98 67.0319 72.22 67.8319 72.7C68.6319 73.18 69.2519 73.84 69.6919 74.66C70.1319 75.5 70.3719 76.4 70.3719 77.4C70.3719 78.4 70.1319 79.32 69.6919 80.14C69.2519 80.98 68.6319 81.62 67.8319 82.1C67.0319 82.58 66.1319 82.82 65.1319 82.82C64.1319 82.82 63.2319 82.58 62.4319 82.1ZM66.8719 80.82C67.4119 80.5 67.8519 80.06 68.1719 79.46C68.4919 78.88 68.6719 78.2 68.6719 77.4C68.6719 76.62 68.4919 75.94 68.1719 75.34C67.8519 74.76 67.4119 74.32 66.8719 74C66.3319 73.68 65.7519 73.52 65.1319 73.52C64.4919 73.52 63.9119 73.68 63.3719 74C62.8119 74.32 62.3719 74.76 62.0519 75.34C61.7319 75.94 61.5719 76.62 61.5719 77.4C61.5719 78.2 61.7319 78.88 62.0519 79.46C62.3719 80.06 62.8119 80.5 63.3719 80.82C63.9119 81.14 64.4919 81.28 65.1319 81.28C65.7519 81.28 66.3319 81.14 66.8719 80.82ZM74.3459 82.1C73.5459 81.62 72.9059 80.98 72.4659 80.14C72.0259 79.32 71.8059 78.4 71.8059 77.4C71.8059 76.4 72.0259 75.5 72.4659 74.66C72.9059 73.84 73.5459 73.18 74.3459 72.7C75.1459 72.22 76.0459 71.98 77.0459 71.98C78.0459 71.98 78.9459 72.22 79.7459 72.7C80.5459 73.18 81.1659 73.84 81.6059 74.66C82.0459 75.5 82.2859 76.4 82.2859 77.4C82.2859 78.4 82.0459 79.32 81.6059 80.14C81.1659 80.98 80.5459 81.62 79.7459 82.1C78.9459 82.58 78.0459 82.82 77.0459 82.82C76.0459 82.82 75.1459 82.58 74.3459 82.1ZM78.7859 80.82C79.3259 80.5 79.7659 80.06 80.0859 79.46C80.4059 78.88 80.5859 78.2 80.5859 77.4C80.5859 76.62 80.4059 75.94 80.0859 75.34C79.7659 74.76 79.3259 74.32 78.7859 74C78.2459 73.68 77.6659 73.52 77.0459 73.52C76.4059 73.52 75.8259 73.68 75.2859 74C74.7259 74.32 74.2859 74.76 73.9659 75.34C73.6459 75.94 73.4859 76.62 73.4859 77.4C73.4859 78.2 73.6459 78.88 73.9659 79.46C74.2859 80.06 74.7259 80.5 75.2859 80.82C75.8259 81.14 76.4059 81.28 77.0459 81.28C77.6659 81.28 78.2459 81.14 78.7859 80.82ZM85.76 86.3C84.98 85.74 84.46 85.08 84.2 84.28L85.76 83.62C85.96 84.22 86.34 84.7 86.86 85.06C87.38 85.42 88.02 85.6 88.74 85.6C89.78 85.6 90.6 85.3 91.18 84.68C91.76 84.08 92.06 83.2 92.06 82.08V80.94H91.98C91.64 81.46 91.16 81.9 90.56 82.22C89.96 82.54 89.26 82.7 88.5 82.7C87.62 82.7 86.8 82.48 86.08 82.02C85.36 81.58 84.78 80.94 84.36 80.12C83.92 79.32 83.72 78.38 83.72 77.34C83.72 76.32 83.92 75.4 84.36 74.58C84.78 73.76 85.36 73.12 86.08 72.66C86.8 72.22 87.62 71.98 88.5 71.98C89.26 71.98 89.96 72.16 90.56 72.48C91.16 72.8 91.64 73.24 91.98 73.76H92.06V72.3H93.68V82.1C93.68 83.74 93.22 85 92.32 85.86C91.4 86.72 90.22 87.14 88.74 87.14C87.54 87.14 86.54 86.86 85.76 86.3ZM90.4 80.7C90.9 80.4 91.3 79.96 91.6 79.38C91.9 78.82 92.06 78.14 92.06 77.34C92.06 76.54 91.9 75.86 91.6 75.28C91.3 74.72 90.9 74.28 90.4 73.98C89.9 73.68 89.34 73.52 88.74 73.52C88.12 73.52 87.56 73.68 87.06 73.98C86.54 74.3 86.14 74.74 85.84 75.3C85.54 75.88 85.4 76.56 85.4 77.34C85.4 78.14 85.54 78.82 85.84 79.4C86.14 79.98 86.54 80.42 87.06 80.72C87.56 81.02 88.12 81.16 88.74 81.16C89.34 81.16 89.9 81.02 90.4 80.7ZM96.1936 68.18H97.8936V82.5H96.1936V68.18ZM102.235 82.12C101.455 81.66 100.855 81.02 100.415 80.2C99.9747 79.38 99.7747 78.46 99.7747 77.42C99.7747 76.46 99.9747 75.56 100.375 74.72C100.775 73.88 101.355 73.22 102.115 72.72C102.875 72.24 103.735 71.98 104.715 71.98C105.715 71.98 106.575 72.22 107.315 72.66C108.035 73.1 108.595 73.72 108.995 74.5C109.395 75.3 109.595 76.2 109.595 77.2C109.595 77.36 109.575 77.54 109.555 77.72H101.475C101.515 78.5 101.695 79.16 102.035 79.68C102.355 80.22 102.775 80.62 103.295 80.88C103.815 81.16 104.355 81.28 104.915 81.28C106.235 81.28 107.255 80.68 107.935 79.44L109.375 80.14C108.935 80.96 108.355 81.62 107.595 82.1C106.835 82.58 105.915 82.82 104.855 82.82C103.875 82.82 102.995 82.6 102.235 82.12ZM107.795 76.32C107.755 75.9 107.635 75.48 107.435 75.04C107.215 74.62 106.875 74.26 106.435 73.96C105.975 73.68 105.395 73.52 104.715 73.52C103.915 73.52 103.235 73.78 102.675 74.3C102.115 74.82 101.735 75.48 101.575 76.32H107.795ZM117.867 82.38C117.187 82.08 116.607 81.64 116.087 81.06C115.567 80.48 115.187 79.78 114.967 78.94L116.587 78.28C116.807 79.14 117.227 79.84 117.847 80.38C118.447 80.94 119.167 81.2 120.007 81.2C120.827 81.2 121.527 80.98 122.107 80.54C122.667 80.1 122.967 79.48 122.967 78.7C122.967 78.04 122.707 77.5 122.227 77.06C121.747 76.62 120.947 76.22 119.847 75.84L118.947 75.52C117.927 75.16 117.107 74.7 116.467 74.1C115.827 73.52 115.507 72.7 115.507 71.66C115.507 70.98 115.687 70.36 116.067 69.78C116.427 69.2 116.947 68.74 117.627 68.38C118.287 68.04 119.027 67.86 119.867 67.86C120.687 67.86 121.407 68.02 122.027 68.32C122.627 68.64 123.127 69 123.487 69.44C123.847 69.88 124.107 70.32 124.267 70.74L122.687 71.42C122.527 70.94 122.227 70.48 121.747 70.08C121.267 69.68 120.647 69.48 119.887 69.48C119.147 69.48 118.527 69.7 118.007 70.1C117.487 70.52 117.227 71.04 117.227 71.66C117.227 72.22 117.447 72.68 117.887 73.04C118.327 73.4 118.987 73.72 119.887 74.02L120.827 74.34C122.027 74.78 122.987 75.34 123.667 76C124.347 76.66 124.687 77.56 124.687 78.68C124.687 79.6 124.447 80.38 123.967 81C123.487 81.64 122.907 82.1 122.187 82.38C121.467 82.68 120.727 82.82 119.967 82.82C119.247 82.82 118.547 82.68 117.867 82.38ZM129.11 82.46C128.75 82.34 128.47 82.16 128.23 81.92C127.69 81.42 127.43 80.72 127.43 79.82V73.84H125.65V72.3H127.43V69.42H129.13V72.3H131.63V73.84H129.13V79.4C129.13 79.96 129.23 80.38 129.45 80.64C129.69 80.94 130.07 81.08 130.55 81.08C130.95 81.08 131.33 80.98 131.67 80.74V82.4C131.47 82.5 131.25 82.56 131.05 82.6C130.85 82.64 130.59 82.66 130.27 82.66C129.85 82.66 129.47 82.6 129.11 82.46ZM133.674 72.3H135.294V73.94H135.374C135.574 73.38 135.954 72.92 136.534 72.56C137.094 72.2 137.694 72 138.334 72C138.794 72 139.194 72.08 139.534 72.2V74.04C139.094 73.84 138.614 73.72 138.094 73.72C137.594 73.72 137.134 73.86 136.734 74.14C136.314 74.42 135.974 74.8 135.734 75.28C135.494 75.76 135.374 76.26 135.374 76.8V82.5H133.674V72.3ZM142.043 82.38C141.443 82.1 141.003 81.7 140.683 81.18C140.363 80.66 140.203 80.08 140.203 79.42C140.203 78.34 140.603 77.5 141.423 76.9C142.223 76.3 143.263 75.98 144.503 75.98C145.103 75.98 145.683 76.06 146.203 76.18C146.723 76.32 147.143 76.48 147.423 76.64V76.02C147.423 75.26 147.143 74.66 146.623 74.2C146.083 73.74 145.403 73.5 144.603 73.5C144.043 73.5 143.503 73.64 143.023 73.88C142.543 74.12 142.163 74.46 141.883 74.9L140.603 73.94C141.003 73.34 141.543 72.86 142.263 72.5C142.963 72.16 143.743 71.98 144.603 71.98C145.983 71.98 147.063 72.36 147.863 73.08C148.643 73.8 149.043 74.8 149.043 76.04V82.5H147.423V81.04H147.343C147.043 81.54 146.603 81.96 146.023 82.3C145.423 82.66 144.763 82.82 144.043 82.82C143.283 82.82 142.623 82.68 142.043 82.38ZM145.803 80.88C146.283 80.6 146.683 80.2 146.983 79.7C147.263 79.22 147.423 78.68 147.423 78.08C147.103 77.88 146.703 77.7 146.243 77.56C145.763 77.44 145.283 77.36 144.763 77.36C143.823 77.36 143.123 77.56 142.643 77.94C142.163 78.34 141.943 78.84 141.943 79.44C141.943 80 142.143 80.46 142.583 80.8C143.003 81.16 143.543 81.32 144.203 81.32C144.763 81.32 145.303 81.18 145.803 80.88ZM153.973 82.46C153.613 82.34 153.333 82.16 153.093 81.92C152.553 81.42 152.293 80.72 152.293 79.82V73.84H150.513V72.3H152.293V69.42H153.993V72.3H156.493V73.84H153.993V79.4C153.993 79.96 154.093 80.38 154.313 80.64C154.553 80.94 154.933 81.08 155.413 81.08C155.813 81.08 156.193 80.98 156.533 80.74V82.4C156.333 82.5 156.113 82.56 155.913 82.6C155.713 82.64 155.453 82.66 155.133 82.66C154.713 82.66 154.333 82.6 153.973 82.46ZM160.008 82.12C159.228 81.66 158.628 81.02 158.188 80.2C157.748 79.38 157.548 78.46 157.548 77.42C157.548 76.46 157.748 75.56 158.148 74.72C158.548 73.88 159.128 73.22 159.888 72.72C160.648 72.24 161.508 71.98 162.488 71.98C163.488 71.98 164.348 72.22 165.088 72.66C165.808 73.1 166.368 73.72 166.768 74.5C167.168 75.3 167.368 76.2 167.368 77.2C167.368 77.36 167.348 77.54 167.328 77.72H159.248C159.288 78.5 159.468 79.16 159.808 79.68C160.128 80.22 160.548 80.62 161.068 80.88C161.588 81.16 162.128 81.28 162.688 81.28C164.008 81.28 165.028 80.68 165.708 79.44L167.148 80.14C166.708 80.96 166.128 81.62 165.368 82.1C164.608 82.58 163.688 82.82 162.628 82.82C161.648 82.82 160.768 82.6 160.008 82.12ZM165.568 76.32C165.528 75.9 165.408 75.48 165.208 75.04C164.988 74.62 164.648 74.26 164.208 73.96C163.748 73.68 163.168 73.52 162.488 73.52C161.688 73.52 161.008 73.78 160.448 74.3C159.888 74.82 159.508 75.48 159.348 76.32H165.568ZM170.955 86.3C170.175 85.74 169.655 85.08 169.395 84.28L170.955 83.62C171.155 84.22 171.535 84.7 172.055 85.06C172.575 85.42 173.215 85.6 173.935 85.6C174.975 85.6 175.795 85.3 176.375 84.68C176.955 84.08 177.255 83.2 177.255 82.08V80.94H177.175C176.835 81.46 176.355 81.9 175.755 82.22C175.155 82.54 174.455 82.7 173.695 82.7C172.815 82.7 171.995 82.48 171.275 82.02C170.555 81.58 169.975 80.94 169.555 80.12C169.115 79.32 168.915 78.38 168.915 77.34C168.915 76.32 169.115 75.4 169.555 74.58C169.975 73.76 170.555 73.12 171.275 72.66C171.995 72.22 172.815 71.98 173.695 71.98C174.455 71.98 175.155 72.16 175.755 72.48C176.355 72.8 176.835 73.24 177.175 73.76H177.255V72.3H178.875V82.1C178.875 83.74 178.415 85 177.515 85.86C176.595 86.72 175.415 87.14 173.935 87.14C172.735 87.14 171.735 86.86 170.955 86.3ZM175.595 80.7C176.095 80.4 176.495 79.96 176.795 79.38C177.095 78.82 177.255 78.14 177.255 77.34C177.255 76.54 177.095 75.86 176.795 75.28C176.495 74.72 176.095 74.28 175.595 73.98C175.095 73.68 174.535 73.52 173.935 73.52C173.315 73.52 172.755 73.68 172.255 73.98C171.735 74.3 171.335 74.74 171.035 75.3C170.735 75.88 170.595 76.56 170.595 77.34C170.595 78.14 170.735 78.82 171.035 79.4C171.335 79.98 171.735 80.42 172.255 80.72C172.755 81.02 173.315 81.16 173.935 81.16C174.535 81.16 175.095 81.02 175.595 80.7ZM181.529 70.06C181.289 69.82 181.169 69.54 181.169 69.2C181.169 68.86 181.289 68.58 181.529 68.34C181.769 68.1 182.049 67.98 182.389 67.98C182.729 67.98 183.009 68.1 183.249 68.34C183.489 68.58 183.609 68.86 183.609 69.2C183.609 69.54 183.489 69.82 183.249 70.06C183.009 70.3 182.729 70.42 182.389 70.42C182.049 70.42 181.769 70.3 181.529 70.06ZM181.549 72.3H183.249V82.5H181.549V72.3ZM187.763 82.12C186.963 81.64 186.363 81 185.923 80.18C185.483 79.36 185.263 78.44 185.263 77.4C185.263 76.38 185.483 75.46 185.923 74.62C186.363 73.8 186.963 73.16 187.763 72.68C188.543 72.22 189.423 71.98 190.423 71.98C191.523 71.98 192.443 72.24 193.203 72.76C193.963 73.28 194.503 73.96 194.823 74.8L193.283 75.44C193.023 74.82 192.643 74.34 192.143 74.02C191.643 73.7 191.043 73.52 190.343 73.52C189.743 73.52 189.183 73.7 188.663 74.02C188.143 74.34 187.723 74.8 187.403 75.38C187.083 75.98 186.943 76.64 186.943 77.4C186.943 78.16 187.083 78.84 187.403 79.42C187.723 80.02 188.143 80.48 188.663 80.8C189.183 81.12 189.743 81.28 190.343 81.28C191.063 81.28 191.683 81.12 192.203 80.78C192.723 80.46 193.103 79.98 193.363 79.36L194.883 80C194.523 80.84 193.963 81.52 193.203 82.04C192.443 82.56 191.503 82.82 190.423 82.82C189.423 82.82 188.543 82.6 187.763 82.12ZM201.709 68.18H206.529C207.329 68.18 208.069 68.36 208.749 68.72C209.429 69.08 209.969 69.6 210.369 70.24C210.769 70.88 210.989 71.62 210.989 72.42C210.989 73.24 210.769 73.98 210.369 74.62C209.969 75.26 209.429 75.76 208.749 76.12C208.069 76.48 207.329 76.66 206.529 76.66H203.409V82.5H201.709V68.18ZM206.569 75.04C207.089 75.04 207.569 74.92 207.969 74.66C208.369 74.42 208.689 74.08 208.929 73.68C209.149 73.28 209.269 72.86 209.269 72.42C209.269 71.98 209.149 71.56 208.929 71.16C208.689 70.76 208.369 70.44 207.969 70.18C207.569 69.94 207.089 69.8 206.569 69.8H203.409V75.04H206.569ZM213.762 82.38C213.162 82.1 212.722 81.7 212.402 81.18C212.082 80.66 211.922 80.08 211.922 79.42C211.922 78.34 212.322 77.5 213.142 76.9C213.942 76.3 214.982 75.98 216.222 75.98C216.822 75.98 217.402 76.06 217.922 76.18C218.442 76.32 218.862 76.48 219.142 76.64V76.02C219.142 75.26 218.862 74.66 218.342 74.2C217.802 73.74 217.122 73.5 216.322 73.5C215.762 73.5 215.222 73.64 214.742 73.88C214.262 74.12 213.882 74.46 213.602 74.9L212.322 73.94C212.722 73.34 213.262 72.86 213.982 72.5C214.682 72.16 215.462 71.98 216.322 71.98C217.702 71.98 218.782 72.36 219.582 73.08C220.362 73.8 220.762 74.8 220.762 76.04V82.5H219.142V81.04H219.062C218.762 81.54 218.322 81.96 217.742 82.3C217.142 82.66 216.482 82.82 215.762 82.82C215.002 82.82 214.342 82.68 213.762 82.38ZM217.522 80.88C218.002 80.6 218.402 80.2 218.702 79.7C218.982 79.22 219.142 78.68 219.142 78.08C218.822 77.88 218.422 77.7 217.962 77.56C217.482 77.44 217.002 77.36 216.482 77.36C215.542 77.36 214.842 77.56 214.362 77.94C213.882 78.34 213.662 78.84 213.662 79.44C213.662 80 213.862 80.46 214.302 80.8C214.722 81.16 215.262 81.32 215.922 81.32C216.482 81.32 217.022 81.18 217.522 80.88ZM233.467 82.46C233.107 82.34 232.827 82.16 232.587 81.92C232.047 81.42 231.787 80.72 231.787 79.82V73.84H230.007V72.3H231.787V69.42H233.487V72.3H235.987V73.84H233.487V79.4C233.487 79.96 233.587 80.38 233.807 80.64C234.047 80.94 234.427 81.08 234.907 81.08C235.307 81.08 235.687 80.98 236.027 80.74V82.4C235.827 82.5 235.607 82.56 235.407 82.6C235.207 82.64 234.947 82.66 234.627 82.66C234.207 82.66 233.827 82.6 233.467 82.46ZM223.127 72.3H224.747V73.92H224.827C225.067 73.32 225.467 72.86 226.047 72.52C226.607 72.2 227.247 72.02 227.947 72.02C228.227 72.02 228.467 72.04 228.667 72.08V73.82C228.427 73.78 228.127 73.74 227.747 73.74C226.867 73.74 226.167 74.04 225.627 74.6C225.087 75.18 224.827 75.92 224.827 76.84V82.5H223.127V72.3ZM238.127 72.3H239.747V73.8H239.827C240.107 73.3 240.547 72.88 241.167 72.52C241.767 72.16 242.427 71.98 243.127 71.98C244.347 71.98 245.287 72.34 245.927 73.06C246.567 73.78 246.907 74.74 246.907 75.96V82.5H245.207V76.22C245.207 75.28 244.967 74.6 244.527 74.16C244.067 73.74 243.447 73.52 242.667 73.52C242.107 73.52 241.627 73.68 241.187 73.98C240.747 74.3 240.427 74.7 240.187 75.2C239.947 75.7 239.827 76.22 239.827 76.76V82.5H238.127V72.3ZM251.258 82.12C250.478 81.66 249.878 81.02 249.438 80.2C248.998 79.38 248.798 78.46 248.798 77.42C248.798 76.46 248.998 75.56 249.398 74.72C249.798 73.88 250.378 73.22 251.138 72.72C251.898 72.24 252.758 71.98 253.738 71.98C254.738 71.98 255.598 72.22 256.338 72.66C257.058 73.1 257.618 73.72 258.018 74.5C258.418 75.3 258.618 76.2 258.618 77.2C258.618 77.36 258.598 77.54 258.578 77.72H250.498C250.538 78.5 250.718 79.16 251.058 79.68C251.378 80.22 251.798 80.62 252.318 80.88C252.838 81.16 253.378 81.28 253.938 81.28C255.258 81.28 256.278 80.68 256.958 79.44L258.398 80.14C257.958 80.96 257.378 81.62 256.618 82.1C255.858 82.58 254.938 82.82 253.878 82.82C252.898 82.82 252.018 82.6 251.258 82.12ZM256.818 76.32C256.778 75.9 256.658 75.48 256.458 75.04C256.238 74.62 255.898 74.26 255.458 73.96C254.998 73.68 254.418 73.52 253.738 73.52C252.938 73.52 252.258 73.78 251.698 74.3C251.138 74.82 250.758 75.48 250.598 76.32H256.818ZM260.608 72.3H262.228V73.94H262.308C262.508 73.38 262.888 72.92 263.468 72.56C264.028 72.2 264.628 72 265.268 72C265.728 72 266.128 72.08 266.468 72.2V74.04C266.028 73.84 265.548 73.72 265.028 73.72C264.528 73.72 264.068 73.86 263.668 74.14C263.248 74.42 262.908 74.8 262.668 75.28C262.428 75.76 262.308 76.26 262.308 76.8V82.5H260.608V72.3Z" fill="white"/>
<g clip-path="url(#clip0_651_7)">
<path d="M202.159 137C202.259 137.826 202.371 138.662 202.46 139.488C202.46 139.576 202.516 139.719 202.337 139.697C202.192 139.675 201.947 139.84 201.914 139.532C201.869 139.125 201.824 138.706 201.769 138.299C201.769 138.233 201.746 138.167 201.713 138.035C201.568 138.563 201.434 139.026 201.323 139.499C201.278 139.686 201.178 139.719 201.022 139.708C200.855 139.708 200.721 139.73 200.665 139.499C200.576 139.092 200.453 138.695 200.342 138.299C200.319 138.233 200.319 138.167 200.253 138.123C200.197 138.596 200.13 139.059 200.085 139.532C200.052 139.873 199.796 139.686 199.651 139.708C199.45 139.741 199.539 139.576 199.55 139.488C199.639 138.662 199.729 137.837 199.818 137.022C200.007 137.022 200.197 137.022 200.386 137.022C200.576 137.672 200.777 138.332 200.966 138.982C201.167 138.486 201.323 138.002 201.468 137.506C201.512 137.352 201.601 137.198 201.579 137.022C201.78 137 201.969 137 202.159 137Z" fill="#EF5238"/>
<path d="M196.652 137C196.652 137.815 196.652 138.63 196.652 139.433C196.652 139.521 196.73 139.675 196.585 139.686C196.418 139.708 196.228 139.774 196.106 139.565C195.827 139.114 195.548 138.674 195.259 138.233C195.214 138.167 195.192 138.079 195.08 138.035C195.08 138.519 195.069 139.004 195.08 139.477C195.091 139.73 194.946 139.697 194.79 139.697C194.645 139.697 194.489 139.741 194.501 139.477C194.512 138.652 194.501 137.815 194.501 136.989C194.668 136.989 194.846 136.989 195.013 136.989C194.991 137.088 195.069 137.143 195.114 137.209C195.37 137.628 195.638 138.035 195.905 138.442C195.961 138.519 195.994 138.619 196.095 138.674V137H196.663H196.652Z" fill="#EF5138"/>
<path d="M198.503 137C198.592 137.507 198.792 137.969 198.937 138.453C199.038 138.817 199.16 139.18 199.283 139.543C199.327 139.664 199.305 139.697 199.171 139.708C198.759 139.73 198.759 139.73 198.636 139.334C198.592 139.18 198.514 139.125 198.369 139.147C198.302 139.147 198.235 139.147 198.168 139.147C197.856 139.147 197.648 139.286 197.544 139.565C197.499 139.675 197.031 139.774 196.964 139.675C196.92 139.609 196.964 139.543 196.998 139.488C197.243 138.718 197.477 137.958 197.722 137.187C197.745 137.121 197.778 137.066 197.756 136.989H198.525L198.503 137ZM198.112 137.507C198.034 137.771 197.967 137.98 197.912 138.2C197.778 138.663 197.778 138.652 198.257 138.641C198.413 138.641 198.424 138.575 198.391 138.453C198.302 138.156 198.213 137.859 198.112 137.507Z" fill="#EF5239"/>
<path d="M191.859 137C191.959 137.132 191.914 137.275 191.914 137.418C191.914 137.539 191.814 137.506 191.747 137.506C191.48 137.506 191.212 137.506 190.945 137.506C190.666 137.506 190.677 137.683 190.655 137.881C190.633 138.112 190.755 138.123 190.933 138.123C191.134 138.123 191.324 138.134 191.524 138.123C191.68 138.123 191.758 138.156 191.747 138.332C191.747 138.508 191.725 138.596 191.513 138.585C191.312 138.585 191.101 138.596 190.9 138.607C190.777 138.607 190.633 138.574 190.655 138.794C190.677 138.971 190.599 139.202 190.889 139.213C191.168 139.213 191.435 139.224 191.714 139.213C191.881 139.213 191.926 139.279 191.903 139.422C191.892 139.543 191.948 139.697 191.725 139.697C191.379 139.697 191.034 139.73 190.699 139.719C190.265 139.719 190.097 139.532 190.097 139.103C190.097 138.64 190.109 138.167 190.097 137.705C190.086 137.363 190.198 137.132 190.51 137H191.848H191.859Z" fill="#EF5137"/>
<path d="M188.771 137C188.793 137.088 188.749 137.165 188.726 137.242C188.492 137.991 188.247 138.74 188.013 139.488C187.968 139.642 187.901 139.697 187.734 139.697C187.244 139.697 187.244 139.697 187.099 139.246C186.876 138.564 186.664 137.881 186.452 137.187C186.43 137.121 186.43 137.055 186.408 136.989C186.597 136.989 186.787 136.989 186.976 136.989C187.177 137.661 187.377 138.332 187.578 138.993C187.6 138.993 187.623 138.993 187.645 138.982C187.834 138.321 188.024 137.65 188.225 136.989C188.414 136.989 188.604 136.989 188.793 136.989L188.771 137Z" fill="#EF5239"/>
<path d="M194.233 137C194.233 137 194.233 137.011 194.233 137.022C194.188 137.495 194.188 137.506 193.687 137.495C193.508 137.495 193.453 137.55 193.464 137.727C193.464 138.31 193.453 138.893 193.464 139.477C193.464 139.752 193.319 139.697 193.163 139.708C192.985 139.719 192.884 139.697 192.895 139.466C192.918 138.905 192.895 138.332 192.907 137.771C192.907 137.528 192.829 137.495 192.617 137.495C192.149 137.506 192.149 137.495 192.126 137C192.829 137 193.531 137 194.233 137Z" fill="#EF5339"/>
<path d="M189.651 137C189.651 137.826 189.64 138.651 189.651 139.488C189.651 139.741 189.518 139.708 189.362 139.708C189.206 139.708 189.072 139.741 189.072 139.488C189.083 138.662 189.072 137.837 189.072 137H189.64H189.651Z" fill="#EF5339"/>
<path d="M102 177.908C102 177.787 102 177.677 102 177.556C102 164.863 102 152.181 102 139.488C102 139.367 102 139.246 102 139.136C102.134 138.739 102.401 138.53 102.814 138.53C105.11 138.53 107.418 138.519 109.714 138.53C110.717 138.53 111.553 138.971 112.2 139.73C117.372 145.851 122.533 151.972 127.695 158.093C128.018 158.478 128.341 158.852 128.664 159.238C128.809 159.414 128.977 159.502 129.199 159.425C129.422 159.348 129.512 159.183 129.523 158.951C129.523 158.874 129.523 158.797 129.523 158.72C129.523 152.357 129.523 146.005 129.523 139.642C129.523 138.938 129.835 138.64 130.537 138.64C133.514 138.64 136.49 138.64 139.466 138.64C140.18 138.64 140.492 138.949 140.492 139.642C140.492 152.269 140.492 164.896 140.492 177.523C140.492 178.206 140.18 178.514 139.488 178.514C137.159 178.514 134.818 178.503 132.488 178.514C131.663 178.514 131.028 178.184 130.515 177.589C129.4 176.29 128.297 174.991 127.182 173.681C122.823 168.54 118.465 163.399 114.106 158.258C113.983 158.115 113.861 157.972 113.749 157.829C113.616 157.674 113.437 157.619 113.237 157.685C113.036 157.751 112.936 157.906 112.924 158.115C112.924 158.192 112.924 158.269 112.924 158.346C112.924 164.731 112.924 171.116 112.924 177.501C112.924 178.228 112.623 178.525 111.899 178.525C108.911 178.525 105.924 178.525 102.936 178.525C102.401 178.525 102.145 178.36 102 177.908Z" fill="#2A2E6C"/>
<path d="M182.907 142.086C182.907 143.363 182.907 144.64 182.907 145.917C182.907 146.49 182.606 146.864 182.038 147.007C180.355 147.425 178.816 148.152 177.467 149.242C175.015 151.212 173.521 153.744 173.053 156.849C172.15 162.948 176.342 168.837 182.461 170.015C186.597 170.808 190.209 169.729 193.274 166.878C194.356 165.876 195.103 164.643 195.693 163.322C196.106 162.397 196.619 162.144 197.622 162.485C199.929 163.256 202.259 163.96 204.589 164.698C205.235 164.907 205.536 165.524 205.291 166.162C204.221 168.914 202.649 171.347 200.565 173.472C197.756 176.334 194.4 178.283 190.499 179.307C188.76 179.758 186.987 179.989 185.193 180.011C181.469 180.055 177.947 179.241 174.614 177.644C172.875 176.819 171.392 175.63 169.999 174.32C168.315 172.723 166.844 170.951 165.674 168.958C164.592 167.12 163.979 165.127 163.544 163.069C163.11 161.01 162.965 158.93 163.132 156.838C163.522 152.093 165.261 147.899 168.438 144.31C171.437 140.919 175.182 138.729 179.585 137.606C180.288 137.43 181.001 137.297 181.726 137.187C182.372 137.099 182.941 137.573 182.941 138.222C182.941 139.521 182.941 140.809 182.941 142.108C182.918 142.108 182.907 142.108 182.885 142.108L182.907 142.086Z" fill="#2A2E6C"/>
<path d="M158.026 158.577C158.026 164.885 158.026 171.193 158.026 177.501C158.026 178.216 157.726 178.524 157.001 178.524C154.036 178.524 151.082 178.524 148.117 178.524C147.437 178.524 147.124 178.216 147.124 177.556C147.124 164.907 147.124 152.258 147.124 139.609C147.124 138.948 147.437 138.629 148.117 138.629C151.082 138.629 154.036 138.629 157.001 138.629C157.714 138.629 158.026 138.937 158.026 139.653C158.026 145.961 158.026 152.269 158.026 158.577Z" fill="#2A2E6C"/>
<path d="M188.37 158.511C188.37 159.403 188.37 160.283 188.37 161.175C188.37 161.704 188.024 162.045 187.478 162.045C185.694 162.045 183.911 162.045 182.127 162.045C181.581 162.045 181.235 161.715 181.235 161.175C181.235 159.403 181.235 157.619 181.235 155.847C181.235 155.33 181.592 154.988 182.116 154.988C183.911 154.988 185.705 154.988 187.489 154.988C188.024 154.988 188.358 155.33 188.37 155.869C188.37 156.75 188.37 157.63 188.37 158.511Z" fill="#EF4F35"/>
<path d="M207.42 146.5C207.42 145.961 207.443 145.488 207.42 145.025C207.409 144.761 207.554 144.783 207.732 144.772C207.944 144.761 208.011 144.827 208 145.036C207.989 145.774 208 146.511 208 147.249C208 147.337 208.067 147.491 207.922 147.502C207.766 147.513 207.588 147.59 207.465 147.381C207.197 146.93 206.896 146.489 206.618 146.049C206.573 145.983 206.529 145.917 206.428 145.862C206.428 146.324 206.417 146.787 206.428 147.238C206.439 147.48 206.35 147.513 206.138 147.513C205.938 147.513 205.837 147.491 205.837 147.249C205.86 146.511 205.837 145.774 205.837 145.036C205.837 144.948 205.771 144.794 205.915 144.783C206.072 144.772 206.25 144.706 206.372 144.904C206.662 145.377 206.974 145.851 207.275 146.324C207.298 146.368 207.331 146.401 207.409 146.5H207.42Z" fill="#F0573E"/>
<path d="M192.483 150.332C192.483 149.858 192.494 149.385 192.483 148.912C192.483 148.681 192.583 148.67 192.762 148.681C192.918 148.681 193.074 148.625 193.074 148.901C193.051 149.649 193.074 150.387 193.074 151.135C193.074 151.224 193.141 151.367 192.996 151.389C192.84 151.411 192.661 151.466 192.539 151.268C192.249 150.805 191.959 150.354 191.658 149.891C191.625 149.847 191.591 149.792 191.547 149.737C191.457 149.803 191.491 149.891 191.491 149.969C191.491 150.387 191.491 150.794 191.491 151.213C191.491 151.466 191.312 151.389 191.19 151.389C191.067 151.389 190.911 151.444 190.911 151.213C190.911 150.453 190.911 149.693 190.911 148.934C190.911 148.846 190.833 148.692 190.989 148.681C191.145 148.681 191.324 148.592 191.446 148.802C191.736 149.275 192.037 149.726 192.338 150.2C192.371 150.244 192.405 150.299 192.438 150.343C192.449 150.343 192.472 150.343 192.483 150.332Z" fill="#EF5137"/>
<path d="M198.87 142.548C198.87 142.064 198.882 141.58 198.87 141.106C198.87 140.853 199.004 140.886 199.16 140.886C199.316 140.886 199.45 140.853 199.45 141.106C199.428 141.855 199.45 142.615 199.45 143.363C199.45 143.44 199.506 143.583 199.383 143.594C199.227 143.605 199.049 143.693 198.926 143.495C198.625 143.022 198.324 142.548 198.023 142.086C198.001 142.042 197.967 142.009 197.934 141.965C197.845 142.009 197.878 142.086 197.878 142.141C197.878 142.56 197.878 142.989 197.878 143.407C197.878 143.572 197.834 143.638 197.655 143.616C197.588 143.616 197.522 143.616 197.455 143.616C197.354 143.616 197.299 143.594 197.299 143.473C197.299 142.659 197.299 141.855 197.299 141.04C197.299 140.974 197.299 140.886 197.399 140.897C197.555 140.897 197.722 140.831 197.834 141.018C198.112 141.47 198.413 141.921 198.703 142.372C198.748 142.438 198.792 142.504 198.837 142.582C198.848 142.582 198.87 142.582 198.882 142.571L198.87 142.548Z" fill="#EF5137"/>
<path d="M188.158 145.752C188.158 146.324 188.147 146.809 188.158 147.304C188.158 147.535 188.035 147.513 187.89 147.513C187.745 147.513 187.589 147.568 187.589 147.304C187.6 146.555 187.589 145.796 187.589 145.047C187.589 144.959 187.522 144.805 187.667 144.794C187.823 144.783 188.002 144.717 188.124 144.915C188.448 145.444 188.793 145.961 189.172 146.478C189.172 146.192 189.172 145.906 189.172 145.62C189.172 145.4 189.172 145.179 189.172 144.959C189.172 144.849 189.194 144.794 189.328 144.783C189.741 144.761 189.741 144.75 189.741 145.157C189.741 145.851 189.741 146.544 189.741 147.238C189.741 147.326 189.819 147.491 189.652 147.502C189.495 147.513 189.317 147.568 189.194 147.37C188.916 146.908 188.615 146.456 188.314 145.994C188.269 145.928 188.236 145.873 188.147 145.752H188.158Z" fill="#F0543B"/>
<path d="M188.158 142.625C188.158 142.064 188.169 141.591 188.158 141.106C188.147 140.853 188.292 140.886 188.448 140.886C188.593 140.886 188.749 140.842 188.737 141.095C188.715 141.833 188.737 142.57 188.737 143.308C188.737 143.407 188.827 143.572 188.659 143.605C188.492 143.627 188.303 143.671 188.169 143.44C187.901 142.978 187.6 142.537 187.311 142.086C187.277 142.031 187.233 141.976 187.155 141.866C187.155 142.416 187.132 142.901 187.155 143.385C187.166 143.649 187.01 143.605 186.854 143.616C186.686 143.616 186.564 143.627 186.575 143.385C186.597 142.636 186.575 141.899 186.575 141.15C186.575 141.062 186.508 140.919 186.653 140.897C186.809 140.875 186.987 140.82 187.11 141.018C187.411 141.514 187.734 141.987 188.046 142.471C188.069 142.504 188.091 142.537 188.158 142.625Z" fill="#EF5138"/>
<path d="M190.755 145.862C190.755 146.313 190.755 146.754 190.755 147.205C190.755 147.403 190.755 147.535 190.476 147.524C190.22 147.524 190.187 147.436 190.187 147.216C190.198 146.5 190.187 145.796 190.187 145.08C190.187 144.981 190.108 144.816 190.276 144.783C190.443 144.75 190.621 144.739 190.733 144.948C190.989 145.389 191.279 145.807 191.558 146.236C191.602 146.302 191.647 146.368 191.725 146.478C191.781 146.159 191.747 145.884 191.758 145.62C191.758 145.433 191.781 145.245 191.758 145.058C191.725 144.816 191.836 144.761 192.059 144.772C192.26 144.772 192.327 144.816 192.316 145.025C192.305 145.763 192.316 146.5 192.316 147.238C192.316 147.326 192.394 147.491 192.226 147.502C192.082 147.513 191.914 147.568 191.792 147.381C191.502 146.908 191.201 146.445 190.9 145.983C190.867 145.939 190.833 145.895 190.8 145.84C190.777 145.84 190.766 145.84 190.744 145.851L190.755 145.862Z" fill="#EF5137"/>
<path d="M197.834 150.035C197.834 149.649 197.834 149.275 197.834 148.89C197.834 148.714 197.889 148.681 198.045 148.681C198.358 148.692 198.659 148.681 198.971 148.681C199.472 148.681 199.718 148.923 199.751 149.429C199.762 149.76 199.751 150.079 199.405 150.266C199.294 150.332 199.372 150.398 199.405 150.453C199.528 150.717 199.64 150.981 199.773 151.235C199.84 151.356 199.796 151.389 199.662 151.4C199.394 151.422 199.205 151.378 199.127 151.092C199.082 150.926 198.971 150.783 198.926 150.629C198.87 150.409 198.725 150.398 198.536 150.398C198.424 150.398 198.391 150.431 198.391 150.541C198.391 150.772 198.391 150.992 198.391 151.224C198.391 151.499 198.19 151.378 198.068 151.4C197.934 151.422 197.823 151.422 197.834 151.213C197.845 150.816 197.834 150.42 197.834 150.024V150.035ZM198.391 149.572C198.413 149.76 198.291 150.002 198.67 149.969C199.082 149.936 199.182 149.892 199.182 149.583C199.182 149.253 199.116 149.187 198.692 149.198C198.346 149.198 198.402 149.143 198.402 149.572H198.391Z" fill="#EF5238"/>
<path d="M194.969 145.961C194.991 146.27 194.969 146.589 194.902 146.886C194.813 147.205 194.623 147.414 194.278 147.48C194.01 147.525 193.731 147.525 193.464 147.48C193.096 147.425 192.873 147.205 192.795 146.842C192.695 146.358 192.684 145.873 192.806 145.389C192.884 145.059 193.107 144.849 193.453 144.783C193.72 144.739 193.988 144.728 194.244 144.783C194.668 144.86 194.891 145.125 194.958 145.62C194.969 145.73 194.969 145.84 194.98 145.95L194.969 145.961ZM194.423 146.148C194.411 145.994 194.4 145.851 194.378 145.697C194.333 145.389 194.211 145.279 193.876 145.268C193.497 145.257 193.352 145.356 193.297 145.664C193.241 145.994 193.241 146.325 193.297 146.644C193.341 146.886 193.486 147.007 193.743 147.018C194.211 147.04 194.345 146.93 194.389 146.479C194.4 146.369 194.411 146.259 194.423 146.148Z" fill="#EF5238"/>
<path d="M205.447 146.148C205.447 146.412 205.425 146.676 205.347 146.929C205.258 147.227 205.068 147.425 204.745 147.491C204.422 147.546 204.098 147.546 203.775 147.469C203.474 147.392 203.318 147.172 203.251 146.896C203.14 146.412 203.14 145.917 203.251 145.432C203.329 145.08 203.552 144.849 203.931 144.794C204.176 144.761 204.433 144.75 204.678 144.794C205.113 144.86 205.336 145.113 205.403 145.597C205.425 145.784 205.436 145.972 205.447 146.148ZM204.89 146.148C204.879 146.005 204.868 145.851 204.834 145.696C204.79 145.377 204.656 145.278 204.31 145.278C203.953 145.278 203.809 145.388 203.764 145.707C203.719 145.994 203.719 146.28 203.764 146.566C203.809 146.907 203.931 147.017 204.277 147.028C204.689 147.028 204.801 146.94 204.856 146.522C204.868 146.401 204.879 146.291 204.89 146.148Z" fill="#EF5138"/>
<path d="M196.897 142.252C196.886 142.395 196.875 142.527 196.864 142.648C196.797 143.396 196.451 143.683 195.693 143.628C194.913 143.573 194.657 143.308 194.634 142.538C194.623 142.196 194.612 141.866 194.701 141.536C194.79 141.184 195.002 140.964 195.381 140.908C195.582 140.875 195.794 140.864 195.994 140.886C196.518 140.941 196.786 141.195 196.853 141.723C196.875 141.91 196.886 142.097 196.897 142.263V142.252ZM196.34 142.23C196.329 142.086 196.318 141.932 196.284 141.778C196.24 141.481 196.106 141.371 195.805 141.371C195.426 141.371 195.27 141.448 195.214 141.756C195.147 142.086 195.158 142.428 195.214 142.769C195.236 142.912 195.314 143.044 195.47 143.099C195.905 143.264 196.24 143.077 196.295 142.626C196.306 142.505 196.318 142.373 196.329 142.241L196.34 142.23Z" fill="#EF5138"/>
<path d="M197.533 147.513C197.689 147.007 197.845 146.523 197.99 146.049C198.101 145.686 198.224 145.323 198.335 144.959C198.369 144.827 198.425 144.783 198.569 144.783C199.082 144.783 199.082 144.772 199.238 145.257C199.461 145.939 199.673 146.622 199.896 147.304C199.952 147.469 199.929 147.513 199.74 147.524C199.45 147.546 199.283 147.469 199.261 147.172C199.249 147.007 199.149 146.919 198.971 146.952C198.893 146.963 198.815 146.952 198.737 146.952C198.291 146.952 198.291 146.952 198.157 147.359C198.124 147.48 198.068 147.524 197.945 147.524C197.823 147.524 197.689 147.524 197.533 147.524V147.513ZM199.06 146.413C198.96 146.06 198.859 145.708 198.748 145.29C198.681 145.543 198.614 145.73 198.569 145.928C198.465 146.302 198.61 146.475 199.004 146.446C199.004 146.446 199.038 146.435 199.071 146.424L199.06 146.413Z" fill="#EF5339"/>
<path d="M188.983 143.605C189.261 142.714 189.54 141.866 189.808 141.007C189.841 140.908 189.897 140.886 189.997 140.875C190.543 140.831 190.543 140.831 190.699 141.348C190.933 142.086 191.168 142.824 191.402 143.561C191.346 143.627 191.279 143.605 191.234 143.605C190.844 143.605 190.833 143.605 190.722 143.242C190.677 143.077 190.599 143.022 190.432 143.044C190.354 143.044 190.276 143.044 190.198 143.044C189.752 143.044 189.741 143.044 189.607 143.451C189.573 143.572 189.518 143.627 189.395 143.616C189.272 143.616 189.139 143.616 188.983 143.616V143.605ZM190.198 141.392C190.12 141.657 190.053 141.877 189.997 142.097C189.863 142.603 189.763 142.526 190.365 142.537C190.488 142.537 190.521 142.504 190.488 142.394C190.398 142.075 190.309 141.767 190.209 141.403L190.198 141.392Z" fill="#EF5239"/>
<path d="M201.791 143.606C201.568 143.683 201.479 143.528 201.456 143.319C201.423 143.066 201.289 143 201.055 143.033C200.999 143.033 200.933 143.033 200.877 143.033C200.602 143.033 200.42 143.165 200.331 143.429C200.286 143.561 199.84 143.683 199.751 143.583C199.706 143.539 199.74 143.484 199.751 143.44C200.007 142.637 200.264 141.833 200.52 141.029C200.554 140.93 200.598 140.886 200.721 140.875C201.256 140.842 201.256 140.842 201.423 141.349C201.635 141.998 201.835 142.648 202.047 143.308C202.107 143.506 202.025 143.606 201.802 143.606H201.791ZM200.91 141.393C200.799 141.767 200.71 142.064 200.632 142.373C200.62 142.428 200.565 142.527 200.665 142.538C200.821 142.56 200.988 142.538 201.155 142.538C201.234 142.538 201.222 142.483 201.2 142.428C201.111 142.108 201.011 141.778 200.91 141.393Z" fill="#EF5239"/>
<path d="M189.774 148.691C189.93 148.702 190.142 148.735 190.343 148.735C190.588 148.735 190.499 148.901 190.51 149.022C190.532 149.154 190.487 149.22 190.331 149.209C190.064 149.198 189.796 149.209 189.529 149.209C189.428 149.209 189.317 149.209 189.261 149.33C189.194 149.473 189.217 149.627 189.25 149.781C189.25 149.847 189.35 149.825 189.406 149.825C189.64 149.825 189.874 149.847 190.097 149.836C190.32 149.836 190.298 149.957 190.309 150.112C190.32 150.288 190.231 150.299 190.097 150.299C189.886 150.299 189.674 150.31 189.451 150.321C189.317 150.321 189.194 150.332 189.217 150.53C189.239 150.706 189.172 150.915 189.451 150.915C189.729 150.915 189.997 150.915 190.276 150.915C190.443 150.915 190.51 150.959 190.487 151.135C190.476 151.278 190.51 151.422 190.276 151.411C189.964 151.411 189.64 151.444 189.328 151.444C188.827 151.444 188.648 151.256 188.648 150.761C188.648 150.332 188.648 149.902 188.648 149.462C188.648 148.89 188.838 148.702 189.417 148.702C189.507 148.702 189.607 148.702 189.752 148.702L189.774 148.691Z" fill="#EF5239"/>
<path d="M195.626 150.068C195.626 149.804 195.626 149.539 195.626 149.286C195.638 148.912 195.838 148.703 196.217 148.692C196.574 148.681 196.931 148.692 197.299 148.725C197.544 148.747 197.432 148.912 197.455 149.022C197.477 149.143 197.432 149.209 197.287 149.198C197.009 149.198 196.741 149.198 196.463 149.198C196.351 149.198 196.24 149.22 196.206 149.33C196.162 149.473 196.162 149.627 196.206 149.781C196.228 149.837 196.318 149.804 196.373 149.815C196.619 149.815 196.875 149.837 197.12 149.837C197.354 149.837 197.243 150.013 197.265 150.112C197.287 150.244 197.232 150.288 197.098 150.288C196.864 150.288 196.641 150.299 196.407 150.31C196.262 150.31 196.162 150.332 196.184 150.519C196.206 150.684 196.139 150.904 196.418 150.904C196.697 150.904 196.964 150.904 197.243 150.904C197.388 150.904 197.477 150.937 197.455 151.103C197.443 151.235 197.51 151.4 197.265 151.4C196.942 151.4 196.619 151.444 196.295 151.433C195.805 151.433 195.626 151.246 195.626 150.772C195.626 150.541 195.626 150.321 195.626 150.09V150.068Z" fill="#EF5137"/>
<path d="M196.373 146.765C196.552 146.17 196.73 145.587 196.908 144.992C196.964 144.816 197.332 144.684 197.488 144.794C197.555 144.838 197.522 144.893 197.499 144.948C197.243 145.752 196.987 146.556 196.73 147.37C196.697 147.469 196.641 147.513 196.529 147.513C195.994 147.535 195.994 147.535 195.827 147.04C195.615 146.368 195.415 145.697 195.192 145.036C195.125 144.838 195.147 144.783 195.381 144.772C195.627 144.772 195.738 144.827 195.805 145.08C195.95 145.653 196.139 146.203 196.307 146.765C196.329 146.765 196.351 146.765 196.373 146.765Z" fill="#F0543B"/>
<path d="M187.89 150.915C187.957 150.915 188.035 150.904 188.091 150.915C188.18 150.937 188.347 150.783 188.358 151.014C188.358 151.191 188.381 151.356 188.124 151.378C187.868 151.4 187.612 151.433 187.355 151.422C186.887 151.4 186.653 151.202 186.553 150.75C186.452 150.321 186.452 149.881 186.53 149.44C186.642 148.868 186.92 148.648 187.511 148.659C187.734 148.659 187.946 148.714 188.169 148.736C188.303 148.758 188.336 148.824 188.347 148.956C188.358 149.165 188.292 149.209 188.091 149.187C187.89 149.165 187.69 149.132 187.478 149.154C187.233 149.187 187.11 149.319 187.076 149.55C187.032 149.87 187.032 150.189 187.076 150.508C187.121 150.783 187.255 150.893 187.545 150.915C187.656 150.915 187.768 150.915 187.879 150.915H187.89Z" fill="#EF5239"/>
<path d="M192.07 142.504C192.07 142.196 192.07 141.899 192.07 141.591C192.07 141.448 192.037 141.381 191.881 141.403C191.792 141.403 191.691 141.403 191.602 141.403C191.368 141.436 191.29 141.348 191.301 141.106C191.301 140.941 191.346 140.864 191.535 140.875C192.082 140.886 192.639 140.886 193.185 140.875C193.419 140.875 193.397 140.996 193.397 141.139C193.397 141.293 193.397 141.403 193.174 141.403C192.628 141.403 192.628 141.403 192.628 141.965C192.628 142.449 192.617 142.934 192.628 143.407C192.628 143.627 192.516 143.616 192.371 143.594C192.249 143.583 192.037 143.693 192.059 143.407C192.07 143.099 192.059 142.802 192.059 142.493L192.07 142.504Z" fill="#F05840"/>
<path d="M200.62 146.38C200.62 146.072 200.62 145.774 200.62 145.466C200.62 145.334 200.598 145.257 200.442 145.279C200.353 145.279 200.253 145.279 200.163 145.279C199.94 145.312 199.862 145.235 199.885 145.004C199.896 144.839 199.918 144.762 200.108 144.773C200.654 144.784 201.2 144.784 201.758 144.773C201.98 144.773 201.958 144.883 201.958 145.026C201.958 145.158 201.992 145.301 201.769 145.279C201.59 145.268 201.334 145.191 201.234 145.323C201.144 145.444 201.2 145.675 201.2 145.862C201.2 146.336 201.189 146.809 201.2 147.283C201.2 147.492 201.122 147.525 200.944 147.503C200.799 147.492 200.609 147.569 200.632 147.283C200.654 146.974 200.632 146.677 200.632 146.369L200.62 146.38Z" fill="#F0543B"/>
<path d="M194.066 150.277C194.066 149.969 194.066 149.671 194.066 149.363C194.066 149.231 194.032 149.176 193.887 149.187C193.787 149.187 193.676 149.187 193.575 149.187C193.341 149.22 193.274 149.132 193.297 148.912C193.297 148.747 193.33 148.681 193.52 148.681C194.066 148.692 194.612 148.692 195.169 148.681C195.392 148.681 195.381 148.791 195.37 148.934C195.37 149.066 195.415 149.198 195.181 149.198C194.634 149.198 194.634 149.209 194.634 149.76C194.634 150.244 194.623 150.728 194.634 151.202C194.645 151.477 194.456 151.4 194.311 151.422C194.144 151.444 194.044 151.422 194.055 151.202C194.077 150.893 194.055 150.596 194.055 150.288L194.066 150.277Z" fill="#EF5339"/>
<path d="M202.415 142.042C202.415 141.711 202.415 141.381 202.415 141.051C202.415 140.787 202.594 140.886 202.716 140.875C202.839 140.875 202.995 140.831 202.984 141.051C202.973 141.623 202.984 142.196 202.984 142.779C202.984 143.01 203.073 143.098 203.296 143.087C203.496 143.076 203.686 143.098 203.887 143.087C204.121 143.065 204.087 143.208 204.076 143.341C204.076 143.462 204.132 143.616 203.898 143.605C203.597 143.583 203.296 143.605 202.995 143.605C202.616 143.594 202.426 143.418 202.415 143.032C202.415 142.702 202.415 142.372 202.415 142.042Z" fill="#EF5238"/>
<path d="M186.552 146.148C186.552 145.751 186.552 145.355 186.552 144.959C186.552 144.739 186.686 144.772 186.809 144.794C186.932 144.805 187.121 144.684 187.121 144.948C187.121 145.751 187.121 146.555 187.121 147.359C187.121 147.48 187.076 147.513 186.954 147.524C186.552 147.546 186.552 147.546 186.552 147.172C186.552 146.83 186.552 146.5 186.552 146.159V146.148Z" fill="#F0543B"/>
<path d="M202.783 146.159C202.783 146.544 202.772 146.919 202.783 147.304C202.794 147.524 202.683 147.535 202.515 147.513C202.382 147.502 202.203 147.59 202.203 147.315C202.215 146.533 202.215 145.763 202.203 144.981C202.203 144.717 202.371 144.794 202.504 144.783C202.66 144.772 202.783 144.761 202.772 144.992C202.75 145.377 202.772 145.774 202.772 146.159H202.783Z" fill="#F0543B"/>
<path d="M194.233 142.251C194.233 142.637 194.222 143.033 194.233 143.418C194.244 143.671 194.077 143.594 193.943 143.605C193.809 143.605 193.653 143.66 193.665 143.418C193.676 142.637 193.676 141.866 193.665 141.084C193.665 140.82 193.832 140.886 193.965 140.886C194.122 140.886 194.244 140.864 194.233 141.095C194.211 141.481 194.233 141.866 194.233 142.262V142.251Z" fill="#F0543B"/>
</g>
<defs>
<linearGradient id="paint0_linear_651_7" x1="137" y1="18" x2="173" y2="18" gradientUnits="userSpaceOnUse">
<stop stop-color="#FFCB32"/>
<stop offset="0.326666" stop-color="#FFCB32"/>
<stop offset="0.651666" stop-color="#34A853"/>
<stop offset="1" stop-color="#34A853"/>
</linearGradient>
<linearGradient id="paint1_linear_651_7" x1="0" y1="76" x2="310" y2="76" gradientUnits="userSpaceOnUse">
<stop stop-color="#428EFF"/>
<stop offset="0.108915" stop-color="#428EFF"/>
<stop offset="0.238413" stop-color="#9F6CD4"/>
<stop offset="0.365599" stop-color="#EA4335"/>
<stop offset="0.446535" stop-color="#EA4335"/>
<stop offset="0.55522" stop-color="#F46831"/>
<stop offset="0.656969" stop-color="#FFCB32"/>
<stop offset="0.754092" stop-color="#FFCB32"/>
<stop offset="0.890527" stop-color="#34A853"/>
<stop offset="1" stop-color="#34A853"/>
</linearGradient>
<clipPath id="clip0_651_7">
<rect width="106" height="43" fill="white" transform="translate(102 137)"/>
</clipPath>
</defs>
</svg>
