<svg width="78" height="54" viewBox="0 0 78 54" fill="none" xmlns="http://www.w3.org/2000/svg">
<path d="M2.592 12.656H9.76V15.504H5.856V39.12H9.76V41.968H2.592V12.656Z" fill="white"/>
<path d="M68.184 39.12H72.12V15.504H68.184V12.656H75.384V41.968H68.184V39.12Z" fill="white"/>
<path d="M47.7724 24.4904L47.7742 24.4923C49.5578 26.2968 49.5408 29.2072 47.7293 30.9922L37.7678 40.7788C37.7676 40.7789 37.7675 40.779 37.7674 40.7791C35.9518 42.5559 33.0208 42.539 31.2248 40.7353C29.4423 38.9307 29.4596 36.0212 31.2705 34.2366C31.2705 34.2366 31.2706 34.2365 31.2707 34.2364L37.3877 28.2254L38.0114 27.6126L37.4168 26.9715L31.5244 20.6179C31.5239 20.6174 31.5235 20.617 31.5231 20.6165C29.8001 18.7406 29.9141 15.8376 31.7903 14.118C33.6715 12.3937 36.5876 12.515 38.3207 14.3877L38.3211 14.3881L47.2609 24.0356L47.3067 24.085L47.3593 24.127C47.5176 24.2535 47.6586 24.3747 47.7724 24.4904Z" fill="url(#paint0_linear_502_4942)" stroke="white" stroke-width="1.8" stroke-miterlimit="10"/>
<defs>
<linearGradient id="paint0_linear_502_4942" x1="29" y1="27.5" x2="50" y2="27.5" gradientUnits="userSpaceOnUse">
<stop stop-color="#FFCB32"/>
<stop offset="0.285166" stop-color="#FFCB32"/>
<stop offset="0.542901" stop-color="#F46831"/>
<stop offset="0.772447" stop-color="#EA4335"/>
<stop offset="1" stop-color="#EA4335"/>
</linearGradient>
</defs>
</svg>
