<svg width="530" height="188" viewBox="0 0 530 188" fill="none" xmlns="http://www.w3.org/2000/svg">
<path d="M265 46C265 33.2974 254.703 23 242 23C254.703 23 265 12.7026 265 0C265 12.7026 275.297 23 288 23C275.297 23 265 33.2974 265 46Z" fill="url(#paint0_linear_650_5)" stroke="#202124" stroke-miterlimit="10"/>
<rect x="147.93" y="69" width="234.14" height="58" rx="29" fill="#202124"/>
<rect x="147.93" y="69" width="234.14" height="58" rx="29" stroke="url(#paint1_linear_650_5)" stroke-width="2"/>
<path d="M192.74 86.952H199.488C200.608 86.952 201.644 87.204 202.596 87.708C203.548 88.212 204.304 88.94 204.864 89.836C205.424 90.732 205.732 91.768 205.732 92.888C205.732 94.036 205.424 95.072 204.864 95.968C204.304 96.864 203.548 97.564 202.596 98.068C201.644 98.572 200.608 98.824 199.488 98.824H195.12V107H192.74V86.952ZM199.544 96.556C200.272 96.556 200.944 96.388 201.504 96.024C202.064 95.688 202.512 95.212 202.848 94.652C203.156 94.092 203.324 93.504 203.324 92.888C203.324 92.272 203.156 91.684 202.848 91.124C202.512 90.564 202.064 90.116 201.504 89.752C200.944 89.416 200.272 89.22 199.544 89.22H195.12V96.556H199.544ZM210.212 106.44C209.092 105.768 208.196 104.872 207.58 103.696C206.964 102.548 206.656 101.26 206.656 99.86C206.656 98.46 206.964 97.2 207.58 96.024C208.196 94.876 209.092 93.952 210.212 93.28C211.332 92.608 212.592 92.272 213.992 92.272C215.392 92.272 216.652 92.608 217.772 93.28C218.892 93.952 219.76 94.876 220.376 96.024C220.992 97.2 221.328 98.46 221.328 99.86C221.328 101.26 220.992 102.548 220.376 103.696C219.76 104.872 218.892 105.768 217.772 106.44C216.652 107.112 215.392 107.448 213.992 107.448C212.592 107.448 211.332 107.112 210.212 106.44ZM216.428 104.648C217.184 104.2 217.8 103.584 218.248 102.744C218.696 101.932 218.948 100.98 218.948 99.86C218.948 98.768 218.696 97.816 218.248 96.976C217.8 96.164 217.184 95.548 216.428 95.1C215.672 94.652 214.86 94.428 213.992 94.428C213.096 94.428 212.284 94.652 211.528 95.1C210.744 95.548 210.128 96.164 209.68 96.976C209.232 97.816 209.008 98.768 209.008 99.86C209.008 100.98 209.232 101.932 209.68 102.744C210.128 103.584 210.744 104.2 211.528 104.648C212.284 105.096 213.096 105.292 213.992 105.292C214.86 105.292 215.672 105.096 216.428 104.648ZM222.251 92.72H224.715L228.103 104.004H228.131L231.743 92.72H234.179L237.791 103.976H237.819L241.207 92.72H243.615L238.995 107H236.587L232.891 95.604L229.223 107H226.843L222.251 92.72ZM247.999 106.468C246.907 105.824 246.067 104.928 245.451 103.78C244.835 102.632 244.555 101.344 244.555 99.888C244.555 98.544 244.835 97.284 245.395 96.108C245.955 94.932 246.767 94.008 247.831 93.308C248.895 92.636 250.099 92.272 251.471 92.272C252.871 92.272 254.075 92.608 255.111 93.224C256.119 93.84 256.903 94.708 257.463 95.8C258.023 96.92 258.303 98.18 258.303 99.58C258.303 99.804 258.275 100.056 258.247 100.308H246.935C246.991 101.4 247.243 102.324 247.719 103.052C248.167 103.808 248.755 104.368 249.483 104.732C250.211 105.124 250.967 105.292 251.751 105.292C253.599 105.292 255.027 104.452 255.979 102.716L257.995 103.696C257.379 104.844 256.567 105.768 255.503 106.44C254.439 107.112 253.151 107.448 251.667 107.448C250.295 107.448 249.063 107.14 247.999 106.468ZM255.783 98.348C255.727 97.76 255.559 97.172 255.279 96.556C254.971 95.968 254.495 95.464 253.879 95.044C253.235 94.652 252.423 94.428 251.471 94.428C250.351 94.428 249.399 94.792 248.615 95.52C247.831 96.248 247.299 97.172 247.075 98.348H255.783ZM261.088 92.72H263.356V95.016H263.468C263.748 94.232 264.28 93.588 265.092 93.084C265.876 92.58 266.716 92.3 267.612 92.3C268.256 92.3 268.816 92.412 269.292 92.58V95.156C268.676 94.876 268.004 94.708 267.276 94.708C266.576 94.708 265.932 94.904 265.372 95.296C264.784 95.688 264.308 96.22 263.972 96.892C263.636 97.564 263.468 98.264 263.468 99.02V107H261.088V92.72ZM273.429 106.468C272.337 105.824 271.497 104.928 270.881 103.78C270.265 102.632 269.985 101.344 269.985 99.888C269.985 98.544 270.265 97.284 270.825 96.108C271.385 94.932 272.197 94.008 273.261 93.308C274.325 92.636 275.529 92.272 276.901 92.272C278.301 92.272 279.505 92.608 280.541 93.224C281.549 93.84 282.333 94.708 282.893 95.8C283.453 96.92 283.733 98.18 283.733 99.58C283.733 99.804 283.705 100.056 283.677 100.308H272.365C272.421 101.4 272.673 102.324 273.149 103.052C273.597 103.808 274.185 104.368 274.913 104.732C275.641 105.124 276.397 105.292 277.181 105.292C279.029 105.292 280.457 104.452 281.409 102.716L283.425 103.696C282.809 104.844 281.997 105.768 280.933 106.44C279.869 107.112 278.581 107.448 277.097 107.448C275.725 107.448 274.493 107.14 273.429 106.468ZM281.213 98.348C281.157 97.76 280.989 97.172 280.709 96.556C280.401 95.968 279.925 95.464 279.309 95.044C278.665 94.652 277.853 94.428 276.901 94.428C275.781 94.428 274.829 94.792 274.045 95.52C273.261 96.248 272.729 97.172 272.505 98.348H281.213ZM289.231 106.468C288.195 105.824 287.383 104.928 286.795 103.78C286.179 102.632 285.899 101.316 285.899 99.86C285.899 98.432 286.179 97.144 286.795 95.968C287.383 94.82 288.195 93.924 289.231 93.252C290.267 92.608 291.443 92.272 292.731 92.272C293.795 92.272 294.775 92.524 295.643 93.028C296.483 93.532 297.155 94.12 297.603 94.848H297.715L297.603 92.86V86.952H299.983V107H297.715V104.9H297.603C297.155 105.628 296.483 106.216 295.643 106.72C294.775 107.224 293.795 107.448 292.731 107.448C291.443 107.448 290.267 107.14 289.231 106.468ZM295.307 104.62C296.035 104.172 296.595 103.556 297.043 102.716C297.491 101.904 297.715 100.952 297.715 99.86C297.715 98.796 297.491 97.844 297.043 97.004C296.595 96.192 296.035 95.548 295.307 95.1C294.579 94.652 293.823 94.428 292.983 94.428C292.143 94.428 291.387 94.652 290.659 95.1C289.931 95.548 289.343 96.192 288.895 97.032C288.447 97.872 288.251 98.796 288.251 99.86C288.251 100.924 288.447 101.876 288.895 102.716C289.343 103.556 289.931 104.172 290.659 104.62C291.387 105.068 292.143 105.292 292.983 105.292C293.823 105.292 294.579 105.068 295.307 104.62ZM314.318 106.72C313.45 106.216 312.806 105.628 312.386 104.9H312.274V107H310.006V86.952H312.386V92.86L312.274 94.848H312.386C312.806 94.12 313.45 93.532 314.318 93.028C315.186 92.524 316.166 92.272 317.258 92.272C318.546 92.272 319.694 92.608 320.73 93.252C321.766 93.924 322.578 94.82 323.194 95.968C323.782 97.144 324.09 98.432 324.09 99.86C324.09 101.316 323.782 102.632 323.194 103.78C322.578 104.928 321.766 105.824 320.73 106.468C319.694 107.14 318.546 107.448 317.258 107.448C316.166 107.448 315.186 107.224 314.318 106.72ZM319.33 104.62C320.058 104.172 320.618 103.556 321.066 102.716C321.486 101.904 321.71 100.952 321.71 99.86C321.71 98.796 321.486 97.844 321.066 97.004C320.618 96.192 320.058 95.548 319.33 95.1C318.602 94.652 317.818 94.428 317.006 94.428C316.166 94.428 315.382 94.652 314.654 95.1C313.926 95.548 313.366 96.192 312.918 97.004C312.47 97.844 312.274 98.796 312.274 99.86C312.274 100.952 312.47 101.904 312.918 102.716C313.366 103.556 313.926 104.172 314.654 104.62C315.382 105.068 316.166 105.292 317.006 105.292C317.818 105.292 318.602 105.068 319.33 104.62ZM330.671 106.104L324.763 92.72H327.339L331.819 103.332H331.875L336.187 92.72H338.763L329.943 113.048H327.479L330.671 106.104Z" fill="white"/>
<g clip-path="url(#clip0_650_5)">
<path d="M223.795 152.532C225.056 152.532 226.087 152.733 226.898 153.155L225.955 156.099C225.352 155.804 224.672 155.666 223.916 155.666C223.061 155.666 222.359 155.951 221.811 156.521C221.273 157.091 220.999 157.851 220.999 158.8V161.059H225.846V164.119H220.999V178.903H217.524V164.119H214.048V161.059H217.524V158.473C217.524 156.701 218.116 155.265 219.289 154.168C220.462 153.081 221.975 152.532 223.806 152.532H223.795Z" fill="#5F6368"/>
<path d="M226.657 169.976C226.657 167.232 227.556 164.963 229.343 163.169C231.164 161.375 233.444 160.479 236.196 160.479C238.948 160.479 241.218 161.375 243.005 163.169C244.825 164.963 245.724 167.232 245.724 169.976C245.724 172.72 244.814 175.02 243.005 176.782C241.218 178.576 238.937 179.473 236.196 179.473C233.455 179.473 231.164 178.576 229.343 176.782C227.556 174.988 226.657 172.72 226.657 169.976ZM230.133 169.976C230.133 171.896 230.714 173.448 231.876 174.64C233.038 175.833 234.475 176.424 236.196 176.424C237.918 176.424 239.354 175.833 240.505 174.64C241.668 173.448 242.249 171.896 242.249 169.976C242.249 168.055 241.668 166.536 240.505 165.354C239.321 164.14 237.885 163.528 236.196 163.528C234.508 163.528 233.06 164.13 231.876 165.354C230.714 166.546 230.133 168.087 230.133 169.976Z" fill="#5F6368"/>
<path d="M251.678 178.904H248.202V161.059H251.536V163.972H251.689C252.04 163.022 252.764 162.22 253.86 161.544C254.957 160.88 256.031 160.542 257.095 160.542C258.158 160.542 258.959 160.69 259.671 160.975L258.608 164.214C258.18 164.045 257.5 163.961 256.568 163.961C255.253 163.961 254.112 164.468 253.147 165.491C252.172 166.515 251.689 167.697 251.689 169.058V178.893L251.678 178.904Z" fill="#5F6368"/>
<path d="M270.866 178.904V152.828H279.155C283.289 152.828 286.611 154.031 289.122 156.437C291.633 158.843 292.883 161.988 292.883 165.871C292.883 169.755 291.633 172.931 289.122 175.316C286.611 177.701 283.289 178.904 279.155 178.904H270.866ZM274.353 156.036V175.696H279.155C282.313 175.696 284.791 174.83 286.6 173.089C288.42 171.359 289.319 168.942 289.319 165.861C289.319 162.779 288.409 160.394 286.6 158.643C284.78 156.891 282.302 156.026 279.155 156.026H274.353V156.036Z" fill="#5F6368"/>
<path d="M304.187 179.484C301.468 179.484 299.22 178.587 297.455 176.793C295.69 174.999 294.802 172.73 294.802 169.986C294.802 167.243 295.657 165.006 297.378 163.191C299.089 161.386 301.293 160.479 303.968 160.479C306.643 160.479 308.913 161.333 310.536 163.043C312.169 164.752 312.981 167.158 312.981 170.24L312.948 170.598H298.376C298.42 172.35 299.023 173.754 300.196 174.82C301.358 175.885 302.74 176.424 304.363 176.424C306.588 176.424 308.321 175.358 309.582 173.216L312.685 174.672C311.851 176.181 310.7 177.352 309.22 178.207C307.74 179.051 306.073 179.484 304.209 179.484H304.187ZM298.628 167.834H309.264C309.165 166.588 308.639 165.565 307.696 164.763C306.753 163.95 305.481 163.539 303.891 163.539C302.575 163.539 301.457 163.929 300.503 164.7C299.56 165.47 298.935 166.525 298.628 167.834Z" fill="#5F6368"/>
<path d="M323.737 178.904H320.261L312.772 161.06H316.555L322.005 174.894H322.081L327.607 161.06H331.313L323.748 178.904H323.737Z" fill="#5F6368"/>
<path d="M340.447 179.484C337.728 179.484 335.48 178.587 333.715 176.793C331.949 174.999 331.061 172.73 331.061 169.986C331.061 167.243 331.917 165.006 333.638 163.191C335.348 161.386 337.552 160.479 340.228 160.479C342.903 160.479 345.173 161.333 346.795 163.043C348.429 164.752 349.229 167.158 349.229 170.24L349.197 170.598H334.625C334.68 172.35 335.283 173.754 336.445 174.82C337.607 175.885 338.989 176.424 340.611 176.424C342.837 176.424 344.57 175.358 345.841 173.216L348.944 174.672C348.111 176.181 346.96 177.352 345.48 178.207C343.999 179.051 342.333 179.484 340.469 179.484H340.447ZM334.888 167.834H345.523C345.425 166.588 344.898 165.565 343.956 164.763C343.013 163.95 341.741 163.539 340.151 163.539C338.835 163.539 337.706 163.929 336.763 164.7C335.82 165.47 335.195 166.525 334.888 167.834Z" fill="#5F6368"/>
<path d="M355.183 152.828V178.904H351.707V152.828H355.183Z" fill="#5F6368"/>
<path d="M357.694 169.976C357.694 167.232 358.593 164.963 360.38 163.169C362.2 161.375 364.481 160.479 367.233 160.479C369.985 160.479 372.255 161.375 374.042 163.169C375.862 164.963 376.761 167.232 376.761 169.976C376.761 172.72 375.851 175.02 374.042 176.782C372.244 178.576 369.974 179.473 367.233 179.473C364.492 179.473 362.2 178.576 360.38 176.782C358.582 174.988 357.694 172.72 357.694 169.976ZM361.17 169.976C361.17 171.896 361.751 173.448 362.913 174.64C364.075 175.833 365.512 176.424 367.233 176.424C368.955 176.424 370.38 175.833 371.542 174.64C372.704 173.448 373.286 171.896 373.286 169.976C373.286 168.055 372.704 166.536 371.542 165.354C370.358 164.14 368.922 163.528 367.233 163.528C365.545 163.528 364.097 164.13 362.913 165.354C361.751 166.546 361.17 168.087 361.17 169.976Z" fill="#5F6368"/>
<path d="M388.965 179.484C387.605 179.484 386.366 179.209 385.237 178.64C384.118 178.08 383.252 177.342 382.649 176.424H382.496L382.649 178.903V186.765H379.173V161.059H382.507V163.539H382.66C383.263 162.621 384.129 161.871 385.248 161.323C386.366 160.763 387.616 160.479 388.976 160.479C391.421 160.479 393.493 161.397 395.182 163.243C396.925 165.111 397.791 167.359 397.791 169.976C397.791 172.593 396.925 174.872 395.182 176.719C393.493 178.566 391.421 179.484 388.976 179.484H388.965ZM388.395 176.424C390.061 176.424 391.465 175.822 392.594 174.598C393.723 173.405 394.294 171.865 394.294 169.976C394.294 168.087 393.723 166.567 392.594 165.354C391.454 164.14 390.061 163.528 388.395 163.528C386.728 163.528 385.292 164.13 384.162 165.354C383.055 166.567 382.496 168.108 382.496 169.976C382.496 171.844 383.055 173.427 384.162 174.64C385.292 175.833 386.706 176.424 388.395 176.424Z" fill="#5F6368"/>
<path d="M408.69 179.484C405.971 179.484 403.723 178.587 401.958 176.793C400.192 174.999 399.304 172.73 399.304 169.986C399.304 167.243 400.16 165.006 401.881 163.191C403.591 161.386 405.795 160.479 408.471 160.479C411.146 160.479 413.416 161.333 415.038 163.043C416.661 164.752 417.472 167.158 417.472 170.24L417.44 170.598H402.868C402.912 172.35 403.515 173.754 404.688 174.82C405.85 175.885 407.232 176.424 408.854 176.424C411.08 176.424 412.813 175.358 414.074 173.216L417.176 174.672C416.343 176.181 415.192 177.352 413.712 178.207C412.231 179.051 410.565 179.484 408.701 179.484H408.69ZM403.131 167.834H413.767C413.668 166.588 413.142 165.565 412.199 164.763C411.256 163.95 409.984 163.539 408.394 163.539C407.078 163.539 405.96 163.929 405.006 164.7C404.063 165.47 403.438 166.525 403.131 167.834Z" fill="#5F6368"/>
<path d="M423.448 178.904H419.972V161.059H423.306V163.972H423.459C423.81 163.022 424.534 162.22 425.63 161.544C426.727 160.88 427.801 160.542 428.865 160.542C429.928 160.542 430.729 160.69 431.441 160.975L430.378 164.214C429.95 164.045 429.27 163.961 428.338 163.961C427.023 163.961 425.882 164.468 424.917 165.491C423.953 166.515 423.459 167.697 423.459 169.058V178.893L423.448 178.904Z" fill="#5F6368"/>
<path d="M447 173.954C447 175.506 446.287 176.814 444.884 177.891C443.469 178.956 441.693 179.495 439.544 179.495C437.68 179.495 436.036 179.03 434.632 178.091C433.218 177.162 432.209 175.928 431.606 174.398L434.709 173.121C435.158 174.187 435.816 175.02 436.693 175.611C437.56 176.202 438.513 176.508 439.555 176.508C440.663 176.508 441.595 176.276 442.34 175.812C443.086 175.347 443.447 174.809 443.447 174.176C443.447 173.036 442.537 172.192 440.728 171.664L437.549 170.905C433.941 170.029 432.132 168.351 432.132 165.882C432.132 164.257 432.823 162.948 434.193 161.967C435.564 160.985 437.329 160.489 439.467 160.489C441.112 160.489 442.592 160.869 443.908 161.618C445.235 162.368 446.156 163.381 446.693 164.647L443.59 165.892C443.239 165.143 442.669 164.552 441.869 164.13C441.079 163.708 440.18 163.497 439.204 163.497C438.294 163.497 437.483 163.718 436.759 164.151C436.046 164.594 435.685 165.122 435.685 165.755C435.685 166.779 436.682 167.507 438.678 167.939L441.485 168.636C445.169 169.512 447.011 171.295 447.011 173.986L447 173.954Z" fill="#5F6368"/>
<path d="M98.5367 179.484C90.094 179.484 83 172.868 83 164.742C83 156.616 90.094 150 98.5367 150C103.208 150 106.519 151.762 109.019 154.063L106.069 156.901C104.271 155.287 101.848 154.021 98.5367 154.021C92.3747 154.021 87.5612 158.801 87.5612 164.742C87.5612 170.683 92.3747 175.453 98.5367 175.453C102.528 175.453 104.808 173.912 106.267 172.498C107.462 171.348 108.24 169.702 108.547 167.433H98.438V163.402H112.626C112.769 164.119 112.845 164.985 112.845 165.924C112.845 168.942 111.979 172.688 109.227 175.347C106.541 178.038 103.109 179.484 98.5477 179.484H98.5367Z" fill="#4285F4"/>
<path d="M134.062 169.987C134.062 175.453 129.621 179.484 124.183 179.484C118.744 179.484 114.304 175.453 114.304 169.987C114.304 164.52 118.744 160.489 124.183 160.489C129.621 160.489 134.062 164.478 134.062 169.987ZM129.731 169.987C129.731 166.568 127.154 164.235 124.172 164.235C121.189 164.235 118.613 166.568 118.613 169.987C118.613 173.406 121.189 175.738 124.172 175.738C127.154 175.738 129.731 173.363 129.731 169.987Z" fill="#EA4335"/>
<path d="M155.574 169.987C155.574 175.453 151.133 179.484 145.695 179.484C140.257 179.484 135.816 175.453 135.816 169.987C135.816 164.52 140.257 160.489 145.695 160.489C151.133 160.489 155.574 164.478 155.574 169.987ZM151.243 169.987C151.243 166.568 148.666 164.235 145.684 164.235C142.702 164.235 140.125 166.568 140.125 169.987C140.125 173.406 142.702 175.738 145.684 175.738C148.666 175.738 151.243 173.363 151.243 169.987Z" fill="#FBBC04"/>
<path d="M176.144 161.069V178.112C176.144 185.119 171.845 188 166.78 188C161.999 188 159.127 184.908 158.041 182.386L161.813 180.877C162.482 182.428 164.126 184.254 166.78 184.254C170.025 184.254 172.043 182.312 172.043 178.682V177.31H171.9C170.924 178.46 169.06 179.463 166.714 179.463C161.791 179.463 157.274 175.326 157.274 170.008C157.274 164.689 161.791 160.479 166.714 160.479C169.071 160.479 170.935 161.481 171.9 162.6H172.043V161.048H176.144V161.069ZM172.339 170.018C172.339 166.673 170.025 164.235 167.076 164.235C164.126 164.235 161.594 166.683 161.594 170.018C161.594 173.353 164.094 175.738 167.076 175.738C170.058 175.738 172.339 173.321 172.339 170.018Z" fill="#4285F4"/>
<path d="M183.588 151.003V178.904H179.257V151.003H183.588Z" fill="#34A853"/>
<path d="M200.375 173.121L203.741 175.273C202.656 176.825 200.046 179.484 195.529 179.484C189.926 179.484 185.749 175.316 185.749 169.987C185.749 164.341 189.97 160.489 195.046 160.489C200.123 160.489 202.656 164.404 203.489 166.536L203.939 167.612L190.759 172.857C191.768 174.767 193.336 175.738 195.54 175.738C197.744 175.738 199.279 174.693 200.397 173.11L200.375 173.121ZM190.036 169.702L198.84 166.177C198.358 164.995 196.899 164.162 195.189 164.162C192.985 164.162 189.926 166.029 190.036 169.702Z" fill="#EA4335"/>
</g>
<defs>
<linearGradient id="paint0_linear_650_5" x1="242" y1="23" x2="288" y2="23" gradientUnits="userSpaceOnUse">
<stop stop-color="#4285F4"/>
<stop offset="0.328906" stop-color="#4285F4"/>
<stop offset="0.680426" stop-color="#34A853"/>
<stop offset="1" stop-color="#34A853"/>
</linearGradient>
<linearGradient id="paint1_linear_650_5" x1="146.93" y1="98" x2="383.07" y2="98" gradientUnits="userSpaceOnUse">
<stop stop-color="#428EFF"/>
<stop offset="0.108915" stop-color="#428EFF"/>
<stop offset="0.238413" stop-color="#9F6CD4"/>
<stop offset="0.365599" stop-color="#EA4335"/>
<stop offset="0.446535" stop-color="#EA4335"/>
<stop offset="0.55522" stop-color="#F46831"/>
<stop offset="0.656969" stop-color="#FFCB32"/>
<stop offset="0.754092" stop-color="#FFCB32"/>
<stop offset="0.890527" stop-color="#34A853"/>
<stop offset="1" stop-color="#34A853"/>
</linearGradient>
<clipPath id="clip0_650_5">
<rect width="364" height="38" fill="white" transform="translate(83 150)"/>
</clipPath>
</defs>
</svg>
