<svg width="127" height="38" viewBox="0 0 127 38" fill="none" xmlns="http://www.w3.org/2000/svg">
<mask id="mask0_599_2" style="mask-type:luminance" maskUnits="userSpaceOnUse" x="45" y="1" width="37" height="37">
<path d="M81.4843 1H45.7977V37.1272H81.4843V1Z" fill="white"/>
</mask>
<g mask="url(#mask0_599_2)">
<path d="M81.1258 14.6645C80.8025 12.8131 80.1853 11.1441 79.2745 9.66887C77.6993 7.11228 75.1309 5.88982 72.5156 4.69088C70.0296 3.5507 67.3789 2.26359 64.6637 1.78754C63.0238 1.86982 52.3156 32.155 52.3156 32.155C52.3156 32.155 55.36 33.407 57.5463 34.1885C59.1038 34.7411 60.3791 35.3052 61.8544 35.94C63.4353 36.6218 64.8518 37.092 66.4914 37.0096C68.1312 36.9273 69.7415 36.4807 71.3049 35.6638C72.8741 34.8467 74.3552 33.6831 75.7541 32.1785C77.1527 30.6741 78.3283 28.8933 79.2863 26.8421C80.2442 24.7909 80.873 22.7104 81.1669 20.6064C81.4608 18.5023 81.449 16.5217 81.1258 14.6704V14.6645Z" fill="url(#paint0_linear_599_2)" stroke="black" stroke-width="0.5" stroke-miterlimit="10"/>
<path d="M76.2772 12.443C75.9539 10.5916 75.3308 8.92249 74.414 7.44732C73.4971 5.96626 72.304 4.83195 70.8406 4.03853C69.3772 3.24511 64.6812 1.4937 63.0298 1.57598C61.3782 1.65826 49.2418 27.4475 50.1586 28.9226C51.0813 30.4038 52.2568 31.8672 53.7202 32.6664C55.1366 33.36 55.6715 33.4481 57.1584 34.0828C58.7453 34.7645 59.8913 34.8761 61.5428 34.7997C63.1943 34.7176 64.8106 34.2708 66.3916 33.4479C67.9725 32.6312 69.4653 31.4674 70.8699 29.9628C72.2747 28.4584 73.462 26.6775 74.4258 24.6264C75.3897 22.5752 76.0244 20.4947 76.3183 18.3849C76.612 16.2808 76.6004 14.3001 76.2772 12.443Z" stroke="#202124" stroke-width="0.5" stroke-miterlimit="10"/>
<path d="M70.9934 10.6386C70.6702 8.78145 70.0473 7.11231 69.1303 5.63126C68.2135 4.1502 67.0205 3.01003 65.5629 2.21073C64.1052 1.4173 62.5479 1.05879 60.8963 1.14107C59.2449 1.22335 57.6287 1.67002 56.0535 2.49282C54.4725 3.31564 52.9856 4.47933 51.5809 5.98977C50.1763 7.50021 48.995 9.281 48.0311 11.338C47.0672 13.395 46.4384 15.4814 46.1445 17.5914C45.8506 19.7013 45.8624 21.6878 46.1856 23.5451C46.5089 25.4021 47.1319 27.0712 48.0487 28.5525C48.9656 30.0334 50.1587 31.1736 51.6162 31.973C53.0738 32.7722 54.6312 33.1249 56.2827 33.0485C57.9343 32.9661 59.5505 32.5196 61.1256 31.6967C62.7066 30.8738 64.1935 29.7102 65.5981 28.1998C67.0027 26.6893 68.1842 24.9084 69.1539 22.8515C70.1177 20.7945 70.7466 18.7081 71.0405 16.5981C71.3344 14.4882 71.3226 12.5017 70.9994 10.6445L70.9934 10.6386Z" fill="white" stroke="black" stroke-width="0.5" stroke-miterlimit="10"/>
<path d="M66.3622 13.6595C65.9214 15.6401 65.2749 17.6796 64.411 19.7777C63.5528 21.8699 62.6008 23.7448 61.5311 25.4433C60.4615 27.1418 59.3801 28.5524 58.281 29.669C57.182 30.7915 56.1064 31.5791 55.0603 32.0375C54.0141 32.4959 53.0738 32.5077 52.2568 32.1256C51.4458 31.7437 50.8463 31.0091 50.4466 29.8747C50.0529 28.7405 49.8648 27.3593 49.8883 25.7313C49.9118 24.1092 50.1469 22.299 50.5936 20.3066C51.0344 18.3141 51.6867 16.2807 52.539 14.206C53.3912 12.1255 54.3609 10.2213 55.4247 8.52869C56.4885 6.84194 57.5698 5.43728 58.6748 4.31474C59.7738 3.1922 60.8495 2.40464 61.9014 1.94622C62.9474 1.4878 63.882 1.44666 64.6989 1.83456C65.5217 2.21657 66.1271 2.98062 66.5209 4.11491C66.9148 5.24921 67.0968 6.63035 67.0735 8.25246C67.0498 9.87457 66.8147 11.6789 66.374 13.6595H66.3622Z" stroke="#202124" stroke-width="0.5" stroke-miterlimit="10"/>
<path d="M50.5465 7.29449L71.0228 16.1044" stroke="#202124" stroke-width="0.5" stroke-miterlimit="10"/>
<path d="M46.1445 17.2034L66.8442 26.4482" stroke="#202124" stroke-width="0.5" stroke-miterlimit="10"/>
<path d="M64.64 1.78754L52.3096 32.1727" stroke="#202124" stroke-width="0.5" stroke-miterlimit="10"/>
<path d="M71.0286 16.3218L81.1551 20.5065" stroke="#202124" stroke-width="0.5" stroke-miterlimit="10"/>
<path d="M69.5769 6.4129L79.8327 10.8149" stroke="#202124" stroke-width="0.5" stroke-miterlimit="10"/>
<path d="M60.0148 32.1727L69.9414 36.275" stroke="#202124" stroke-width="0.5" stroke-miterlimit="10"/>
<path d="M66.8441 26.4482L76.9705 30.8503" stroke="#202124" stroke-width="0.5" stroke-miterlimit="10"/>
</g>
<path d="M125.961 28.8928C120.017 26.1671 110.698 27.7573 106.254 32.1352C105.134 33.2396 103.47 35.2799 102.597 37.1272L94.9307 33.3111L109.986 1L117.652 4.816C116.799 6.67285 116.292 9.29143 116.156 10.884C115.617 17.202 120.229 25.7148 126 28.8143" fill="url(#paint1_linear_599_2)"/>
<path d="M125.961 28.8928C120.017 26.1671 110.698 27.7573 106.254 32.1352C105.134 33.2396 103.47 35.2799 102.597 37.1272L94.9307 33.3111L109.986 1L117.652 4.816C116.799 6.67285 116.292 9.29143 116.156 10.884C115.617 17.202 120.229 25.7148 126 28.8143" stroke="black" stroke-width="0.5" stroke-miterlimit="10"/>
<path d="M125.961 28.8928C120.017 26.1671 110.698 27.7573 106.254 32.1352C105.134 33.2396 103.47 35.2799 102.597 37.1272L94.9307 33.3111L109.986 1L117.652 4.816C116.799 6.67285 116.292 9.29143 116.156 10.884C115.617 17.202 120.229 25.7148 126 28.8143" stroke="#202124" stroke-width="0.5" stroke-miterlimit="10"/>
<path d="M112.46 8.93217C112.596 7.35282 113.099 4.75833 113.952 2.91458L109.918 1L94.9307 32.9906L98.939 34.9596C99.8101 33.1277 101.469 31.1045 102.586 30.0091C107.105 25.5826 115.76 23.602 121.665 26.5293C115.754 23.6161 111.911 15.3251 112.46 8.93453V8.93217Z" stroke="#202124" stroke-width="0.5" stroke-miterlimit="10"/>
<path d="M89.4845 10.9558C90.9757 11.7171 92.3104 12.7557 93.3725 14.0434C97.7181 19.3232 97.27 26.9575 94.4654 32.7919C95.3544 30.9591 96.4142 29.3072 97.775 27.7799C102.045 22.9864 109.043 20.2231 115.162 23.1063C113.635 22.3778 112.239 21.3886 111.125 20.1174C106.518 14.8658 106.964 6.93542 109.816 1C108.924 2.83514 107.824 4.57158 106.464 6.10125C102.213 10.8736 95.2501 13.6651 89.1503 10.7913L89.4845 10.9558Z" fill="white" stroke="#202124" stroke-width="0.5" stroke-miterlimit="10"/>
<path d="M116.607 9.67052L107.936 6.0578" stroke="#202124" stroke-width="0.5" stroke-miterlimit="10"/>
<path d="M116.607 15.4509L107.936 11.1156" stroke="#202124" stroke-width="0.5" stroke-miterlimit="10"/>
<path d="M119.497 21.2312L108.659 16.896" stroke="#202124" stroke-width="0.5" stroke-miterlimit="10"/>
<path d="M105.769 32.0694L97.0983 29.1792" stroke="#202124" stroke-width="0.5" stroke-miterlimit="10"/>
<path d="M109.381 29.9018L100.711 25.5665" stroke="#202124" stroke-width="0.5" stroke-miterlimit="10"/>
<path d="M115.884 27.7341L106.491 22.6763" stroke="#202124" stroke-width="0.5" stroke-miterlimit="10"/>
<path d="M126 29.1792L114.439 22.6763" stroke="#202124" stroke-width="0.5" stroke-miterlimit="10"/>
<path d="M37.8106 28.8928C31.8664 26.1671 22.5479 27.7573 18.1042 32.1352C16.984 33.2396 15.3199 35.2799 14.4463 37.1272L6.7804 33.3111L21.8357 1L29.5017 4.816C28.6489 6.67285 28.1418 9.29143 28.0058 10.884C27.4665 17.202 32.0785 25.7148 37.8498 28.8143" fill="url(#paint2_linear_599_2)"/>
<path d="M37.8106 28.8928C31.8664 26.1671 22.5479 27.7573 18.1042 32.1352C16.984 33.2396 15.3199 35.2799 14.4463 37.1272L6.7804 33.3111L21.8357 1L29.5017 4.816C28.6489 6.67285 28.1418 9.29143 28.0058 10.884C27.4665 17.202 32.0785 25.7148 37.8498 28.8143" stroke="black" stroke-width="0.5" stroke-miterlimit="10"/>
<path d="M37.8106 28.8928C31.8664 26.1671 22.5479 27.7573 18.1042 32.1352C16.984 33.2396 15.3199 35.2799 14.4463 37.1272L6.7804 33.3111L21.8357 1L29.5017 4.816C28.6489 6.67285 28.1418 9.29143 28.0058 10.884C27.4665 17.202 32.0785 25.7148 37.8498 28.8143" stroke="#202124" stroke-width="0.5" stroke-miterlimit="10"/>
<path d="M24.3098 8.93217C24.4454 7.35282 24.9488 4.75833 25.8014 2.91458L21.7678 1L6.7804 32.9906L10.7887 34.9596C11.6598 33.1277 13.3192 31.1045 14.4362 30.0091C18.9547 25.5826 27.6102 23.602 33.5145 26.5293C27.6033 23.6161 23.7605 15.3251 24.3098 8.93453V8.93217Z" stroke="#202124" stroke-width="0.5" stroke-miterlimit="10"/>
<path d="M1.33427 10.9558C2.82546 11.7171 4.16017 12.7557 5.22225 14.0434C9.56779 19.3232 9.11974 26.9575 6.31516 32.7919C7.20418 30.9591 8.26391 29.3072 9.62469 27.7799C13.8944 22.9864 20.8927 20.2231 27.0116 23.1063C25.4848 22.3778 24.0885 21.3886 22.9742 20.1174C18.3679 14.8658 18.8136 6.93542 21.6656 1C20.7742 2.83514 19.6742 4.57158 18.3134 6.10125C14.0627 10.8736 7.09987 13.6651 1 10.7913L1.33427 10.9558Z" fill="white" stroke="#202124" stroke-width="0.5" stroke-miterlimit="10"/>
<path d="M28.4567 9.67052L19.7861 6.0578" stroke="#202124" stroke-width="0.5" stroke-miterlimit="10"/>
<path d="M28.4567 15.4509L19.7861 11.1156" stroke="#202124" stroke-width="0.5" stroke-miterlimit="10"/>
<path d="M31.3468 21.2312L20.5087 16.896" stroke="#202124" stroke-width="0.5" stroke-miterlimit="10"/>
<path d="M17.6185 32.0694L8.948 29.1792" stroke="#202124" stroke-width="0.5" stroke-miterlimit="10"/>
<path d="M21.2312 29.9018L12.5607 25.5665" stroke="#202124" stroke-width="0.5" stroke-miterlimit="10"/>
<path d="M27.7341 27.7341L18.3411 22.6763" stroke="#202124" stroke-width="0.5" stroke-miterlimit="10"/>
<path d="M37.8498 29.1792L26.2891 22.6763" stroke="#202124" stroke-width="0.5" stroke-miterlimit="10"/>
<defs>
<linearGradient id="paint0_linear_599_2" x1="56.3906" y1="37.0191" x2="77.3067" y2="1.78959" gradientUnits="userSpaceOnUse">
<stop stop-color="#4285F4"/>
<stop offset="0.328906" stop-color="#4285F4"/>
<stop offset="0.680426" stop-color="#34A853"/>
<stop offset="1" stop-color="#34A853"/>
</linearGradient>
<linearGradient id="paint1_linear_599_2" x1="121.442" y1="9.32543" x2="107.335" y2="31.0701" gradientUnits="userSpaceOnUse">
<stop stop-color="#1290FF"/>
<stop offset="0.08" stop-color="#248BF9"/>
<stop offset="0.23" stop-color="#537EEA"/>
<stop offset="0.44" stop-color="#9E6AD3"/>
<stop offset="0.48" stop-color="#AC67CF"/>
<stop offset="0.71" stop-color="#C5588E"/>
<stop offset="1" stop-color="#E94435"/>
</linearGradient>
<linearGradient id="paint2_linear_599_2" x1="6.7804" y1="19.0636" x2="37.8498" y2="19.0636" gradientUnits="userSpaceOnUse">
<stop stop-color="#FFCB32"/>
<stop offset="0.285166" stop-color="#FFCB32"/>
<stop offset="0.542901" stop-color="#F46831"/>
<stop offset="0.772447" stop-color="#EA4335"/>
<stop offset="1" stop-color="#EA4335"/>
</linearGradient>
</defs>
</svg>
