<svg width="430" height="174" viewBox="0 0 430 174" fill="none" xmlns="http://www.w3.org/2000/svg">
<g clip-path="url(#clip0_655_93)">
<path d="M103.235 133.484L103.444 133.57L103.429 133.375L103.235 133.484Z" fill="white" stroke="#111111" stroke-width="1.74" stroke-miterlimit="10"/>
<path d="M175.963 179.671L104.898 148.3L106.672 166.386L106.694 166.584L129.932 176.823L177.629 197.845L214.354 177.643L212.072 159.788L175.963 179.671Z" fill="white" stroke="black" stroke-width="1.74" stroke-miterlimit="10"/>
<path d="M284.867 138.851L304.928 127.823L324.598 116.999L324.583 116.903L322.809 98.8241L282.557 120.988L284.867 138.851Z" fill="white" stroke="black" stroke-width="1.74" stroke-miterlimit="10"/>
<path d="M302.274 129.425L295.844 79.0675" stroke="#111111" stroke-width="1.74" stroke-miterlimit="10"/>
<path d="M104.891 148.3L104.898 148.3L104.898 148.293L135.842 146.549L135.058 150.561L255.1 83.6422L279.216 95.1836L278.345 88.4799L279.216 95.1836L297.394 103.882L322.809 98.8239L253.302 65.4959L104.891 148.3Z" fill="white" stroke="#111111" stroke-width="1.74" stroke-miterlimit="10"/>
<path d="M212.072 159.789L208.033 128.113L212.072 159.789L229.663 150.108L225.573 118.327L229.663 150.108L265.252 130.514L261.033 98.1005L265.252 130.514L282.557 120.987L279.216 95.1835L255.1 83.6421L135.058 150.561L135.842 146.548L104.899 148.293L104.898 148.3L175.963 179.672L212.072 159.789Z" fill="white"/>
<path d="M212.072 159.789L208.033 128.113L212.072 159.789ZM212.072 159.789L229.663 150.108L225.573 118.327L229.663 150.108L265.252 130.514L261.033 98.1005L265.252 130.514L282.557 120.987L279.216 95.1835L255.1 83.6421L135.058 150.561L135.842 146.548L104.899 148.293L104.898 148.3L175.963 179.672L212.072 159.789Z" stroke="#111111" stroke-width="1.74" stroke-miterlimit="10"/>
<path d="M253.302 65.4959L118.986 140.438L103.444 133.572L104.891 148.3L175.963 179.672L322.809 98.8239L321.348 83.9935L307.623 91.5408L253.302 65.4959Z" fill="white" stroke="black" stroke-width="1.74" stroke-miterlimit="10"/>
<path d="M131.815 117.549L132.599 113.544L101.648 115.288L103.429 133.375L103.444 133.572L126.689 143.819L174.386 164.841L301.686 94.8108L321.348 83.9934L321.341 83.8914L319.567 65.8121L294.144 70.8772L251.857 50.6376L131.815 117.549Z" fill="white" stroke="black" stroke-width="1.74" stroke-miterlimit="10"/>
<path d="M102.435 115.119L173.286 146.541L319.566 65.8264L250.272 32.4482L102.435 115.119Z" fill="url(#paint0_linear_655_93)" stroke="black" stroke-width="1.73" stroke-miterlimit="10"/>
<path d="M177.629 197.845L172.713 146.659" stroke="black" stroke-width="1.74" stroke-miterlimit="10"/>
<path d="M153.675 187.287L147.293 135.439" stroke="#111111" stroke-width="1.74" stroke-miterlimit="10"/>
<path d="M130.563 176.085L124.181 124.237" stroke="#111111" stroke-width="1.74" stroke-miterlimit="10"/>
<path d="M229.663 150.108L231.96 167.956L267.577 148.372L265.252 130.514L229.663 150.108Z" fill="white" stroke="black" stroke-width="1.74" stroke-miterlimit="10"/>
<path d="M196.718 187.35L190.281 136.992" stroke="#111111" stroke-width="1.74" stroke-miterlimit="10"/>
<path d="M249.378 158.161L242.948 107.804" stroke="#111111" stroke-width="1.74" stroke-miterlimit="10"/>
<path d="M212.072 159.789L214.354 177.643L231.96 167.956L229.663 150.108L212.072 159.789Z" fill="white" stroke="black" stroke-width="1.74" stroke-miterlimit="10"/>
<path d="M265.252 130.514L267.578 148.371L284.867 138.851L282.557 120.987L265.252 130.514Z" fill="white" stroke="black" stroke-width="1.74" stroke-miterlimit="10"/>
<path d="M212.072 159.789L208.671 126.867" stroke="black" stroke-width="1.74" stroke-miterlimit="10"/>
<path d="M229.663 150.108L224.997 117.88" stroke="#111111" stroke-width="1.74" stroke-miterlimit="10"/>
<path d="M265.252 130.514L260.337 98.4208" stroke="#111111" stroke-width="1.74" stroke-miterlimit="10"/>
<path d="M282.557 120.987L277.827 89.0371" stroke="#111111" stroke-width="1.74" stroke-miterlimit="10"/>
<path d="M299.882 111.476L295.153 79.5264" stroke="#111111" stroke-width="1.74" stroke-miterlimit="10"/>
<path d="M10.1665 27.7378L-5.62704 114.219L121.608 254.646L139.951 169.368L10.1665 27.7378Z" fill="url(#paint1_linear_655_93)" stroke="black" stroke-width="1.74" stroke-miterlimit="10"/>
<path d="M-52.1863 50.3735L-67.9865 136.847L59.2482 277.274L77.599 191.997L-52.1863 50.3735Z" fill="black" stroke="black" stroke-width="1.74" stroke-miterlimit="10"/>
<path d="M-41.0065 126.461L-25.2063 39.9877L-44.5916 46.6917L-44.8072 46.7707L-49.953 75.0476L-60.5159 133.076L-28.7101 168.199L-9.71657 160.996L-41.0065 126.461Z" fill="white" stroke="black" stroke-width="1.74" stroke-miterlimit="10"/>
<path d="M-25.2063 39.9878L-15.1718 73.5969L-19.7829 73.7922L85.1325 188.361L78.7935 217.946L85.9293 215.225L78.7935 217.946L74.0067 240.237L86.2283 266.888L104.579 181.611L-25.2063 39.9878Z" fill="white" stroke="#111111" stroke-width="1.74" stroke-miterlimit="10"/>
<path d="M-9.71655 160.996L23.9919 148.222L-9.71655 160.996L5.5256 177.818L39.3267 164.964L5.5256 177.818L36.3589 211.849L70.8262 198.688L36.3589 211.849L51.3529 228.393L78.7935 217.945L85.1325 188.361L-19.7829 73.7918L-15.1718 73.5965L-25.2063 39.9874L-41.0065 126.46L-9.71655 160.996Z" fill="white"/>
<path d="M-9.71655 160.996L23.9919 148.222L-9.71655 160.996ZM-9.71655 160.996L5.5256 177.818L39.3267 164.964L5.5256 177.818L36.3589 211.849L70.8262 198.688L36.3589 211.849L51.3529 228.393L78.7935 217.945L85.1325 188.361L-19.7829 73.7918L-15.1718 73.5965L-25.2063 39.9874L-41.0065 126.46L-9.71655 160.996Z" stroke="#111111" stroke-width="1.74" stroke-miterlimit="10"/>
<path d="M104.579 181.61L-12.8815 53.4338L-9.42722 34.5213L-25.2063 39.987L-41.0065 126.46L86.2283 266.887L102.126 261.386L90.2342 248.26L104.579 181.61Z" fill="white" stroke="black" stroke-width="1.74" stroke-miterlimit="10"/>
<path d="M15.597 61.5434L20.2004 61.3548L10.1731 27.7462L-9.21939 34.4497L-9.4272 34.5219L-14.5736 62.8061L-25.1436 120.834L85.0911 242.582L102.126 261.387L102.23 261.351L121.608 254.646L109.386 227.996L120.512 176.12L15.597 61.5434Z" fill="white" stroke="black" stroke-width="1.74" stroke-miterlimit="10"/>
<path d="M10.1665 27.7378L-5.62704 114.219L121.608 254.646L139.951 169.368L10.1665 27.7378Z" fill="url(#paint2_linear_655_93)" stroke="#202124" stroke-width="1.74" stroke-miterlimit="10"/>
<path d="M-55.2065 103.926L0.0184326 83.2871" stroke="#111111" stroke-width="1.74" stroke-miterlimit="10"/>
<path d="M-49.8964 73.9421L5.3363 53.2969" stroke="#111111" stroke-width="1.74" stroke-miterlimit="10"/>
<path d="M-43.9923 151.33L9.58789 131.018" stroke="#111111" stroke-width="1.74" stroke-miterlimit="10"/>
<path d="M-9.71652 160.996L-28.71 168.199L-13.4695 185.042L5.52564 177.818L-9.71652 160.996Z" fill="white" stroke="black" stroke-width="1.74" stroke-miterlimit="10"/>
<path d="M-9.7164 160.996L25.522 148.6" stroke="black" stroke-width="1.74" stroke-miterlimit="10"/>
<path d="M5.52574 177.818L39.6697 164.213" stroke="#111111" stroke-width="1.74" stroke-miterlimit="10"/>
<path d="M458.358 245.858C459.003 245.44 459.629 244.977 460.214 244.489L499.006 213.622C519.754 200.148 510.868 149.522 479.167 100.55C447.46 51.5773 404.938 22.8011 384.189 36.2824C383.271 36.8844 382.425 37.5785 381.62 38.3191L343.534 68.5254C322.786 81.9995 331.672 132.625 363.372 181.597C395.08 230.57 437.601 259.346 458.35 245.865L458.358 245.858Z" fill="white" stroke="black" stroke-width="1.74" stroke-miterlimit="10"/>
<path d="M389.362 161.05C421.071 210.021 463.596 238.793 484.345 225.314C505.093 211.835 496.207 161.21 464.498 112.239C432.789 63.268 390.263 34.4962 369.515 47.9751C348.767 61.4541 357.653 112.08 389.362 161.05Z" stroke="black" stroke-width="1.32" stroke-miterlimit="10"/>
<path d="M375.337 172.419C407.046 221.389 449.571 250.161 470.319 236.682C491.068 223.203 482.182 172.578 450.473 123.607C418.764 74.6362 376.238 45.8643 355.49 59.3433C334.742 72.8222 343.628 123.448 375.337 172.419Z" fill="white" stroke="black" stroke-width="1.74" stroke-miterlimit="10"/>
<path d="M391.949 159.368C423.659 208.339 466.184 237.11 486.932 223.631C507.68 210.153 498.795 159.527 467.085 110.556C435.376 61.5854 392.851 32.8136 372.103 46.2925C351.354 59.7715 360.24 110.397 391.949 159.368Z" fill="white" stroke="black" stroke-width="1.74" stroke-miterlimit="10"/>
<path d="M404.037 149.352C435.746 198.323 478.271 227.095 499.02 213.616C519.768 200.137 510.882 149.511 479.173 100.541C447.464 51.5698 404.939 22.7979 384.19 36.2769C363.442 49.7558 372.328 100.381 404.037 149.352Z" fill="url(#paint3_linear_655_93)" stroke="black" stroke-width="1.32" stroke-miterlimit="10"/>
<path d="M414.078 163.734L373.753 194.797" stroke="black" stroke-width="1.32" stroke-miterlimit="10"/>
<path d="M404.035 149.354L361.497 178.636" stroke="black" stroke-width="1.32" stroke-miterlimit="10"/>
<path d="M394.537 133.411L351.473 161.133" stroke="black" stroke-width="1.32" stroke-miterlimit="10"/>
<path d="M386.148 116.43L341.822 139.784" stroke="black" stroke-width="1.32" stroke-miterlimit="10"/>
<path d="M379.867 100.336L336.228 122.687" stroke="black" stroke-width="1.32" stroke-miterlimit="10"/>
<path d="M373.503 72.9697L332.359 98.2099" stroke="black" stroke-width="1.32" stroke-miterlimit="10"/>
<path d="M381.62 38.3193L334.431 80.918" stroke="black" stroke-width="1.32" stroke-miterlimit="10"/>
</g>
<defs>
<linearGradient id="paint0_linear_655_93" x1="284.422" y1="-312.741" x2="151.436" y2="354.044" gradientUnits="userSpaceOnUse">
<stop offset="0.07" stop-color="#2F85C6"/>
<stop offset="0.22" stop-color="#986AAC"/>
<stop offset="0.34" stop-color="#EC1C28"/>
<stop offset="0.48" stop-color="#EC1C28"/>
<stop offset="0.59" stop-color="#EF5123"/>
<stop offset="0.68" stop-color="#FFC20D"/>
<stop offset="0.78" stop-color="#FFC20D"/>
<stop offset="0.8" stop-color="#FAC10E"/>
<stop offset="0.81" stop-color="#EEC011"/>
<stop offset="0.83" stop-color="#DABE16"/>
<stop offset="0.85" stop-color="#BDBB1D"/>
<stop offset="0.86" stop-color="#98B727"/>
<stop offset="0.88" stop-color="#6BB333"/>
<stop offset="0.9" stop-color="#37AE40"/>
<stop offset="0.91" stop-color="#00A94F"/>
<stop offset="1" stop-color="#00A94F"/>
</linearGradient>
<linearGradient id="paint1_linear_655_93" x1="95.6932" y1="163.7" x2="-52.4313" y2="52.153" gradientUnits="userSpaceOnUse">
<stop stop-color="#FFCB32"/>
<stop offset="0.09" stop-color="#FDC432"/>
<stop offset="0.22" stop-color="#FAB232"/>
<stop offset="0.37" stop-color="#F59433"/>
<stop offset="0.53" stop-color="#EF6B34"/>
<stop offset="0.62" stop-color="#EB5235"/>
<stop offset="0.8" stop-color="#E94835"/>
<stop offset="1" stop-color="#E94435"/>
</linearGradient>
<linearGradient id="paint2_linear_655_93" x1="38.7218" y1="-15.1703" x2="96.4502" y2="302.238" gradientUnits="userSpaceOnUse">
<stop stop-color="#1290FF"/>
<stop offset="0.24" stop-color="#1290FF"/>
<stop offset="0.54" stop-color="#38A852"/>
<stop offset="1" stop-color="#34A751"/>
</linearGradient>
<linearGradient id="paint3_linear_655_93" x1="377.149" y1="8.69829" x2="456.298" y2="142.343" gradientUnits="userSpaceOnUse">
<stop stop-color="#1290FF"/>
<stop offset="0.08" stop-color="#248BF9"/>
<stop offset="0.23" stop-color="#537EEA"/>
<stop offset="0.44" stop-color="#9E6AD3"/>
<stop offset="0.48" stop-color="#AC67CF"/>
<stop offset="0.71" stop-color="#C5588E"/>
<stop offset="1" stop-color="#E94435"/>
</linearGradient>
<clipPath id="clip0_655_93">
<rect width="269.527" height="581.667" fill="white" transform="translate(521.265 41.1162) rotate(94.0535)"/>
</clipPath>
</defs>
</svg>
