<svg width="373" height="806" viewBox="0 0 373 806" fill="none" xmlns="http://www.w3.org/2000/svg">
<g clip-path="url(#clip0_653_66)">
<path d="M168.24 568.37L168.34 568.07L168.07 568.11L168.24 568.37Z" fill="white" stroke="#111111" stroke-width="1.74" stroke-miterlimit="10"/>
<path d="M224.83 463.39L188.51 564.62L213.28 560.4L213.55 560.35L225.4 527.25L249.73 459.31L218.28 410.56L193.88 415.46L224.83 463.39Z" fill="white" stroke="black" stroke-width="1.74" stroke-miterlimit="10"/>
<path d="M157.89 316.96L140.72 290.33L123.87 264.22L123.74 264.25L98.98 268.47L133.48 321.9L157.89 316.96Z" fill="white" stroke="black" stroke-width="1.74" stroke-miterlimit="10"/>
<path d="M143.19 293.84L74.3701 307.65" stroke="#111111" stroke-width="1.74" stroke-miterlimit="10"/>
<path d="M188.51 564.63V564.62H188.5L183.07 522.05L188.68 522.74L84.6601 363.48L98.2201 329.04L89.0601 330.9L98.2201 329.04L108.44 303.08L98.9801 268.47L59.8101 367.74L188.51 564.63Z" fill="white" stroke="#111111" stroke-width="1.74" stroke-miterlimit="10"/>
<path d="M193.88 415.46L150.59 424.14L193.88 415.46L178.81 392.11L135.38 400.87L178.81 392.11L148.31 344.87L104.02 353.87L148.31 344.87L133.48 321.9L98.2199 329.04L84.6599 363.48L188.68 522.74L183.07 522.05L188.5 564.62H188.51L224.83 463.39L193.88 415.46Z" fill="white"/>
<path d="M193.88 415.46L150.59 424.14L193.88 415.46ZM193.88 415.46L178.81 392.11L135.38 400.87L178.81 392.11L148.31 344.87L104.02 353.87L148.31 344.87L133.48 321.9L98.2199 329.04L84.6599 363.48L188.68 522.74L183.07 522.05L188.5 564.62H188.51L224.83 463.39L193.88 415.46Z" stroke="#111111" stroke-width="1.74" stroke-miterlimit="10"/>
<path d="M59.8101 367.74L176.29 545.93L168.34 568.07L188.51 564.63L224.83 463.39L98.9801 268.47L78.6701 271.94L90.4201 290.16L59.8101 367.74Z" fill="white" stroke="black" stroke-width="1.74" stroke-miterlimit="10"/>
<path d="M143.47 530.45L137.87 529.76L143.3 572.34L168.07 568.11L168.34 568.07L180.2 534.96L204.53 467.02L95.51 298.04L78.67 271.94L78.53 271.96L53.77 276.18L63.24 310.8L39.46 371.19L143.47 530.45Z" fill="white" stroke="black" stroke-width="1.74" stroke-miterlimit="10"/>
<path d="M142.99 571.27L179.4 470.33L53.79 276.18L14.53 375.16L142.99 571.27Z" fill="url(#paint0_linear_653_66)" stroke="black" stroke-width="1.73" stroke-miterlimit="10"/>
<path d="M249.73 459.31L179.62 471.11" stroke="black" stroke-width="1.74" stroke-miterlimit="10"/>
<path d="M237.51 493.43L166.63 507.32" stroke="#111111" stroke-width="1.74" stroke-miterlimit="10"/>
<path d="M224.32 526.45L153.44 540.34" stroke="#111111" stroke-width="1.74" stroke-miterlimit="10"/>
<path d="M178.81 392.11L203.2 387.19L172.71 339.91L148.31 344.87L178.81 392.11Z" fill="white" stroke="black" stroke-width="1.74" stroke-miterlimit="10"/>
<path d="M233.39 433.97L164.57 447.79" stroke="#111111" stroke-width="1.74" stroke-miterlimit="10"/>
<path d="M187.99 364.09L119.17 377.9" stroke="#111111" stroke-width="1.74" stroke-miterlimit="10"/>
<path d="M193.88 415.46L218.28 410.56L203.2 387.19L178.81 392.11L193.88 415.46Z" fill="white" stroke="black" stroke-width="1.74" stroke-miterlimit="10"/>
<path d="M148.31 344.87L172.71 339.91L157.89 316.96L133.48 321.9L148.31 344.87Z" fill="white" stroke="black" stroke-width="1.74" stroke-miterlimit="10"/>
<path d="M193.88 415.46L148.81 423.38" stroke="black" stroke-width="1.74" stroke-miterlimit="10"/>
<path d="M178.81 392.11L134.82 401.71" stroke="#111111" stroke-width="1.74" stroke-miterlimit="10"/>
<path d="M148.31 344.87L104.53 354.8" stroke="#111111" stroke-width="1.74" stroke-miterlimit="10"/>
<path d="M133.48 321.9L89.8799 331.56" stroke="#111111" stroke-width="1.74" stroke-miterlimit="10"/>
<path d="M118.67 298.9L75.0701 308.56" stroke="#111111" stroke-width="1.74" stroke-miterlimit="10"/>
<path d="M31.5 707.27L152.31 720.62L333.54 531.13L214.14 514.14L31.5 707.27Z" fill="url(#paint1_linear_653_66)" stroke="black" stroke-width="1.74" stroke-miterlimit="10"/>
<path d="M68.8101 791.18L189.61 804.54L370.84 615.05L251.44 598.05L68.8101 791.18Z" fill="black" stroke="black" stroke-width="1.74" stroke-miterlimit="10"/>
<path d="M172.65 768.29L51.8501 754.93L62.9901 781.05L63.1201 781.34L102.62 785.68L183.68 794.59L229.01 747.22L217.22 721.69L172.65 768.29Z" fill="white" stroke="black" stroke-width="1.74" stroke-miterlimit="10"/>
<path d="M316.05 656.28L340.81 630.41L365.08 605.05L365.02 604.91L353.88 578.8L304.2 630.74L316.05 656.28Z" fill="white" stroke="black" stroke-width="1.74" stroke-miterlimit="10"/>
<path d="M51.8501 754.93L97.2201 737.78L97.9401 744.13L245.69 588L287.11 593.86L282.66 584.27L287.11 593.86L318.32 598.29L353.88 578.8L234.48 561.8L51.8501 754.93Z" fill="white" stroke="#111111" stroke-width="1.74" stroke-miterlimit="10"/>
<path d="M217.22 721.69L196.31 676.38L217.22 721.69L238.93 698.99L217.9 653.56L238.93 698.99L282.85 653.07L261.33 606.75L282.85 653.07L304.2 630.74L287.11 593.86L245.69 588L97.9401 744.13L97.2201 737.78L51.8501 754.93L172.65 768.29L217.22 721.69Z" fill="white"/>
<path d="M217.22 721.69L196.31 676.38L217.22 721.69ZM217.22 721.69L238.93 698.99L217.9 653.56L238.93 698.99L282.85 653.07L261.33 606.75L282.85 653.07L304.2 630.74L287.11 593.86L245.69 588L97.9401 744.13L97.2201 737.78L51.8501 754.93L172.65 768.29L217.22 721.69Z" stroke="#111111" stroke-width="1.74" stroke-miterlimit="10"/>
<path d="M234.48 561.8L69.19 736.59L42.77 733.67L51.85 754.93L172.65 768.29L353.88 578.8L344.74 557.38L327.8 575.09L234.48 561.8Z" fill="white" stroke="black" stroke-width="1.74" stroke-miterlimit="10"/>
<path d="M77.59 696.46L76.88 690.12L31.51 707.26L42.65 733.39L42.77 733.67L82.28 738.01L163.34 746.93L320.47 582.75L344.74 557.38L344.68 557.24L333.54 531.13L297.98 550.62L225.35 540.33L77.59 696.46Z" fill="white" stroke="black" stroke-width="1.74" stroke-miterlimit="10"/>
<path d="M31.5 707.27L152.31 720.62L333.54 531.13L214.14 514.14L31.5 707.27Z" fill="url(#paint2_linear_653_66)" stroke="#202124" stroke-width="1.74" stroke-miterlimit="10"/>
<path d="M183.68 794.59L152.31 720.62" stroke="black" stroke-width="1.74" stroke-miterlimit="10"/>
<path d="M142.96 790.11L109.1 715.85" stroke="#111111" stroke-width="1.74" stroke-miterlimit="10"/>
<path d="M101.09 785.71L67.22 711.44" stroke="#111111" stroke-width="1.74" stroke-miterlimit="10"/>
<path d="M238.93 698.99L250.75 724.52L294.7 678.59L282.85 653.07L238.93 698.99Z" fill="white" stroke="black" stroke-width="1.74" stroke-miterlimit="10"/>
<path d="M207.24 769.98L173.99 697.96" stroke="#111111" stroke-width="1.74" stroke-miterlimit="10"/>
<path d="M272.14 701.73L238.89 629.71" stroke="#111111" stroke-width="1.74" stroke-miterlimit="10"/>
<path d="M217.22 721.69L229.01 747.22L250.75 724.52L238.93 698.99L217.22 721.69Z" fill="white" stroke="black" stroke-width="1.74" stroke-miterlimit="10"/>
<path d="M282.85 653.07L294.7 678.59L316.05 656.28L304.2 630.74L282.85 653.07Z" fill="white" stroke="black" stroke-width="1.74" stroke-miterlimit="10"/>
<path d="M217.22 721.69L196.68 674.23" stroke="black" stroke-width="1.74" stroke-miterlimit="10"/>
<path d="M238.93 698.99L216.83 653.16" stroke="#111111" stroke-width="1.74" stroke-miterlimit="10"/>
<path d="M282.85 653.07L260.44 607.56" stroke="#111111" stroke-width="1.74" stroke-miterlimit="10"/>
<path d="M304.2 630.74L282.14 585.35" stroke="#111111" stroke-width="1.74" stroke-miterlimit="10"/>
<path d="M341.4 630.05L307.27 557.65" stroke="#111111" stroke-width="1.74" stroke-miterlimit="10"/>
<path d="M288.51 66.8498C287.87 65.9998 287.17 65.1798 286.44 64.4198L240.08 13.8598C219.47 -13.4802 150.52 3.7498 86.0801 52.3298C21.6401 100.92 -13.8899 162.47 6.73011 189.81C7.65011 191.02 8.69011 192.12 9.79011 193.16L55.1701 242.81C75.7801 270.15 144.73 252.92 209.17 204.34C273.61 155.75 309.14 94.1998 288.52 66.8598L288.51 66.8498Z" fill="white" stroke="black" stroke-width="1.74" stroke-miterlimit="10"/>
<path d="M178.293 170.453C242.73 121.861 278.254 60.306 257.637 32.9666C237.02 5.62717 168.071 22.856 103.633 71.4482C39.1962 120.04 3.6726 181.595 24.2893 208.935C44.906 236.274 113.856 219.045 178.293 170.453Z" stroke="black" stroke-width="1.32" stroke-miterlimit="10"/>
<path d="M195.343 188.712C259.78 140.12 295.303 78.5653 274.687 51.2259C254.07 23.8864 185.12 41.1153 120.683 89.7075C56.2457 138.3 20.7222 199.854 41.3388 227.194C61.9555 254.533 130.905 237.304 195.343 188.712Z" fill="white" stroke="black" stroke-width="1.74" stroke-miterlimit="10"/>
<path d="M175.72 167.044C240.157 118.452 275.681 56.8968 255.064 29.5574C234.447 2.21801 165.498 19.4468 101.06 68.039C36.6232 116.631 1.0996 178.186 21.7163 205.525C42.333 232.865 111.283 215.636 175.72 167.044Z" fill="white" stroke="black" stroke-width="1.74" stroke-miterlimit="10"/>
<path d="M160.727 151.327C225.164 102.735 260.687 41.1805 240.071 13.8411C219.454 -13.4983 150.504 3.73048 86.067 52.3227C21.6298 100.915 -13.8938 162.47 6.72288 189.809C27.3396 217.148 96.2894 199.92 160.727 151.327Z" fill="url(#paint3_linear_653_66)" stroke="black" stroke-width="1.32" stroke-miterlimit="10"/>
<path d="M243.36 49.5898L292.18 101.21" stroke="black" stroke-width="1.32" stroke-miterlimit="10"/>
<path d="M232.31 74.6099L281.28 126.66" stroke="black" stroke-width="1.32" stroke-miterlimit="10"/>
<path d="M214.95 99.6299L264.91 150.72" stroke="black" stroke-width="1.32" stroke-miterlimit="10"/>
<path d="M197.95 118.72L247.82 170.25" stroke="black" stroke-width="1.32" stroke-miterlimit="10"/>
<path d="M179.58 136.05L226.36 188.71" stroke="black" stroke-width="1.32" stroke-miterlimit="10"/>
<path d="M160.73 151.33L205.27 207.22" stroke="black" stroke-width="1.32" stroke-miterlimit="10"/>
<path d="M139.67 166.01L182.11 222.78" stroke="black" stroke-width="1.32" stroke-miterlimit="10"/>
<path d="M117.07 179.26L153.61 238.2" stroke="black" stroke-width="1.32" stroke-miterlimit="10"/>
<path d="M95.49 189.51L130.58 247.6" stroke="black" stroke-width="1.32" stroke-miterlimit="10"/>
<path d="M58.3701 200.98L97.2001 255.34" stroke="black" stroke-width="1.32" stroke-miterlimit="10"/>
<path d="M9.79004 193.16L73.15 254.17" stroke="black" stroke-width="1.32" stroke-miterlimit="10"/>
</g>
<defs>
<linearGradient id="paint0_linear_653_66" x1="-464.862" y1="361.778" x2="467.751" y2="479.837" gradientUnits="userSpaceOnUse">
<stop offset="0.07" stop-color="#2F85C6"/>
<stop offset="0.22" stop-color="#986AAC"/>
<stop offset="0.34" stop-color="#EC1C28"/>
<stop offset="0.48" stop-color="#EC1C28"/>
<stop offset="0.59" stop-color="#EF5123"/>
<stop offset="0.68" stop-color="#FFC20D"/>
<stop offset="0.78" stop-color="#FFC20D"/>
<stop offset="0.8" stop-color="#FAC10E"/>
<stop offset="0.81" stop-color="#EEC011"/>
<stop offset="0.83" stop-color="#DABE16"/>
<stop offset="0.85" stop-color="#BDBB1D"/>
<stop offset="0.86" stop-color="#98B727"/>
<stop offset="0.88" stop-color="#6BB333"/>
<stop offset="0.9" stop-color="#37AE40"/>
<stop offset="0.91" stop-color="#00A94F"/>
<stop offset="1" stop-color="#00A94F"/>
</linearGradient>
<linearGradient id="paint1_linear_653_66" x1="210.648" y1="575.826" x2="70.9826" y2="791.145" gradientUnits="userSpaceOnUse">
<stop stop-color="#FFCB32"/>
<stop offset="0.09" stop-color="#FDC432"/>
<stop offset="0.22" stop-color="#FAB232"/>
<stop offset="0.37" stop-color="#F59433"/>
<stop offset="0.53" stop-color="#EF6B34"/>
<stop offset="0.62" stop-color="#EB5235"/>
<stop offset="0.8" stop-color="#E94835"/>
<stop offset="1" stop-color="#E94435"/>
</linearGradient>
<linearGradient id="paint2_linear_653_66" x1="-30.4658" y1="672.027" x2="401.716" y2="561.544" gradientUnits="userSpaceOnUse">
<stop stop-color="#1290FF"/>
<stop offset="0.24" stop-color="#1290FF"/>
<stop offset="0.54" stop-color="#38A852"/>
<stop offset="1" stop-color="#34A751"/>
</linearGradient>
<linearGradient id="paint3_linear_653_66" x1="-30.6229" y1="202.235" x2="146.131" y2="80.085" gradientUnits="userSpaceOnUse">
<stop stop-color="#1290FF"/>
<stop offset="0.08" stop-color="#248BF9"/>
<stop offset="0.23" stop-color="#537EEA"/>
<stop offset="0.44" stop-color="#9E6AD3"/>
<stop offset="0.48" stop-color="#AC67CF"/>
<stop offset="0.71" stop-color="#C5588E"/>
<stop offset="1" stop-color="#E94435"/>
</linearGradient>
<clipPath id="clip0_653_66">
<rect width="372.64" height="805.45" fill="white"/>
</clipPath>
</defs>
</svg>
