<svg width="78" height="54" viewBox="0 0 78 54" fill="none" xmlns="http://www.w3.org/2000/svg">
<path d="M2.592 12.656H9.76V15.504H5.856V39.12H9.76V41.968H2.592V12.656Z" fill="#202124"/>
<path d="M68.184 39.12H72.12V15.504H68.184V12.656H75.384V41.968H68.184V39.12Z" fill="#202124"/>
<path d="M36.0611 11.1353C37.8135 9.86203 40.1865 9.86203 41.9389 11.1353L53.1801 19.3024C54.9325 20.5757 55.6658 22.8325 54.9964 24.8926L50.7027 38.1074C50.0333 40.1675 48.1136 41.5623 45.9474 41.5623H32.0526C29.8864 41.5623 27.9667 40.1675 27.2973 38.1074L23.0036 24.8926C22.3342 22.8325 23.0675 20.5757 24.8199 19.3024L36.0611 11.1353Z" fill="url(#paint0_linear_502_5012)"/>
<path d="M36.6489 11.9443C38.0508 10.9257 39.9492 10.9257 41.3511 11.9443L52.5923 20.1115C53.9943 21.13 54.5809 22.9355 54.0454 24.5836L49.7516 37.7984C49.2162 39.4465 47.6803 40.5623 45.9474 40.5623H32.0526C30.3197 40.5623 28.7838 39.4465 28.2484 37.7984L23.9546 24.5836C23.4191 22.9355 24.0057 21.13 25.4077 20.1115L36.6489 11.9443Z" stroke="#EEEEEE" stroke-opacity="0.933333" stroke-width="2"/>
<defs>
<linearGradient id="paint0_linear_502_5012" x1="21" y1="27" x2="57" y2="27" gradientUnits="userSpaceOnUse">
<stop stop-color="#4285F4"/>
<stop offset="0.246732" stop-color="#4285F4"/>
<stop offset="0.502383" stop-color="#9F6CD4"/>
<stop offset="0.758034" stop-color="#EA4335"/>
<stop offset="1" stop-color="#EA4335"/>
</linearGradient>
</defs>
</svg>
