<svg width="530" height="176" viewBox="0 0 530 176" fill="none" xmlns="http://www.w3.org/2000/svg">
<path d="M265 46C265 33.2974 254.703 23 242 23C254.703 23 265 12.7026 265 0C265 12.7026 275.297 23 288 23C275.297 23 265 33.2974 265 46Z" fill="url(#paint0_linear_603_2)" stroke="#202124" stroke-miterlimit="10"/>
<rect x="153" y="69" width="224" height="58" rx="29" fill="#202124"/>
<rect x="153" y="69" width="224" height="58" rx="29" stroke="url(#paint1_linear_603_2)" stroke-width="2"/>
<path d="M208.3 106.048C206.732 105.124 205.5 103.864 204.604 102.24C203.708 100.644 203.26 98.88 203.26 96.976C203.26 95.072 203.708 93.336 204.604 91.712C205.5 90.116 206.732 88.856 208.3 87.904C209.868 86.98 211.604 86.504 213.536 86.504C215.44 86.504 217.204 86.98 218.772 87.904C220.34 88.856 221.572 90.116 222.468 91.712C223.364 93.336 223.812 95.072 223.812 96.976C223.812 98.88 223.364 100.644 222.468 102.24C221.572 103.864 220.34 105.124 218.772 106.048C217.204 107 215.44 107.448 213.536 107.448C211.604 107.448 209.868 107 208.3 106.048ZM217.484 104.144C218.688 103.444 219.64 102.464 220.34 101.232C221.04 100 221.404 98.572 221.404 96.976C221.404 95.408 221.04 93.98 220.34 92.748C219.64 91.516 218.688 90.536 217.484 89.836C216.28 89.136 214.964 88.772 213.536 88.772C212.08 88.772 210.764 89.136 209.56 89.836C208.356 90.536 207.404 91.516 206.704 92.748C206.004 93.98 205.668 95.408 205.668 96.976C205.668 98.572 206.004 100 206.704 101.232C207.404 102.464 208.356 103.444 209.56 104.144C210.764 104.844 212.08 105.18 213.536 105.18C214.964 105.18 216.28 104.844 217.484 104.144ZM226.842 92.72H229.11V95.016H229.222C229.502 94.232 230.034 93.588 230.846 93.084C231.63 92.58 232.47 92.3 233.366 92.3C234.01 92.3 234.57 92.412 235.046 92.58V95.156C234.43 94.876 233.758 94.708 233.03 94.708C232.33 94.708 231.686 94.904 231.126 95.296C230.538 95.688 230.062 96.22 229.726 96.892C229.39 97.564 229.222 98.264 229.222 99.02V107H226.842V92.72ZM238.731 112.32C237.639 111.536 236.911 110.612 236.547 109.492L238.731 108.568C239.011 109.408 239.543 110.08 240.271 110.584C240.999 111.088 241.895 111.34 242.903 111.34C244.359 111.34 245.507 110.92 246.319 110.052C247.131 109.212 247.551 107.98 247.551 106.412V104.816H247.439C246.963 105.544 246.291 106.16 245.451 106.608C244.611 107.056 243.631 107.28 242.567 107.28C241.335 107.28 240.187 106.972 239.179 106.328C238.171 105.712 237.359 104.816 236.771 103.668C236.155 102.548 235.875 101.232 235.875 99.776C235.875 98.348 236.155 97.06 236.771 95.912C237.359 94.764 238.171 93.868 239.179 93.224C240.187 92.608 241.335 92.272 242.567 92.272C243.631 92.272 244.611 92.524 245.451 92.972C246.291 93.42 246.963 94.036 247.439 94.764H247.551V92.72H249.819V106.44C249.819 108.736 249.175 110.5 247.915 111.704C246.627 112.908 244.975 113.496 242.903 113.496C241.223 113.496 239.823 113.104 238.731 112.32ZM245.227 104.48C245.927 104.06 246.487 103.444 246.907 102.632C247.327 101.848 247.551 100.896 247.551 99.776C247.551 98.656 247.327 97.704 246.907 96.892C246.487 96.108 245.927 95.492 245.227 95.072C244.527 94.652 243.743 94.428 242.903 94.428C242.035 94.428 241.251 94.652 240.551 95.072C239.823 95.52 239.263 96.136 238.843 96.92C238.423 97.732 238.227 98.684 238.227 99.776C238.227 100.896 238.423 101.848 238.843 102.66C239.263 103.472 239.823 104.088 240.551 104.508C241.251 104.928 242.035 105.124 242.903 105.124C243.743 105.124 244.527 104.928 245.227 104.48ZM254.966 106.832C254.126 106.44 253.51 105.88 253.062 105.152C252.614 104.424 252.39 103.612 252.39 102.688C252.39 101.176 252.95 100 254.098 99.16C255.218 98.32 256.674 97.872 258.41 97.872C259.25 97.872 260.062 97.984 260.79 98.152C261.518 98.348 262.106 98.572 262.498 98.796V97.928C262.498 96.864 262.106 96.024 261.378 95.38C260.622 94.736 259.669 94.4 258.55 94.4C257.766 94.4 257.01 94.596 256.338 94.932C255.666 95.268 255.133 95.744 254.742 96.36L252.95 95.016C253.51 94.176 254.266 93.504 255.274 93C256.254 92.524 257.346 92.272 258.55 92.272C260.482 92.272 261.994 92.804 263.114 93.812C264.206 94.82 264.766 96.22 264.766 97.956V107H262.498V104.956H262.386C261.966 105.656 261.35 106.244 260.538 106.72C259.698 107.224 258.774 107.448 257.766 107.448C256.702 107.448 255.778 107.252 254.966 106.832ZM260.23 104.732C260.902 104.34 261.462 103.78 261.882 103.08C262.274 102.408 262.498 101.652 262.498 100.812C262.05 100.532 261.49 100.28 260.846 100.084C260.174 99.916 259.502 99.804 258.774 99.804C257.458 99.804 256.478 100.084 255.806 100.616C255.133 101.176 254.826 101.876 254.826 102.716C254.826 103.5 255.106 104.144 255.722 104.62C256.31 105.124 257.066 105.348 257.99 105.348C258.774 105.348 259.53 105.152 260.23 104.732ZM268.077 92.72H270.345V94.82H270.457C270.849 94.12 271.465 93.532 272.333 93.028C273.173 92.524 274.097 92.272 275.077 92.272C276.785 92.272 278.101 92.776 278.997 93.784C279.893 94.792 280.369 96.136 280.369 97.844V107H277.989V98.208C277.989 96.892 277.653 95.94 277.037 95.324C276.393 94.736 275.525 94.428 274.433 94.428C273.649 94.428 272.977 94.652 272.361 95.072C271.745 95.52 271.297 96.08 270.961 96.78C270.625 97.48 270.457 98.208 270.457 98.964V107H268.077V92.72ZM283.968 89.584C283.632 89.248 283.464 88.856 283.464 88.38C283.464 87.904 283.632 87.512 283.968 87.176C284.304 86.84 284.696 86.672 285.172 86.672C285.648 86.672 286.04 86.84 286.376 87.176C286.712 87.512 286.88 87.904 286.88 88.38C286.88 88.856 286.712 89.248 286.376 89.584C286.04 89.92 285.648 90.088 285.172 90.088C284.696 90.088 284.304 89.92 283.968 89.584ZM283.996 92.72H286.376V107H283.996V92.72ZM289.36 104.956L297.788 94.876H289.612V92.72H300.7V94.764L292.272 104.844H300.924V107H289.36V104.956ZM306.147 106.468C305.055 105.824 304.215 104.928 303.599 103.78C302.983 102.632 302.703 101.344 302.703 99.888C302.703 98.544 302.983 97.284 303.543 96.108C304.103 94.932 304.915 94.008 305.979 93.308C307.043 92.636 308.247 92.272 309.619 92.272C311.019 92.272 312.223 92.608 313.259 93.224C314.267 93.84 315.051 94.708 315.611 95.8C316.171 96.92 316.451 98.18 316.451 99.58C316.451 99.804 316.423 100.056 316.395 100.308H305.083C305.139 101.4 305.391 102.324 305.867 103.052C306.315 103.808 306.903 104.368 307.631 104.732C308.359 105.124 309.115 105.292 309.899 105.292C311.747 105.292 313.175 104.452 314.127 102.716L316.143 103.696C315.527 104.844 314.715 105.768 313.651 106.44C312.587 107.112 311.299 107.448 309.815 107.448C308.443 107.448 307.211 107.14 306.147 106.468ZM313.931 98.348C313.875 97.76 313.707 97.172 313.427 96.556C313.119 95.968 312.643 95.464 312.027 95.044C311.383 94.652 310.571 94.428 309.619 94.428C308.499 94.428 307.547 94.792 306.763 95.52C305.979 96.248 305.447 97.172 305.223 98.348H313.931ZM319.237 92.72H321.505V95.016H321.617C321.897 94.232 322.429 93.588 323.241 93.084C324.025 92.58 324.865 92.3 325.761 92.3C326.405 92.3 326.965 92.412 327.441 92.58V95.156C326.825 94.876 326.153 94.708 325.425 94.708C324.725 94.708 324.081 94.904 323.521 95.296C322.933 95.688 322.457 96.22 322.121 96.892C321.785 97.564 321.617 98.264 321.617 99.02V107H319.237V92.72Z" fill="white"/>
<g clip-path="url(#clip0_603_2)">
<path d="M415.506 153.023H417.645V160.532H427.059V153.023H429.198V170.375H427.059V162.476H417.645V170.375H415.506V153.023Z" fill="#666C73"/>
<path d="M434.062 170.229C433.314 169.877 432.736 169.387 432.334 168.76C431.924 168.14 431.723 167.428 431.723 166.64C431.723 165.331 432.237 164.313 433.274 163.578C434.311 162.843 435.614 162.476 437.198 162.476C437.978 162.476 438.701 162.56 439.376 162.721C440.044 162.882 440.558 163.065 440.92 163.28V162.529C440.92 161.611 440.582 160.869 439.899 160.31C439.224 159.751 438.363 159.476 437.326 159.476C436.595 159.476 435.927 159.629 435.316 159.927C434.705 160.226 434.223 160.639 433.869 161.175L432.237 160.011C432.744 159.269 433.443 158.687 434.335 158.266C435.228 157.845 436.217 157.639 437.302 157.639C439.063 157.639 440.454 158.083 441.467 158.963C442.48 159.843 442.978 161.045 442.978 162.56V170.39H440.92V168.622H440.816C440.446 169.219 439.883 169.732 439.135 170.145C438.388 170.566 437.551 170.773 436.619 170.773C435.686 170.773 434.818 170.597 434.07 170.237L434.062 170.229ZM438.846 168.415C439.473 168.063 439.971 167.581 440.349 166.984C440.719 166.387 440.912 165.729 440.912 165.025C440.502 164.764 440.004 164.558 439.409 164.397C438.814 164.236 438.187 164.152 437.527 164.152C436.337 164.152 435.445 164.389 434.842 164.856C434.239 165.323 433.942 165.928 433.942 166.67C433.942 167.351 434.215 167.895 434.754 168.316C435.3 168.737 435.984 168.943 436.812 168.943C437.543 168.943 438.219 168.767 438.846 168.408V168.415Z" fill="#666C73"/>
<path d="M445.977 158.021H448.035V159.835H448.14C448.494 159.223 449.065 158.702 449.844 158.274C450.624 157.845 451.452 157.631 452.337 157.631C453.897 157.631 455.086 158.059 455.915 158.924C456.735 159.789 457.153 160.96 457.153 162.453V170.374H454.99V162.767C454.99 161.618 454.701 160.784 454.122 160.271C453.543 159.751 452.755 159.498 451.758 159.498C451.058 159.498 450.439 159.682 449.885 160.057C449.33 160.432 448.904 160.914 448.598 161.527C448.293 162.131 448.14 162.767 448.14 163.432V170.39H445.977V158.021Z" fill="#666C73"/>
<path d="M462.797 169.892C461.776 169.311 460.988 168.522 460.417 167.52C459.846 166.517 459.565 165.415 459.565 164.198C459.565 162.981 459.846 161.879 460.417 160.876C460.988 159.873 461.776 159.085 462.797 158.503C463.818 157.922 464.959 157.631 466.23 157.631C467.5 157.631 468.65 157.922 469.663 158.503C470.684 159.085 471.472 159.873 472.042 160.876C472.613 161.879 472.895 162.981 472.895 164.198C472.895 165.415 472.613 166.517 472.042 167.52C471.472 168.522 470.684 169.311 469.663 169.892C468.642 170.474 467.5 170.765 466.23 170.765C464.959 170.765 463.81 170.474 462.797 169.892ZM468.457 168.331C469.14 167.948 469.695 167.405 470.113 166.693C470.531 165.981 470.74 165.147 470.74 164.198C470.74 163.249 470.531 162.414 470.113 161.703C469.695 160.991 469.148 160.447 468.457 160.065C467.773 159.682 467.026 159.498 466.23 159.498C465.434 159.498 464.686 159.69 463.986 160.065C463.287 160.447 462.732 160.991 462.322 161.703C461.904 162.414 461.695 163.249 461.695 164.198C461.695 165.147 461.904 165.981 462.322 166.693C462.74 167.405 463.295 167.948 463.986 168.331C464.686 168.714 465.426 168.897 466.23 168.897C467.034 168.897 467.773 168.706 468.457 168.331Z" fill="#666C73"/>
<path d="M475.347 155.304C475.041 155.013 474.889 154.669 474.889 154.263C474.889 153.858 475.041 153.513 475.347 153.23C475.652 152.947 476.014 152.809 476.44 152.809C476.866 152.809 477.228 152.955 477.534 153.23C477.839 153.513 477.992 153.858 477.992 154.263C477.992 154.669 477.839 155.013 477.55 155.304C477.252 155.595 476.882 155.74 476.44 155.74C475.998 155.74 475.652 155.595 475.347 155.304ZM475.371 158.021H477.51V170.382H475.371V158.021Z" fill="#666C73"/>
<path d="M119.109 169.487C117.637 168.683 116.48 167.581 115.627 166.173C114.775 164.764 114.349 163.211 114.349 161.504C114.349 159.797 114.775 158.243 115.627 156.835C116.48 155.427 117.637 154.325 119.109 153.521C120.58 152.717 122.18 152.319 123.917 152.319C125.275 152.319 126.554 152.549 127.752 153.008C128.95 153.467 129.93 154.11 130.702 154.945L129.126 156.445C128.539 155.756 127.792 155.228 126.867 154.86C125.943 154.493 124.962 154.309 123.917 154.309C122.63 154.309 121.416 154.608 120.291 155.205C119.165 155.802 118.265 156.644 117.581 157.738C116.906 158.825 116.56 160.08 116.56 161.512C116.56 162.943 116.898 164.19 117.581 165.277C118.256 166.364 119.165 167.214 120.291 167.811C121.416 168.408 122.622 168.706 123.917 168.706C125.211 168.706 126.192 168.522 127.028 168.155C127.864 167.788 128.588 167.298 129.207 166.693C129.657 166.234 130.019 165.675 130.292 165.025C130.566 164.374 130.734 163.655 130.783 162.889H123.973V160.953H132.849C132.937 161.412 132.977 161.841 132.977 162.231C132.977 163.31 132.801 164.366 132.439 165.384C132.077 166.41 131.498 167.305 130.71 168.071C128.974 169.824 126.714 170.696 123.925 170.696C122.188 170.696 120.58 170.298 119.117 169.494L119.109 169.487Z" fill="#666C73"/>
<path d="M137.801 169.846C136.804 169.28 136.025 168.507 135.47 167.512C134.907 166.525 134.634 165.422 134.634 164.213C134.634 163.004 134.915 161.902 135.47 160.907C136.033 159.919 136.804 159.139 137.801 158.572C138.798 158.006 139.924 157.723 141.178 157.723C142.432 157.723 143.566 158.006 144.571 158.572C145.576 159.139 146.356 159.919 146.919 160.907C147.473 161.894 147.755 162.996 147.755 164.213C147.755 165.43 147.473 166.525 146.919 167.512C146.356 168.507 145.576 169.28 144.571 169.846C143.566 170.413 142.432 170.696 141.178 170.696C139.924 170.696 138.798 170.413 137.801 169.846ZM143.349 168.239C144.016 167.864 144.555 167.328 144.965 166.632C145.367 165.935 145.568 165.132 145.568 164.213C145.568 163.295 145.367 162.491 144.965 161.794C144.563 161.098 144.024 160.562 143.349 160.187C142.682 159.812 141.958 159.621 141.178 159.621C140.398 159.621 139.707 159.812 139.04 160.187C138.372 160.562 137.834 161.098 137.423 161.794C137.022 162.491 136.821 163.295 136.821 164.213C136.821 165.132 137.022 165.935 137.423 166.632C137.825 167.328 138.364 167.864 139.04 168.239C139.707 168.614 140.422 168.805 141.178 168.805C141.934 168.805 142.674 168.622 143.349 168.239Z" fill="#666C73"/>
<path d="M152.434 169.846C151.437 169.28 150.657 168.507 150.102 167.512C149.54 166.525 149.266 165.422 149.266 164.213C149.266 163.004 149.548 161.902 150.102 160.907C150.665 159.919 151.437 159.139 152.434 158.572C153.431 158.006 154.556 157.723 155.811 157.723C157.065 157.723 158.199 158.006 159.203 158.572C160.208 159.139 160.988 159.919 161.551 160.907C162.106 161.894 162.387 162.996 162.387 164.213C162.387 165.43 162.106 166.525 161.551 167.512C160.988 168.507 160.208 169.28 159.203 169.846C158.199 170.413 157.065 170.696 155.811 170.696C154.556 170.696 153.431 170.413 152.434 169.846ZM157.981 168.239C158.649 167.864 159.187 167.328 159.597 166.632C159.999 165.935 160.2 165.132 160.2 164.213C160.2 163.295 159.999 162.491 159.597 161.794C159.195 161.098 158.657 160.562 157.981 160.187C157.314 159.812 156.591 159.621 155.811 159.621C155.031 159.621 154.339 159.812 153.672 160.187C153.005 160.562 152.466 161.098 152.056 161.794C151.654 162.491 151.453 163.295 151.453 164.213C151.453 165.132 151.654 165.935 152.056 166.632C152.458 167.328 152.997 167.864 153.672 168.239C154.339 168.614 155.055 168.805 155.811 168.805C156.566 168.805 157.306 168.622 157.981 168.239Z" fill="#666C73"/>
<path d="M166.439 174.944C165.459 174.239 164.799 173.42 164.454 172.487L166.488 171.675C166.745 172.395 167.203 172.977 167.87 173.428C168.53 173.88 169.318 174.102 170.234 174.102C171.593 174.102 172.638 173.727 173.37 172.977C174.101 172.226 174.463 171.178 174.463 169.831V168.53H174.359C173.949 169.15 173.354 169.67 172.582 170.076C171.81 170.481 170.934 170.688 169.953 170.688C168.867 170.688 167.862 170.413 166.938 169.854C166.005 169.295 165.266 168.522 164.719 167.535C164.164 166.547 163.891 165.438 163.891 164.205C163.891 162.973 164.164 161.863 164.719 160.876C165.266 159.889 166.005 159.115 166.938 158.557C167.87 157.998 168.875 157.715 169.953 157.715C170.934 157.715 171.81 157.921 172.582 158.327C173.354 158.74 173.949 159.253 174.359 159.873H174.463V158.105H176.554V169.793C176.554 171.132 176.28 172.272 175.725 173.206C175.171 174.14 174.423 174.836 173.466 175.296C172.509 175.755 171.432 175.984 170.226 175.984C168.674 175.984 167.412 175.632 166.431 174.928L166.439 174.944ZM172.373 168.246C173.008 167.879 173.523 167.343 173.908 166.654C174.294 165.966 174.487 165.147 174.487 164.213C174.487 163.279 174.294 162.453 173.908 161.756C173.523 161.06 173.008 160.524 172.373 160.164C171.738 159.804 171.038 159.621 170.282 159.621C169.527 159.621 168.827 159.804 168.192 160.179C167.557 160.547 167.042 161.083 166.656 161.771C166.271 162.46 166.078 163.279 166.078 164.213C166.078 165.147 166.271 165.966 166.656 166.654C167.042 167.343 167.557 167.879 168.192 168.246C168.827 168.614 169.527 168.805 170.282 168.805C171.038 168.805 171.738 168.622 172.373 168.246Z" fill="#666C73"/>
<path d="M179.182 152.717H181.377V170.298H179.182V152.717Z" fill="#666C73"/>
<path d="M186.499 169.862C185.526 169.303 184.762 168.538 184.216 167.55C183.661 166.571 183.387 165.453 183.387 164.213C183.387 163.035 183.645 161.948 184.159 160.96C184.674 159.973 185.413 159.185 186.362 158.603C187.311 158.021 188.412 157.73 189.651 157.73C190.889 157.73 191.974 157.998 192.915 158.526C193.855 159.062 194.571 159.805 195.069 160.777C195.568 161.741 195.817 162.859 195.817 164.114C195.817 164.343 195.801 164.504 195.769 164.604H185.606C185.639 165.522 185.872 166.295 186.306 166.923C186.732 167.55 187.271 168.025 187.922 168.339C188.565 168.652 189.232 168.806 189.924 168.806C191.54 168.806 192.786 168.055 193.662 166.548L195.6 167.436C195.053 168.415 194.29 169.211 193.317 169.808C192.344 170.405 191.178 170.704 189.819 170.704C188.581 170.704 187.472 170.428 186.507 169.869L186.499 169.862ZM193.502 162.859C193.469 162.369 193.325 161.879 193.059 161.381C192.802 160.891 192.384 160.471 191.805 160.126C191.226 159.782 190.495 159.613 189.602 159.613C188.637 159.613 187.801 159.912 187.102 160.501C186.402 161.09 185.952 161.879 185.759 162.859H193.502Z" fill="#666C73"/>
<path d="M204.211 152.717H209.806C211.696 152.717 213.352 153.092 214.759 153.835C216.166 154.577 217.251 155.618 218.007 156.942C218.763 158.266 219.141 159.789 219.141 161.512C219.141 163.234 218.763 164.749 218.007 166.081C217.251 167.405 216.166 168.446 214.759 169.188C213.352 169.931 211.696 170.306 209.806 170.306H204.211V152.717ZM209.806 168.316C211.993 168.316 213.722 167.719 214.992 166.525C216.262 165.331 216.898 163.662 216.898 161.519C216.898 159.376 216.262 157.708 214.992 156.506C213.722 155.312 211.993 154.715 209.806 154.715H206.398V168.323H209.806V168.316Z" fill="#666C73"/>
<path d="M224.109 169.862C223.136 169.303 222.373 168.538 221.826 167.55C221.271 166.571 220.998 165.453 220.998 164.213C220.998 163.035 221.255 161.948 221.77 160.96C222.284 159.973 223.024 159.185 223.973 158.603C224.929 158.021 226.023 157.73 227.261 157.73C228.499 157.73 229.584 157.998 230.525 158.526C231.466 159.062 232.181 159.805 232.68 160.777C233.178 161.741 233.427 162.859 233.427 164.114C233.427 164.343 233.411 164.504 233.379 164.604H223.217C223.249 165.522 223.482 166.295 223.916 166.923C224.342 167.55 224.881 168.025 225.532 168.339C226.175 168.652 226.843 168.806 227.534 168.806C229.15 168.806 230.396 168.055 231.273 166.548L233.21 167.436C232.664 168.415 231.9 169.211 230.927 169.808C229.954 170.405 228.788 170.704 227.43 170.704C226.192 170.704 225.082 170.428 224.117 169.869L224.109 169.862ZM231.112 162.859C231.08 162.369 230.935 161.879 230.67 161.381C230.412 160.891 229.994 160.471 229.416 160.126C228.837 159.782 228.105 159.613 227.213 159.613C226.248 159.613 225.412 159.912 224.712 160.501C224.013 161.09 223.563 161.879 223.37 162.859H231.112Z" fill="#666C73"/>
<path d="M233.95 158.121H236.322L240.245 167.849H240.294L244.265 158.121H246.589L241.355 170.305H239.136L233.95 158.121Z" fill="#666C73"/>
<path d="M250.609 169.862C249.636 169.303 248.872 168.538 248.325 167.55C247.771 166.571 247.497 165.453 247.497 164.213C247.497 163.035 247.754 161.948 248.269 160.96C248.784 159.973 249.523 159.185 250.472 158.603C251.429 158.021 252.522 157.73 253.76 157.73C254.998 157.73 256.084 157.998 257.024 158.526C257.965 159.062 258.681 159.805 259.179 160.777C259.678 161.741 259.927 162.859 259.927 164.114C259.927 164.343 259.911 164.504 259.879 164.604H249.716C249.748 165.522 249.982 166.295 250.416 166.923C250.842 167.55 251.38 168.025 252.032 168.339C252.675 168.652 253.342 168.806 254.034 168.806C255.65 168.806 256.896 168.055 257.772 166.548L259.71 167.436C259.163 168.415 258.399 169.211 257.426 169.808C256.454 170.405 255.288 170.704 253.929 170.704C252.691 170.704 251.581 170.428 250.617 169.869L250.609 169.862ZM257.611 162.859C257.579 162.369 257.434 161.879 257.169 161.381C256.912 160.891 256.494 160.471 255.915 160.126C255.336 159.782 254.604 159.613 253.712 159.613C252.747 159.613 251.911 159.912 251.212 160.501C250.512 161.09 250.062 161.879 249.869 162.859H257.611Z" fill="#666C73"/>
<path d="M262.146 152.717H264.341V170.298H262.146V152.717Z" fill="#666C73"/>
<path d="M269.607 169.846C268.61 169.28 267.83 168.507 267.275 167.512C266.713 166.525 266.439 165.422 266.439 164.213C266.439 163.004 266.721 161.902 267.275 160.907C267.838 159.919 268.61 159.139 269.607 158.572C270.604 158.006 271.729 157.723 272.984 157.723C274.238 157.723 275.371 158.006 276.376 158.572C277.381 159.139 278.161 159.919 278.724 160.907C279.279 161.894 279.56 162.996 279.56 164.213C279.56 165.43 279.279 166.525 278.724 167.512C278.161 168.507 277.381 169.28 276.376 169.846C275.371 170.413 274.238 170.696 272.984 170.696C271.729 170.696 270.604 170.413 269.607 169.846ZM275.154 168.239C275.822 167.864 276.36 167.328 276.77 166.632C277.172 165.935 277.373 165.132 277.373 164.213C277.373 163.295 277.172 162.491 276.77 161.794C276.368 161.098 275.83 160.562 275.154 160.187C274.487 159.812 273.764 159.621 272.984 159.621C272.204 159.621 271.512 159.812 270.845 160.187C270.178 160.562 269.639 161.098 269.229 161.794C268.827 162.491 268.626 163.295 268.626 164.213C268.626 165.132 268.827 165.935 269.229 166.632C269.631 167.328 270.17 167.864 270.845 168.239C271.512 168.614 272.228 168.805 272.984 168.805C273.739 168.805 274.479 168.622 275.154 168.239Z" fill="#666C73"/>
<path d="M281.554 158.121H283.644V159.912H283.749C284.159 159.292 284.754 158.771 285.526 158.35C286.298 157.929 287.19 157.723 288.211 157.723C289.313 157.723 290.326 158.006 291.258 158.572C292.191 159.139 292.93 159.912 293.477 160.891C294.024 161.871 294.305 162.981 294.305 164.205C294.305 165.43 294.032 166.54 293.477 167.52C292.922 168.499 292.191 169.272 291.258 169.839C290.326 170.405 289.313 170.688 288.211 170.688C287.198 170.688 286.298 170.482 285.518 170.061C284.738 169.64 284.143 169.112 283.749 168.476H283.644L283.749 170.168V175.594H281.554V158.121ZM289.98 168.239C290.623 167.864 291.138 167.328 291.532 166.632C291.917 165.935 292.11 165.132 292.11 164.213C292.11 163.295 291.917 162.491 291.532 161.794C291.146 161.098 290.631 160.562 289.98 160.187C289.337 159.812 288.637 159.621 287.873 159.621C287.11 159.621 286.418 159.804 285.767 160.172C285.124 160.539 284.609 161.075 284.215 161.772C283.829 162.468 283.636 163.279 283.636 164.213C283.636 165.147 283.829 165.943 284.215 166.647C284.601 167.351 285.116 167.887 285.767 168.254C286.41 168.622 287.11 168.805 287.873 168.805C288.637 168.805 289.329 168.622 289.98 168.239Z" fill="#666C73"/>
<path d="M299.419 169.862C298.446 169.303 297.682 168.538 297.135 167.55C296.581 166.571 296.307 165.453 296.307 164.213C296.307 163.035 296.565 161.948 297.079 160.96C297.594 159.973 298.333 159.185 299.282 158.603C300.239 158.021 301.332 157.73 302.57 157.73C303.808 157.73 304.894 157.998 305.834 158.526C306.775 159.062 307.491 159.805 307.989 160.777C308.488 161.741 308.737 162.859 308.737 164.114C308.737 164.343 308.721 164.504 308.689 164.604H298.526C298.558 165.522 298.792 166.295 299.226 166.923C299.652 167.55 300.191 168.025 300.842 168.339C301.485 168.652 302.152 168.806 302.844 168.806C304.46 168.806 305.706 168.055 306.582 166.548L308.52 167.436C307.973 168.415 307.209 169.211 306.236 169.808C305.264 170.405 304.098 170.704 302.739 170.704C301.501 170.704 300.392 170.428 299.427 169.869L299.419 169.862ZM306.421 162.859C306.389 162.369 306.245 161.879 305.979 161.381C305.722 160.891 305.304 160.471 304.725 160.126C304.146 159.782 303.414 159.613 302.522 159.613C301.557 159.613 300.721 159.912 300.022 160.501C299.314 161.09 298.872 161.879 298.679 162.859H306.421Z" fill="#666C73"/>
<path d="M310.956 158.121H313.046V160.111H313.151C313.392 159.437 313.882 158.879 314.638 158.419C315.386 157.96 316.133 157.73 316.873 157.73C317.404 157.73 317.902 157.815 318.369 157.975V160.21C317.902 159.965 317.299 159.843 316.56 159.843C315.957 159.843 315.394 160.011 314.871 160.348C314.349 160.685 313.931 161.129 313.617 161.687C313.303 162.246 313.151 162.851 313.151 163.509V170.306H310.956V158.121Z" fill="#666C73"/>
<path d="M329.648 169.487C328.177 168.683 327.019 167.581 326.167 166.173C325.315 164.764 324.889 163.211 324.889 161.504C324.889 159.797 325.315 158.243 326.167 156.835C327.019 155.427 328.177 154.325 329.648 153.521C331.12 152.717 332.72 152.319 334.456 152.319C335.815 152.319 337.093 152.549 338.291 153.008C339.489 153.467 340.47 154.11 341.242 154.945L339.666 156.445C339.079 155.756 338.332 155.228 337.407 154.86C336.482 154.493 335.502 154.309 334.456 154.309C333.17 154.309 331.956 154.608 330.83 155.205C329.705 155.802 328.804 156.644 328.121 157.738C327.446 158.825 327.1 160.08 327.1 161.512C327.1 162.943 327.438 164.19 328.121 165.277C328.796 166.364 329.705 167.214 330.83 167.811C331.956 168.408 333.162 168.706 334.456 168.706C335.751 168.706 336.732 168.522 337.568 168.155C338.404 167.788 339.127 167.298 339.747 166.693C340.197 166.234 340.559 165.675 340.832 165.025C341.105 164.374 341.274 163.655 341.322 162.889H334.513V160.953H343.389C343.477 161.412 343.517 161.841 343.517 162.231C343.517 163.31 343.34 164.366 342.979 165.384C342.617 166.41 342.038 167.305 341.25 168.071C339.513 169.824 337.254 170.696 334.464 170.696C332.728 170.696 331.12 170.298 329.657 169.494L329.648 169.487Z" fill="#666C73"/>
<path d="M346.018 158.121H348.108V160.111H348.213C348.454 159.437 348.944 158.879 349.7 158.419C350.448 157.96 351.195 157.73 351.935 157.73C352.466 157.73 352.964 157.815 353.43 157.975V160.21C352.964 159.965 352.361 159.843 351.621 159.843C351.018 159.843 350.456 160.011 349.933 160.348C349.411 160.685 348.992 161.129 348.679 161.687C348.365 162.246 348.213 162.851 348.213 163.509V170.306H346.018V158.121Z" fill="#666C73"/>
<path d="M356.879 169.846C355.883 169.28 355.103 168.507 354.548 167.512C353.985 166.525 353.712 165.422 353.712 164.213C353.712 163.004 353.993 161.902 354.548 160.907C355.111 159.919 355.883 159.139 356.879 158.572C357.876 158.006 359.002 157.723 360.256 157.723C361.51 157.723 362.644 158.006 363.649 158.572C364.654 159.139 365.434 159.919 365.997 160.907C366.551 161.894 366.833 162.996 366.833 164.213C366.833 165.43 366.551 166.525 365.997 167.512C365.434 168.507 364.654 169.28 363.649 169.846C362.644 170.413 361.51 170.696 360.256 170.696C359.002 170.696 357.876 170.413 356.879 169.846ZM362.427 168.239C363.094 167.864 363.633 167.328 364.043 166.632C364.445 165.935 364.646 165.132 364.646 164.213C364.646 163.295 364.445 162.491 364.043 161.794C363.641 161.098 363.102 160.562 362.427 160.187C361.76 159.812 361.036 159.621 360.256 159.621C359.476 159.621 358.785 159.812 358.118 160.187C357.45 160.562 356.912 161.098 356.502 161.794C356.1 162.491 355.899 163.295 355.899 164.213C355.899 165.132 356.1 165.935 356.502 166.632C356.904 167.328 357.442 167.864 358.118 168.239C358.785 168.614 359.501 168.805 360.256 168.805C361.012 168.805 361.752 168.622 362.427 168.239Z" fill="#666C73"/>
<path d="M370.049 169.387C369.229 168.522 368.827 167.313 368.827 165.775V158.113H371.022V165.43C371.022 167.673 372.083 168.79 374.197 168.79C374.905 168.79 375.532 168.606 376.095 168.224C376.658 167.849 377.084 167.359 377.381 166.747C377.679 166.142 377.831 165.507 377.831 164.833V158.105H380.002V170.29H377.936V168.476H377.831C377.454 169.096 376.883 169.624 376.119 170.045C375.355 170.474 374.535 170.681 373.659 170.681C372.075 170.681 370.877 170.244 370.057 169.38L370.049 169.387Z" fill="#666C73"/>
<path d="M382.856 158.121H384.947V159.912H385.051C385.461 159.292 386.056 158.771 386.828 158.35C387.6 157.929 388.492 157.723 389.513 157.723C390.615 157.723 391.628 158.006 392.56 158.572C393.493 159.139 394.233 159.912 394.779 160.891C395.326 161.871 395.608 162.981 395.608 164.205C395.608 165.43 395.334 166.54 394.779 167.52C394.225 168.499 393.493 169.272 392.56 169.839C391.628 170.405 390.615 170.688 389.513 170.688C388.5 170.688 387.6 170.482 386.82 170.061C386.04 169.64 385.445 169.112 385.051 168.476H384.947L385.051 170.168V175.594H382.856V158.121ZM391.282 168.239C391.925 167.864 392.44 167.328 392.834 166.632C393.22 165.935 393.413 165.132 393.413 164.213C393.413 163.295 393.22 162.491 392.834 161.794C392.448 161.098 391.933 160.562 391.282 160.187C390.639 159.812 389.939 159.621 389.176 159.621C388.412 159.621 387.72 159.804 387.069 160.172C386.426 160.539 385.911 161.075 385.518 161.772C385.132 162.468 384.939 163.279 384.939 164.213C384.939 165.147 385.132 165.943 385.518 166.647C385.903 167.351 386.418 167.887 387.069 168.254C387.712 168.622 388.412 168.805 389.176 168.805C389.939 168.805 390.631 168.622 391.282 168.239Z" fill="#666C73"/>
<path d="M398.751 169.708C397.802 169.05 397.143 168.246 396.765 167.274L398.703 166.463C399.049 167.236 399.531 167.826 400.158 168.231C400.785 168.637 401.469 168.843 402.208 168.843C403.036 168.843 403.72 168.675 404.258 168.331C404.797 167.986 405.07 167.573 405.07 167.075C405.07 166.578 404.869 166.211 404.467 165.897C404.065 165.583 403.374 165.315 402.393 165.085L400.64 164.665C399.676 164.45 398.856 164.068 398.18 163.509C397.497 162.95 397.159 162.215 397.159 161.297C397.159 160.547 397.384 159.896 397.843 159.36C398.301 158.817 398.904 158.411 399.66 158.136C400.415 157.86 401.243 157.715 402.136 157.715C403.237 157.715 404.234 157.96 405.143 158.442C406.043 158.924 406.686 159.605 407.064 160.493L405.127 161.282C404.853 160.692 404.435 160.256 403.872 159.98C403.31 159.705 402.691 159.567 401.999 159.567C401.308 159.567 400.721 159.72 400.182 160.034C399.644 160.348 399.37 160.746 399.37 161.236C399.37 161.664 399.547 161.993 399.901 162.246C400.255 162.491 400.817 162.713 401.589 162.912L403.495 163.356C404.765 163.67 405.714 164.129 406.349 164.741C406.976 165.353 407.289 166.088 407.289 166.938C407.289 167.642 407.072 168.285 406.646 168.851C406.22 169.425 405.617 169.877 404.837 170.198C404.065 170.527 403.189 170.688 402.208 170.688C400.849 170.688 399.7 170.359 398.751 169.708Z" fill="#666C73"/>
<path d="M64.1241 161.771L72.3971 157.225C74.3427 156.154 75.0101 153.789 73.8845 151.936C72.7589 150.084 70.2746 149.449 68.3289 150.52L54.0341 158.373L64.1241 161.771Z" fill="#FF281F"/>
<path d="M70.355 173.459C71.762 173.459 73.1288 172.763 73.8845 171.523C75.0101 169.67 74.3428 167.298 72.3971 166.234L58.1023 158.373C56.1566 157.302 53.6643 157.937 52.5467 159.789C51.4211 161.642 52.0884 164.014 54.0341 165.078L68.3209 172.931C68.9641 173.283 69.6636 173.451 70.355 173.451V173.459Z" fill="#0080FC"/>
<path d="M84.5695 173.459C85.2609 173.459 85.9604 173.291 86.6036 172.938L100.89 165.086L90.929 161.611L82.5274 166.226C80.5817 167.298 79.9144 169.663 81.04 171.515C81.7957 172.755 83.1625 173.451 84.5695 173.451V173.459Z" fill="#FFB800"/>
<path d="M98.8482 165.606C100.255 165.606 101.622 164.909 102.378 163.67C103.503 161.817 102.836 159.445 100.89 158.381L86.6035 150.52C84.6579 149.449 82.1655 150.084 81.048 151.936C79.9224 153.789 80.5897 156.161 82.5354 157.225L96.8222 165.078C97.4654 165.43 98.1649 165.598 98.8563 165.598L98.8482 165.606Z" fill="#009E49"/>
</g>
<defs>
<linearGradient id="paint0_linear_603_2" x1="242" y1="23" x2="288" y2="23" gradientUnits="userSpaceOnUse">
<stop stop-color="#428EFF"/>
<stop offset="0.108915" stop-color="#428EFF"/>
<stop offset="0.238413" stop-color="#9F6CD4"/>
<stop offset="0.365599" stop-color="#EA4335"/>
<stop offset="0.446535" stop-color="#EA4335"/>
<stop offset="0.55522" stop-color="#F46831"/>
<stop offset="0.656969" stop-color="#FFCB32"/>
<stop offset="0.754092" stop-color="#FFCB32"/>
<stop offset="0.890527" stop-color="#34A853"/>
<stop offset="1" stop-color="#34A853"/>
</linearGradient>
<linearGradient id="paint1_linear_603_2" x1="152" y1="98" x2="378" y2="98" gradientUnits="userSpaceOnUse">
<stop stop-color="#428EFF"/>
<stop offset="0.108915" stop-color="#428EFF"/>
<stop offset="0.238413" stop-color="#9F6CD4"/>
<stop offset="0.365599" stop-color="#EA4335"/>
<stop offset="0.446535" stop-color="#EA4335"/>
<stop offset="0.55522" stop-color="#F46831"/>
<stop offset="0.656969" stop-color="#FFCB32"/>
<stop offset="0.754092" stop-color="#FFCB32"/>
<stop offset="0.890527" stop-color="#34A853"/>
<stop offset="1" stop-color="#34A853"/>
</linearGradient>
<clipPath id="clip0_603_2">
<rect width="426" height="26" fill="white" transform="translate(52 150)"/>
</clipPath>
</defs>
</svg>
