<svg width="442" height="955" viewBox="0 0 442 955" fill="none" xmlns="http://www.w3.org/2000/svg">
<g clip-path="url(#clip0_689_64)">
<path d="M242.445 673.901L242.327 673.545L242.647 673.592L242.445 673.901Z" fill="white" stroke="#111111" stroke-width="1.74" stroke-miterlimit="10"/>
<path d="M175.322 549.429L218.402 669.454L189.022 664.451L188.702 664.392L174.646 625.146L145.787 544.591L183.091 486.79L212.033 492.6L175.322 549.429Z" fill="white" stroke="black" stroke-width="1.74" stroke-miterlimit="10"/>
<path d="M254.722 375.811L275.088 344.236L295.074 313.278L295.228 313.314L324.597 318.318L283.675 381.668L254.722 375.811Z" fill="white" stroke="black" stroke-width="1.74" stroke-miterlimit="10"/>
<path d="M272.158 348.398L353.787 364.772" stroke="#111111" stroke-width="1.74" stroke-miterlimit="10"/>
<path d="M218.402 669.466V669.454H218.414L224.855 618.98L218.201 619.799L341.582 430.968L325.498 390.134L336.363 392.339L325.498 390.134L313.376 359.354L324.597 318.318L371.057 436.019L218.402 669.466Z" fill="white" stroke="#111111" stroke-width="1.74" stroke-miterlimit="10"/>
<path d="M212.033 492.6L263.38 502.891L212.033 492.6L229.908 464.914L281.421 475.301L229.908 464.914L266.085 408.903L318.619 419.574L266.085 408.903L283.675 381.668L325.498 390.134L341.582 430.968L218.201 619.798L224.855 618.98L218.414 669.454H218.402L175.322 549.429L212.033 492.6Z" fill="white"/>
<path d="M212.033 492.6L263.38 502.891L212.033 492.6ZM212.033 492.6L229.908 464.914L281.421 475.301L229.908 464.914L266.085 408.903L318.619 419.574L266.085 408.903L283.675 381.668L325.498 390.134L341.582 430.968L218.201 619.798L224.855 618.98L218.414 669.454H218.402L175.322 549.429L212.033 492.6Z" stroke="#111111" stroke-width="1.74" stroke-miterlimit="10"/>
<path d="M371.057 436.019L232.897 647.294L242.327 673.545L218.402 669.466L175.322 549.429L324.597 318.318L348.687 322.432L334.75 344.035L371.057 436.019Z" fill="white" stroke="black" stroke-width="1.74" stroke-miterlimit="10"/>
<path d="M271.826 628.94L278.468 628.122L272.027 678.608L242.647 673.592L242.327 673.545L228.259 634.287L199.401 553.733L328.713 353.378L348.687 322.432L348.853 322.455L378.222 327.459L366.989 368.507L395.195 440.11L271.826 628.94Z" fill="white" stroke="black" stroke-width="1.74" stroke-miterlimit="10"/>
<path d="M272.395 677.339L229.208 557.657L378.198 327.459L424.766 444.817L272.395 677.339Z" fill="url(#paint0_linear_689_64)" stroke="black" stroke-width="1.73" stroke-miterlimit="10"/>
<path d="M145.787 544.591L228.947 558.582" stroke="black" stroke-width="1.74" stroke-miterlimit="10"/>
<path d="M160.282 585.046L244.355 601.515" stroke="#111111" stroke-width="1.74" stroke-miterlimit="10"/>
<path d="M175.927 624.197L260 640.666" stroke="#111111" stroke-width="1.74" stroke-miterlimit="10"/>
<path d="M229.908 464.914L200.978 459.081L237.143 403.022L266.085 408.903L229.908 464.914Z" fill="white" stroke="black" stroke-width="1.74" stroke-miterlimit="10"/>
<path d="M165.169 514.546L246.798 530.932" stroke="#111111" stroke-width="1.74" stroke-miterlimit="10"/>
<path d="M219.019 431.692L300.649 448.066" stroke="#111111" stroke-width="1.74" stroke-miterlimit="10"/>
<path d="M212.033 492.6L183.091 486.79L200.978 459.081L229.908 464.914L212.033 492.6Z" fill="white" stroke="black" stroke-width="1.74" stroke-miterlimit="10"/>
<path d="M266.085 408.903L237.143 403.022L254.722 375.811L283.675 381.668L266.085 408.903Z" fill="white" stroke="black" stroke-width="1.74" stroke-miterlimit="10"/>
<path d="M212.033 492.6L265.492 501.99" stroke="black" stroke-width="1.74" stroke-miterlimit="10"/>
<path d="M229.908 464.914L282.086 476.297" stroke="#111111" stroke-width="1.74" stroke-miterlimit="10"/>
<path d="M266.085 408.903L318.014 420.677" stroke="#111111" stroke-width="1.74" stroke-miterlimit="10"/>
<path d="M283.675 381.668L335.391 393.122" stroke="#111111" stroke-width="1.74" stroke-miterlimit="10"/>
<path d="M301.242 354.398L352.957 365.851" stroke="#111111" stroke-width="1.74" stroke-miterlimit="10"/>
<path d="M404.637 838.591L261.34 854.419L46.3778 629.746L188.002 609.602L404.637 838.591Z" fill="url(#paint1_linear_689_64)" stroke="black" stroke-width="1.74" stroke-miterlimit="10"/>
<path d="M360.382 938.08L217.098 953.921L2.13507 729.248L143.759 709.091L360.382 938.08Z" fill="black" stroke="black" stroke-width="1.74" stroke-miterlimit="10"/>
<path d="M237.214 910.94L380.499 895.1L367.286 926.07L367.131 926.413L320.279 931.559L224.131 942.124L170.364 885.958L184.349 855.688L237.214 910.94Z" fill="white" stroke="black" stroke-width="1.74" stroke-miterlimit="10"/>
<path d="M67.1231 778.133L37.7545 747.46L8.96706 717.391L9.03823 717.225L22.2517 686.267L81.1787 747.851L67.1231 778.133Z" fill="white" stroke="black" stroke-width="1.74" stroke-miterlimit="10"/>
<path d="M380.499 895.1L326.684 874.766L325.83 882.295L150.579 697.175L101.45 704.124L106.728 692.753L101.45 704.124L64.4306 709.376L22.2518 686.267L163.876 666.111L380.499 895.1Z" fill="white" stroke="#111111" stroke-width="1.74" stroke-miterlimit="10"/>
<path d="M184.348 855.688L209.15 801.965L184.348 855.688L158.598 828.773L183.542 774.908L158.598 828.773L106.503 774.327L132.028 719.407L106.503 774.327L81.1788 747.851L101.45 704.123L150.579 697.175L325.83 882.295L326.684 874.766L380.499 895.1L237.214 910.94L184.348 855.688Z" fill="white"/>
<path d="M184.348 855.688L209.15 801.965L184.348 855.688ZM184.348 855.688L158.598 828.773L183.542 774.908L158.598 828.773L106.503 774.327L132.028 719.407L106.503 774.327L81.1788 747.851L101.45 704.123L150.579 697.175L325.83 882.295L326.684 874.766L380.499 895.1L237.214 910.94L184.348 855.688Z" stroke="#111111" stroke-width="1.74" stroke-miterlimit="10"/>
<path d="M163.876 666.111L359.931 873.355L391.269 869.892L380.499 895.1L237.214 910.94L22.2517 686.267L33.093 660.87L53.186 681.868L163.876 666.111Z" fill="white" stroke="black" stroke-width="1.74" stroke-miterlimit="10"/>
<path d="M349.968 825.774L350.81 818.256L404.625 838.579L391.411 869.56L391.269 869.892L344.405 875.038L248.257 885.614L61.8805 690.951L33.0931 660.87L33.1643 660.704L46.3777 629.746L88.5566 652.855L174.705 640.654L349.968 825.774Z" fill="white" stroke="black" stroke-width="1.74" stroke-miterlimit="10"/>
<path d="M404.637 838.591L261.34 854.419L46.3778 629.746L188.002 609.602L404.637 838.591Z" fill="url(#paint2_linear_689_64)" stroke="#202124" stroke-width="1.74" stroke-miterlimit="10"/>
<path d="M224.131 942.124L261.34 854.419" stroke="black" stroke-width="1.74" stroke-miterlimit="10"/>
<path d="M272.431 936.812L312.593 848.764" stroke="#111111" stroke-width="1.74" stroke-miterlimit="10"/>
<path d="M322.094 931.595L362.268 843.535" stroke="#111111" stroke-width="1.74" stroke-miterlimit="10"/>
<path d="M158.598 828.773L144.578 859.044L92.4471 804.586L106.503 774.327L158.598 828.773Z" fill="white" stroke="black" stroke-width="1.74" stroke-miterlimit="10"/>
<path d="M196.186 912.944L235.625 827.552" stroke="#111111" stroke-width="1.74" stroke-miterlimit="10"/>
<path d="M119.206 832.022L158.645 746.63" stroke="#111111" stroke-width="1.74" stroke-miterlimit="10"/>
<path d="M184.349 855.688L170.364 885.958L144.578 859.044L158.598 828.773L184.349 855.688Z" fill="white" stroke="black" stroke-width="1.74" stroke-miterlimit="10"/>
<path d="M106.503 774.327L92.447 804.586L67.1231 778.133L81.1788 747.851L106.503 774.327Z" fill="white" stroke="black" stroke-width="1.74" stroke-miterlimit="10"/>
<path d="M184.349 855.688L208.712 799.416" stroke="black" stroke-width="1.74" stroke-miterlimit="10"/>
<path d="M158.598 828.773L184.811 774.434" stroke="#111111" stroke-width="1.74" stroke-miterlimit="10"/>
<path d="M106.503 774.327L133.084 720.367" stroke="#111111" stroke-width="1.74" stroke-miterlimit="10"/>
<path d="M81.1789 747.851L107.345 694.033" stroke="#111111" stroke-width="1.74" stroke-miterlimit="10"/>
<path d="M37.0547 747.033L77.5374 661.19" stroke="#111111" stroke-width="1.74" stroke-miterlimit="10"/>
<path d="M99.7891 79.2622C100.548 78.2544 101.379 77.2821 102.244 76.381L157.234 16.4334C181.68 -15.9829 263.463 4.44626 339.898 62.0462C416.332 119.658 458.475 192.636 434.017 225.052C432.926 226.487 431.692 227.791 430.388 229.024L376.561 287.893C352.115 320.309 270.331 299.88 193.897 242.28C117.463 184.668 75.3193 111.69 99.7773 79.274L99.7891 79.2622Z" fill="white" stroke="black" stroke-width="1.74" stroke-miterlimit="10"/>
<path d="M230.521 202.101C154.09 144.487 111.954 71.503 136.409 39.0874C160.863 6.67179 242.646 27.0995 319.077 84.7139C395.508 142.328 437.644 215.312 413.19 247.728C388.736 280.143 306.952 259.716 230.521 202.101Z" stroke="black" stroke-width="1.32" stroke-miterlimit="10"/>
<path d="M210.298 223.751C133.867 166.137 91.7316 93.1528 116.186 60.7372C140.64 28.3216 222.423 48.7494 298.854 106.364C375.285 163.978 417.421 236.962 392.967 269.378C368.513 301.793 286.729 281.365 210.298 223.751Z" fill="white" stroke="black" stroke-width="1.74" stroke-miterlimit="10"/>
<path d="M233.573 198.059C157.142 140.444 115.006 67.4607 139.461 35.0452C163.915 2.62957 245.698 23.0573 322.129 80.6717C398.56 138.286 440.696 211.27 416.242 243.685C391.788 276.101 310.004 255.673 233.573 198.059Z" fill="white" stroke="black" stroke-width="1.74" stroke-miterlimit="10"/>
<path d="M251.357 179.425C174.926 121.811 132.79 48.8269 157.244 16.4113C181.699 -16.0043 263.482 4.42342 339.913 62.0379C416.344 119.652 458.48 192.636 434.026 225.052C409.572 257.467 327.788 237.04 251.357 179.425Z" fill="url(#paint3_linear_689_64)" stroke="black" stroke-width="1.32" stroke-miterlimit="10"/>
<path d="M153.343 58.7975L95.4361 120.002" stroke="black" stroke-width="1.32" stroke-miterlimit="10"/>
<path d="M166.45 88.463L108.365 150.177" stroke="black" stroke-width="1.32" stroke-miterlimit="10"/>
<path d="M187.041 118.129L127.782 178.705" stroke="black" stroke-width="1.32" stroke-miterlimit="10"/>
<path d="M207.205 140.763L148.053 201.861" stroke="black" stroke-width="1.32" stroke-miterlimit="10"/>
<path d="M228.995 161.311L173.507 223.748" stroke="black" stroke-width="1.32" stroke-miterlimit="10"/>
<path d="M251.353 179.428L198.523 245.695" stroke="black" stroke-width="1.32" stroke-miterlimit="10"/>
<path d="M276.333 196.833L225.994 264.144" stroke="black" stroke-width="1.32" stroke-miterlimit="10"/>
<path d="M303.14 212.544L259.798 282.427" stroke="black" stroke-width="1.32" stroke-miterlimit="10"/>
<path d="M328.736 224.697L287.115 293.573" stroke="black" stroke-width="1.32" stroke-miterlimit="10"/>
<path d="M372.766 238.296L326.708 302.75" stroke="black" stroke-width="1.32" stroke-miterlimit="10"/>
<path d="M430.388 229.025L355.234 301.362" stroke="black" stroke-width="1.32" stroke-miterlimit="10"/>
</g>
<defs>
<linearGradient id="paint0_linear_689_64" x1="993.387" y1="428.951" x2="-112.801" y2="569.036" gradientUnits="userSpaceOnUse">
<stop offset="0.07" stop-color="#2F85C6"/>
<stop offset="0.22" stop-color="#986AAC"/>
<stop offset="0.34" stop-color="#EC1C28"/>
<stop offset="0.48" stop-color="#EC1C28"/>
<stop offset="0.59" stop-color="#EF5123"/>
<stop offset="0.68" stop-color="#FFC20D"/>
<stop offset="0.78" stop-color="#FFC20D"/>
<stop offset="0.8" stop-color="#FAC10E"/>
<stop offset="0.81" stop-color="#EEC011"/>
<stop offset="0.83" stop-color="#DABE16"/>
<stop offset="0.85" stop-color="#BDBB1D"/>
<stop offset="0.86" stop-color="#98B727"/>
<stop offset="0.88" stop-color="#6BB333"/>
<stop offset="0.9" stop-color="#37AE40"/>
<stop offset="0.91" stop-color="#00A94F"/>
<stop offset="1" stop-color="#00A94F"/>
</linearGradient>
<linearGradient id="paint1_linear_689_64" x1="192.144" y1="682.742" x2="357.715" y2="938.098" gradientUnits="userSpaceOnUse">
<stop stop-color="#FFCB32"/>
<stop offset="0.09" stop-color="#FDC432"/>
<stop offset="0.22" stop-color="#FAB232"/>
<stop offset="0.37" stop-color="#F59433"/>
<stop offset="0.53" stop-color="#EF6B34"/>
<stop offset="0.62" stop-color="#EB5235"/>
<stop offset="0.8" stop-color="#E94835"/>
<stop offset="1" stop-color="#E94435"/>
</linearGradient>
<linearGradient id="paint2_linear_689_64" x1="478.136" y1="796.805" x2="-34.4632" y2="665.713" gradientUnits="userSpaceOnUse">
<stop stop-color="#1290FF"/>
<stop offset="0.24" stop-color="#1290FF"/>
<stop offset="0.54" stop-color="#38A852"/>
<stop offset="1" stop-color="#34A751"/>
</linearGradient>
<linearGradient id="paint3_linear_689_64" x1="478.323" y1="239.785" x2="268.721" y2="94.879" gradientUnits="userSpaceOnUse">
<stop stop-color="#1290FF"/>
<stop offset="0.08" stop-color="#248BF9"/>
<stop offset="0.23" stop-color="#537EEA"/>
<stop offset="0.44" stop-color="#9E6AD3"/>
<stop offset="0.48" stop-color="#AC67CF"/>
<stop offset="0.71" stop-color="#C5588E"/>
<stop offset="1" stop-color="#E94435"/>
</linearGradient>
<clipPath id="clip0_689_64">
<rect width="442" height="955" fill="white" transform="matrix(-1 0 0 1 442 0)"/>
</clipPath>
</defs>
</svg>
