<svg width="271" height="70" viewBox="0 0 271 70" fill="none" xmlns="http://www.w3.org/2000/svg">
<rect x="1.5" y="1.5" width="268" height="67" rx="33.5" fill="#202124"/>
<rect x="1.5" y="1.5" width="268" height="67" rx="33.5" stroke="url(#paint0_linear_708_98)" stroke-width="3"/>
<path d="M39.424 44.944C37.568 43.92 36.128 42.48 35.04 40.656C33.952 38.832 33.44 36.784 33.44 34.544C33.44 32.304 33.952 30.288 35.04 28.464C36.128 26.64 37.568 25.2 39.424 24.144C41.248 23.12 43.264 22.576 45.44 22.576C47.168 22.576 48.8 22.896 50.272 23.504C51.744 24.144 52.992 25.008 54.016 26.096L51.584 28.528C50.016 26.8 47.968 25.904 45.44 25.904C43.936 25.904 42.528 26.288 41.248 26.992C39.936 27.696 38.912 28.72 38.144 30.032C37.376 31.376 36.992 32.88 36.992 34.544C36.992 36.272 37.376 37.776 38.144 39.088C38.912 40.4 39.968 41.424 41.248 42.128C42.528 42.832 43.936 43.184 45.472 43.184C47.872 43.184 49.824 42.448 51.36 40.912C51.84 40.464 52.256 39.856 52.576 39.12C52.896 38.416 53.152 37.616 53.28 36.72H45.408V33.616H56.544C56.672 34.352 56.736 34.96 56.736 35.472C56.736 36.944 56.48 38.32 56.032 39.632C55.584 40.944 54.88 42.096 53.92 43.088C52.896 44.208 51.648 45.072 50.24 45.648C48.8 46.224 47.2 46.512 45.44 46.512C43.264 46.512 41.248 46 39.424 44.944ZM63.2465 45.392C61.9665 44.656 60.9745 43.632 60.2705 42.32C59.5665 41.008 59.2145 39.536 59.2145 37.872C59.2145 36.336 59.5345 34.896 60.2385 33.552C60.9425 32.208 61.9025 31.152 63.1505 30.352C64.3665 29.584 65.7745 29.168 67.3425 29.168C68.9745 29.168 70.3825 29.552 71.5985 30.256C72.7825 30.96 73.6785 31.952 74.3185 33.2C74.9585 34.48 75.2785 35.888 75.2785 37.488C75.2785 37.936 75.2465 38.288 75.2145 38.576H62.6065C62.7345 40.144 63.3105 41.36 64.2705 42.192C65.2305 43.024 66.3505 43.44 67.6305 43.44C68.6545 43.44 69.5505 43.216 70.3185 42.736C71.0545 42.256 71.6625 41.616 72.1105 40.816L74.9585 42.192C74.1905 43.536 73.1985 44.592 71.9825 45.36C70.7345 46.128 69.2625 46.512 67.5345 46.512C65.9345 46.512 64.5265 46.16 63.2465 45.392ZM71.8545 35.984C71.7905 35.408 71.5985 34.8 71.2785 34.192C70.9265 33.616 70.4145 33.104 69.7745 32.72C69.1345 32.336 68.3345 32.112 67.3745 32.112C66.2225 32.112 65.2305 32.464 64.4305 33.168C63.6305 33.872 63.0865 34.832 62.7985 35.984H71.8545ZM82.656 45.936C82.016 45.712 81.504 45.392 81.12 44.976C80.192 44.112 79.744 42.864 79.744 41.264V32.688H76.896V29.68H79.744V25.072H83.2V29.68H87.2V32.688H83.2V40.528C83.2 41.424 83.36 42.064 83.712 42.416C84.064 42.832 84.608 43.024 85.376 43.024C85.76 43.024 86.08 42.992 86.368 42.896C86.624 42.8 86.944 42.64 87.296 42.416V45.776C86.56 46.096 85.696 46.256 84.704 46.256C83.968 46.256 83.296 46.16 82.656 45.936ZM102.656 45.936C102.016 45.712 101.504 45.392 101.12 44.976C100.192 44.112 99.744 42.864 99.744 41.264V32.688H96.896V29.68H99.744V25.072H103.2V29.68H107.2V32.688H103.2V40.528C103.2 41.424 103.36 42.064 103.712 42.416C104.064 42.832 104.608 43.024 105.376 43.024C105.76 43.024 106.08 42.992 106.368 42.896C106.624 42.8 106.944 42.64 107.296 42.416V45.776C106.56 46.096 105.696 46.256 104.704 46.256C103.968 46.256 103.296 46.16 102.656 45.936ZM110.704 23.088H114.16V29.36L113.968 31.92H114.16C114.608 31.12 115.312 30.448 116.24 29.936C117.168 29.424 118.192 29.168 119.312 29.168C121.296 29.168 122.8 29.776 123.856 30.96C124.88 32.144 125.424 33.712 125.424 35.696V46H122V36.144C122 34.896 121.648 33.936 120.976 33.296C120.304 32.656 119.44 32.336 118.416 32.336C117.616 32.336 116.88 32.592 116.24 33.04C115.6 33.488 115.088 34.096 114.704 34.864C114.32 35.632 114.16 36.464 114.16 37.296V46H110.704V23.088ZM132.528 45.392C131.248 44.656 130.256 43.632 129.552 42.32C128.848 41.008 128.496 39.536 128.496 37.872C128.496 36.336 128.816 34.896 129.52 33.552C130.224 32.208 131.184 31.152 132.432 30.352C133.648 29.584 135.056 29.168 136.624 29.168C138.256 29.168 139.664 29.552 140.88 30.256C142.064 30.96 142.96 31.952 143.6 33.2C144.24 34.48 144.56 35.888 144.56 37.488C144.56 37.936 144.528 38.288 144.496 38.576H131.888C132.016 40.144 132.592 41.36 133.552 42.192C134.512 43.024 135.632 43.44 136.912 43.44C137.936 43.44 138.832 43.216 139.6 42.736C140.336 42.256 140.944 41.616 141.392 40.816L144.24 42.192C143.472 43.536 142.48 44.592 141.264 45.36C140.016 46.128 138.544 46.512 136.816 46.512C135.216 46.512 133.808 46.16 132.528 45.392ZM141.136 35.984C141.072 35.408 140.88 34.8 140.56 34.192C140.208 33.616 139.696 33.104 139.056 32.72C138.416 32.336 137.616 32.112 136.656 32.112C135.504 32.112 134.512 32.464 133.712 33.168C132.912 33.872 132.368 34.832 132.08 35.984H141.136ZM159.875 45.936C159.235 45.712 158.723 45.392 158.339 44.976C157.411 44.112 156.963 42.864 156.963 41.264V32.688H154.115V29.68H156.963V25.072H160.419V29.68H164.419V32.688H160.419V40.528C160.419 41.424 160.579 42.064 160.931 42.416C161.283 42.832 161.827 43.024 162.595 43.024C162.979 43.024 163.299 42.992 163.587 42.896C163.843 42.8 164.163 42.64 164.515 42.416V45.776C163.779 46.096 162.915 46.256 161.923 46.256C161.187 46.256 160.515 46.16 159.875 45.936ZM168.242 26.608C167.794 26.16 167.57 25.584 167.57 24.944C167.57 24.304 167.794 23.76 168.242 23.312C168.69 22.864 169.266 22.64 169.906 22.64C170.546 22.64 171.09 22.864 171.538 23.312C171.986 23.76 172.242 24.304 172.242 24.944C172.242 25.584 171.986 26.16 171.538 26.608C171.09 27.056 170.546 27.28 169.906 27.28C169.266 27.28 168.69 27.056 168.242 26.608ZM168.178 29.68H171.634V46H168.178V29.68ZM178.966 45.392C177.686 44.656 176.662 43.632 175.958 42.32C175.254 41.008 174.902 39.504 174.902 37.84C174.902 36.176 175.254 34.704 175.958 33.392C176.662 32.08 177.686 31.056 178.966 30.288C180.246 29.552 181.686 29.168 183.318 29.168C185.11 29.168 186.614 29.584 187.862 30.384C189.11 31.184 190.006 32.272 190.582 33.68L187.446 34.96C186.678 33.232 185.27 32.336 183.254 32.336C182.358 32.336 181.526 32.592 180.758 33.04C179.99 33.488 179.414 34.128 178.966 34.96C178.518 35.792 178.326 36.752 178.326 37.84C178.326 38.928 178.518 39.888 178.966 40.72C179.414 41.552 179.99 42.224 180.758 42.672C181.526 43.12 182.358 43.344 183.254 43.344C184.278 43.344 185.142 43.12 185.878 42.672C186.614 42.224 187.19 41.552 187.606 40.656L190.71 42C190.07 43.408 189.11 44.496 187.862 45.296C186.582 46.128 185.078 46.512 183.318 46.512C181.686 46.512 180.246 46.16 178.966 45.392ZM193.641 23.088H197.097V36.528H197.225L204.009 29.68H208.297V29.872L201.993 36.144L208.521 45.808V46H204.425L199.561 38.512L197.097 40.976V46H193.641V23.088ZM213.372 45.392C212.092 44.656 211.1 43.632 210.396 42.32C209.692 41.008 209.34 39.536 209.34 37.872C209.34 36.336 209.66 34.896 210.364 33.552C211.068 32.208 212.028 31.152 213.276 30.352C214.492 29.584 215.9 29.168 217.468 29.168C219.1 29.168 220.508 29.552 221.724 30.256C222.908 30.96 223.804 31.952 224.444 33.2C225.083 34.48 225.404 35.888 225.404 37.488C225.404 37.936 225.372 38.288 225.34 38.576H212.732C212.86 40.144 213.436 41.36 214.396 42.192C215.356 43.024 216.476 43.44 217.756 43.44C218.78 43.44 219.676 43.216 220.444 42.736C221.18 42.256 221.788 41.616 222.236 40.816L225.083 42.192C224.316 43.536 223.324 44.592 222.108 45.36C220.86 46.128 219.388 46.512 217.66 46.512C216.06 46.512 214.652 46.16 213.372 45.392ZM221.98 35.984C221.916 35.408 221.724 34.8 221.404 34.192C221.052 33.616 220.54 33.104 219.9 32.72C219.26 32.336 218.46 32.112 217.5 32.112C216.348 32.112 215.356 32.464 214.556 33.168C213.756 33.872 213.212 34.832 212.924 35.984H221.98ZM232.781 45.936C232.141 45.712 231.629 45.392 231.245 44.976C230.317 44.112 229.869 42.864 229.869 41.264V32.688H227.021V29.68H229.869V25.072H233.325V29.68H237.325V32.688H233.325V40.528C233.325 41.424 233.485 42.064 233.837 42.416C234.189 42.832 234.733 43.024 235.501 43.024C235.885 43.024 236.205 42.992 236.493 42.896C236.749 42.8 237.069 42.64 237.421 42.416V45.776C236.685 46.096 235.821 46.256 234.829 46.256C234.093 46.256 233.421 46.16 232.781 45.936Z" fill="white"/>
<defs>
<linearGradient id="paint0_linear_708_98" x1="0" y1="35" x2="271" y2="35" gradientUnits="userSpaceOnUse">
<stop stop-color="#428EFF"/>
<stop offset="0.108915" stop-color="#428EFF"/>
<stop offset="0.238413" stop-color="#9F6CD4"/>
<stop offset="0.365599" stop-color="#EA4335"/>
<stop offset="0.446535" stop-color="#EA4335"/>
<stop offset="0.55522" stop-color="#F46831"/>
<stop offset="0.656969" stop-color="#FFCB32"/>
<stop offset="0.754092" stop-color="#FFCB32"/>
<stop offset="0.890527" stop-color="#34A853"/>
<stop offset="1" stop-color="#34A853"/>
</linearGradient>
</defs>
</svg>
