<svg width="236" height="234" viewBox="0 0 236 234" fill="none" xmlns="http://www.w3.org/2000/svg">
<path d="M235.067 186.893C196.447 167.342 133.991 174.429 103.022 201.104C95.2071 207.827 83.4801 220.4 77.0753 232L27.3743 204.861L138.003 2L187.704 29.1386C181.426 40.8019 177.205 57.478 175.786 67.6766C170.136 108.162 198.012 164.504 235.349 186.384" fill="url(#paint0_linear_1_174)"/>
<path d="M235.067 186.893C196.447 167.342 133.991 174.429 103.022 201.104C95.2071 207.827 83.4801 220.4 77.0753 232L27.3743 204.861L138.003 2L187.704 29.1386C181.426 40.8019 177.205 57.478 175.786 67.6766C170.136 108.162 198.012 164.504 235.349 186.384" stroke="#202124" stroke-width="2.1954" stroke-miterlimit="10"/>
<path d="M235.067 186.893C196.447 167.342 133.991 174.429 103.022 201.104C95.2071 207.827 83.4801 220.4 77.0753 232L27.3743 204.861L138.003 2L187.704 29.1386C181.426 40.8019 177.205 57.478 175.786 67.6766C170.136 108.162 198.012 164.504 235.349 186.384" stroke="#202124" stroke-width="2.0328" stroke-miterlimit="10"/>
<path d="M152.723 54.8033C154.142 44.5956 158.364 27.9286 164.641 16.2653L138.394 2.46399L27.9475 204.989L54.0125 219.118C60.4174 207.518 72.1443 194.954 79.9593 188.222C111.547 161.019 169.881 151.103 208.283 172.1C169.845 151.194 146.964 96.0798 152.723 54.8033Z" stroke="#202124" stroke-width="2.0328" stroke-miterlimit="10"/>
<path d="M3.10158 60.8078C12.4813 66.2574 20.7694 73.4628 27.2015 82.2239C53.5304 118.078 48.099 167.706 28.0567 204.825C34.416 193.162 41.8034 182.745 51.1013 173.229C80.2777 143.379 126.412 127.649 165.014 148.474C155.38 143.215 146.7 136.319 139.913 127.658C111.883 91.9039 117.396 40.3379 137.785 2.58226C131.425 14.2547 123.729 25.2174 114.422 34.7428C85.3907 64.4469 39.4653 80.3589 1 59.616L3.10158 60.8078Z" fill="#EEEEEE" stroke="#202124" stroke-width="2.0328" stroke-miterlimit="10"/>
<path d="M176.495 61.6448L126.103 34.1605" stroke="#202124" stroke-width="2.0328" stroke-miterlimit="10"/>
<path d="M176.859 97.59L121.591 67.4492" stroke="#202124" stroke-width="2.0328" stroke-miterlimit="10"/>
<path d="M190.779 137.138L126.822 102.257" stroke="#202124" stroke-width="2.0328" stroke-miterlimit="10"/>
<path d="M98.2822 205.052L47.8807 177.568" stroke="#202124" stroke-width="2.0328" stroke-miterlimit="10"/>
<path d="M128.705 185.893L73.4362 155.752" stroke="#202124" stroke-width="2.0328" stroke-miterlimit="10"/>
<path d="M169.49 176.185L105.533 141.305" stroke="#202124" stroke-width="2.0328" stroke-miterlimit="10"/>
<path d="M233.829 186.002L161.402 146.499" stroke="#202124" stroke-width="2.0328" stroke-miterlimit="10"/>
<defs>
<linearGradient id="paint0_linear_1_174" x1="197.235" y1="79.19" x2="100.434" y2="217.221" gradientUnits="userSpaceOnUse">
<stop stop-color="#FFCB32"/>
<stop offset="0.18" stop-color="#FFCB32"/>
<stop offset="0.53" stop-color="#F46831"/>
<stop offset="0.79" stop-color="#EA4335"/>
<stop offset="1" stop-color="#EA4335"/>
</linearGradient>
</defs>
</svg>
