<svg width="186" height="184" viewBox="0 0 186 184" fill="none" xmlns="http://www.w3.org/2000/svg">
<path d="M1.45605 146.3C30.6764 129.17 52.4991 85.083 48.0705 53.3991C46.9598 45.4105 43.6561 32.3667 38.7434 23.2389L77.6398 2L164.219 160.761L125.322 182C120.31 172.922 111.132 163.089 105.016 157.821C80.7797 136.945 31.8939 131.398 1.67677 146.699" fill="url(#paint0_linear_1_162)"/>
<path d="M1.45605 146.3C30.6764 129.17 52.4991 85.083 48.0705 53.3991C46.9598 45.4105 43.6561 32.3667 38.7434 23.2389L77.6398 2L164.219 160.761L125.322 182C120.31 172.922 111.132 163.089 105.016 157.821C80.7797 136.945 31.8939 131.398 1.67677 146.699" stroke="#202124" stroke-width="2.0328" stroke-miterlimit="10"/>
<path d="M22.6309 135.115C52.6843 118.689 98.3446 126.45 123.058 147.732C129.174 152.993 138.352 162.833 143.364 171.911L163.763 160.854L77.3265 2.35599L56.7854 13.157C61.6981 22.2848 65.0018 35.3357 66.1125 43.3172C70.6195 75.6205 52.7199 118.753 22.6309 135.115Z" stroke="#202124" stroke-width="2.0328" stroke-miterlimit="10"/>
<path d="M183.208 48.0093L184.859 47.0837C154.749 63.3172 118.807 50.8644 96.1019 27.6177C88.8252 20.1631 82.8018 11.5764 77.8178 2.44858C93.7808 31.9965 98.0883 72.3525 76.1517 100.334C70.8402 107.112 64.0406 112.509 56.5077 116.624C86.7106 100.334 122.816 112.637 145.657 135.998C152.933 143.445 158.715 151.591 163.692 160.726C147.999 131.676 143.756 92.8366 164.361 64.7768C169.388 57.9203 175.874 52.2813 183.208 48.0093Z" fill="#EEEEEE" stroke="#202124" stroke-width="2.0328" stroke-miterlimit="10"/>
<path d="M86.9527 27.162L47.5151 48.6714" stroke="#202124" stroke-width="2.0328" stroke-miterlimit="10"/>
<path d="M90.4771 53.214L47.2233 76.8024" stroke="#202124" stroke-width="2.0328" stroke-miterlimit="10"/>
<path d="M86.3831 80.455L36.3297 107.753" stroke="#202124" stroke-width="2.0328" stroke-miterlimit="10"/>
<path d="M148.163 139.394L108.719 160.904" stroke="#202124" stroke-width="2.0328" stroke-miterlimit="10"/>
<path d="M128.17 122.32L84.9164 145.909" stroke="#202124" stroke-width="2.0328" stroke-miterlimit="10"/>
<path d="M103.051 111.014L52.9976 138.312" stroke="#202124" stroke-width="2.0328" stroke-miterlimit="10"/>
<path d="M59.32 115.079L2.63794 145.994" stroke="#202124" stroke-width="2.0328" stroke-miterlimit="10"/>
<defs>
<linearGradient id="paint0_linear_1_162" x1="31.2804" y1="62.4028" x2="107.037" y2="170.427" gradientUnits="userSpaceOnUse">
<stop stop-color="#FFCB32"/>
<stop offset="0.24" stop-color="#FFCB32"/>
<stop offset="0.76" stop-color="#34A853"/>
<stop offset="1" stop-color="#34A853"/>
</linearGradient>
</defs>
</svg>
