<svg width="1013" height="200" viewBox="0 0 1013 200" fill="none" xmlns="http://www.w3.org/2000/svg">
<g clip-path="url(#clip0_727_302)">
<path d="M365.576 141.724H371.834V158.677H390.892V141.724H397.093V182.456H390.892V164.593H371.834V182.456H365.576V141.724ZM407.968 182.172C406.318 181.375 405.067 180.181 404.157 178.701C403.247 177.223 402.791 175.572 402.791 173.638C402.791 171.647 403.303 169.941 404.384 168.461C405.408 166.983 406.887 165.901 408.708 165.105C410.528 164.308 412.519 163.91 414.795 163.91C416.501 163.91 418.038 164.081 419.403 164.422C420.768 164.764 421.906 165.105 422.759 165.503V163.967C422.759 162.147 422.077 160.611 420.711 159.473C419.346 158.335 417.582 157.709 415.421 157.709C413.941 157.709 412.519 158.051 411.211 158.733C409.846 159.416 408.822 160.269 408.025 161.407L403.815 158.165C405.067 156.401 406.717 155.036 408.764 154.012C410.812 153.044 413.088 152.532 415.591 152.532C419.744 152.532 422.987 153.613 425.263 155.661C427.538 157.709 428.733 160.611 428.733 164.308V182.456H422.759V178.872H422.418C421.565 180.181 420.37 181.261 418.834 182.115C417.241 182.968 415.477 183.366 413.543 183.366C411.438 183.366 409.561 182.968 407.968 182.172ZM418.777 177.279C420.029 176.54 420.996 175.516 421.678 174.264C422.361 173.012 422.759 171.704 422.759 170.225C421.849 169.713 420.768 169.315 419.63 168.973C418.436 168.689 417.184 168.518 415.933 168.518C413.543 168.518 411.78 169.03 410.642 169.941C409.504 170.908 408.992 172.159 408.992 173.695C408.992 175.06 409.504 176.198 410.528 177.052C411.552 177.962 412.917 178.36 414.624 178.36C416.103 178.36 417.526 178.019 418.777 177.279ZM435.497 153.442H441.3V157.425H441.641C442.437 156.003 443.689 154.808 445.396 153.898C447.046 152.988 448.866 152.532 450.8 152.532C454.27 152.532 456.944 153.613 458.764 155.661C460.585 157.709 461.493 160.554 461.493 164.138V182.456H455.408V164.934C455.408 162.659 454.839 161.009 453.701 159.871C452.564 158.733 450.971 158.165 449.036 158.165C447.558 158.165 446.306 158.563 445.168 159.359C444.03 160.156 443.177 161.236 442.551 162.545C441.925 163.91 441.641 165.332 441.641 166.869V182.456H435.497V153.442ZM474.3 181.375C471.968 180.01 470.147 178.189 468.894 175.8C467.585 173.468 466.963 170.851 466.963 167.949C466.963 165.105 467.585 162.488 468.894 160.099C470.147 157.766 471.968 155.946 474.3 154.58C476.576 153.215 479.194 152.532 482.152 152.532C484.995 152.532 487.613 153.215 489.945 154.58C492.221 155.946 494.041 157.823 495.35 160.156C496.599 162.545 497.281 165.105 497.281 167.949C497.281 170.851 496.599 173.468 495.35 175.8C494.041 178.189 492.221 180.01 489.945 181.375C487.668 182.741 485.051 183.366 482.152 183.366C479.194 183.366 476.576 182.741 474.3 181.375ZM486.645 176.54C488.009 175.743 489.092 174.606 489.945 173.126C490.742 171.647 491.198 169.941 491.198 167.949C491.198 166.015 490.742 164.252 489.945 162.772C489.092 161.294 488.009 160.156 486.645 159.359C485.281 158.563 483.742 158.165 482.152 158.165C480.502 158.165 478.963 158.563 477.599 159.359C476.235 160.156 475.097 161.294 474.3 162.772C473.447 164.252 473.046 166.015 473.046 167.949C473.046 169.941 473.447 171.647 474.3 173.126C475.097 174.606 476.235 175.743 477.599 176.54C478.963 177.336 480.502 177.735 482.152 177.735C483.742 177.735 485.281 177.336 486.645 176.54ZM502.954 147.981C502.157 147.185 501.76 146.161 501.76 145.023C501.76 143.885 502.157 142.918 502.954 142.122C503.751 141.325 504.774 140.927 505.912 140.927C507.051 140.927 508.018 141.325 508.816 142.122C509.613 142.918 510.064 143.885 510.064 145.023C510.064 146.161 509.613 147.185 508.816 147.981C508.018 148.778 507.051 149.176 505.912 149.176C504.774 149.176 503.751 148.778 502.954 147.981ZM502.843 153.442H508.986V182.456H502.843V153.442ZM529.032 176.653C536.714 169.03 541.433 164.194 543.253 162.204C544.903 160.497 546.041 159.075 546.668 157.937C547.24 156.856 547.581 155.547 547.581 154.068C547.581 152.589 546.954 151.281 545.816 150.143C544.677 149.005 543.083 148.436 541.152 148.436C539.332 148.436 537.853 149.005 536.714 150.029C535.576 151.053 534.834 152.305 534.438 153.67L528.922 151.394C529.263 150.029 530 148.721 531.023 147.355C532.051 146.047 533.47 144.909 535.235 143.999C536.94 143.089 538.991 142.634 541.263 142.634C543.71 142.634 545.871 143.146 547.806 144.17C549.682 145.194 551.161 146.559 552.189 148.265C553.212 149.972 553.779 151.85 553.779 153.898C553.779 157.994 551.677 162.147 547.581 166.243L541.949 171.875C539.783 173.98 538.194 175.572 537.111 176.71L537.17 176.881H554.235V182.456H529.032V176.653ZM567.378 180.693C564.986 178.929 563.111 176.483 561.802 173.411C560.493 170.339 559.866 166.869 559.866 163C559.866 159.189 560.493 155.718 561.802 152.646C563.111 149.574 564.986 147.128 567.378 145.307C569.765 143.544 572.613 142.634 575.797 142.634C578.982 142.634 581.77 143.544 584.217 145.307C586.608 147.128 588.484 149.574 589.793 152.646C591.101 155.718 591.783 159.189 591.783 163C591.783 166.869 591.101 170.339 589.793 173.411C588.484 176.483 586.608 178.929 584.217 180.693C581.77 182.513 578.982 183.366 575.797 183.366C572.613 183.366 569.765 182.513 567.378 180.693ZM581.032 175.686C582.511 174.435 583.59 172.671 584.387 170.453C585.184 168.291 585.581 165.788 585.581 163C585.581 160.269 585.184 157.766 584.387 155.547C583.59 153.329 582.511 151.565 581.032 150.314C579.553 149.062 577.788 148.436 575.797 148.436C573.806 148.436 572.101 149.062 570.622 150.314C569.143 151.565 568.06 153.329 567.263 155.547C566.465 157.766 566.124 160.269 566.124 163C566.124 165.788 566.465 168.291 567.263 170.453C568.06 172.671 569.143 174.435 570.622 175.686C572.101 176.938 573.806 177.564 575.797 177.564C577.788 177.564 579.553 176.938 581.032 175.686ZM596.811 176.653C604.493 169.03 609.212 164.194 611.032 162.204C612.682 160.497 613.82 159.075 614.447 157.937C615.018 156.856 615.359 155.547 615.359 154.068C615.359 152.589 614.733 151.281 613.594 150.143C612.456 149.005 610.862 148.436 608.931 148.436C607.111 148.436 605.631 149.005 604.493 150.029C603.355 151.053 602.613 152.305 602.217 153.67L596.696 151.394C597.041 150.029 597.779 148.721 598.802 147.355C599.825 146.047 601.249 144.909 603.014 143.999C604.719 143.089 606.77 142.634 609.041 142.634C611.488 142.634 613.65 143.146 615.585 144.17C617.461 145.194 618.94 146.559 619.968 148.265C620.991 149.972 621.558 151.85 621.558 153.898C621.558 157.994 619.452 162.147 615.359 166.243L609.723 171.875C607.562 173.98 605.972 175.572 604.889 176.71L604.945 176.881H622.014V182.456H596.811V176.653ZM645.737 174.662H627.419V169.883L645.226 143.544H651.825V168.973H656.774V174.662H651.825V182.456H645.737V174.662ZM645.737 168.973V152.589H645.396L634.304 168.973H645.737Z" fill="#202124"/>
<path d="M0 59.3687C0 30.5807 24.1475 7.13375 52.9862 7.13375C66.3687 6.91255 79.2765 12.1015 88.788 21.5254L78.6728 31.5946C71.7834 24.9494 62.553 21.2858 52.9862 21.4056C31.9816 21.4056 15.5622 38.3227 15.5622 59.3687C15.5622 80.4148 31.9539 97.3226 52.9862 97.3226C66.6129 97.3226 74.3687 91.848 79.341 86.8756C83.4194 82.7973 86.0829 76.9263 87.1106 68.9632H52.9862V54.6544H100.982C101.525 57.6083 101.783 60.6083 101.747 63.6083C101.747 74.3042 98.8249 87.5484 89.3963 96.9816C80.2074 106.498 68.4931 111.539 52.9862 111.539C24.1475 111.539 0 88.1567 0 59.3687Z" fill="#202124"/>
<path d="M140.507 98.3364C130.323 98.3364 121.544 89.9263 121.544 77.9585C121.544 65.9908 130.323 57.5806 140.507 57.5806C150.691 57.5806 159.475 65.8617 159.475 77.9585C159.475 90.0553 150.691 98.3456 140.507 98.3456V98.3364ZM140.507 44.3318C121.917 44.3318 106.774 58.47 106.774 77.9585C106.774 97.447 121.922 111.544 140.507 111.544C159.092 111.544 174.24 97.2719 174.24 77.917C174.24 58.5622 159.092 44.3318 140.507 44.3318Z" fill="#202124"/>
<path d="M214.101 98.3364C203.917 98.3364 195.134 89.9263 195.134 77.9585C195.134 65.9908 203.917 57.5806 214.101 57.5806C224.286 57.5806 233.065 65.8617 233.065 77.9585C233.065 90.0553 224.286 98.3456 214.101 98.3456V98.3364ZM214.101 44.3318C195.512 44.3318 180.369 58.47 180.369 77.9585C180.369 97.447 195.516 111.544 214.101 111.544C232.687 111.544 247.834 97.2719 247.834 77.917C247.834 58.5622 232.687 44.3318 214.101 44.3318Z" fill="#202124"/>
<path d="M343.392 10.7051H328.622V109.548H343.392V10.7051Z" fill="#202124"/>
<path d="M343.392 10.7051H328.622V109.548H343.392V10.7051Z" fill="#202124"/>
<path d="M382.737 57.3272C388.594 57.3272 393.558 60.2534 395.207 64.4608L365.161 76.9401C364.774 63.9447 375.217 57.3272 382.723 57.3272H382.733M383.876 98.3456C376.369 98.3456 371.014 94.9032 367.585 88.1567L412.53 69.5576L411.018 65.765C408.212 58.2534 399.691 44.3687 382.249 44.3687C364.806 44.3687 350.553 58 350.553 77.9954C350.553 96.8433 364.816 111.622 383.908 111.622C395.157 111.682 405.682 106.069 411.912 96.6958L400.456 89.0553C396.608 94.6267 391.387 98.3502 383.876 98.3502V98.3456Z" fill="#202124"/>
<path d="M287.53 98.3456C277.346 98.3456 268.811 89.8064 268.811 78.0967C268.811 66.3871 277.346 57.5898 287.53 57.5898C297.714 57.5898 305.429 66.2488 305.429 78.0967C305.429 89.9447 297.562 98.3456 287.507 98.3456H287.525M304.433 46.3732V51.8341H303.926C300.613 47.8525 294.249 44.3225 286.235 44.3225C269.429 44.3225 254.023 59.1014 254.023 78.0783C254.023 97.0553 269.429 111.544 286.235 111.544C294.249 111.544 300.618 107.982 303.926 103.899H304.433V108.737C304.433 121.604 297.562 128.479 286.53 128.479C277.489 128.479 271.889 121.982 269.622 116.539L256.76 121.894C261.714 134 273.525 141.876 286.594 141.797C303.908 141.797 318.548 131.608 318.548 106.77V46.3732H304.424H304.433Z" fill="#202124"/>
<path d="M727.949 8.98621H961.581C989.806 8.98621 1012.72 31.9033 1012.72 60.1291C1012.72 88.3549 989.806 111.272 961.581 111.272H727.949C699.723 111.272 676.806 88.3549 676.806 60.1291C676.806 31.9033 699.723 8.98621 727.949 8.98621Z" fill="#202124"/>
<path d="M506.258 10.5576H456.41V109.696H506.258V10.5576Z" fill="#202124"/>
<path d="M598.71 111.272C626.954 111.272 649.853 88.3747 649.853 60.1291C649.853 31.8836 626.954 8.98621 598.71 8.98621C570.465 8.98621 547.567 31.8836 547.567 60.1291C547.567 88.3747 570.465 111.272 598.71 111.272Z" fill="#202124"/>
<path d="M716.986 34.8423H744.235V41.3727H723.894V54.0567H742.226V60.5871H723.894V73.2714H744.235V79.8018H716.986V34.8423ZM759.276 63.5387L748.226 47.7774H756.074L763.23 58.3267H763.419L770.263 47.7774H778.429L767.189 63.5387L778.488 79.8018H770.576L763.295 68.9387H763.106L756.009 79.8018H748.037L759.276 63.5387ZM792.35 79.676C791.097 79.2368 790.092 78.6087 789.336 77.7926C787.516 76.0972 786.636 73.6479 786.636 70.5083V53.6802H781.051V47.7774H786.636V38.7354H793.419V47.7774H801.267V53.6802H793.419V69.064C793.419 70.8226 793.733 72.0783 794.424 72.7691C795.115 73.5852 796.18 73.9622 797.687 73.9622C798.442 73.9622 799.069 73.8991 799.636 73.711C800.138 73.5226 800.765 73.2087 801.456 72.7691V79.3622C800.014 79.9903 798.318 80.3041 796.369 80.3041C794.926 80.3041 793.608 80.1157 792.35 79.676ZM812.825 78.6087C810.313 77.1645 808.369 75.1553 806.986 72.5806C805.604 70.006 804.912 67.1175 804.912 63.8525C804.912 60.8382 805.544 58.0129 806.922 55.3756C808.304 52.7382 810.189 50.6659 812.636 49.0963C815.023 47.5894 817.788 46.7728 820.862 46.7728C824.064 46.7728 826.829 47.5262 829.217 48.9078C831.539 50.2894 833.295 52.2359 834.553 54.6848C835.806 57.1963 836.438 59.9594 836.438 63.0991C836.438 63.9779 836.373 64.6686 836.309 65.2341H811.571C811.82 68.3106 812.949 70.6968 814.834 72.3295C816.719 73.9622 818.917 74.7783 821.429 74.7783C823.438 74.7783 825.198 74.3387 826.705 73.3968C828.147 72.4553 829.341 71.1991 830.221 69.6295L835.806 72.3295C834.299 74.9668 832.355 77.0387 829.968 78.5461C827.521 80.053 824.631 80.8064 821.24 80.8064C818.101 80.8064 815.336 80.1156 812.825 78.6087ZM829.719 60.1479C829.59 59.0175 829.217 57.8244 828.585 56.6313C827.894 55.5009 826.889 54.4963 825.636 53.7428C824.378 52.9894 822.811 52.5497 820.926 52.5497C818.664 52.5497 816.719 53.2405 815.147 54.6221C813.581 56.0032 812.512 57.8871 811.945 60.1479H829.719ZM842.728 47.7774H849.134V52.1733H849.507C850.387 50.6032 851.77 49.2848 853.654 48.2797C855.475 47.2751 857.484 46.7728 859.617 46.7728C863.447 46.7728 866.401 47.9659 868.41 50.2262C870.419 52.4871 871.424 55.6267 871.424 59.5825V79.8018H864.705V60.4617C864.705 57.9497 864.078 56.129 862.82 54.8733C861.567 53.6175 859.806 52.9894 857.673 52.9894C856.041 52.9894 854.659 53.429 853.401 54.3078C852.147 55.1871 851.203 56.3802 850.511 57.8244C849.825 59.3313 849.507 60.9014 849.507 62.5968V79.8018H842.728V47.7774ZM884.991 78.6714C882.604 77.2272 880.783 75.218 879.465 72.5806C878.083 70.006 877.456 67.0548 877.456 63.7898C877.456 60.5244 878.083 57.6359 879.465 55.0613C880.783 52.4871 882.604 50.4779 884.991 48.9705C887.313 47.5262 889.954 46.7728 892.839 46.7728C895.166 46.7728 897.235 47.3382 899.055 48.3428C900.816 49.3474 902.198 50.6032 903.138 52.1101H903.516L903.138 47.6521V34.8423H909.857V79.8018H903.516V75.5318H903.138C902.198 77.0387 900.816 78.2949 899.055 79.2995C897.235 80.3041 895.166 80.8064 892.839 80.8064C889.954 80.8064 887.313 80.1156 884.991 78.6714ZM898.553 73.2714C900.06 72.3921 901.253 71.0737 902.134 69.441C903.014 67.8083 903.516 65.9244 903.516 63.7898C903.516 61.6548 903.014 59.7709 902.134 58.1382C901.253 56.5055 900.06 55.2498 898.553 54.3709C897.046 53.4917 895.479 52.9894 893.843 52.9894C892.152 52.9894 890.581 53.4917 889.074 54.3709C887.567 55.2498 886.373 56.5055 885.493 58.1382C884.613 59.7709 884.175 61.6548 884.175 63.7898C884.175 65.9244 884.613 67.8083 885.493 69.441C886.373 71.0737 887.567 72.3921 889.074 73.2714C890.581 74.1507 892.152 74.5898 893.843 74.5898C895.479 74.5898 897.046 74.1507 898.553 73.2714ZM923.756 78.6087C921.244 77.1645 919.295 75.1553 917.917 72.5806C916.535 70.006 915.843 67.1175 915.843 63.8525C915.843 60.8382 916.47 58.0129 917.852 55.3756C919.235 52.7382 921.12 50.6659 923.567 49.0963C925.954 47.5894 928.714 46.7728 931.793 46.7728C934.995 46.7728 937.76 47.5262 940.143 48.9078C942.465 50.2894 944.226 52.2359 945.484 54.6848C946.737 57.1963 947.364 59.9594 947.364 63.0991C947.364 63.9779 947.304 64.6686 947.24 65.2341H922.498C922.751 68.3106 923.88 70.6968 925.765 72.3295C927.65 73.9622 929.848 74.7783 932.359 74.7783C934.369 74.7783 936.124 74.3387 937.631 73.3968C939.078 72.4553 940.272 71.1991 941.147 69.6295L946.737 72.3295C945.23 74.9668 943.286 77.0387 940.899 78.5461C938.447 80.053 935.562 80.8064 932.171 80.8064C929.032 80.8064 926.267 80.1156 923.756 78.6087ZM940.645 60.1479C940.521 59.0175 940.143 57.8244 939.516 56.6313C938.825 55.5009 937.82 54.4963 936.567 53.7428C935.309 52.9894 933.737 52.5497 931.857 52.5497C929.594 52.5497 927.65 53.2405 926.078 54.6221C924.507 56.0032 923.442 57.8871 922.876 60.1479H940.645ZM959.802 78.6714C957.419 77.2272 955.594 75.218 954.276 72.5806C952.894 70.006 952.267 67.0548 952.267 63.7898C952.267 60.5244 952.894 57.6359 954.276 55.0613C955.594 52.4871 957.419 50.4779 959.802 48.9705C962.124 47.5262 964.765 46.7728 967.654 46.7728C969.977 46.7728 972.046 47.3382 973.871 48.3428C975.627 49.3474 977.009 50.6032 977.949 52.1101H978.327L977.949 47.6521V34.8423H984.668V79.8018H978.327V75.5318H977.949C977.009 77.0387 975.627 78.2949 973.871 79.2995C972.046 80.3041 969.977 80.8064 967.654 80.8064C964.765 80.8064 962.124 80.1156 959.802 78.6714ZM973.369 73.2714C974.876 72.3921 976.064 71.0737 976.945 69.441C977.825 67.8083 978.327 65.9244 978.327 63.7898C978.327 61.6548 977.825 59.7709 976.945 58.1382C976.064 56.5055 974.876 55.2498 973.369 54.3709C971.862 53.4917 970.29 52.9894 968.659 52.9894C966.963 52.9894 965.392 53.4917 963.885 54.3709C962.378 55.2498 961.184 56.5055 960.304 58.1382C959.429 59.7709 958.986 61.6548 958.986 63.7898C958.986 65.9244 959.429 67.8083 960.304 69.441C961.184 71.0737 962.378 72.3921 963.885 73.2714C965.392 74.1507 966.963 74.5898 968.659 74.5898C970.29 74.5898 971.862 74.1507 973.369 73.2714Z" fill="white"/>
<path d="M522.599 120.258H512.991L540.336 0H549.945L522.599 120.258Z" fill="#202124"/>
</g>
<defs>
<clipPath id="clip0_727_302">
<rect width="1012.9" height="200" fill="white"/>
</clipPath>
</defs>
</svg>
