<svg width="560" height="36" viewBox="0 0 560 36" fill="none" xmlns="http://www.w3.org/2000/svg">
<path d="M477.194 4.18201H480.004V14.542H492.364V4.18201H495.174V28.102H492.364V17.212H480.004V28.102H477.194V4.18201Z" fill="#666C73"/>
<path d="M501.544 27.902C500.564 27.412 499.804 26.742 499.274 25.882C498.744 25.022 498.474 24.052 498.474 22.962C498.474 21.162 499.154 19.752 500.514 18.732C501.874 17.722 503.584 17.212 505.664 17.212C506.684 17.212 507.644 17.322 508.524 17.542C509.404 17.762 510.074 18.022 510.544 18.312V17.272C510.544 16.002 510.094 14.982 509.204 14.212C508.314 13.442 507.184 13.062 505.834 13.062C504.874 13.062 503.994 13.272 503.194 13.682C502.394 14.092 501.754 14.672 501.294 15.402L499.154 13.802C499.824 12.782 500.744 11.972 501.914 11.392C503.084 10.812 504.384 10.522 505.804 10.522C508.124 10.522 509.944 11.132 511.264 12.342C512.594 13.552 513.254 15.212 513.254 17.302V28.092H510.544V25.652H510.414C509.924 26.472 509.184 27.182 508.204 27.762C507.224 28.342 506.124 28.632 504.894 28.632C503.644 28.642 502.524 28.392 501.544 27.902ZM507.834 25.402C508.654 24.912 509.314 24.252 509.804 23.432C510.294 22.612 510.544 21.702 510.544 20.722C510.014 20.362 509.354 20.072 508.574 19.852C507.794 19.632 506.974 19.522 506.104 19.522C504.544 19.522 503.374 19.842 502.574 20.492C501.784 21.142 501.384 21.972 501.384 23.002C501.384 23.942 501.744 24.692 502.454 25.272C503.164 25.852 504.064 26.142 505.164 26.142C506.114 26.132 507.004 25.892 507.834 25.402Z" fill="#666C73"/>
<path d="M517.184 11.062H519.894V13.572H520.024C520.494 12.722 521.234 12.012 522.264 11.412C523.284 10.822 524.384 10.522 525.534 10.522C527.584 10.522 529.144 11.122 530.224 12.312C531.304 13.502 531.844 15.122 531.844 17.172V28.102H529.004V17.612C529.004 16.032 528.624 14.882 527.864 14.172C527.104 13.462 526.074 13.102 524.754 13.102C523.844 13.102 523.024 13.362 522.294 13.872C521.574 14.382 521.004 15.062 520.604 15.892C520.204 16.732 520.004 17.602 520.004 18.512V28.102H517.164V11.062H517.184Z" fill="#666C73"/>
<path d="M539.274 27.432C537.934 26.632 536.894 25.542 536.154 24.162C535.404 22.782 535.034 21.252 535.034 19.582C535.034 17.912 535.404 16.382 536.154 15.002C536.904 13.622 537.944 12.532 539.274 11.732C540.614 10.932 542.114 10.532 543.784 10.532C545.454 10.532 546.954 10.932 548.294 11.732C549.634 12.532 550.674 13.622 551.414 15.002C552.164 16.382 552.534 17.912 552.534 19.582C552.534 21.252 552.164 22.782 551.414 24.162C550.664 25.542 549.624 26.632 548.294 27.432C546.964 28.232 545.454 28.632 543.784 28.632C542.114 28.632 540.604 28.242 539.274 27.432ZM546.704 25.282C547.604 24.762 548.334 24.012 548.874 23.022C549.424 22.042 549.694 20.892 549.694 19.582C549.694 18.272 549.424 17.122 548.874 16.142C548.324 15.162 547.604 14.412 546.704 13.882C545.804 13.362 544.824 13.092 543.784 13.092C542.734 13.092 541.754 13.352 540.844 13.882C539.934 14.402 539.204 15.162 538.654 16.142C538.104 17.122 537.834 18.272 537.834 19.582C537.834 20.892 538.104 22.042 538.654 23.022C539.204 24.002 539.924 24.752 540.844 25.282C541.754 25.802 542.734 26.072 543.784 26.072C544.834 26.062 545.804 25.802 546.704 25.282Z" fill="#666C73"/>
<path d="M555.744 7.32202C555.344 6.92202 555.144 6.44202 555.144 5.88202C555.144 5.32202 555.344 4.85202 555.744 4.46202C556.144 4.07202 556.624 3.88202 557.184 3.88202C557.744 3.88202 558.224 4.08202 558.624 4.46202C559.024 4.85202 559.224 5.32202 559.224 5.88202C559.224 6.44202 559.024 6.92202 558.644 7.32202C558.254 7.72202 557.774 7.92202 557.194 7.92202C556.624 7.92202 556.144 7.72202 555.744 7.32202ZM555.784 11.062H558.594V28.102H555.784V11.062Z" fill="#666C73"/>
<path d="M88.1042 26.882C86.1742 25.772 84.6542 24.252 83.5342 22.312C82.4142 20.372 81.8542 18.222 81.8542 15.882C81.8542 13.542 82.4142 11.392 83.5342 9.44201C84.6542 7.50201 86.1742 5.97201 88.1042 4.87201C90.0342 3.76201 92.1442 3.21201 94.4242 3.21201C96.2042 3.21201 97.8842 3.53201 99.4542 4.16201C101.024 4.79201 102.314 5.68201 103.334 6.84201L101.264 8.91201C100.494 7.96201 99.5042 7.23201 98.3042 6.73201C97.0942 6.22201 95.8042 5.97201 94.4242 5.97201C92.7342 5.97201 91.1442 6.38201 89.6642 7.21201C88.1842 8.03201 87.0042 9.20201 86.1042 10.702C85.2142 12.202 84.7642 13.932 84.7642 15.902C84.7642 17.862 85.2142 19.602 86.1042 21.102C86.9942 22.602 88.1842 23.772 89.6642 24.592C91.1442 25.412 92.7242 25.832 94.4242 25.832C96.0542 25.832 97.4142 25.582 98.5042 25.072C99.5942 24.562 100.554 23.892 101.364 23.052C101.954 22.422 102.424 21.652 102.784 20.752C103.144 19.852 103.364 18.862 103.424 17.802H94.4842V15.092H106.134C106.244 15.722 106.304 16.312 106.304 16.852C106.304 18.342 106.064 19.792 105.594 21.202C105.124 22.612 104.364 23.852 103.324 24.912C101.044 27.332 98.0742 28.532 94.4142 28.532C92.1342 28.542 90.0342 27.992 88.1042 26.882Z" fill="#666C73"/>
<path d="M112.634 27.372C111.324 26.592 110.304 25.522 109.564 24.152C108.834 22.782 108.464 21.272 108.464 19.602C108.464 17.932 108.834 16.412 109.564 15.042C110.294 13.672 111.324 12.602 112.634 11.822C113.944 11.042 115.424 10.652 117.074 10.652C118.724 10.652 120.204 11.042 121.524 11.822C122.844 12.602 123.874 13.672 124.604 15.042C125.334 16.412 125.704 17.922 125.704 19.602C125.704 21.272 125.334 22.792 124.604 24.152C123.874 25.522 122.844 26.592 121.524 27.372C120.204 28.152 118.714 28.542 117.074 28.542C115.434 28.542 113.944 28.152 112.634 27.372ZM119.914 25.152C120.794 24.632 121.504 23.892 122.034 22.932C122.564 21.972 122.834 20.862 122.834 19.602C122.834 18.332 122.564 17.222 122.034 16.262C121.504 15.302 120.794 14.562 119.914 14.042C119.034 13.522 118.084 13.262 117.074 13.262C116.084 13.262 115.144 13.522 114.264 14.042C113.384 14.562 112.674 15.302 112.144 16.262C111.614 17.222 111.344 18.332 111.344 19.602C111.344 20.862 111.604 21.982 112.144 22.932C112.674 23.892 113.384 24.632 114.264 25.152C115.144 25.672 116.084 25.932 117.074 25.932C118.084 25.932 119.034 25.672 119.914 25.152Z" fill="#666C73"/>
<path d="M131.834 27.372C130.524 26.592 129.504 25.522 128.764 24.152C128.034 22.782 127.664 21.272 127.664 19.602C127.664 17.932 128.034 16.412 128.764 15.042C129.494 13.672 130.524 12.602 131.834 11.822C133.144 11.042 134.624 10.652 136.274 10.652C137.924 10.652 139.404 11.042 140.724 11.822C142.044 12.602 143.074 13.672 143.804 15.042C144.534 16.412 144.904 17.922 144.904 19.602C144.904 21.272 144.534 22.792 143.804 24.152C143.074 25.522 142.044 26.592 140.724 27.372C139.404 28.152 137.914 28.542 136.274 28.542C134.624 28.542 133.144 28.152 131.834 27.372ZM139.124 25.152C140.004 24.632 140.714 23.892 141.244 22.932C141.774 21.972 142.044 20.862 142.044 19.602C142.044 18.332 141.774 17.222 141.244 16.262C140.714 15.302 140.004 14.562 139.124 14.042C138.244 13.522 137.294 13.262 136.284 13.262C135.294 13.262 134.354 13.522 133.474 14.042C132.594 14.562 131.884 15.302 131.354 16.262C130.824 17.222 130.554 18.332 130.554 19.602C130.554 20.862 130.814 21.982 131.354 22.932C131.884 23.892 132.594 24.632 133.474 25.152C134.354 25.672 135.294 25.932 136.284 25.932C137.294 25.932 138.234 25.672 139.124 25.152Z" fill="#666C73"/>
<path d="M150.224 34.402C148.934 33.432 148.064 32.302 147.614 31.012L150.294 29.892C150.634 30.882 151.234 31.692 152.104 32.312C152.974 32.932 154.004 33.242 155.204 33.242C156.984 33.242 158.364 32.722 159.324 31.692C160.284 30.652 160.764 29.212 160.764 27.352V25.552H160.624C160.084 26.412 159.304 27.122 158.284 27.682C157.264 28.242 156.114 28.532 154.834 28.532C153.414 28.532 152.094 28.152 150.874 27.382C149.654 26.612 148.684 25.542 147.964 24.182C147.244 22.822 146.884 21.292 146.884 19.592C146.884 17.892 147.244 16.362 147.964 15.002C148.684 13.642 149.654 12.572 150.874 11.802C152.094 11.032 153.414 10.642 154.834 10.642C156.124 10.642 157.274 10.922 158.284 11.492C159.304 12.062 160.084 12.772 160.624 13.622H160.764V11.182H163.504V27.302C163.504 29.152 163.144 30.722 162.424 32.012C161.704 33.302 160.714 34.262 159.464 34.892C158.214 35.522 156.794 35.842 155.214 35.842C153.174 35.852 151.514 35.372 150.224 34.402ZM158.014 25.172C158.854 24.662 159.524 23.932 160.024 22.972C160.534 22.022 160.784 20.892 160.784 19.602C160.784 18.312 160.534 17.182 160.024 16.212C159.514 15.242 158.844 14.512 158.014 14.012C157.174 13.512 156.264 13.262 155.274 13.262C154.284 13.262 153.364 13.522 152.534 14.032C151.694 14.542 151.024 15.272 150.524 16.232C150.014 17.182 149.764 18.312 149.764 19.602C149.764 20.892 150.014 22.022 150.524 22.972C151.034 23.922 151.704 24.662 152.534 25.172C153.374 25.682 154.284 25.942 155.274 25.942C156.264 25.942 157.184 25.682 158.014 25.172Z" fill="#666C73"/>
<path d="M166.954 3.75201H169.834V28.002H166.954V3.75201Z" fill="#666C73"/>
<path d="M176.554 27.392C175.274 26.622 174.284 25.562 173.554 24.212C172.834 22.852 172.474 21.322 172.474 19.602C172.474 17.972 172.814 16.482 173.494 15.112C174.174 13.742 175.134 12.662 176.394 11.862C177.644 11.062 179.084 10.662 180.714 10.662C182.334 10.662 183.764 11.032 184.994 11.762C186.224 12.492 187.164 13.532 187.824 14.862C188.474 16.192 188.804 17.732 188.804 19.472C188.804 19.792 188.784 20.012 188.734 20.152H175.394C175.434 21.422 175.744 22.482 176.304 23.352C176.864 24.222 177.574 24.872 178.424 25.302C179.274 25.732 180.144 25.942 181.044 25.942C183.164 25.942 184.804 24.902 185.954 22.832L188.494 24.052C187.774 25.402 186.774 26.492 185.494 27.322C184.214 28.142 182.684 28.562 180.904 28.562C179.284 28.542 177.834 28.152 176.554 27.392ZM185.754 17.742C185.704 17.062 185.514 16.382 185.174 15.712C184.834 15.032 184.284 14.462 183.534 13.982C182.774 13.512 181.814 13.272 180.634 13.272C179.374 13.272 178.274 13.682 177.344 14.492C176.414 15.302 175.834 16.392 175.584 17.742H185.754Z" fill="#666C73"/>
<path d="M199.804 3.75201H207.154C209.634 3.75201 211.804 4.26202 213.654 5.29202C215.504 6.32202 216.924 7.75201 217.924 9.57201C218.914 11.402 219.414 13.502 219.414 15.872C219.414 18.242 218.914 20.342 217.924 22.172C216.934 24.002 215.504 25.432 213.654 26.452C211.804 27.482 209.634 27.992 207.154 27.992H199.804V3.75201ZM207.154 25.252C210.024 25.252 212.294 24.432 213.964 22.782C215.634 21.132 216.474 18.832 216.474 15.872C216.474 12.912 215.634 10.612 213.964 8.96201C212.294 7.31201 210.024 6.49201 207.154 6.49201H202.684V25.252H207.154Z" fill="#666C73"/>
<path d="M225.934 27.392C224.654 26.622 223.664 25.562 222.934 24.212C222.214 22.852 221.854 21.322 221.854 19.602C221.854 17.972 222.194 16.482 222.874 15.112C223.554 13.742 224.514 12.662 225.774 11.862C227.024 11.062 228.464 10.662 230.094 10.662C231.714 10.662 233.144 11.032 234.374 11.762C235.604 12.492 236.544 13.532 237.204 14.862C237.854 16.192 238.184 17.732 238.184 19.472C238.184 19.792 238.164 20.012 238.114 20.152H224.774C224.814 21.422 225.124 22.482 225.684 23.352C226.244 24.222 226.954 24.872 227.804 25.302C228.654 25.732 229.524 25.942 230.424 25.942C232.544 25.942 234.184 24.902 235.334 22.832L237.874 24.052C237.154 25.402 236.154 26.492 234.874 27.322C233.594 28.142 232.064 28.562 230.284 28.562C228.664 28.542 227.214 28.152 225.934 27.392ZM235.134 17.742C235.084 17.062 234.894 16.382 234.554 15.712C234.214 15.032 233.664 14.462 232.914 13.982C232.154 13.512 231.194 13.272 230.014 13.272C228.754 13.272 227.654 13.682 226.724 14.492C225.794 15.302 225.214 16.392 224.964 17.742H235.134Z" fill="#666C73"/>
<path d="M238.854 11.202H241.974L247.124 24.612H247.194L252.414 11.202H255.464L248.584 28.002H245.674L238.854 11.202Z" fill="#666C73"/>
<path d="M260.714 27.392C259.434 26.622 258.444 25.562 257.714 24.212C256.994 22.852 256.634 21.322 256.634 19.602C256.634 17.972 256.974 16.482 257.654 15.112C258.334 13.742 259.294 12.662 260.554 11.862C261.804 11.062 263.244 10.662 264.874 10.662C266.494 10.662 267.924 11.032 269.154 11.762C270.384 12.492 271.324 13.532 271.984 14.862C272.634 16.192 272.964 17.732 272.964 19.472C272.964 19.792 272.944 20.012 272.894 20.152H259.544C259.584 21.422 259.894 22.482 260.454 23.352C261.014 24.222 261.724 24.872 262.574 25.302C263.424 25.732 264.294 25.942 265.194 25.942C267.314 25.942 268.954 24.902 270.104 22.832L272.644 24.052C271.924 25.402 270.924 26.492 269.644 27.322C268.364 28.142 266.834 28.562 265.054 28.562C263.444 28.542 261.994 28.152 260.714 27.392ZM269.914 17.742C269.864 17.062 269.674 16.382 269.334 15.712C268.994 15.032 268.444 14.462 267.694 13.982C266.934 13.512 265.974 13.272 264.794 13.272C263.534 13.272 262.434 13.682 261.504 14.492C260.574 15.302 259.994 16.392 259.744 17.742H269.914Z" fill="#666C73"/>
<path d="M275.874 3.75201H278.754V28.002H275.874V3.75201Z" fill="#666C73"/>
<path d="M285.654 27.372C284.344 26.592 283.324 25.522 282.584 24.152C281.854 22.782 281.484 21.272 281.484 19.602C281.484 17.932 281.854 16.412 282.584 15.042C283.314 13.672 284.344 12.602 285.654 11.822C286.964 11.042 288.444 10.652 290.094 10.652C291.744 10.652 293.224 11.042 294.544 11.822C295.864 12.602 296.894 13.672 297.624 15.042C298.354 16.412 298.724 17.922 298.724 19.602C298.724 21.272 298.354 22.792 297.624 24.152C296.894 25.522 295.864 26.592 294.544 27.372C293.224 28.152 291.734 28.542 290.094 28.542C288.454 28.542 286.964 28.152 285.654 27.372ZM292.944 25.152C293.824 24.632 294.534 23.892 295.064 22.932C295.594 21.972 295.864 20.862 295.864 19.602C295.864 18.332 295.594 17.222 295.064 16.262C294.534 15.302 293.824 14.562 292.944 14.042C292.064 13.522 291.114 13.262 290.104 13.262C289.114 13.262 288.174 13.522 287.294 14.042C286.414 14.562 285.704 15.302 285.174 16.262C284.644 17.222 284.374 18.332 284.374 19.602C284.374 20.862 284.634 21.982 285.174 22.932C285.704 23.892 286.414 24.632 287.294 25.152C288.174 25.672 289.114 25.932 290.104 25.932C291.114 25.932 292.054 25.672 292.944 25.152Z" fill="#666C73"/>
<path d="M301.334 11.202H304.074V13.672H304.214C304.754 12.812 305.534 12.092 306.554 11.522C307.574 10.942 308.744 10.662 310.074 10.662C311.514 10.662 312.854 11.052 314.074 11.832C315.294 12.612 316.264 13.682 316.984 15.032C317.704 16.382 318.064 17.912 318.064 19.602C318.064 21.292 317.704 22.822 316.984 24.172C316.264 25.522 315.294 26.592 314.074 27.372C312.854 28.152 311.524 28.542 310.074 28.542C308.744 28.542 307.564 28.252 306.534 27.682C305.504 27.102 304.734 26.382 304.214 25.502H304.074L304.214 27.842V35.322H301.334V11.202ZM312.394 25.152C313.244 24.632 313.914 23.892 314.424 22.932C314.934 21.972 315.184 20.862 315.184 19.602C315.184 18.332 314.934 17.222 314.424 16.262C313.914 15.302 313.234 14.562 312.394 14.042C311.544 13.522 310.624 13.262 309.634 13.262C308.644 13.262 307.724 13.512 306.874 14.022C306.024 14.532 305.354 15.262 304.844 16.222C304.334 17.182 304.084 18.302 304.084 19.592C304.084 20.852 304.334 21.972 304.844 22.942C305.354 23.912 306.034 24.652 306.874 25.162C307.724 25.672 308.644 25.922 309.634 25.922C310.624 25.932 311.554 25.672 312.394 25.152Z" fill="#666C73"/>
<path d="M324.794 27.392C323.514 26.622 322.524 25.562 321.794 24.212C321.074 22.852 320.714 21.322 320.714 19.602C320.714 17.972 321.054 16.482 321.734 15.112C322.414 13.742 323.374 12.662 324.634 11.862C325.884 11.062 327.324 10.662 328.954 10.662C330.574 10.662 332.004 11.032 333.234 11.762C334.464 12.492 335.404 13.532 336.064 14.862C336.714 16.192 337.044 17.732 337.044 19.472C337.044 19.792 337.024 20.012 336.974 20.152H323.634C323.674 21.422 323.984 22.482 324.544 23.352C325.104 24.222 325.814 24.872 326.664 25.302C327.514 25.732 328.384 25.942 329.284 25.942C331.404 25.942 333.044 24.902 334.194 22.832L336.734 24.052C336.014 25.402 335.014 26.492 333.734 27.322C332.454 28.142 330.924 28.562 329.144 28.562C327.514 28.542 326.064 28.152 324.794 27.392ZM333.984 17.742C333.934 17.062 333.744 16.382 333.404 15.712C333.064 15.032 332.514 14.462 331.764 13.982C331.004 13.512 330.044 13.272 328.864 13.272C327.604 13.272 326.504 13.682 325.574 14.492C324.644 15.302 324.064 16.392 323.814 17.742H333.984Z" fill="#666C73"/>
<path d="M339.944 11.202H342.684V13.942H342.814C343.134 13.022 343.784 12.242 344.764 11.602C345.744 10.972 346.724 10.652 347.694 10.652C348.394 10.652 349.044 10.762 349.654 10.992V14.072C349.044 13.732 348.254 13.562 347.284 13.562C346.494 13.562 345.754 13.792 345.064 14.262C344.374 14.732 343.824 15.342 343.424 16.112C343.014 16.882 342.814 17.722 342.814 18.622V27.992H339.934V11.202H339.944Z" fill="#666C73"/>
<path d="M364.484 26.882C362.554 25.772 361.034 24.252 359.914 22.312C358.794 20.372 358.234 18.222 358.234 15.882C358.234 13.542 358.794 11.392 359.914 9.44201C361.034 7.50201 362.554 5.97201 364.484 4.87201C366.414 3.76201 368.524 3.21201 370.804 3.21201C372.584 3.21201 374.264 3.53201 375.834 4.16201C377.404 4.79201 378.694 5.68201 379.714 6.84201L377.644 8.91201C376.874 7.96201 375.884 7.23201 374.684 6.73201C373.474 6.22201 372.184 5.97201 370.804 5.97201C369.114 5.97201 367.524 6.38201 366.044 7.21201C364.564 8.03201 363.384 9.20201 362.484 10.702C361.594 12.202 361.144 13.932 361.144 15.902C361.144 17.862 361.594 19.602 362.484 21.102C363.374 22.602 364.564 23.772 366.044 24.592C367.524 25.412 369.104 25.832 370.804 25.832C372.434 25.832 373.794 25.582 374.884 25.072C375.974 24.562 376.934 23.892 377.744 23.052C378.334 22.422 378.804 21.652 379.164 20.752C379.524 19.852 379.744 18.862 379.804 17.802H370.864V15.092H382.514C382.624 15.722 382.684 16.312 382.684 16.852C382.684 18.342 382.444 19.792 381.974 21.202C381.504 22.612 380.744 23.852 379.704 24.912C377.424 27.332 374.454 28.532 370.794 28.532C368.514 28.542 366.414 27.992 364.484 26.882Z" fill="#666C73"/>
<path d="M385.964 11.202H388.704V13.942H388.844C389.164 13.022 389.814 12.242 390.794 11.602C391.774 10.972 392.754 10.652 393.724 10.652C394.424 10.652 395.074 10.762 395.684 10.992V14.072C395.074 13.732 394.284 13.562 393.314 13.562C392.524 13.562 391.784 13.792 391.094 14.262C390.404 14.732 389.854 15.342 389.454 16.112C389.044 16.882 388.844 17.722 388.844 18.622V27.992H385.964V11.202Z" fill="#666C73"/>
<path d="M400.224 27.372C398.914 26.592 397.894 25.522 397.154 24.152C396.424 22.782 396.054 21.272 396.054 19.602C396.054 17.932 396.424 16.412 397.154 15.042C397.884 13.672 398.914 12.602 400.224 11.822C401.534 11.042 403.014 10.652 404.664 10.652C406.314 10.652 407.794 11.042 409.114 11.822C410.434 12.602 411.464 13.672 412.194 15.042C412.924 16.412 413.294 17.922 413.294 19.602C413.294 21.272 412.924 22.792 412.194 24.152C411.464 25.522 410.434 26.592 409.114 27.372C407.794 28.152 406.304 28.542 404.664 28.542C403.014 28.542 401.534 28.152 400.224 27.372ZM407.504 25.152C408.384 24.632 409.094 23.892 409.624 22.932C410.154 21.972 410.424 20.862 410.424 19.602C410.424 18.332 410.154 17.222 409.624 16.262C409.094 15.302 408.384 14.562 407.504 14.042C406.624 13.522 405.674 13.262 404.664 13.262C403.674 13.262 402.734 13.522 401.854 14.042C400.974 14.562 400.264 15.302 399.734 16.262C399.204 17.222 398.934 18.332 398.934 19.602C398.934 20.862 399.194 21.982 399.734 22.932C400.264 23.892 400.974 24.632 401.854 25.152C402.734 25.672 403.674 25.932 404.664 25.932C405.674 25.932 406.624 25.672 407.504 25.152Z" fill="#666C73"/>
<path d="M417.514 26.742C416.444 25.542 415.904 23.892 415.904 21.762V11.202H418.784V21.292C418.784 24.382 420.174 25.932 422.954 25.932C423.884 25.932 424.704 25.672 425.444 25.152C426.174 24.632 426.744 23.952 427.134 23.122C427.524 22.292 427.724 21.412 427.724 20.482V11.202H430.564V28.002H427.854V25.492H427.714C427.214 26.352 426.464 27.072 425.464 27.662C424.454 28.252 423.384 28.542 422.234 28.542C420.164 28.542 418.584 27.942 417.514 26.742Z" fill="#666C73"/>
<path d="M434.334 11.202H437.074V13.672H437.214C437.754 12.812 438.534 12.092 439.554 11.522C440.574 10.942 441.744 10.662 443.074 10.662C444.514 10.662 445.854 11.052 447.074 11.832C448.294 12.612 449.264 13.682 449.984 15.032C450.704 16.382 451.064 17.912 451.064 19.602C451.064 21.292 450.704 22.822 449.984 24.172C449.264 25.522 448.294 26.592 447.074 27.372C445.854 28.152 444.524 28.542 443.074 28.542C441.744 28.542 440.564 28.252 439.534 27.682C438.504 27.102 437.734 26.382 437.214 25.502H437.074L437.214 27.842V35.322H434.334V11.202ZM445.384 25.152C446.234 24.632 446.904 23.892 447.414 22.932C447.924 21.972 448.174 20.862 448.174 19.602C448.174 18.332 447.924 17.222 447.414 16.262C446.904 15.302 446.224 14.562 445.384 14.042C444.534 13.522 443.614 13.262 442.624 13.262C441.634 13.262 440.714 13.512 439.864 14.022C439.014 14.532 438.344 15.262 437.834 16.222C437.324 17.182 437.074 18.302 437.074 19.592C437.074 20.852 437.324 21.972 437.834 22.942C438.344 23.912 439.024 24.652 439.864 25.162C440.714 25.672 441.634 25.922 442.624 25.922C443.624 25.932 444.544 25.672 445.384 25.152Z" fill="#666C73"/>
<path d="M455.194 27.182C453.954 26.282 453.084 25.162 452.584 23.832L455.124 22.712C455.574 23.772 456.214 24.582 457.034 25.152C457.854 25.712 458.754 26.002 459.724 26.002C460.804 26.002 461.704 25.762 462.414 25.292C463.124 24.822 463.484 24.242 463.484 23.562C463.484 22.912 463.214 22.362 462.684 21.932C462.154 21.502 461.244 21.132 459.954 20.812L457.654 20.232C456.394 19.942 455.314 19.412 454.424 18.642C453.534 17.872 453.084 16.862 453.084 15.592C453.084 14.552 453.384 13.662 453.984 12.912C454.584 12.162 455.374 11.602 456.374 11.222C457.364 10.842 458.454 10.642 459.624 10.642C461.064 10.642 462.384 10.972 463.564 11.642C464.754 12.302 465.594 13.252 466.084 14.472L463.544 15.552C463.184 14.742 462.634 14.142 461.904 13.752C461.174 13.372 460.354 13.182 459.444 13.182C458.564 13.182 457.764 13.392 457.054 13.822C456.344 14.252 455.984 14.802 455.984 15.482C455.984 16.072 456.214 16.532 456.674 16.872C457.134 17.212 457.874 17.512 458.894 17.782L461.404 18.392C463.074 18.822 464.324 19.462 465.144 20.302C465.964 21.152 466.384 22.162 466.384 23.332C466.384 24.302 466.104 25.182 465.534 25.972C464.964 26.762 464.184 27.382 463.164 27.832C462.144 28.282 460.994 28.512 459.714 28.512C457.944 28.542 456.434 28.092 455.194 27.182Z" fill="#666C73"/>
<path d="M15.9142 16.242L26.7742 9.97201C29.3242 8.50201 30.2042 5.23201 28.7342 2.67201C27.2542 0.122009 23.9942 -0.757991 21.4342 0.712009L2.67419 11.552L15.9142 16.242Z" fill="#FF281F"/>
<path d="M24.0942 32.352C25.9442 32.352 27.7342 31.392 28.7242 29.682C30.2042 27.132 29.3242 23.862 26.7642 22.382L8.01419 11.552C5.46419 10.072 2.19419 10.952 0.714186 13.512C-0.755814 16.062 0.114185 19.332 2.67419 20.812L21.4342 31.642C22.2742 32.122 23.1842 32.352 24.0942 32.352Z" fill="#0080FC"/>
<path d="M42.7542 32.352C43.6642 32.352 44.5742 32.122 45.4242 31.632L64.1842 20.802L51.1042 16.012L40.0842 22.372C37.5342 23.842 36.6542 27.112 38.1242 29.672C39.1142 31.392 40.9042 32.352 42.7542 32.352Z" fill="#FFB800"/>
<path d="M61.5042 21.522C63.3542 21.522 65.1442 20.562 66.1342 18.852C67.6142 16.302 66.7342 13.032 64.1742 11.552L45.4142 0.721998C42.8642 -0.748002 39.5942 0.121998 38.1142 2.682C36.6342 5.232 37.5142 8.502 40.0742 9.982L58.8342 20.812C59.6742 21.292 60.5942 21.522 61.5042 21.522Z" fill="#009E49"/>
</svg>
