<svg width="510" height="101" viewBox="0 0 510 101" fill="none" xmlns="http://www.w3.org/2000/svg">
<path d="M182.053 70.681H185.209V79.1983H194.787V70.681H197.887V91.1504H194.787V82.1584H185.209V91.1504H182.053V70.681ZM203.361 90.9829C202.486 90.5361 201.843 89.9589 201.434 89.2515C200.987 88.5068 200.763 87.6597 200.763 86.7103C200.763 85.6863 201.024 84.8206 201.545 84.1132C202.104 83.3685 202.83 82.8007 203.724 82.4097C204.636 82.0188 205.66 81.8233 206.795 81.8233C207.633 81.8233 208.406 81.9071 209.113 82.0746C209.877 82.2608 210.435 82.447 210.789 82.6331V81.8512C210.789 80.9204 210.444 80.1664 209.755 79.5893C209.067 79.0121 208.182 78.7236 207.103 78.7236C206.321 78.7236 205.613 78.8818 204.98 79.1983C204.329 79.5148 203.798 79.9709 203.388 80.5667L201.266 78.947C201.918 78.0534 202.756 77.3552 203.779 76.8526C204.803 76.3499 205.939 76.0986 207.186 76.0986C209.29 76.0986 210.919 76.6199 212.073 77.6624C213.228 78.705 213.805 80.1571 213.805 82.0188V91.1504H210.789V89.3353H210.621C210.174 90.0055 209.579 90.5454 208.834 90.9549C208.033 91.3831 207.14 91.5972 206.153 91.5972C205.092 91.5972 204.161 91.3924 203.361 90.9829ZM208.806 88.5254C209.402 88.1903 209.886 87.697 210.258 87.0454C210.612 86.4124 210.789 85.7329 210.789 85.0068C210.323 84.7089 209.802 84.4948 209.225 84.3645C208.592 84.2156 207.968 84.1411 207.354 84.1411C206.181 84.1411 205.306 84.3831 204.729 84.8672C204.152 85.3512 203.863 85.9749 203.863 86.7382C203.863 87.4084 204.124 87.9762 204.645 88.4416C205.129 88.8698 205.818 89.0839 206.712 89.0839C207.456 89.0839 208.154 88.8978 208.806 88.5254ZM217.212 76.5733H220.116V78.556H220.283C220.693 77.83 221.326 77.2435 222.182 76.7967C223.057 76.3313 223.96 76.0986 224.891 76.0986C226.622 76.0986 227.954 76.6199 228.884 77.6624C229.797 78.6863 230.253 80.1105 230.253 81.935V91.1504H227.209V82.3539C227.209 81.2183 226.92 80.3619 226.343 79.7847C225.785 79.2262 225.003 78.947 223.997 78.947C223.271 78.947 222.629 79.1425 222.071 79.5334C221.512 79.9244 221.075 80.4643 220.758 81.1531C220.442 81.8419 220.283 82.5587 220.283 83.3034V91.1504H217.212V76.5733ZM236.676 90.5919C235.54 89.9403 234.637 89.0095 233.967 87.7994C233.315 86.6079 232.99 85.2954 232.99 83.8619C232.99 82.4284 233.315 81.1159 233.967 79.9244C234.637 78.7143 235.54 77.7834 236.676 77.1318C237.886 76.443 239.198 76.0986 240.613 76.0986C242.084 76.0986 243.396 76.443 244.551 77.1318C245.705 77.8207 246.608 78.7608 247.259 79.9523C247.911 81.1438 248.237 82.447 248.237 83.8619C248.237 85.2954 247.911 86.6079 247.259 87.7994C246.608 88.9909 245.705 89.9217 244.551 90.5919C243.415 91.2621 242.103 91.5972 240.613 91.5972C239.161 91.5972 237.849 91.2621 236.676 90.5919ZM242.875 88.1903C243.564 87.7994 244.122 87.2222 244.551 86.4589C244.96 85.7143 245.165 84.8486 245.165 83.8619C245.165 82.8752 244.96 82.0095 244.551 81.2648C244.122 80.5015 243.564 79.9244 242.875 79.5334C242.186 79.1425 241.432 78.947 240.613 78.947C239.794 78.947 239.04 79.1425 238.351 79.5334C237.662 79.9244 237.104 80.5015 236.676 81.2648C236.247 82.0281 236.033 82.8938 236.033 83.8619C236.033 84.83 236.247 85.6956 236.676 86.4589C237.104 87.2222 237.662 87.7994 238.351 88.1903C239.04 88.5813 239.794 88.7768 240.613 88.7768C241.432 88.7768 242.186 88.5813 242.875 88.1903ZM252.537 74.4231C251.96 74.4231 251.467 74.2183 251.057 73.8087C250.648 73.3991 250.443 72.9058 250.443 72.3286C250.443 71.7515 250.648 71.2675 251.057 70.8765C251.504 70.4669 251.997 70.2622 252.537 70.2622C253.077 70.2622 253.571 70.4669 254.017 70.8765C254.427 71.2675 254.632 71.7515 254.632 72.3286C254.632 72.9058 254.427 73.3991 254.017 73.8087C253.608 74.2183 253.114 74.4231 252.537 74.4231ZM251.001 76.5733H254.073V91.1504H251.001V76.5733ZM264.126 88.2462C267.626 84.7648 270.009 82.3353 271.275 80.9576C272.15 80.064 272.727 79.3566 273.007 78.8353C273.305 78.2954 273.454 77.6438 273.454 76.8805C273.454 76.1172 273.165 75.4563 272.588 74.8978C271.992 74.3393 271.201 74.06 270.214 74.06C269.283 74.06 268.548 74.3207 268.008 74.8419C267.45 75.3632 267.059 75.9776 266.835 76.685L264.071 75.5401C264.257 74.8512 264.62 74.1717 265.16 73.5015C265.681 72.8313 266.379 72.2728 267.254 71.826C268.148 71.3606 269.153 71.1278 270.27 71.1278C271.48 71.1278 272.579 71.3885 273.565 71.9098C274.496 72.3938 275.231 73.0826 275.771 73.9762C276.311 74.8512 276.581 75.7914 276.581 76.7967C276.581 78.8446 275.539 80.9111 273.454 82.9962L270.633 85.8446L268.204 88.2741L268.231 88.3579H276.805V91.1504H264.126V88.2462ZM287.612 91.5972C285.992 91.5972 284.586 91.1504 283.395 90.2568C282.204 89.3632 281.273 88.1438 280.602 86.5986C279.932 85.0347 279.597 83.2941 279.597 81.3765C279.597 79.459 279.932 77.7183 280.602 76.1544C281.273 74.572 282.204 73.3433 283.395 72.4683C284.586 71.5747 285.992 71.1278 287.612 71.1278C289.194 71.1278 290.6 71.5747 291.829 72.4683C293.039 73.3433 293.979 74.572 294.649 76.1544C295.319 77.7183 295.654 79.459 295.654 81.3765C295.654 83.2941 295.319 85.0347 294.649 86.5986C293.979 88.1624 293.039 89.3818 291.829 90.2568C290.6 91.1504 289.194 91.5972 287.612 91.5972ZM287.612 88.693C288.617 88.693 289.492 88.3765 290.237 87.7435C290.981 87.1105 291.549 86.2355 291.94 85.1185C292.331 84.0015 292.527 82.7542 292.527 81.3765C292.527 79.9802 292.331 78.7236 291.94 77.6066C291.549 76.4895 290.981 75.6145 290.237 74.9816C289.511 74.3672 288.636 74.06 287.612 74.06C286.569 74.06 285.704 74.3672 285.015 74.9816C284.289 75.6332 283.73 76.5082 283.339 77.6066C282.948 78.7236 282.753 79.9802 282.753 81.3765C282.753 82.7542 282.948 84.0015 283.339 85.1185C283.73 86.2169 284.289 87.0919 285.015 87.7435C285.722 88.3765 286.588 88.693 287.612 88.693ZM298.14 88.2462C301.64 84.7648 304.023 82.3353 305.289 80.9576C306.164 80.064 306.741 79.3566 307.02 78.8353C307.318 78.2954 307.467 77.6438 307.467 76.8805C307.467 76.1172 307.178 75.4563 306.601 74.8978C306.005 74.3393 305.214 74.06 304.227 74.06C303.297 74.06 302.561 74.3207 302.021 74.8419C301.463 75.3632 301.072 75.9776 300.848 76.685L298.084 75.5401C298.27 74.8512 298.633 74.1717 299.173 73.5015C299.694 72.8313 300.392 72.2728 301.267 71.826C302.161 71.3606 303.166 71.1278 304.283 71.1278C305.493 71.1278 306.592 71.3885 307.578 71.9098C308.509 72.3938 309.245 73.0826 309.785 73.9762C310.324 74.8512 310.594 75.7914 310.594 76.7967C310.594 78.8446 309.552 80.9111 307.467 82.9962L304.646 85.8446L302.217 88.2741L302.245 88.3579H310.818V91.1504H298.14V88.2462ZM322.714 87.2409H313.499V84.8393L322.463 71.6026H325.758V84.3645H328.243V87.2409H325.758V91.1504H322.714V87.2409ZM322.714 84.3645V76.1265H322.547L316.961 84.3645H322.714Z" fill="#202124"/>
<path d="M0.644165 29.842C0.644165 15.372 12.7842 3.59203 27.2742 3.59203C34.0042 3.48203 40.4842 6.09202 45.2742 10.822L40.1942 15.882C36.7342 12.542 32.0942 10.702 27.2842 10.762C16.7242 10.762 8.47412 19.262 8.47412 29.842C8.47412 40.422 16.7142 48.922 27.2842 48.922C34.1342 48.922 38.0342 46.172 40.5342 43.672C42.5842 41.622 43.9242 38.672 44.4342 34.672H27.2842V27.482H51.4042C51.6742 28.962 51.8042 30.472 51.7842 31.982C51.7842 37.362 50.3142 44.012 45.5742 48.762C40.9542 53.542 35.0642 56.082 27.2742 56.082C12.7842 56.072 0.644165 44.312 0.644165 29.842Z" fill="#202124"/>
<path d="M71.2742 49.432C66.1542 49.432 61.7441 45.202 61.7441 39.192C61.7441 33.182 66.1542 28.952 71.2742 28.952C76.3942 28.952 80.8042 33.112 80.8042 39.192C80.8042 45.272 76.3842 49.442 71.2742 49.432ZM71.2742 22.292C61.9342 22.292 54.3142 29.402 54.3142 39.192C54.3142 48.982 61.9242 56.072 71.2742 56.072C80.6242 56.072 88.2341 48.902 88.2341 39.172C88.2241 29.442 80.6142 22.292 71.2742 22.292Z" fill="#202124"/>
<path d="M108.264 49.432C103.144 49.432 98.7341 45.202 98.7341 39.192C98.7341 33.182 103.144 28.952 108.264 28.952C113.384 28.952 117.794 33.112 117.794 39.192C117.794 45.272 113.384 49.442 108.264 49.432ZM108.264 22.292C98.9242 22.292 91.3042 29.402 91.3042 39.192C91.3042 48.982 98.9142 56.072 108.264 56.072C117.604 56.072 125.224 48.902 125.224 39.172C125.214 29.442 117.604 22.292 108.264 22.292Z" fill="#202124"/>
<path d="M173.244 5.39203H165.824V55.072H173.244V5.39203Z" fill="#202124"/>
<path d="M173.244 5.39203H165.824V55.072H173.244V5.39203Z" fill="#202124"/>
<path d="M193.024 28.822C195.964 28.822 198.464 30.292 199.294 32.412L184.194 38.682C183.994 32.152 189.244 28.822 193.024 28.822ZM193.594 49.442C189.824 49.442 187.134 47.712 185.404 44.322L207.994 34.972L207.234 33.062C205.824 29.282 201.544 22.312 192.774 22.312C184.004 22.312 176.844 29.162 176.844 39.212C176.844 48.682 184.014 56.112 193.614 56.112C199.274 56.142 204.564 53.322 207.694 48.612L201.934 44.772C199.994 47.572 197.374 49.442 193.594 49.442Z" fill="#202124"/>
<path d="M145.164 49.442C140.044 49.442 135.754 45.152 135.754 39.262C135.754 33.372 140.044 28.952 145.164 28.952C150.284 28.952 154.164 33.302 154.164 39.262C154.164 45.222 150.214 49.442 145.154 49.442H145.164ZM153.664 23.312V26.062H153.414C151.754 24.062 148.554 22.282 144.524 22.282C136.074 22.282 128.334 29.712 128.334 39.252C128.334 48.792 136.074 56.072 144.524 56.072C148.554 56.072 151.754 54.282 153.414 52.232H153.664V54.662C153.664 61.132 150.214 64.582 144.664 64.582C140.124 64.582 137.304 61.312 136.164 58.582L129.704 61.272C132.194 67.352 138.134 71.312 144.704 71.272C153.404 71.272 160.764 66.152 160.764 53.662V23.312H153.664Z" fill="#202124"/>
<path d="M483.974 55.932H366.544C352.344 55.932 340.834 44.422 340.834 30.222C340.834 16.022 352.344 4.51202 366.544 4.51202H483.974C498.174 4.51202 509.684 16.022 509.684 30.222C509.684 44.422 498.174 55.932 483.974 55.932Z" fill="#202124"/>
<path d="M255.114 5.31201H230.054V55.142H255.114V5.31201Z" fill="#202124"/>
<path d="M301.574 55.942C315.773 55.942 327.284 44.4313 327.284 30.232C327.284 16.0328 315.773 4.52203 301.574 4.52203C287.375 4.52203 275.864 16.0328 275.864 30.232C275.864 44.4313 287.375 55.942 301.574 55.942Z" fill="#202124"/>
<path d="M360.641 17.1829H374.326V20.45H364.124V26.8301H373.34V30.128H364.124V36.508H374.326V39.7751H360.641V17.1829ZM381.878 31.6074L376.299 23.6863H380.244L383.85 28.9876H383.943L387.395 23.6863H391.494L385.853 31.6074L391.525 39.7751H387.549L383.881 34.3197H383.788L380.213 39.7751H376.206L381.878 31.6074ZM400.525 40.0217C399.826 40.0217 399.158 39.9087 398.521 39.6827C397.884 39.4566 397.37 39.1484 396.98 38.758C396.076 37.895 395.624 36.6724 395.624 35.0902V26.6451H392.819V23.6863H395.624V19.1247H399.014V23.6863H402.959V26.6451H399.014V34.3813C399.014 35.2238 399.189 35.8402 399.538 36.2306C399.908 36.6416 400.453 36.8471 401.172 36.8471C401.521 36.8471 401.85 36.7957 402.158 36.693C402.384 36.6108 402.682 36.4567 403.052 36.2306V39.5594C402.333 39.8676 401.49 40.0217 400.525 40.0217ZM413.007 40.2683C411.425 40.2683 410.018 39.9087 408.785 39.1895C407.552 38.4703 406.576 37.4532 405.857 36.1382C405.158 34.8642 404.809 33.4053 404.809 31.7615C404.809 30.241 405.148 28.8129 405.826 27.4773C406.504 26.1417 407.459 25.0938 408.692 24.3335C409.946 23.5527 411.322 23.1623 412.822 23.1623C414.425 23.1623 415.822 23.5219 417.014 24.241C418.226 24.9808 419.131 25.9465 419.726 27.1383C420.343 28.3711 420.651 29.7889 420.651 31.3916C420.651 31.6793 420.631 32.0286 420.589 32.4396H408.138C408.302 34.0012 408.857 35.193 409.802 36.0149C410.747 36.8368 411.846 37.2477 413.1 37.2477C414.107 37.2477 414.99 37.0114 415.75 36.5388C416.511 36.0663 417.107 35.4395 417.538 34.6587L420.343 36.0149C419.603 37.3299 418.617 38.3779 417.384 39.1587C416.192 39.8984 414.733 40.2683 413.007 40.2683ZM417.261 29.8814C417.24 29.2855 417.055 28.6999 416.706 28.1246C416.377 27.5698 415.884 27.0869 415.226 26.6759C414.589 26.2855 413.798 26.0903 412.853 26.0903C411.682 26.0903 410.716 26.4294 409.956 27.1074C409.196 27.7855 408.661 28.7102 408.353 29.8814H417.261ZM423.795 23.6863H427V25.8746H427.185C427.637 25.0732 428.336 24.426 429.281 23.9328C430.247 23.4191 431.243 23.1623 432.271 23.1623C434.182 23.1623 435.651 23.7376 436.678 24.8883C437.685 26.0184 438.189 27.5903 438.189 29.604V39.7751H434.829V30.0663C434.829 28.8129 434.511 27.8677 433.874 27.2307C433.257 26.6143 432.394 26.3061 431.285 26.3061C430.483 26.3061 429.774 26.5218 429.158 26.9533C428.541 27.3848 428.059 27.9807 427.709 28.741C427.36 29.5013 427.185 30.2923 427.185 31.1143V39.7751H423.795V23.6863ZM445 39.1895C443.829 38.4498 442.904 37.4327 442.226 36.1382C441.548 34.8437 441.209 33.3745 441.209 31.7307C441.209 30.0869 441.548 28.6177 442.226 27.3232C442.904 26.0287 443.829 25.0116 445 24.2719C446.171 23.5321 447.486 23.1623 448.945 23.1623C450.137 23.1623 451.175 23.4191 452.058 23.9328C453.003 24.4876 453.692 25.1246 454.123 25.8438H454.308L454.123 23.6246V17.1829H457.483V39.7751H454.308V37.6176H454.123C453.692 38.3162 453.003 38.9429 452.058 39.4977C451.175 40.0114 450.137 40.2683 448.945 40.2683C447.445 40.2683 446.13 39.9087 445 39.1895ZM451.812 36.4772C452.593 35.9841 453.199 35.3471 453.63 34.5663C454.082 33.7444 454.308 32.7992 454.308 31.7307C454.308 30.6622 454.082 29.717 453.63 28.8951C453.199 28.1143 452.593 27.4773 451.812 26.9842C451.093 26.5321 450.301 26.3061 449.438 26.3061C448.575 26.3061 447.784 26.5321 447.065 26.9842C446.284 27.4773 445.678 28.1143 445.247 28.8951C444.795 29.717 444.569 30.6622 444.569 31.7307C444.569 32.7992 444.795 33.7444 445.247 34.5663C445.678 35.3471 446.284 35.9841 447.065 36.4772C447.784 36.9293 448.575 37.1553 449.438 37.1553C450.301 37.1553 451.093 36.9293 451.812 36.4772ZM468.671 40.2683C467.089 40.2683 465.681 39.9087 464.449 39.1895C463.216 38.4703 462.24 37.4532 461.52 36.1382C460.822 34.8642 460.473 33.4053 460.473 31.7615C460.473 30.241 460.812 28.8129 461.49 27.4773C462.168 26.1417 463.123 25.0938 464.356 24.3335C465.609 23.5527 466.986 23.1623 468.486 23.1623C470.089 23.1623 471.486 23.5219 472.678 24.241C473.89 24.9808 474.794 25.9465 475.39 27.1383C476.007 28.3711 476.315 29.7889 476.315 31.3916C476.315 31.6793 476.294 32.0286 476.253 32.4396H463.801C463.966 34.0012 464.52 35.193 465.466 36.0149C466.411 36.8368 467.51 37.2477 468.764 37.2477C469.77 37.2477 470.654 37.0114 471.414 36.5388C472.174 36.0663 472.77 35.4395 473.202 34.6587L476.007 36.0149C475.267 37.3299 474.281 38.3779 473.048 39.1587C471.856 39.8984 470.397 40.2683 468.671 40.2683ZM472.924 29.8814C472.904 29.2855 472.719 28.6999 472.37 28.1246C472.041 27.5698 471.548 27.0869 470.89 26.6759C470.253 26.2855 469.462 26.0903 468.517 26.0903C467.346 26.0903 466.38 26.4294 465.62 27.1074C464.859 27.7855 464.325 28.7102 464.017 29.8814H472.924ZM482.541 39.1895C481.37 38.4498 480.445 37.4327 479.767 36.1382C479.089 34.8437 478.75 33.3745 478.75 31.7307C478.75 30.0869 479.089 28.6177 479.767 27.3232C480.445 26.0287 481.37 25.0116 482.541 24.2719C483.712 23.5321 485.027 23.1623 486.486 23.1623C487.678 23.1623 488.715 23.4191 489.599 23.9328C490.544 24.4876 491.232 25.1246 491.664 25.8438H491.849L491.664 23.6246V17.1829H495.024V39.7751H491.849V37.6176H491.664C491.232 38.3162 490.544 38.9429 489.599 39.4977C488.715 40.0114 487.678 40.2683 486.486 40.2683C484.986 40.2683 483.671 39.9087 482.541 39.1895ZM489.352 36.4772C490.133 35.9841 490.739 35.3471 491.171 34.5663C491.623 33.7444 491.849 32.7992 491.849 31.7307C491.849 30.6622 491.623 29.717 491.171 28.8951C490.739 28.1143 490.133 27.4773 489.352 26.9842C488.633 26.5321 487.842 26.3061 486.979 26.3061C486.116 26.3061 485.325 26.5321 484.606 26.9842C483.825 27.4773 483.219 28.1143 482.787 28.8951C482.335 29.717 482.109 30.6622 482.109 31.7307C482.109 32.7992 482.335 33.7444 482.787 34.5663C483.219 35.3471 483.825 35.9841 484.606 36.4772C485.325 36.9293 486.116 37.1553 486.979 37.1553C487.842 37.1553 488.633 36.9293 489.352 36.4772Z" fill="white"/>
<path d="M263.324 60.452H258.494L272.234 0.00201416H277.064L263.324 60.452Z" fill="#202124"/>
</svg>
