<svg width="257" height="34" viewBox="0 0 257 34" fill="none" xmlns="http://www.w3.org/2000/svg">
<g clip-path="url(#clip0_242_96)">
<path d="M27.9344 23.5029L8.32569 12.0961C5.63783 10.572 2.23255 11.5309 0.719533 14.2365C-0.77003 16.9026 0.127227 20.2795 2.7408 21.8371L22.3495 33.24C25.0627 34.7168 28.4504 33.6988 29.9165 30.9657C31.324 28.3409 30.4541 25.0683 27.9324 23.5029H27.9344Z" fill="#80868B"/>
<path d="M67.0362 12.0958L47.4275 0.692875C44.7241 -0.799683 41.3305 0.198637 39.8488 2.92384C38.4139 5.56043 39.2936 8.86847 41.8446 10.4319L61.4533 21.8388C64.1236 23.3924 67.5386 22.4708 69.0809 19.7791C70.6233 17.0894 69.7084 13.6494 67.0362 12.0958Z" fill="#80868B"/>
<path d="M60.6752 23.1935L51.5247 17.8691L41.8445 23.5046C39.1742 25.0582 38.2594 28.4982 39.7998 31.188C41.3421 33.8777 44.7572 34.7992 47.4274 33.2476L63.191 24.0816C62.3055 23.9477 61.4532 23.6464 60.6771 23.1955L60.6752 23.1935Z" fill="#80868B"/>
<path d="M9.10177 10.7414L18.2542 16.0658L27.9344 10.4303C30.5597 8.79989 31.3768 5.33432 29.7582 2.68986C28.2041 0.151719 24.9533 -0.724519 22.3495 0.693215L6.58789 9.85926C7.47342 9.99315 8.32571 10.2925 9.10177 10.7414Z" fill="#80868B"/>
<path d="M89.7041 28.5671C87.7942 27.4585 86.2793 25.9325 85.1572 23.987C84.0332 22.0416 83.4722 19.8933 83.4722 17.5403C83.4722 15.1872 84.0332 13.039 85.1572 11.0935C86.2793 9.14808 87.7962 7.62205 89.7041 6.51346C91.612 5.40487 93.7017 4.85156 95.9692 4.85156C97.7423 4.85156 99.4097 5.16858 100.972 5.80066C102.532 6.4347 103.818 7.32669 104.828 8.48057L102.774 10.5501C102.01 9.60097 101.034 8.87044 99.8437 8.36242C98.6532 7.85243 97.3728 7.59842 96.0044 7.59842C94.2979 7.59842 92.7086 8.01193 91.2386 8.83697C89.7666 9.66201 88.5879 10.8277 87.7024 12.3321C86.8149 13.8364 86.3711 15.5732 86.3711 17.5403C86.3711 19.5074 86.8149 21.2441 87.7024 22.7485C88.5898 24.2528 89.7745 25.4185 91.2562 26.2436C92.7379 27.0686 94.3213 27.4821 96.0064 27.4821C97.6914 27.4821 98.9757 27.2281 100.065 26.7181C101.153 26.2101 102.092 25.5367 102.878 24.6998C103.462 24.0678 103.933 23.3038 104.293 22.4098C104.653 21.5158 104.877 20.5274 104.967 19.4404H96.0396V16.7605H107.628C107.739 17.3946 107.796 17.9813 107.796 18.5248C107.796 20.0174 107.559 21.4705 107.088 22.8843C106.617 24.2981 105.864 25.5367 104.83 26.6C102.608 29.02 99.6541 30.231 95.9712 30.231C93.7036 30.231 91.6139 29.6776 89.706 28.5691L89.7041 28.5671Z" fill="#80868B"/>
<path d="M112.038 5.39111H119.313C121.784 5.39111 123.938 5.90504 125.782 6.93487C127.623 7.96469 129.039 9.39424 130.026 11.2274C131.013 13.0607 131.507 15.1636 131.507 17.5383C131.507 19.913 131.013 22.018 130.026 23.8492C129.037 25.6824 127.623 27.112 125.782 28.1418C123.94 29.1716 121.784 29.6855 119.313 29.6855H112.038V5.39111ZM119.313 26.9367C122.165 26.9367 124.427 26.1117 126.1 24.4596C127.774 22.8095 128.61 20.5018 128.61 17.5383C128.61 14.5749 127.774 12.2671 126.1 10.617C124.427 8.96695 122.165 8.13994 119.313 8.13994H114.866V26.9387H119.313V26.9367Z" fill="#80868B"/>
<path d="M140.771 28.5671C138.862 27.4585 137.347 25.9325 136.225 23.987C135.101 22.0416 134.54 19.8933 134.54 17.5403C134.54 15.1872 135.101 13.039 136.225 11.0935C137.347 9.14808 138.864 7.62205 140.771 6.51346C142.679 5.40487 144.769 4.85156 147.037 4.85156C148.81 4.85156 150.477 5.16858 152.039 5.80066C153.599 6.4347 154.885 7.32669 155.896 8.48057L153.841 10.5501C153.077 9.60097 152.102 8.87044 150.911 8.36242C149.721 7.85243 148.44 7.59842 147.072 7.59842C145.365 7.59842 143.776 8.01193 142.306 8.83697C140.834 9.66201 139.655 10.8277 138.77 12.3321C137.882 13.8364 137.439 15.5732 137.439 17.5403C137.439 19.5074 137.882 21.2441 138.77 22.7485C139.657 24.2528 140.842 25.4185 142.324 26.2436C143.805 27.0686 145.389 27.4821 147.074 27.4821C148.759 27.4821 150.043 27.2281 151.132 26.7181C152.221 26.2101 153.159 25.5367 153.945 24.6998C154.529 24.0678 155.001 23.3038 155.36 22.4098C155.72 21.5158 155.945 20.5274 156.035 19.4404H147.107V16.7605H158.695C158.807 17.3946 158.863 17.9813 158.863 18.5248C158.863 20.0174 158.627 21.4705 158.156 22.8843C157.684 24.2981 156.932 25.5367 155.898 26.6C153.675 29.02 150.721 30.231 147.039 30.231C144.771 30.231 142.681 29.6776 140.773 28.5691L140.771 28.5671Z" fill="#80868B"/>
<path d="M173.548 5.39111H176.376V15.9099H188.84V5.39111H191.669V29.6855H188.84V18.6233H176.376V29.6855H173.548V5.39111Z" fill="#80868B"/>
<path d="M198.104 29.4828C197.115 28.9846 196.353 28.3014 195.813 27.4291C195.274 26.5587 195.004 25.5683 195.004 24.4597C195.004 22.6284 195.688 21.1969 197.058 20.1671C198.427 19.1373 200.157 18.6234 202.246 18.6234C203.279 18.6234 204.238 18.7376 205.126 18.962C206.013 19.1885 206.692 19.4484 207.165 19.7418V18.6903C207.165 17.4006 206.715 16.3668 205.818 15.5851C204.919 14.8053 203.785 14.4135 202.417 14.4135C201.451 14.4135 200.563 14.6222 199.756 15.0416C198.947 15.461 198.308 16.0419 197.836 16.7882L195.68 15.1598C196.355 14.1201 197.281 13.3049 198.46 12.7161C199.639 12.1274 200.947 11.834 202.383 11.834C204.719 11.834 206.555 12.4503 207.89 13.6829C209.225 14.9156 209.894 16.5952 209.894 18.7218V29.6817H207.165V27.2046H207.03C206.535 28.0414 205.794 28.7542 204.807 29.343C203.818 29.9317 202.708 30.2251 201.472 30.2251C200.237 30.2251 199.091 29.9751 198.104 29.4789V29.4828ZM204.438 26.9388C205.269 26.4406 205.931 25.7731 206.426 24.9362C206.92 24.0993 207.167 23.1837 207.167 22.1874C206.627 21.8251 205.965 21.5317 205.179 21.3052C204.393 21.0788 203.562 20.9666 202.686 20.9666C201.115 20.9666 199.93 21.2954 199.132 21.9511C198.335 22.6068 197.936 23.4555 197.936 24.4951C197.936 25.4462 198.296 26.2141 199.015 26.8029C199.733 27.3916 200.644 27.685 201.744 27.685C202.71 27.685 203.607 27.4369 204.44 26.9388H204.438Z" fill="#80868B"/>
<path d="M213.868 12.3814H216.597V14.9254H216.731C217.203 14.0669 217.955 13.3364 218.989 12.7378C220.021 12.1392 221.122 11.8379 222.291 11.8379C224.357 11.8379 225.935 12.4444 227.024 13.6534C228.112 14.8644 228.658 16.5105 228.658 18.5898V29.6856H225.794V19.0309C225.794 17.4242 225.413 16.2604 224.648 15.5358C223.884 14.8112 222.84 14.4509 221.515 14.4509C220.594 14.4509 219.769 14.7108 219.04 15.2306C218.309 15.7504 217.744 16.4357 217.339 17.2843C216.935 18.133 216.733 19.0211 216.733 19.9485V29.6875H213.87V12.3814H213.868Z" fill="#80868B"/>
<path d="M236.133 29.0082C234.786 28.193 233.736 27.0864 232.984 25.6824C232.231 24.2805 231.856 22.7308 231.856 21.0335C231.856 19.3361 232.231 17.7884 232.984 16.3845C233.736 14.9825 234.786 13.8739 236.133 13.0587C237.48 12.2435 238.997 11.8379 240.68 11.8379C242.363 11.8379 243.88 12.2455 245.227 13.0587C246.574 13.8739 247.623 14.9825 248.376 16.3845C249.129 17.7865 249.504 19.3361 249.504 21.0335C249.504 22.7308 249.127 24.2805 248.376 25.6824C247.623 27.0844 246.574 28.193 245.227 29.0082C243.88 29.8234 242.363 30.229 240.68 30.229C238.997 30.229 237.48 29.8214 236.133 29.0082ZM243.628 26.8206C244.537 26.2889 245.266 25.5249 245.817 24.5305C246.366 23.5362 246.642 22.3705 246.642 21.0354C246.642 19.7004 246.366 18.5367 245.817 17.5403C245.266 16.5459 244.537 15.7819 243.628 15.2503C242.719 14.7186 241.736 14.4528 240.68 14.4528C239.624 14.4528 238.635 14.7186 237.716 15.2503C236.796 15.7819 236.061 16.5459 235.51 17.5403C234.958 18.5367 234.685 19.7004 234.685 21.0354C234.685 22.3705 234.96 23.5362 235.51 24.5305C236.059 25.5269 236.796 26.2889 237.716 26.8206C238.637 27.3522 239.624 27.618 240.68 27.618C241.736 27.618 242.719 27.3522 243.628 26.8206Z" fill="#80868B"/>
<path d="M252.741 8.58104C252.336 8.17345 252.135 7.68708 252.135 7.12196C252.135 6.55684 252.336 6.07638 252.741 5.6806C253.145 5.28481 253.628 5.08594 254.189 5.08594C254.75 5.08594 255.233 5.28481 255.638 5.6806C256.042 6.07638 256.244 6.55684 256.244 7.12196C256.244 7.68708 256.046 8.17345 255.653 8.58104C255.261 8.98864 254.772 9.19146 254.187 9.19146C253.603 9.19146 253.143 8.98864 252.739 8.58104H252.741ZM252.774 12.3814H255.603V29.6856H252.774V12.3814Z" fill="#80868B"/>
</g>
<defs>
<clipPath id="clip0_242_96">
<rect width="256.244" height="34" fill="white"/>
</clipPath>
</defs>
</svg>
