<?xml version="1.0" encoding="utf-8"?>
<!-- Generator: Adobe Illustrator 26.0.1, SVG Export Plug-In . SVG Version: 6.00 Build 0)  -->
<svg version="1.1" id="Layer_1" xmlns="http://www.w3.org/2000/svg" xmlns:xlink="http://www.w3.org/1999/xlink" x="0px" y="0px"
	 viewBox="0 0 477 87.3" style="enable-background:new 0 0 477 87.3;" xml:space="preserve">
<style type="text/css">
	.st0{enable-background:new    ;}
	.st1{fill:#202124;}
	.st2{fill:#FFFFFF;}
</style>
<g id="EDITABLE">
	<g class="st0">
		<path class="st1" d="M173.9,67.7v8h9v-8h2.9v19.2h-2.9v-8.4h-9v8.4h-2.9V67.7H173.9z"/>
	</g>
	<g class="st0">
		<path class="st1" d="M189.5,85.1c-0.4-0.7-0.6-1.5-0.6-2.4c0-0.9,0.2-1.8,0.8-2.5c0.5-0.7,1.2-1.2,2-1.6s1.8-0.5,2.9-0.5
			c0.8,0,1.5,0.1,2.2,0.2c0.7,0.2,1.2,0.3,1.6,0.5v-0.7c0-0.9-0.3-1.6-1-2.1c-0.6-0.5-1.5-0.8-2.5-0.8c-0.7,0-1.4,0.2-2,0.5
			c-0.6,0.3-1.1,0.7-1.5,1.3l-2-1.5c0.6-0.8,1.4-1.5,2.3-2c1-0.5,2-0.7,3.2-0.7c2,0,3.5,0.5,4.6,1.5s1.6,2.3,1.6,4.1v8.5h-2.8v-1.7
			h-0.2c-0.4,0.6-1,1.1-1.7,1.5c-0.7,0.4-1.6,0.6-2.5,0.6c-1,0-1.9-0.2-2.6-0.6S189.9,85.8,189.5,85.1z M197.7,83
			c0.3-0.6,0.5-1.2,0.5-1.9c-0.4-0.2-0.9-0.4-1.5-0.6c-0.6-0.1-1.1-0.2-1.7-0.2c-1.1,0-2,0.2-2.5,0.7c-0.5,0.4-0.8,1-0.8,1.8
			c0,0.6,0.2,1.2,0.7,1.6c0.5,0.4,1.1,0.6,1.9,0.6c0.7,0,1.4-0.2,2-0.5C196.9,84.1,197.4,83.6,197.7,83z"/>
	</g>
	<g class="st0">
		<path class="st1" d="M206.9,73.2v1.9h0.2c0.4-0.7,1-1.2,1.8-1.7c0.8-0.4,1.6-0.6,2.5-0.6c1.6,0,2.9,0.5,3.8,1.5s1.3,2.3,1.3,4v8.6
			h-2.9v-8.3c0-1.1-0.3-1.9-0.8-2.4c-0.5-0.5-1.3-0.8-2.2-0.8c-0.7,0-1.3,0.2-1.8,0.6c-0.5,0.4-0.9,0.9-1.2,1.5s-0.4,1.3-0.4,2v7.3
			h-2.9V73.2H206.9z"/>
	</g>
	<g class="st0">
		<path class="st1" d="M219.8,83.8c-0.6-1.1-0.9-2.3-0.9-3.7c0-1.4,0.3-2.6,0.9-3.7s1.5-2,2.5-2.6c1.1-0.6,2.3-1,3.7-1
			c1.4,0,2.6,0.3,3.7,1c1.1,0.6,1.9,1.5,2.5,2.6c0.6,1.1,0.9,2.3,0.9,3.7c0,1.4-0.3,2.6-0.9,3.7s-1.5,2-2.5,2.6
			c-1.1,0.6-2.3,1-3.7,1s-2.6-0.3-3.7-1C221.3,85.7,220.4,84.9,219.8,83.8z M229.7,82.5c0.4-0.7,0.6-1.5,0.6-2.4
			c0-0.9-0.2-1.7-0.6-2.4c-0.4-0.7-0.9-1.2-1.6-1.6s-1.3-0.6-2.1-0.6s-1.5,0.2-2.1,0.6c-0.7,0.4-1.2,0.9-1.6,1.6
			c-0.4,0.7-0.6,1.5-0.6,2.4c0,0.9,0.2,1.7,0.6,2.4c0.4,0.7,0.9,1.2,1.6,1.6c0.7,0.4,1.4,0.6,2.1,0.6s1.5-0.2,2.1-0.6
			C228.8,83.7,229.3,83.2,229.7,82.5z"/>
	</g>
	<g class="st0">
		<path class="st1" d="M235.3,69.3c0-0.5,0.2-1,0.6-1.4c0.4-0.4,0.8-0.6,1.4-0.6c0.5,0,1,0.2,1.4,0.6s0.6,0.8,0.6,1.4
			s-0.2,1-0.6,1.4s-0.8,0.6-1.4,0.6c-0.5,0-1-0.2-1.4-0.6C235.5,70.3,235.3,69.8,235.3,69.3z M238.7,73.2v13.7h-2.9V73.2H238.7z"/>
	</g>
	<g class="st0">
		<path class="st1" d="M254.8,77.4c0.8-0.8,1.3-1.5,1.6-2c0.3-0.5,0.4-1.1,0.4-1.8c0-0.7-0.3-1.3-0.8-1.9c-0.5-0.5-1.3-0.8-2.2-0.8
			c-0.9,0-1.5,0.2-2.1,0.7c-0.5,0.5-0.9,1.1-1.1,1.7l-2.6-1.1c0.2-0.6,0.5-1.3,1-1.9s1.1-1.2,2-1.6c0.8-0.4,1.8-0.6,2.8-0.6
			c1.2,0,2.2,0.2,3.1,0.7c0.9,0.5,1.6,1.1,2.1,1.9s0.7,1.7,0.7,2.7c0,1.9-1,3.9-2.9,5.8l-2.7,2.7c-1,1-1.8,1.7-2.3,2.3l0,0.1h8v2.6
			h-11.9v-2.7C251.7,80.6,254,78.3,254.8,77.4z"/>
	</g>
	<g class="st0">
		<path class="st1" d="M263.1,82.6c-0.6-1.5-0.9-3.1-0.9-4.9c0-1.8,0.3-3.4,0.9-4.9s1.5-2.6,2.6-3.4c1.1-0.8,2.5-1.3,4-1.3
			c1.5,0,2.8,0.4,4,1.3c1.1,0.8,2,2,2.6,3.4c0.6,1.5,0.9,3.1,0.9,4.9c0,1.8-0.3,3.4-0.9,4.9c-0.6,1.5-1.5,2.6-2.6,3.4
			c-1.1,0.8-2.5,1.3-4,1.3c-1.5,0-2.8-0.4-4-1.3C264.6,85.2,263.7,84.1,263.1,82.6z M273.8,81.2c0.4-1,0.5-2.2,0.5-3.5
			c0-1.3-0.2-2.5-0.5-3.5s-0.9-1.9-1.6-2.5c-0.7-0.6-1.5-0.9-2.5-0.9c-0.9,0-1.7,0.3-2.4,0.9c-0.7,0.6-1.2,1.4-1.6,2.5
			s-0.5,2.2-0.5,3.5c0,1.3,0.2,2.5,0.5,3.5s0.9,1.9,1.6,2.5s1.5,0.9,2.4,0.9c0.9,0,1.8-0.3,2.5-0.9
			C272.9,83.1,273.4,82.3,273.8,81.2z"/>
	</g>
	<g class="st0">
		<path class="st1" d="M286,77.4c0.8-0.8,1.3-1.5,1.6-2c0.3-0.5,0.4-1.1,0.4-1.8c0-0.7-0.3-1.3-0.8-1.9c-0.5-0.5-1.3-0.8-2.2-0.8
			c-0.9,0-1.5,0.2-2.1,0.7c-0.5,0.5-0.9,1.1-1.1,1.7l-2.6-1.1c0.2-0.6,0.5-1.3,1-1.9c0.5-0.6,1.1-1.2,2-1.6c0.8-0.4,1.8-0.6,2.8-0.6
			c1.2,0,2.2,0.2,3.1,0.7c0.9,0.5,1.6,1.1,2.1,1.9c0.5,0.8,0.7,1.7,0.7,2.7c0,1.9-1,3.9-2.9,5.8l-2.7,2.7c-1,1-1.8,1.7-2.3,2.3
			l0,0.1h8v2.6h-11.9v-2.7C282.9,80.6,285.2,78.3,286,77.4z"/>
	</g>
	<g class="st0">
		<path class="st1" d="M293.1,83.2V81l8.4-12.4h3.1v12h2.3v2.7h-2.3v3.7h-2.9v-3.7H293.1z M301.8,72.8h-0.2l-5.2,7.7h5.4V72.8z"/>
	</g>
	<path class="st1" d="M0,28C0,14.4,11.4,3.4,25,3.4c6.3-0.1,12.4,2.3,16.9,6.8l-4.8,4.7c-3.2-3.1-7.6-4.9-12.1-4.8
		c-9.7,0-17.6,7.9-17.7,17.6c0,0.1,0,0.2,0,0.3C7.2,37.7,15,45.7,24.7,45.8c0.1,0,0.2,0,0.3,0c4.6,0.2,9.2-1.6,12.4-4.9
		c1.9-1.9,3.1-4.7,3.6-8.4H25v-6.7h22.6c0.2,1.4,0.4,2.8,0.3,4.3c0,5-1.4,11.3-5.8,15.7s-9.8,6.8-17.1,6.8C11.4,52.5,0,41.5,0,28"/>
	<path class="st1" d="M66.2,46.3c-4.8,0-8.9-4-8.9-9.6s4.1-9.6,8.9-9.6s8.9,3.9,8.9,9.6S71,46.3,66.2,46.3L66.2,46.3 M66.2,20.9
		c-8.6-0.2-15.7,6.7-15.9,15.3c0,0.2,0,0.3,0,0.5c0,8.8,7.1,15.9,15.9,15.9c8.8,0,15.9-7.1,15.9-15.9c0.1-8.6-6.8-15.7-15.4-15.8
		C66.5,20.9,66.3,20.9,66.2,20.9z"/>
	<path class="st1" d="M100.8,46.3c-4.8,0-8.9-4-8.9-9.6s4.1-9.6,8.9-9.6s8.9,3.9,8.9,9.6S105.6,46.3,100.8,46.3L100.8,46.3
		 M100.8,20.9c-8.6-0.1-15.7,6.8-15.8,15.4c0,0.2,0,0.3,0,0.5c0,8.8,7.1,15.9,15.9,15.9c8.8,0,15.9-7.1,15.9-15.9
		c0.1-8.6-6.8-15.7-15.4-15.8C101.2,20.9,101,20.9,100.8,20.9z"/>
	<rect x="154.8" y="5" class="st1" width="7" height="46.6"/>
	<rect x="154.8" y="5" class="st1" width="7" height="46.6"/>
	<path class="st1" d="M180.3,27c2.8,0,5.1,1.4,5.9,3.4L172,36.2c-0.3-4.8,3.3-8.9,8.1-9.2C180.2,27,180.2,27,180.3,27L180.3,27
		 M180.8,46.3c-3.3,0.1-6.4-1.8-7.7-4.8l21.2-8.8l-0.7-1.8c-1.3-3.6-5.3-10.1-13.6-10.1s-14.9,6.4-14.9,15.8
		c-0.2,8.6,6.6,15.6,15.2,15.8c0.2,0,0.4,0,0.5,0c5.3,0,10.3-2.6,13.2-7l-5.4-3.6C186.9,44.7,184,46.3,180.8,46.3z"/>
	<path class="st1" d="M135.4,46.3c-4.8,0-8.8-4-8.8-9.5s4-9.7,8.8-9.7s8.4,4.1,8.4,9.7S140.1,46.3,135.4,46.3L135.4,46.3
		 M143.4,21.8v2.6h-0.2c-2.1-2.3-5.2-3.6-8.3-3.5c-7.9,0-15.2,7-15.2,15.9s7.2,15.8,15.2,15.8c3.2,0.1,6.2-1.2,8.3-3.6h0.2v2.3
		c0,6.1-3.2,9.3-8.4,9.3c-3.6-0.1-6.7-2.3-8-5.6l-6.1,2.5c2.3,5.7,7.9,9.4,14.1,9.4c8.2,0,15-4.8,15-16.5V21.8H143.4z"/>
	<path class="st1" d="M342.9,4.2h110C466.2,4.2,477,15,477,28.3l0,0c0,13.3-10.8,24.1-24.1,24.1h-110c-13.3,0-24.1-10.8-24.1-24.1
		l0,0C318.8,15,329.6,4.2,342.9,4.2z"/>
	<rect x="215" y="5" class="st1" width="23.5" height="46.7"/>
	<circle class="st1" cx="282" cy="28.3" r="24.1"/>
	<g class="st0">
		<path class="st2" d="M350.5,17.5v3.1H341v6h8.6v3.1H341v6h9.6v3.1h-12.8V17.5H350.5z"/>
	</g>
	<g class="st0">
		<path class="st2" d="M351.7,23.6h3.7l3.4,5h0.1l3.2-5h3.8l-5.3,7.4l5.3,7.7h-3.7l-3.4-5.1h-0.1l-3.3,5.1h-3.8l5.3-7.7L351.7,23.6z
			"/>
	</g>
	<g class="st0">
		<path class="st2" d="M370.3,37.8c-0.8-0.8-1.3-2-1.3-3.4v-7.9h-2.6v-2.8h2.6v-4.3h3.2v4.3h3.7v2.8h-3.7v7.2c0,0.8,0.2,1.4,0.5,1.7
			c0.3,0.4,0.8,0.6,1.5,0.6c0.4,0,0.7,0,0.9-0.1c0.3-0.1,0.5-0.2,0.9-0.4v3.1c-0.7,0.3-1.5,0.4-2.4,0.4c-0.7,0-1.3-0.1-1.9-0.3
			S370.7,38.2,370.3,37.8z"/>
	</g>
	<g class="st0">
		<path class="st2" d="M377.9,35.3c-0.7-1.2-1-2.6-1-4.1c0-1.4,0.3-2.8,1-4c0.6-1.2,1.5-2.2,2.7-2.9c1.1-0.7,2.4-1.1,3.9-1.1
			c1.5,0,2.8,0.3,3.9,1c1.1,0.7,1.9,1.6,2.5,2.7c0.6,1.2,0.9,2.5,0.9,4c0,0.4,0,0.7-0.1,1H380c0.1,1.4,0.7,2.5,1.5,3.3
			c0.9,0.8,1.9,1.2,3.1,1.2c1,0,1.8-0.2,2.5-0.7c0.7-0.4,1.2-1,1.7-1.8l2.6,1.3c-0.7,1.2-1.6,2.2-2.8,2.9c-1.1,0.7-2.5,1.1-4.1,1.1
			c-1.5,0-2.8-0.3-4-1S378.5,36.5,377.9,35.3z M388,27.8c-0.3-0.6-0.8-1-1.4-1.4c-0.6-0.4-1.3-0.5-2.2-0.5c-1.1,0-2,0.3-2.7,1
			c-0.7,0.7-1.2,1.5-1.5,2.6h8.4C388.5,28.9,388.4,28.4,388,27.8z"/>
		<path class="st2" d="M397.1,23.6v2.1h0.2c0.4-0.7,1.1-1.4,2-1.8s1.8-0.7,2.8-0.7c1.8,0,3.2,0.5,4.1,1.6c0.9,1.1,1.4,2.5,1.4,4.4
			v9.5h-3.2v-9.1c0-1.2-0.3-2.1-0.9-2.6c-0.6-0.6-1.4-0.9-2.4-0.9c-0.7,0-1.4,0.2-2,0.6c-0.6,0.4-1,1-1.4,1.7
			c-0.3,0.7-0.5,1.4-0.5,2.2v8.1h-3.2V23.6H397.1z"/>
	</g>
	<g class="st0">
		<path class="st2" d="M410.5,35.3c-0.6-1.2-0.9-2.6-0.9-4.1c0-1.5,0.3-2.9,0.9-4.1c0.6-1.2,1.5-2.2,2.6-2.9c1.1-0.7,2.3-1,3.7-1
			c1.1,0,2.1,0.2,2.9,0.7c0.8,0.5,1.5,1.1,1.9,1.8h0.2l-0.2-2.1v-6h3.2v21.2h-3v-2h-0.2c-0.4,0.7-1.1,1.3-1.9,1.8
			c-0.8,0.5-1.8,0.7-2.9,0.7c-1.4,0-2.6-0.3-3.7-1C412,37.5,411.2,36.6,410.5,35.3z M421.2,33.8c0.4-0.8,0.6-1.7,0.6-2.7
			s-0.2-1.9-0.6-2.7c-0.4-0.8-1-1.4-1.7-1.8c-0.7-0.4-1.4-0.6-2.2-0.6s-1.5,0.2-2.2,0.6c-0.7,0.4-1.3,1-1.7,1.8
			c-0.4,0.8-0.6,1.7-0.6,2.7s0.2,1.9,0.6,2.7s1,1.4,1.7,1.8s1.4,0.6,2.2,0.6s1.5-0.2,2.2-0.6S420.8,34.6,421.2,33.8z"/>
	</g>
	<g class="st0">
		<path class="st2" d="M427.9,35.3c-0.7-1.2-1-2.6-1-4.1c0-1.4,0.3-2.8,1-4c0.6-1.2,1.5-2.2,2.7-2.9c1.1-0.7,2.4-1.1,3.9-1.1
			c1.5,0,2.8,0.3,3.9,1c1.1,0.7,1.9,1.6,2.5,2.7c0.6,1.2,0.9,2.5,0.9,4c0,0.4,0,0.7-0.1,1H430c0.1,1.4,0.7,2.5,1.5,3.3
			c0.9,0.8,1.9,1.2,3.1,1.2c1,0,1.8-0.2,2.5-0.7c0.7-0.4,1.2-1,1.7-1.8l2.6,1.3c-0.7,1.2-1.6,2.2-2.8,2.9c-1.1,0.7-2.5,1.1-4.1,1.1
			c-1.5,0-2.8-0.3-4-1C429.5,37.5,428.6,36.5,427.9,35.3z M438.1,27.8c-0.3-0.6-0.8-1-1.4-1.4c-0.6-0.4-1.3-0.5-2.2-0.5
			c-1.1,0-2,0.3-2.7,1c-0.7,0.7-1.2,1.5-1.5,2.6h8.4C438.6,28.9,438.4,28.4,438.1,27.8z"/>
	</g>
	<g class="st0">
		<path class="st2" d="M444.3,35.3c-0.6-1.2-0.9-2.6-0.9-4.1c0-1.5,0.3-2.9,0.9-4.1s1.5-2.2,2.6-2.9c1.1-0.7,2.3-1,3.7-1
			c1.1,0,2.1,0.2,2.9,0.7s1.5,1.1,1.9,1.8h0.2l-0.2-2.1v-6h3.2v21.2h-3v-2h-0.2c-0.4,0.7-1.1,1.3-1.9,1.8c-0.8,0.5-1.8,0.7-2.9,0.7
			c-1.4,0-2.6-0.3-3.7-1C445.8,37.5,444.9,36.6,444.3,35.3z M455,33.8c0.4-0.8,0.6-1.7,0.6-2.7s-0.2-1.9-0.6-2.7
			c-0.4-0.8-1-1.4-1.7-1.8c-0.7-0.4-1.4-0.6-2.2-0.6s-1.5,0.2-2.2,0.6c-0.7,0.4-1.3,1-1.7,1.8c-0.4,0.8-0.6,1.7-0.6,2.7
			s0.2,1.9,0.6,2.7s1,1.4,1.7,1.8s1.4,0.6,2.2,0.6s1.5-0.2,2.2-0.6C454,35.2,454.5,34.6,455,33.8z"/>
	</g>
	<polygon class="st1" points="246.1,56.6 241.6,56.6 254.5,0 259,0 	"/>
</g>
</svg>
