<?xml version="1.0" encoding="UTF-8"?>
<!DOCTYPE svg PUBLIC "-//W3C//DTD SVG 1.1//EN" "http://www.w3.org/Graphics/SVG/1.1/DTD/svg11.dtd">
<svg xmlns="http://www.w3.org/2000/svg" version="1.1" width="1506px" height="334px" style="shape-rendering:geometricPrecision; text-rendering:geometricPrecision; image-rendering:optimizeQuality; fill-rule:evenodd; clip-rule:evenodd" xmlns:xlink="http://www.w3.org/1999/xlink">
<g><path style="opacity:0.928" fill="#1f2023" d="M 809.5,14.5 C 814.5,14.5 819.5,14.5 824.5,14.5C 811.783,73.5803 798.617,132.58 785,191.5C 779.928,192.471 774.762,192.805 769.5,192.5C 782.961,133.194 796.295,73.8605 809.5,14.5 Z"/></g>
<g><path style="opacity:0.987" fill="#1f2023" d="M 81.5,25.5 C 106.776,22.2032 128.442,29.3699 146.5,47C 141.623,52.2128 136.456,57.0461 131,61.5C 107.41,43.0894 83.2429,42.2561 58.5,59C 37.7102,79.2855 33.2102,102.785 45,129.5C 62.8945,156.026 87.0611,163.86 117.5,153C 132.646,145.553 140.979,133.386 142.5,116.5C 125.833,116.5 109.167,116.5 92.5,116.5C 92.5,109.5 92.5,102.5 92.5,95.5C 116.5,95.5 140.5,95.5 164.5,95.5C 169.236,128.198 157.903,153.365 130.5,171C 98.1681,185.477 68.1681,181.81 40.5,160C 12.6257,131.554 7.45902,99.387 25,63.5C 38.3686,42.619 57.202,29.9523 81.5,25.5 Z"/></g>
<g><path style="opacity:0.994" fill="#1f2023" d="M 892.5,27.5 C 934.984,28.8172 961.151,50.1506 971,91.5C 974.828,129.02 959.995,156.186 926.5,173C 892.456,185.526 862.956,178.693 838,152.5C 814.667,119.839 814.667,87.1723 838,54.5C 852.673,38.0795 870.84,29.0795 892.5,27.5 Z"/></g>
<g><path style="opacity:0.993" fill="#202124" d="M 1505.5,91.5 C 1505.5,99.5 1505.5,107.5 1505.5,115.5C 1498.24,148.925 1477.91,169.758 1444.5,178C 1322.53,179.654 1200.53,179.987 1078.5,179C 1036.38,171.381 1013.72,146.214 1010.5,103.5C 1014.15,59.3581 1037.81,34.1914 1081.5,28C 1198.83,27.3333 1316.17,27.3333 1433.5,28C 1460.9,29.6154 1481.74,42.1154 1496,65.5C 1500.64,73.7569 1503.81,82.4236 1505.5,91.5 Z"/></g>
<g><path style="opacity:0.998" fill="#1f2023" d="M 498.5,30.5 C 505.833,30.5 513.167,30.5 520.5,30.5C 520.5,79.1667 520.5,127.833 520.5,176.5C 513.167,176.5 505.833,176.5 498.5,176.5C 498.5,127.833 498.5,79.1667 498.5,30.5 Z"/></g>
<g><path style="opacity:0.994" fill="#1f2023" d="M 686.5,30.5 C 711.167,30.5 735.833,30.5 760.5,30.5C 760.5,79.1667 760.5,127.833 760.5,176.5C 735.833,176.5 711.167,176.5 686.5,176.5C 686.5,127.833 686.5,79.1667 686.5,30.5 Z"/></g>
<g><path style="opacity:1" fill="#f6f6f6" d="M 1345.5,67.5 C 1348.17,67.5 1350.83,67.5 1353.5,67.5C 1353.5,90.8333 1353.5,114.167 1353.5,137.5C 1351.5,137.5 1349.5,137.5 1347.5,137.5C 1347.63,135.345 1347.13,133.345 1346,131.5C 1337.71,139.315 1328.54,140.482 1318.5,135C 1312.19,129.04 1309.53,121.707 1310.5,113C 1309.96,94.2058 1318.96,85.8724 1337.5,88C 1340.9,89.3999 1343.74,91.5665 1346,94.5C 1345.59,85.5589 1345.42,76.5589 1345.5,67.5 Z"/></g>
<g><path style="opacity:1" fill="#f3f3f3" d="M 1454.5,67.5 C 1457.17,67.5 1459.83,67.5 1462.5,67.5C 1462.5,90.8333 1462.5,114.167 1462.5,137.5C 1460.17,137.5 1457.83,137.5 1455.5,137.5C 1455.8,135.396 1455.47,133.396 1454.5,131.5C 1446.94,138.935 1438.27,140.435 1428.5,136C 1421.2,129.889 1417.86,122.055 1418.5,112.5C 1418.99,92.4306 1428.99,84.5973 1448.5,89C 1450.61,90.1411 1452.44,91.6411 1454,93.5C 1454.5,84.8397 1454.67,76.1731 1454.5,67.5 Z"/></g>
<g><path style="opacity:1" fill="#fbfbfb" d="M 1072.5,71.5 C 1084.5,71.5 1096.5,71.5 1108.5,71.5C 1108.5,73.8333 1108.5,76.1667 1108.5,78.5C 1098.83,78.5 1089.17,78.5 1079.5,78.5C 1079.5,85.5 1079.5,92.5 1079.5,99.5C 1088.83,99.5 1098.17,99.5 1107.5,99.5C 1107.5,101.833 1107.5,104.167 1107.5,106.5C 1098.17,106.5 1088.83,106.5 1079.5,106.5C 1079.5,114.5 1079.5,122.5 1079.5,130.5C 1089.17,130.5 1098.83,130.5 1108.5,130.5C 1108.5,132.833 1108.5,135.167 1108.5,137.5C 1096.5,137.5 1084.5,137.5 1072.5,137.5C 1072.5,115.5 1072.5,93.5 1072.5,71.5 Z"/></g>
<g><path style="opacity:1" fill="#fbfbfb" d="M 1174.5,77.5 C 1175.83,77.5 1177.17,77.5 1178.5,77.5C 1178.5,81.1667 1178.5,84.8333 1178.5,88.5C 1183.5,88.5 1188.5,88.5 1193.5,88.5C 1193.5,90.1667 1193.5,91.8333 1193.5,93.5C 1188.5,93.5 1183.5,93.5 1178.5,93.5C 1178.17,104.346 1178.51,115.013 1179.5,125.5C 1181.6,132.045 1185.93,134.045 1192.5,131.5C 1193.94,133.998 1193.6,136.164 1191.5,138C 1186.23,139.068 1181.23,138.401 1176.5,136C 1174.22,133.603 1172.88,130.769 1172.5,127.5C 1172.5,116.167 1172.5,104.833 1172.5,93.5C 1169.83,93.5 1167.17,93.5 1164.5,93.5C 1164.35,92.448 1164.52,91.448 1165,90.5C 1171.08,88.3437 1174.25,84.0103 1174.5,77.5 Z"/></g>
<g><path style="opacity:1" fill="#b0b0b1" d="M 1174.5,77.5 C 1175.92,76.5489 1177.59,76.2155 1179.5,76.5C 1179.5,80.1667 1179.5,83.8333 1179.5,87.5C 1184.36,87.1805 1189.03,87.5139 1193.5,88.5C 1188.5,88.5 1183.5,88.5 1178.5,88.5C 1178.5,84.8333 1178.5,81.1667 1178.5,77.5C 1177.17,77.5 1175.83,77.5 1174.5,77.5 Z"/></g>
<g><path style="opacity:0.987" fill="#1f2023" d="M 217.5,79.5 C 255.605,81.4382 273.439,101.438 271,139.5C 265.637,161.529 251.804,174.695 229.5,179C 202.582,181.469 184.082,170.302 174,145.5C 167.265,109.267 181.765,87.267 217.5,79.5 Z M 215.5,100.5 C 236.488,99.4853 247.822,109.485 249.5,130.5C 248.007,147.508 238.841,157.175 222,159.5C 201.897,155.999 192.897,143.999 195,123.5C 197.817,112.187 204.65,104.52 215.5,100.5 Z"/></g>
<g><path style="opacity:0.988" fill="#1f2023" d="M 325.5,79.5 C 356.721,79.5657 374.888,94.899 380,125.5C 380.404,154.424 366.571,172.258 338.5,179C 308.389,181.53 289.222,168.363 281,139.5C 277.389,111.537 288.556,92.3707 314.5,82C 318.347,81.3666 322.014,80.5333 325.5,79.5 Z M 323.5,100.5 C 344.278,99.4441 355.611,109.277 357.5,130C 356.604,147.562 347.437,157.396 330,159.5C 313.053,156.717 303.886,146.717 302.5,129.5C 303.427,115.273 310.427,105.606 323.5,100.5 Z"/></g>
<g><path style="opacity:0.979" fill="#1f2023" d="M 432.5,79.5 C 444.056,78.8367 453.89,82.5033 462,90.5C 462.497,87.854 462.664,85.1873 462.5,82.5C 469.833,82.5 477.167,82.5 484.5,82.5C 484.667,114.835 484.5,147.168 484,179.5C 481.363,208.137 465.697,223.137 437,224.5C 415.97,223.576 401.137,213.576 392.5,194.5C 398.533,191.544 404.7,188.877 411,186.5C 413.593,189.48 416.093,192.647 418.5,196C 427.739,203.876 438.072,205.542 449.5,201C 460.305,193.271 464.472,182.771 462,169.5C 446.4,181.496 429.9,182.663 412.5,173C 391.684,158.225 384.517,138.392 391,113.5C 398.462,94.1892 412.295,82.8558 432.5,79.5 Z M 431.5,100.5 C 448.019,98.5246 458.519,105.525 463,121.5C 466.063,134.756 462.563,145.923 452.5,155C 432.832,163.552 419.332,157.719 412,137.5C 409.11,119.937 415.61,107.604 431.5,100.5 Z"/></g>
<g><path style="opacity:0.983" fill="#1f2023" d="M 568.5,80.5 C 596.686,78.6856 614.686,91.3523 622.5,118.5C 600.419,127.037 578.419,135.871 556.5,145C 566.43,159.733 579.43,163.067 595.5,155C 598.704,152.131 601.537,148.965 604,145.5C 609.971,149.305 615.804,153.305 621.5,157.5C 607.61,176.857 588.943,183.69 565.5,178C 537.78,166.738 526.613,146.238 532,116.5C 537.46,97.5392 549.626,85.5392 568.5,80.5 Z M 576.5,99.5 C 583.799,99.5667 589.966,102.233 595,107.5C 595.483,108.448 595.649,109.448 595.5,110.5C 581.305,115.594 567.305,121.261 553.5,127.5C 553.742,112.243 561.409,102.91 576.5,99.5 Z"/></g>
<g><path style="opacity:1" fill="#878789" d="M 1125.5,88.5 C 1122.94,88.1984 1120.61,88.5318 1118.5,89.5C 1117.96,89.44 1117.62,89.1067 1117.5,88.5C 1120.31,87.1997 1122.98,87.1997 1125.5,88.5 Z"/></g>
<g><path style="opacity:1" fill="#f8f8f8" d="M 1242.5,104.5 C 1242.5,107.5 1242.5,110.5 1242.5,113.5C 1231.17,113.5 1219.83,113.5 1208.5,113.5C 1208.22,115.415 1208.55,117.081 1209.5,118.5C 1213,130.755 1221,134.921 1233.5,131C 1235.52,130.495 1237.52,129.995 1239.5,129.5C 1240.46,131.265 1240.79,133.265 1240.5,135.5C 1212.05,143.534 1199.22,132.867 1202,103.5C 1208.52,87.1646 1219.69,82.9979 1235.5,91C 1239.56,94.6231 1241.89,99.1231 1242.5,104.5 Z"/></g>
<g><path style="opacity:1" fill="#f7f7f7" d="M 1256.5,137.5 C 1256.5,121.167 1256.5,104.833 1256.5,88.5C 1258.5,88.5 1260.5,88.5 1262.5,88.5C 1262.2,90.604 1262.53,92.604 1263.5,94.5C 1267.47,89.5987 1272.64,87.2654 1279,87.5C 1288.25,86.7686 1294.25,90.7686 1297,99.5C 1297.5,112.162 1297.67,124.829 1297.5,137.5C 1294.83,137.5 1292.17,137.5 1289.5,137.5C 1289.67,124.829 1289.5,112.162 1289,99.5C 1286.24,95.2334 1282.24,93.2334 1277,93.5C 1270.45,93.9424 1266.12,97.2757 1264,103.5C 1263.5,114.828 1263.33,126.162 1263.5,137.5C 1261.17,137.5 1258.83,137.5 1256.5,137.5 Z"/></g>
<g><path style="opacity:1" fill="#f4f4f4" d="M 1381.5,87.5 C 1400.76,86.0934 1409.76,95.0934 1408.5,114.5C 1397.17,114.5 1385.83,114.5 1374.5,114.5C 1374.57,125.903 1380.24,131.57 1391.5,131.5C 1396.43,131.744 1401.1,130.744 1405.5,128.5C 1406.97,131.321 1406.64,133.821 1404.5,136C 1377.93,143.099 1365.43,132.932 1367,105.5C 1368.77,96.9233 1373.6,90.9233 1381.5,87.5 Z"/></g>
<g><path style="opacity:1" fill="#f6f6f6" d="M 1125.5,88.5 C 1129.81,94.4328 1134.15,100.433 1138.5,106.5C 1142.7,100.616 1147.03,94.7823 1151.5,89C 1154.17,88.3333 1156.83,88.3333 1159.5,89C 1153.76,96.4013 1148.43,104.068 1143.5,112C 1148.96,120.294 1154.62,128.461 1160.5,136.5C 1157.06,138.006 1153.89,137.673 1151,135.5C 1147,129.5 1143,123.5 1139,117.5C 1134.5,123.833 1130,130.167 1125.5,136.5C 1122.55,137.655 1119.55,137.821 1116.5,137C 1122.55,129.055 1128.22,120.889 1133.5,112.5C 1128.9,104.57 1123.9,96.9032 1118.5,89.5C 1120.61,88.5318 1122.94,88.1984 1125.5,88.5 Z"/></g>
<g><path style="opacity:1" fill="#99999a" d="M 1262.5,88.5 C 1260.5,88.5 1258.5,88.5 1256.5,88.5C 1256.5,104.833 1256.5,121.167 1256.5,137.5C 1255.5,121.008 1255.17,104.342 1255.5,87.5C 1258.06,87.1984 1260.39,87.5318 1262.5,88.5 Z"/></g>
<g><path style="opacity:1" fill="#222326" d="M 1234.5,104.5 C 1234.5,105.5 1234.5,106.5 1234.5,107.5C 1226.17,107.5 1217.83,107.5 1209.5,107.5C 1211.53,94.8141 1218.53,90.9808 1230.5,96C 1232.78,98.3974 1234.12,101.231 1234.5,104.5 Z"/></g>
<g><path style="opacity:1" fill="#222326" d="M 1326.5,93.5 C 1335.05,91.8597 1341.22,94.8597 1345,102.5C 1345.67,108.833 1345.67,115.167 1345,121.5C 1344.68,124.973 1343.18,127.806 1340.5,130C 1327.48,135.25 1319.98,131.083 1318,117.5C 1315.81,107.552 1318.65,99.552 1326.5,93.5 Z"/></g>
<g><path style="opacity:1" fill="#222326" d="M 1399.5,102.5 C 1399.5,104.167 1399.5,105.833 1399.5,107.5C 1391.5,107.5 1383.5,107.5 1375.5,107.5C 1375.5,106.5 1375.5,105.5 1375.5,104.5C 1378.28,94.4426 1384.61,91.276 1394.5,95C 1397.31,96.7933 1398.97,99.2933 1399.5,102.5 Z"/></g>
<g><path style="opacity:1" fill="#222326" d="M 1435.5,93.5 C 1444.54,91.7675 1450.71,95.1008 1454,103.5C 1454.67,109.5 1454.67,115.5 1454,121.5C 1453.27,126.155 1450.77,129.321 1446.5,131C 1442.5,131.667 1438.5,131.667 1434.5,131C 1431.27,129.437 1429.1,126.937 1428,123.5C 1425.52,114.878 1426.19,106.545 1430,98.5C 1431.73,96.5981 1433.56,94.9314 1435.5,93.5 Z"/></g>
<g><path style="opacity:1" fill="#bbbbbc" d="M 1164.5,93.5 C 1167.17,93.5 1169.83,93.5 1172.5,93.5C 1172.5,104.833 1172.5,116.167 1172.5,127.5C 1171.51,116.679 1171.17,105.679 1171.5,94.5C 1168.94,94.8016 1166.61,94.4682 1164.5,93.5 Z"/></g>
<g><path style="opacity:1" fill="#b0b0b1" d="M 1193.5,93.5 C 1189.03,94.4861 1184.36,94.8195 1179.5,94.5C 1179.5,104.833 1179.5,115.167 1179.5,125.5C 1178.51,115.013 1178.17,104.346 1178.5,93.5C 1183.5,93.5 1188.5,93.5 1193.5,93.5 Z"/></g>
<g><path style="opacity:1" fill="#8a8b8c" d="M 1234.5,104.5 C 1235.43,105.568 1235.77,106.901 1235.5,108.5C 1226.65,108.826 1217.98,108.493 1209.5,107.5C 1217.83,107.5 1226.17,107.5 1234.5,107.5C 1234.5,106.5 1234.5,105.5 1234.5,104.5 Z"/></g>
<g><path style="opacity:1" fill="#7e7f80" d="M 1399.5,102.5 C 1400.46,104.265 1400.79,106.265 1400.5,108.5C 1391.83,108.5 1383.17,108.5 1374.5,108.5C 1374.23,106.901 1374.57,105.568 1375.5,104.5C 1375.5,105.5 1375.5,106.5 1375.5,107.5C 1383.5,107.5 1391.5,107.5 1399.5,107.5C 1399.5,105.833 1399.5,104.167 1399.5,102.5 Z"/></g>
<g><path style="opacity:1" fill="#a7a7a8" d="M 1242.5,104.5 C 1243.48,107.625 1243.81,110.958 1243.5,114.5C 1232.17,114.5 1220.83,114.5 1209.5,114.5C 1209.5,115.833 1209.5,117.167 1209.5,118.5C 1208.55,117.081 1208.22,115.415 1208.5,113.5C 1219.83,113.5 1231.17,113.5 1242.5,113.5C 1242.5,110.5 1242.5,107.5 1242.5,104.5 Z"/></g>
<g><path style="opacity:1" fill="#747476" d="M 1239.5,129.5 C 1239.56,128.957 1239.89,128.624 1240.5,128.5C 1241.8,130.973 1241.8,133.307 1240.5,135.5C 1240.79,133.265 1240.46,131.265 1239.5,129.5 Z"/></g>
<g><path style="opacity:0.886" fill="#1e1f22" d="M 761.5,226.5 C 768.628,226.706 770.294,229.873 766.5,236C 760.498,236.993 758.332,234.493 760,228.5C 760.717,227.956 761.217,227.289 761.5,226.5 Z"/></g>
<g><path style="opacity:0.96" fill="#1f2023" d="M 813.5,227.5 C 833.535,225.686 841.035,234.353 836,253.5C 828.947,263.559 820.78,272.726 811.5,281C 821.161,281.5 830.828,281.666 840.5,281.5C 840.5,283.833 840.5,286.167 840.5,288.5C 827.167,288.5 813.833,288.5 800.5,288.5C 800.337,286.143 800.503,283.81 801,281.5C 811.443,272.063 820.776,261.729 829,250.5C 832.13,237.962 827.296,232.795 814.5,235C 811.075,236.508 807.742,237.841 804.5,239C 802.203,237.737 801.37,235.903 802,233.5C 805.574,230.822 809.407,228.822 813.5,227.5 Z"/></g>
<g><path style="opacity:0.949" fill="#1f2023" d="M 862.5,227.5 C 877.27,225.465 885.77,231.798 888,246.5C 888.859,256.219 888.526,265.885 887,275.5C 883.043,287.399 874.876,291.899 862.5,289C 853.9,284.989 849.4,278.156 849,268.5C 847.189,256.28 848.856,244.613 854,233.5C 856.637,231.109 859.47,229.109 862.5,227.5 Z M 864.5,234.5 C 873.567,233.395 878.734,237.395 880,246.5C 880.667,254.5 880.667,262.5 880,270.5C 878.31,281.223 872.476,284.723 862.5,281C 859.333,277.845 857.499,274.012 857,269.5C 856.333,262.167 856.333,254.833 857,247.5C 857.478,241.863 859.978,237.53 864.5,234.5 Z"/></g>
<g><path style="opacity:0.96" fill="#1f2023" d="M 909.5,227.5 C 929.535,225.686 937.035,234.353 932,253.5C 924.947,263.559 916.78,272.726 907.5,281C 917.161,281.5 926.828,281.666 936.5,281.5C 936.5,283.833 936.5,286.167 936.5,288.5C 923.167,288.5 909.833,288.5 896.5,288.5C 896.337,286.143 896.503,283.81 897,281.5C 907.443,272.063 916.776,261.729 925,250.5C 928.13,237.962 923.296,232.795 910.5,235C 907.075,236.508 903.742,237.841 900.5,239C 898.203,237.737 897.37,235.903 898,233.5C 901.574,230.822 905.407,228.822 909.5,227.5 Z"/></g>
<g><path style="opacity:0.94" fill="#1f2023" d="M 970.5,227.5 C 973.167,227.5 975.833,227.5 978.5,227.5C 978.5,241.167 978.5,254.833 978.5,268.5C 981.5,268.5 984.5,268.5 987.5,268.5C 987.5,270.833 987.5,273.167 987.5,275.5C 984.5,275.5 981.5,275.5 978.5,275.5C 978.5,279.833 978.5,284.167 978.5,288.5C 976.167,288.5 973.833,288.5 971.5,288.5C 971.5,284.167 971.5,279.833 971.5,275.5C 961.833,275.5 952.167,275.5 942.5,275.5C 942.184,272.022 942.684,268.688 944,265.5C 953.089,252.979 961.923,240.312 970.5,227.5 Z M 970.5,238.5 C 971.494,248.319 971.827,258.319 971.5,268.5C 964.492,268.666 957.492,268.5 950.5,268C 957.779,258.559 964.446,248.726 970.5,238.5 Z"/></g>
<g><path style="opacity:0.898" fill="#1f2023" d="M 550.5,228.5 C 553.167,228.5 555.833,228.5 558.5,228.5C 558.5,236.833 558.5,245.167 558.5,253.5C 568.5,253.5 578.5,253.5 588.5,253.5C 588.5,245.167 588.5,236.833 588.5,228.5C 591.167,228.5 593.833,228.5 596.5,228.5C 596.5,248.5 596.5,268.5 596.5,288.5C 593.833,288.5 591.167,288.5 588.5,288.5C 588.5,279.167 588.5,269.833 588.5,260.5C 578.5,260.5 568.5,260.5 558.5,260.5C 558.5,269.833 558.5,279.167 558.5,288.5C 555.833,288.5 553.167,288.5 550.5,288.5C 550.5,268.5 550.5,248.5 550.5,228.5 Z"/></g>
<g><path style="opacity:0.946" fill="#1f2023" d="M 622.5,242.5 C 630.461,241.046 637.294,243.046 643,248.5C 644.444,261.76 644.944,275.093 644.5,288.5C 642.5,288.5 640.5,288.5 638.5,288.5C 638.509,286.692 638.009,285.025 637,283.5C 631.331,289.212 624.497,291.045 616.5,289C 610.544,286.767 607.544,282.433 607.5,276C 609.065,267.105 614.398,262.439 623.5,262C 628.155,261.501 632.821,261.334 637.5,261.5C 637.78,250.961 632.78,247.128 622.5,250C 620.129,250.735 617.795,251.568 615.5,252.5C 614.594,250.614 613.594,248.78 612.5,247C 615.703,244.997 619.036,243.497 622.5,242.5 Z M 624.5,267.5 C 628.5,267.5 632.5,267.5 636.5,267.5C 637.831,277.183 633.665,282.517 624,283.5C 619.277,283.109 616.444,280.609 615.5,276C 616.892,271.329 619.892,268.496 624.5,267.5 Z"/></g>
<g><path style="opacity:0.869" fill="#1f2023" d="M 674.5,242.5 C 679.267,242.191 683.934,242.691 688.5,244C 691.333,245.5 693.5,247.667 695,250.5C 696.42,263.106 696.92,275.772 696.5,288.5C 693.833,288.5 691.167,288.5 688.5,288.5C 688.667,277.495 688.5,266.495 688,255.5C 686.561,250.859 683.394,248.859 678.5,249.5C 672.961,249.18 669.128,251.514 667,256.5C 665.597,267.102 665.097,277.769 665.5,288.5C 662.833,288.5 660.167,288.5 657.5,288.5C 657.5,273.5 657.5,258.5 657.5,243.5C 659.833,243.5 662.167,243.5 664.5,243.5C 664.312,245.103 664.812,246.437 666,247.5C 668.682,245.415 671.516,243.748 674.5,242.5 Z"/></g>
<g><path style="opacity:0.955" fill="#1f2023" d="M 722.5,242.5 C 739.351,241.179 748.351,249.012 749.5,266C 747.395,286.751 736.395,293.751 716.5,287C 707.181,277.791 704.681,266.958 709,254.5C 711.866,248.457 716.366,244.457 722.5,242.5 Z M 723.5,249.5 C 735.78,248.333 741.78,254 741.5,266.5C 741.117,279.408 734.784,284.575 722.5,282C 720.714,281.215 719.214,280.049 718,278.5C 713.333,270.167 713.333,261.833 718,253.5C 719.812,252.023 721.645,250.69 723.5,249.5 Z"/></g>
<g><path style="opacity:0.966" fill="#1f2023" d="M 760.5,243.5 C 762.833,243.5 765.167,243.5 767.5,243.5C 767.5,258.5 767.5,273.5 767.5,288.5C 765.167,288.5 762.833,288.5 760.5,288.5C 760.5,273.5 760.5,258.5 760.5,243.5 Z"/></g>
</svg>
