<svg id="Layer_1" data-name="Layer 1" xmlns="http://www.w3.org/2000/svg" viewBox="0 0 771.04 141"><defs><style>.cls-1{fill:#202124;}.cls-2{fill:#fff;}</style></defs><g id="EDITABLE"><path class="cls-1" d="M540.51,109V121.8H555V109h4.7v30.88H555V126.29H540.51v13.54h-4.74V109Z"/><path class="cls-1" d="M565.41,137a7.17,7.17,0,0,1-1-3.84,6.54,6.54,0,0,1,1.21-3.94,7.71,7.71,0,0,1,3.28-2.55,11.62,11.62,0,0,1,4.61-.88,15.22,15.22,0,0,1,3.52.37,11.18,11.18,0,0,1,2.52.84v-1.17a4.3,4.3,0,0,0-1.55-3.43,6,6,0,0,0-4-1.31,7.06,7.06,0,0,0-3.19.75,6.48,6.48,0,0,0-2.42,2.05l-3.19-2.46a9.5,9.5,0,0,1,3.77-3.14,11.81,11.81,0,0,1,5.16-1.12q4.74,0,7.35,2.34a8.4,8.4,0,0,1,2.61,6.58v13.76h-4.53v-2.72h-.26a7.37,7.37,0,0,1-2.72,2.44,8.23,8.23,0,0,1-4,1,9.26,9.26,0,0,1-4.22-.93A7,7,0,0,1,565.41,137Zm13.3-3.36a6.19,6.19,0,0,0,.8-3.06,9,9,0,0,0-2.37-.95,11.19,11.19,0,0,0-2.8-.35,6.06,6.06,0,0,0-4,1.08,3.56,3.56,0,0,0-1.28,2.85,3.18,3.18,0,0,0,1.17,2.54,4.63,4.63,0,0,0,3.1,1,6.09,6.09,0,0,0,3.15-.84A6,6,0,0,0,578.71,133.62Z"/><path class="cls-1" d="M593.33,117.83v3h.26a7.1,7.1,0,0,1,2.85-2.67,8.39,8.39,0,0,1,4.09-1,7.63,7.63,0,0,1,6,2.34,9.43,9.43,0,0,1,2.07,6.45v13.89H604V126.55a5.19,5.19,0,0,0-1.3-3.86,4.81,4.81,0,0,0-3.53-1.28,4.94,4.94,0,0,0-2.92.91,6.19,6.19,0,0,0-2,2.41,7.67,7.67,0,0,0-.71,3.28v11.82h-4.66v-22Z"/><path class="cls-1" d="M613.86,134.78a12.78,12.78,0,0,1,0-11.9,10.79,10.79,0,0,1,4.09-4.2,11.54,11.54,0,0,1,5.95-1.53,11.34,11.34,0,0,1,5.91,1.55,10.87,10.87,0,0,1,4.1,4.22,12.7,12.7,0,0,1,0,11.86,10.86,10.86,0,0,1-4.08,4.21,11.46,11.46,0,0,1-5.93,1.53A11.64,11.64,0,0,1,618,139,10.82,10.82,0,0,1,613.86,134.78Zm15.95-2a8.56,8.56,0,0,0,0-7.84,6.65,6.65,0,0,0-5.91-3.5,6.75,6.75,0,0,0-5.95,3.5,8.64,8.64,0,0,0,0,7.84,6.75,6.75,0,0,0,5.95,3.5,6.65,6.65,0,0,0,5.91-3.5Z"/><path class="cls-1" d="M638.52,111.45a3,3,0,0,1,.93-2.2,3,3,0,0,1,2.22-.9,3.08,3.08,0,0,1,2.22.9,3,3,0,0,1,.92,2.2,3.15,3.15,0,0,1-6.29,0Zm5.48,6.38v22h-4.66v-22Z"/><path class="cls-1" d="M670,124.48a17.49,17.49,0,0,0,2.59-3.24,6,6,0,0,0,.69-2.93,4,4,0,0,0-1.32-3,4.87,4.87,0,0,0-3.55-1.27,4.73,4.73,0,0,0-3.35,1.19,6.11,6.11,0,0,0-1.74,2.78l-4.19-1.73a8.92,8.92,0,0,1,1.62-3.06,9.56,9.56,0,0,1,3.17-2.54,9.74,9.74,0,0,1,4.57-1,10.24,10.24,0,0,1,5,1.17,8.56,8.56,0,0,1,3.34,3.1,8,8,0,0,1,1.19,4.27q0,4.65-4.7,9.36L669,131.81q-2.41,2.37-3.67,3.66l.05.13h12.93v4.23h-19.1v-4.4Q667.93,126.72,670,124.48Z"/><path class="cls-1" d="M683.1,133a21.53,21.53,0,0,1,0-15.74,13.05,13.05,0,0,1,4.22-5.54,11,11,0,0,1,12.74,0,13,13,0,0,1,4.25,5.54,21.53,21.53,0,0,1,0,15.74,13,13,0,0,1-4.25,5.54,11,11,0,0,1-12.74,0A13.05,13.05,0,0,1,683.1,133Zm17.11-2.22a18.44,18.44,0,0,0,0-11.32,8.82,8.82,0,0,0-2.56-4,5.93,5.93,0,0,0-4-1.42,5.81,5.81,0,0,0-3.9,1.42,9,9,0,0,0-2.55,4,18.64,18.64,0,0,0,0,11.32,9.06,9.06,0,0,0,2.55,3.94,5.74,5.74,0,0,0,3.9,1.45,5.86,5.86,0,0,0,4-1.45A8.9,8.9,0,0,0,700.21,130.73Z"/><path class="cls-1" d="M719.67,124.48a17.49,17.49,0,0,0,2.59-3.24,6,6,0,0,0,.69-2.93,4,4,0,0,0-1.32-3,4.88,4.88,0,0,0-3.56-1.27,4.71,4.71,0,0,0-3.34,1.19A6,6,0,0,0,713,118l-4.19-1.73a8.92,8.92,0,0,1,1.62-3.06,9.56,9.56,0,0,1,3.17-2.54,9.74,9.74,0,0,1,4.57-1,10.24,10.24,0,0,1,5,1.17,8.56,8.56,0,0,1,3.34,3.1,8,8,0,0,1,1.19,4.27q0,4.65-4.7,9.36l-4.27,4.27q-2.41,2.37-3.67,3.66l0,.13H728v4.23h-19.1v-4.4Q717.65,126.72,719.67,124.48Z"/><path class="cls-1" d="M730.91,133.92V130.3l13.49-20h5v19.28h3.75v4.31h-3.75v5.91h-4.62v-5.91Zm13.88-16.73h-.26l-8.4,12.42h8.66Z"/><path class="cls-1" d="M3.54,45c0-21.82,18.3-39.58,40.16-39.58a37.66,37.66,0,0,1,27.13,10.9l-7.66,7.63A27.58,27.58,0,0,0,43.7,16.22C27.78,16.22,15.34,29,15.34,45S27.76,73.75,43.7,73.75c10.32,0,16.2-4.14,20-7.91,3.09-3.1,5.11-7.55,5.89-13.58H43.7V41.42H80.07a35.09,35.09,0,0,1,.58,6.78c0,8.11-2.21,18.15-9.36,25.3-7,7.21-15.84,11-27.59,11C21.84,84.53,3.54,66.81,3.54,45"/><path class="cls-1" d="M110,74.52c-7.71,0-14.37-6.37-14.37-15.44S102.31,43.63,110,43.63s14.38,6.28,14.38,15.45S117.74,74.53,110,74.53h0m0-40.92c-14.08,0-25.56,10.71-25.56,25.48S95.94,84.53,110,84.53a25.17,25.17,0,0,0,25.57-25.48A25.14,25.14,0,0,0,110,33.6Z"/><path class="cls-1" d="M165.8,74.52c-7.72,0-14.37-6.37-14.37-15.44s6.65-15.45,14.37-15.45,14.37,6.28,14.37,15.45-6.65,15.45-14.37,15.45h0m0-40.92c-14.09,0-25.57,10.71-25.57,25.48s11.48,25.45,25.57,25.45a25.16,25.16,0,0,0,25.56-25.48A25.14,25.14,0,0,0,165.8,33.6Z"/><rect class="cls-1" x="252.59" y="8.11" width="11.19" height="74.91"/><rect class="cls-1" x="252.59" y="8.11" width="11.19" height="74.91"/><path class="cls-1" d="M293.6,43.45c4.44,0,8.2,2.21,9.45,5.4l-22.77,9.46a14,14,0,0,1,13.31-14.86h0m.86,31.08c-5.69,0-9.74-2.61-12.34-7.72l34.06-14.1L315,49.84c-2.12-5.69-8.58-16.21-21.8-16.21s-24,10.33-24,25.48c0,14.28,10.81,25.48,25.28,25.48a25.35,25.35,0,0,0,21.22-11.31L307,67.49C304.11,71.71,300.15,74.53,294.46,74.53Z"/><path class="cls-1" d="M221.45,74.53c-7.72,0-14.19-6.47-14.19-15.35s6.47-15.54,14.19-15.54S235,50.2,235,59.18s-6,15.35-13.58,15.35h0m12.81-39.39v4.14h-.39a17.58,17.58,0,0,0-13.41-5.69c-12.73,0-24.41,11.2-24.41,25.58s11.68,25.36,24.41,25.36c6.08,0,10.9-2.7,13.41-5.79h.39V82.4c0,9.75-5.21,15-13.57,15-6.85,0-11.09-4.93-12.81-9.05l-9.75,4.05a24.28,24.28,0,0,0,22.61,15.09c13.13,0,24.22-7.73,24.22-26.55V35.14Z"/><rect class="cls-1" x="516.46" y="6.81" width="254.57" height="77.52" rx="38.76"/><rect class="cls-1" x="349.43" y="8" width="37.78" height="75.13"/><circle class="cls-1" cx="457.27" cy="45.57" r="38.76"/><path class="cls-2" d="M567.57,28.24v4.95H552.15V42.8H566v5H552.15v9.61h15.42v5H546.91V28.24Z"/><path class="cls-2" d="M569.37,38h6l5.43,8h.14l5.19-8h6.18l-8.52,12,8.57,12.32h-6l-5.52-8.23h-.14l-5.38,8.23h-6L577.75,50Z"/><path class="cls-2" d="M599.35,60.79a7.28,7.28,0,0,1-2-5.52V42.52h-4.24V38h4.24V31.19h5.13V38h5.95v4.48h-5.95V54.18a4,4,0,0,0,.77,2.8,3.12,3.12,0,0,0,2.47.91,4.39,4.39,0,0,0,1.48-.22,6.8,6.8,0,0,0,1.38-.69v5a9.47,9.47,0,0,1-3.86.71,8.78,8.78,0,0,1-3-.5A6,6,0,0,1,599.35,60.79Z"/><path class="cls-2" d="M611.56,56.82a13.48,13.48,0,0,1-1.6-6.59,13.77,13.77,0,0,1,1.55-6.45A12.17,12.17,0,0,1,615.82,39a11.35,11.35,0,0,1,6.23-1.76,12.14,12.14,0,0,1,6.33,1.59,10.51,10.51,0,0,1,4.07,4.41,14,14,0,0,1,1.4,6.37,12.27,12.27,0,0,1-.09,1.62H615a7.79,7.79,0,0,0,2.47,5.36,7.37,7.37,0,0,0,5,1.88,7.28,7.28,0,0,0,4-1.07,8,8,0,0,0,2.66-2.84l4.24,2A12.64,12.64,0,0,1,629,61.36a13.25,13.25,0,0,1-13,0A11.76,11.76,0,0,1,611.56,56.82ZM627.9,44.75a6.08,6.08,0,0,0-2.21-2.21,6.78,6.78,0,0,0-3.59-.88,6.36,6.36,0,0,0-4.36,1.57,8.09,8.09,0,0,0-2.45,4.19h13.47A6.2,6.2,0,0,0,627.9,44.75Z"/><path class="cls-2" d="M642.27,38v3.33h.29a7.87,7.87,0,0,1,3.14-2.95,9.31,9.31,0,0,1,4.52-1.14,8.46,8.46,0,0,1,6.67,2.59A10.43,10.43,0,0,1,659.17,47V62.31h-5.09V47.66a5.72,5.72,0,0,0-1.43-4.26,5.3,5.3,0,0,0-3.9-1.41,5.47,5.47,0,0,0-3.22,1,6.76,6.76,0,0,0-2.18,2.67,8.26,8.26,0,0,0-.79,3.61v13h-5.14V38Z"/><path class="cls-2" d="M664.07,56.84a14.27,14.27,0,0,1-1.53-6.66,14.1,14.1,0,0,1,1.53-6.64A11.55,11.55,0,0,1,668.26,39a11,11,0,0,1,5.94-1.67,9.36,9.36,0,0,1,4.72,1.17A8.29,8.29,0,0,1,682,41.33h.29L682,38V28.24h5.09V62.31h-4.8V59.08H682a8.6,8.6,0,0,1-3.09,2.83,9.36,9.36,0,0,1-4.72,1.17,11,11,0,0,1-5.94-1.65A11.3,11.3,0,0,1,664.07,56.84Zm17.2-2.38a9.41,9.41,0,0,0,0-8.56A7.46,7.46,0,0,0,678.56,43a6.79,6.79,0,0,0-7.19,0,7.53,7.53,0,0,0-2.71,2.88,9.49,9.49,0,0,0,0,8.56,7.53,7.53,0,0,0,2.71,2.88,6.85,6.85,0,0,0,7.19,0A7.46,7.46,0,0,0,681.27,54.46Z"/><path class="cls-2" d="M692,56.82a13.48,13.48,0,0,1-1.6-6.59A13.77,13.77,0,0,1,692,43.78,12.1,12.1,0,0,1,696.29,39a11.35,11.35,0,0,1,6.23-1.76,12.14,12.14,0,0,1,6.33,1.59,10.51,10.51,0,0,1,4.07,4.41,14,14,0,0,1,1.4,6.37,12.27,12.27,0,0,1-.09,1.62H695.48A7.79,7.79,0,0,0,698,56.63a7.76,7.76,0,0,0,9,.81,8.06,8.06,0,0,0,2.66-2.84l4.24,2a12.64,12.64,0,0,1-4.43,4.71,13.25,13.25,0,0,1-13,0A11.69,11.69,0,0,1,692,56.82Zm16.34-12.07a6.08,6.08,0,0,0-2.21-2.21,6.78,6.78,0,0,0-3.59-.88,6.35,6.35,0,0,0-4.36,1.57,8.09,8.09,0,0,0-2.45,4.19h13.47A6.2,6.2,0,0,0,708.37,44.75Z"/><path class="cls-2" d="M718.36,56.84a14.39,14.39,0,0,1-1.52-6.66,14.22,14.22,0,0,1,1.52-6.64A11.63,11.63,0,0,1,722.55,39a11,11,0,0,1,6-1.67,9.3,9.3,0,0,1,4.71,1.17,8.25,8.25,0,0,1,3.1,2.88h.28L736.31,38V28.24h5.09V62.31h-4.81V59.08h-.28a8.56,8.56,0,0,1-3.1,2.83,9.3,9.3,0,0,1-4.71,1.17,11.08,11.08,0,0,1-6-1.65A11.36,11.36,0,0,1,718.36,56.84Zm17.21-2.38a9.49,9.49,0,0,0,0-8.56A7.53,7.53,0,0,0,732.86,43a6.79,6.79,0,0,0-7.19,0A7.46,7.46,0,0,0,723,45.9a9.41,9.41,0,0,0,0,8.56,7.46,7.46,0,0,0,2.71,2.88,6.85,6.85,0,0,0,7.19,0A7.53,7.53,0,0,0,735.57,54.46Z"/><polygon class="cls-1" points="399.59 91.14 392.31 91.14 413.04 0 420.32 0 399.59 91.14"/></g></svg>