<svg width="28" height="28" viewBox="0 0 28 28" fill="none" xmlns="http://www.w3.org/2000/svg">
<path d="M11.6666 17.4999L17.7216 13.9999L11.6666 10.4999V17.4999ZM25.1533 8.36492C25.305 8.91325 25.41 9.64825 25.48 10.5816C25.5616 11.5149 25.5966 12.3199 25.5966 13.0199L25.6666 13.9999C25.6666 16.5549 25.48 18.4333 25.1533 19.6349C24.8616 20.6849 24.185 21.3616 23.135 21.6533C22.5866 21.8049 21.5833 21.9099 20.0433 21.9799C18.5266 22.0616 17.1383 22.0966 15.855 22.0966L14 22.1666C9.11165 22.1666 6.06665 21.9799 4.86498 21.6533C3.81498 21.3616 3.13831 20.6849 2.84665 19.6349C2.69498 19.0866 2.58998 18.3516 2.51998 17.4183C2.43831 16.4849 2.40331 15.6799 2.40331 14.9799L2.33331 13.9999C2.33331 11.4449 2.51998 9.56659 2.84665 8.36492C3.13831 7.31492 3.81498 6.63825 4.86498 6.34659C5.41331 6.19492 6.41665 6.08992 7.95665 6.01992C9.47331 5.93825 10.8616 5.90325 12.145 5.90325L14 5.83325C18.8883 5.83325 21.9333 6.01992 23.135 6.34659C24.185 6.63825 24.8616 7.31492 25.1533 8.36492Z" fill="black"/>
</svg>
